<svg width="24" height="24" viewBox="0 0 24 24" fill="none" xmlns="http://www.w3.org/2000/svg">
<path fill-rule="evenodd" clip-rule="evenodd" d="M16.115 6.75364L16.1131 6.75077C16.0313 6.62837 15.9163 6.57707 15.8162 6.57694L15.8158 6.57693L5.39618 6.58693L5.39474 6.58694C5.24692 6.58694 5 6.73793 5 7.07693V17.0769C5 17.4159 5.24692 17.5669 5.39474 17.5669H5.39618L15.8158 17.5769H15.8161C15.9163 17.5768 16.0312 17.5255 16.1131 17.4031L16.115 17.4002L19.6927 12.0769L16.115 6.75364ZM21.5 12.0769L17.36 18.2369C17.0189 18.7469 16.4505 19.0769 15.8158 19.0769L5.39474 19.0669C4.35263 19.0669 3.5 18.1769 3.5 17.0769V7.07693C3.5 5.97693 4.35263 5.08694 5.39474 5.08694L15.8158 5.07693C16.4505 5.07693 17.0189 5.40693 17.36 5.91693L21.5 12.0769ZM10.5 11.25V9H12V11.25H14.5V12.75H12V15H10.5V12.75H8.5V11.25H10.5Z" fill="#0C0C0C"/>
</svg>
