<svg width="24" height="24" viewBox="0 0 24 24" fill="none" xmlns="http://www.w3.org/2000/svg">
<path d="M17.25 12C17.25 12.4142 16.9142 12.75 16.5 12.75H12.75V16.5703C12.75 16.9845 12.4142 17.3203 12 17.3203C11.5858 17.3203 11.25 16.9845 11.25 16.5703V12.75H7.5C7.08579 12.75 6.75 12.4142 6.75 12C6.75 11.5858 7.08579 11.25 7.5 11.25H11.25V7.57031C11.25 7.1561 11.5858 6.82031 12 6.82031C12.4142 6.82031 12.75 7.1561 12.75 7.57031V11.25H16.5C16.9142 11.25 17.25 11.5858 17.25 12Z" fill="#0C0C0C"/>
<path fill-rule="evenodd" clip-rule="evenodd" d="M12 22C17.5228 22 22 17.5228 22 12C22 6.47715 17.5228 2 12 2C6.47715 2 2 6.47715 2 12C2 17.5228 6.47715 22 12 22ZM12 20.5C16.6944 20.5 20.5 16.6944 20.5 12C20.5 7.30558 16.6944 3.5 12 3.5C7.30558 3.5 3.5 7.30558 3.5 12C3.5 16.6944 7.30558 20.5 12 20.5Z" fill="#0C0C0C"/>
</svg>
