<svg width="24" height="24" viewBox="0 0 24 24" fill="none" xmlns="http://www.w3.org/2000/svg">
<path fill-rule="evenodd" clip-rule="evenodd" d="M6.65151 3.4376C5.50566 4.10458 4.75 5.05377 4.75 6V16C4.75 16.7549 5.06242 17.8565 6.18687 18.7511C7.28921 19.6281 9.09242 20.2436 11.9555 20.25C11.6554 19.785 11.4177 19.2758 11.2545 18.7344C9.02933 18.6381 7.79355 18.1126 7.12075 17.5773C6.39265 16.998 6.25 16.3496 6.25 16V13.8005C7.2638 14.5791 8.8483 15.1415 11.2635 15.236C11.4264 14.7056 11.6609 14.2065 11.9556 13.7499C9.28335 13.7436 7.86116 13.1664 7.12075 12.5773C6.39265 11.998 6.25 11.3496 6.25 11V8.80048C7.36345 9.65562 9.16528 10.25 12 10.25C14.8347 10.25 16.6365 9.65562 17.75 8.80048V11C17.75 11.0149 17.7497 11.0304 17.7492 11.0463C18.2735 11.1116 18.7767 11.2446 19.25 11.4361V6C19.25 5.05377 18.4943 4.10458 17.3485 3.4376C16.1562 2.74359 14.3931 2.25 12 2.25C9.60692 2.25 7.84379 2.74359 6.65151 3.4376ZM7.40611 4.73397C6.44941 5.29085 6.25 5.84166 6.25 6C6.25 6.34962 6.39265 6.99804 7.12075 7.5773C7.86525 8.16962 9.29908 8.75 12 8.75C14.7009 8.75 16.1348 8.16962 16.8793 7.5773C17.6074 6.99804 17.75 6.34962 17.75 6C17.75 5.84166 17.5506 5.29085 16.5939 4.73397C15.6836 4.20413 14.1968 3.75 12 3.75C9.80323 3.75 8.31635 4.20413 7.40611 4.73397Z" fill="#0C0C0C"/>
<path fill-rule="evenodd" clip-rule="evenodd" d="M22 17C22 19.7614 19.7614 22 17 22C14.2386 22 12 19.7614 12 17C12 14.2386 14.2386 12 17 12C19.7614 12 22 14.2386 22 17ZM17 14.3571C17.2761 14.3571 17.5 14.581 17.5 14.8571V16.5L19.1429 16.5C19.419 16.5 19.6429 16.7239 19.6429 17C19.6429 17.2761 19.419 17.5 19.1429 17.5L17.5 17.5V19.1429C17.5 19.419 17.2761 19.6429 17 19.6429C16.7239 19.6429 16.5 19.419 16.5 19.1429V17.5H14.8572C14.581 17.5 14.3572 17.2761 14.3572 17C14.3572 16.7239 14.581 16.5 14.8572 16.5H16.5V14.8571C16.5 14.581 16.7239 14.3571 17 14.3571Z" fill="#0C0C0C"/>
</svg>
