<svg width="24" height="24" viewBox="0 0 24 24" fill="none" xmlns="http://www.w3.org/2000/svg">
<path d="M12.75 20.4853C12.75 20.8995 12.4142 21.2353 12 21.2353C11.5858 21.2353 11.25 20.8995 11.25 20.4853V12.75L3.51471 12.75C3.1005 12.75 2.76471 12.4142 2.76471 12C2.76471 11.5858 3.1005 11.25 3.51471 11.25L11.25 11.25L11.25 3.51472C11.25 3.1005 11.5858 2.76472 12 2.76472C12.4142 2.76472 12.75 3.1005 12.75 3.51472L12.75 11.25L20.4853 11.25C20.8995 11.25 21.2353 11.5858 21.2353 12C21.2353 12.4142 20.8995 12.75 20.4853 12.75L12.75 12.75V20.4853Z" fill="#0C0C0C"/>
</svg>
