<svg width="24" height="24" viewBox="0 0 24 24" fill="none" xmlns="http://www.w3.org/2000/svg">
<path fill-rule="evenodd" clip-rule="evenodd" d="M8.25 7C8.25 4.92893 9.92893 3.25 12 3.25C14.0711 3.25 15.75 4.92893 15.75 7C15.75 9.07107 14.0711 10.75 12 10.75C9.92893 10.75 8.25 9.07107 8.25 7ZM12 1.75C9.1005 1.75 6.75 4.10051 6.75 7C6.75 8.60732 7.4723 10.0459 8.61002 11.009L6.364 14.6026C6.3191 14.6744 6.28786 14.7509 6.26956 14.829C6.02117 14.7772 5.76377 14.75 5.5 14.75C3.42893 14.75 1.75 16.4289 1.75 18.5C1.75 20.5711 3.42893 22.25 5.5 22.25C7.57107 22.25 9.25 20.5711 9.25 18.5C9.25 17.2188 8.60754 16.0877 7.62722 15.4113L7.636 15.3976L9.88138 11.805C10.5294 12.0911 11.2461 12.25 12 12.25C12.7539 12.25 13.4707 12.0911 14.1187 11.805L16.364 15.3975C16.3669 15.4021 16.3699 15.4067 16.3728 15.4113C15.3925 16.0877 14.75 17.2188 14.75 18.5C14.75 20.5711 16.4289 22.25 18.5 22.25C20.5711 22.25 22.25 20.5711 22.25 18.5C22.25 16.4289 20.5711 14.75 18.5 14.75C18.2362 14.75 17.9788 14.7772 17.7305 14.829C17.7122 14.7509 17.6809 14.6743 17.636 14.6025L15.39 11.0089C16.5277 10.0459 17.25 8.6073 17.25 7C17.25 4.10051 14.8995 1.75 12 1.75ZM5.5 16.25C4.25736 16.25 3.25 17.2574 3.25 18.5C3.25 19.7426 4.25736 20.75 5.5 20.75C6.74264 20.75 7.75 19.7426 7.75 18.5C7.75 17.2574 6.74264 16.25 5.5 16.25ZM18.5 16.25C17.2574 16.25 16.25 17.2574 16.25 18.5C16.25 19.7426 17.2574 20.75 18.5 20.75C19.7426 20.75 20.75 19.7426 20.75 18.5C20.75 17.2574 19.7426 16.25 18.5 16.25Z" fill="#0C0C0C"/>
</svg>
