<svg width="24" height="24" viewBox="0 0 24 24" fill="none" xmlns="http://www.w3.org/2000/svg">
<path fill-rule="evenodd" clip-rule="evenodd" d="M2.75 5C2.75 4.30964 3.30964 3.75 4 3.75H20C20.6904 3.75 21.25 4.30964 21.25 5V8C21.25 8.69036 20.6904 9.25 20 9.25H4C3.30965 9.25 2.75 8.69036 2.75 8V5ZM4.25 5.25V7.75H19.75V5.25H4.25Z" fill="#0C0C0C"/>
<path d="M5 11.75C5.41421 11.75 5.75 12.0858 5.75 12.5V18.5C5.75 18.6388 5.86191 18.75 5.99922 18.75H18.0033C18.1381 18.75 18.25 18.6413 18.25 18.5V12.5C18.25 12.0858 18.5858 11.75 19 11.75C19.4142 11.75 19.75 12.0858 19.75 12.5V18.5C19.75 19.4632 18.9731 20.25 18.0033 20.25H5.99922C5.03196 20.25 4.25 19.4657 4.25 18.5V12.5C4.25 12.0858 4.58579 11.75 5 11.75Z" fill="#0C0C0C"/>
<path d="M10 11.75C9.58579 11.75 9.25 12.0858 9.25 12.5C9.25 12.9142 9.58579 13.25 10 13.25H14C14.4142 13.25 14.75 12.9142 14.75 12.5C14.75 12.0858 14.4142 11.75 14 11.75H10Z" fill="#0C0C0C"/>
</svg>
