<svg width="24" height="24" viewBox="0 0 24 24" fill="none" xmlns="http://www.w3.org/2000/svg">
<path fill-rule="evenodd" clip-rule="evenodd" d="M11.25 4.31064L15.4697 8.53031C15.7626 8.8232 16.2374 8.8232 16.5303 8.53031C16.8232 8.23742 16.8232 7.76254 16.5303 7.46965L11.0303 1.96964C10.8897 1.82899 10.6989 1.74997 10.5 1.74997C10.3011 1.74997 10.1103 1.82899 9.96967 1.96964L4.46967 7.46964C4.17678 7.76254 4.17678 8.23741 4.46967 8.5303C4.76256 8.8232 5.23744 8.8232 5.53033 8.5303L9.75 4.31063V17.5C9.75 19.0188 10.9812 20.25 12.5 20.25H19.5C19.9142 20.25 20.25 19.9142 20.25 19.5C20.25 19.0858 19.9142 18.75 19.5 18.75L12.5 18.75C11.8096 18.75 11.25 18.1904 11.25 17.5V4.31064Z" fill="#0C0C0C"/>
</svg>
