<svg width="24" height="24" viewBox="0 0 24 24" fill="none" xmlns="http://www.w3.org/2000/svg">
<path d="M14.9592 16.0197C15.2461 16.3184 15.7209 16.3279 16.0196 16.0409C16.3183 15.7539 16.3278 15.2792 16.0408 14.9805L14.9592 16.0197ZM4.95918 12.0196C5.24616 12.3183 5.72094 12.3278 6.01963 12.0408C6.31831 11.7538 6.3278 11.2791 6.04082 10.9804L4.95918 12.0196ZM19 13L18.4697 13.5303L19 13ZM13 19L13.5303 18.4697L13 19ZM12.5023 12.4761L11.9748 13.0093L12.5023 12.4761ZM16.0408 14.9805C15.1218 14.0239 13.9482 12.8515 13.0297 11.9429L11.9748 13.0093C12.8914 13.916 14.0539 15.0775 14.9592 16.0197L16.0408 14.9805ZM8.9797 16.0404L12.4697 19.5303L13.5303 18.4697L10.0404 14.9797L8.9797 16.0404ZM19.5303 12.4697L11.9112 4.85054L10.8505 5.9112L18.4697 13.5303L19.5303 12.4697ZM4.07524 11.03C4.35011 11.3594 4.64587 11.6935 4.95918 12.0196L6.04082 10.9804C5.7551 10.683 5.48267 10.3754 5.22692 10.069L4.07524 11.03ZM4.89001 4.53205C2.97449 6.12831 2.37459 8.99203 4.07524 11.03L5.22692 10.069C4.15746 8.78737 4.44436 6.85598 5.85028 5.68438L4.89001 4.53205ZM11.9112 4.85054C10.0053 2.94466 6.96061 2.80654 4.89001 4.53205L5.85028 5.68438C7.3249 4.45554 9.49324 4.5539 10.8505 5.9112L11.9112 4.85054ZM19.5303 19.5303C21.4801 17.5806 21.4801 14.4194 19.5303 12.4697L18.4697 13.5303C19.8336 14.8943 19.8336 17.1057 18.4697 18.4697L19.5303 19.5303ZM12.4697 19.5303C14.4194 21.4801 17.5806 21.4801 19.5303 19.5303L18.4697 18.4697C17.1057 19.8336 14.8943 19.8336 13.5303 18.4697L12.4697 19.5303ZM8.97971 11.9596C7.85284 13.0865 7.85284 14.9135 8.9797 16.0404L10.0404 14.9797C9.49929 14.4386 9.49929 13.5614 10.0404 13.0203L8.97971 11.9596ZM13.0297 11.9429C11.9032 10.8285 10.0949 10.8444 8.97971 11.9596L10.0404 13.0203C10.5773 12.4833 11.4403 12.4805 11.9748 13.0093L13.0297 11.9429Z" fill="#0C0C0C"/>
</svg>
