<svg width="24" height="24" viewBox="0 0 24 24" fill="none" xmlns="http://www.w3.org/2000/svg">
<path d="M7.49754 10.4907C7.47431 11.2213 7.83943 11.5448 7.84846 11.7503C7.84416 11.7921 7.82992 11.8323 7.80691 11.8675C7.7839 11.9026 7.75281 11.9318 7.71622 11.9525L7.30336 12.2415C7.24994 12.279 7.18695 12.3004 7.12177 12.3034C7.1079 12.3028 6.85761 12.3625 6.4612 11.4774C6.21936 11.7793 5.91164 12.0218 5.56161 12.1865C5.21159 12.3511 4.82853 12.4335 4.44176 12.4273C3.91666 12.456 2.4936 12.1293 2.56682 10.6143C2.51553 9.37958 3.6654 8.61257 4.85462 8.6774C5.08362 8.67805 5.55131 8.68934 6.37025 8.87964V8.37582C6.45701 7.52237 5.89611 6.86019 4.92493 6.95954C4.84752 6.95986 4.2992 6.94341 3.44639 7.28563C3.209 7.39465 3.17868 7.37658 3.09966 7.37658C2.86065 7.37658 2.95903 6.68376 3.00483 6.59603C3.17288 6.3896 4.16147 6.00416 5.13168 6.00964C5.7804 5.95227 6.42563 6.15248 6.92792 6.567C7.1321 6.79539 7.28788 7.06279 7.38583 7.35306C7.48379 7.64332 7.5219 7.95043 7.49786 8.25584L7.49754 10.4907V10.4907ZM4.71012 11.5355C5.75612 11.5203 6.19898 10.8913 6.29993 10.5527C6.37928 10.2285 6.36605 10.0234 6.36605 9.6689C6.05415 9.59407 5.60517 9.51247 5.09007 9.51182C4.60142 9.47505 3.70894 9.69341 3.74378 10.5523C3.70378 11.0939 4.10244 11.5651 4.71012 11.5355V11.5355ZM10.223 12.2789C9.96951 12.3021 9.85146 12.1222 9.81404 11.9444L8.20778 6.63377C8.17649 6.5441 8.15585 6.45153 8.14585 6.35702C8.13992 6.31806 8.14971 6.27834 8.17305 6.24659C8.1964 6.21484 8.23139 6.19365 8.27035 6.18769C8.27809 6.1864 8.20165 6.18769 8.98801 6.18769C9.2712 6.1593 9.36345 6.38218 9.3928 6.52217L10.5449 11.0645L11.6145 6.52217C11.6316 6.41831 11.7093 6.16511 12.0273 6.19188H12.5808C12.6508 6.18608 12.9392 6.17575 12.9898 6.52636L14.0677 11.1268L15.257 6.52636C15.2724 6.45604 15.3447 6.15963 15.6659 6.19188H16.302C16.3294 6.18769 16.5004 6.16576 16.4713 6.46862C16.4575 6.52829 16.5813 6.12479 14.7699 11.9486C14.7328 12.1264 14.6145 12.3063 14.3609 12.2831H13.7581C13.4052 12.3202 13.3546 11.9715 13.3491 11.9364L12.2796 7.51334L11.2223 11.9319C11.2171 11.967 11.1665 12.3157 10.8133 12.2786H10.223V12.2789ZM19.0439 12.4605C18.8543 12.4608 17.9499 12.4508 17.1938 12.0641C17.1185 12.0322 17.0544 11.9787 17.0095 11.9103C16.9647 11.8419 16.9412 11.7617 16.9419 11.68V11.3332C16.9419 11.0607 17.1419 11.1107 17.2267 11.1432C17.5506 11.2742 17.7583 11.3735 18.156 11.4529C19.3381 11.6958 19.858 11.3787 19.9854 11.3084C20.4096 11.0565 20.4431 10.4801 20.1548 10.1811C19.8168 9.89758 19.6555 9.88694 18.4411 9.50376C18.2914 9.46215 17.0316 9.06478 17.0287 7.81492C17.009 6.90406 17.8367 6.00287 19.271 6.01029C19.6797 6.00997 20.7686 6.1435 21.0634 6.5141C21.1069 6.58151 21.1285 6.66086 21.1253 6.74117V7.06726C21.1253 7.21047 21.0731 7.28208 20.9682 7.28208C20.7196 7.25434 20.2783 6.9218 19.3826 6.93534C19.1604 6.92373 18.096 6.9647 18.1437 7.74074C18.1299 8.35228 19.002 8.58161 19.1017 8.60806C20.2777 8.96189 20.6708 9.02059 21.1376 9.56214C21.6904 10.2798 21.3924 11.12 21.2779 11.3503C20.6625 12.5595 19.071 12.4612 19.0439 12.4605V12.4605ZM20.3406 15.8427C18.0818 17.5109 14.8028 18.3989 12.0031 18.3989C8.22553 18.4238 4.57523 17.0347 1.76981 14.5048C1.55919 14.3148 1.74498 14.0545 2.00108 14.1993C5.11312 15.9795 8.63661 16.9149 12.2218 16.9126C14.8992 16.8982 17.5473 16.3551 20.0142 15.3144C20.3941 15.1531 20.7163 15.566 20.3406 15.8427V15.8427ZM21.2821 14.769C20.9931 14.3974 19.37 14.5954 18.6433 14.6822C18.4243 14.707 18.3872 14.5171 18.5856 14.3767C19.878 13.4681 22.0007 13.7284 22.2445 14.0339C22.4881 14.3393 22.1784 16.4662 20.9686 17.4822C20.7828 17.6393 20.605 17.5564 20.6876 17.35C20.9598 16.6645 21.5711 15.1409 21.2821 14.769Z" fill="#0C0C0C"/>
</svg>
