<svg width="24" height="24" viewBox="0 0 24 24" fill="none" xmlns="http://www.w3.org/2000/svg">
<path d="M7.4976 10.4907C7.47437 11.2213 7.83949 11.5448 7.84852 11.7503C7.84422 11.7921 7.82998 11.8323 7.80697 11.8675C7.78396 11.9026 7.75287 11.9318 7.71628 11.9525L7.30343 12.2415C7.25 12.279 7.18701 12.3004 7.12183 12.3034C7.10796 12.3028 6.85767 12.3625 6.46127 11.4774C6.21942 11.7793 5.9117 12.0218 5.56167 12.1865C5.21165 12.3511 4.82859 12.4335 4.44182 12.4273C3.91672 12.456 2.49366 12.1293 2.56688 10.6143C2.51559 9.37958 3.66546 8.61257 4.85468 8.6774C5.08368 8.67805 5.55137 8.68934 6.37031 8.87964V8.37582C6.45707 7.52237 5.89617 6.86019 4.92499 6.95954C4.84758 6.95986 4.29926 6.94341 3.44645 7.28563C3.20906 7.39465 3.17874 7.37658 3.09972 7.37658C2.86071 7.37658 2.95909 6.68376 3.00489 6.59603C3.17294 6.3896 4.16153 6.00416 5.13174 6.00964C5.78046 5.95227 6.42569 6.15248 6.92799 6.567C7.13217 6.79539 7.28794 7.06279 7.38589 7.35306C7.48385 7.64332 7.52196 7.95043 7.49792 8.25584L7.4976 10.4907ZM4.71018 11.5355C5.75619 11.5203 6.19904 10.8913 6.29999 10.5527C6.37934 10.2285 6.36612 10.0234 6.36612 9.6689C6.05422 9.59407 5.60524 9.51247 5.09013 9.51182C4.60148 9.47505 3.709 9.69341 3.74384 10.5523C3.70384 11.0939 4.10251 11.5651 4.71018 11.5355ZM10.2231 12.2789C9.96957 12.3021 9.85152 12.1222 9.8141 11.9444L8.20784 6.63377C8.17655 6.5441 8.15591 6.45153 8.14591 6.35702C8.13998 6.31806 8.14977 6.27834 8.17311 6.24659C8.19646 6.21484 8.23145 6.19365 8.27041 6.18769C8.27815 6.1864 8.20171 6.18769 8.98807 6.18769C9.27126 6.1593 9.36351 6.38218 9.39286 6.52217L10.545 11.0645L11.6145 6.52217C11.6316 6.41831 11.7094 6.16511 12.0274 6.19188H12.5809C12.6509 6.18608 12.9392 6.17575 12.9899 6.52636L14.0678 11.1268L15.257 6.52636C15.2725 6.45604 15.3448 6.15963 15.666 6.19188H16.3021C16.3295 6.18769 16.5004 6.16576 16.4714 6.46862C16.4575 6.52829 16.5814 6.12479 14.77 11.9486C14.7329 12.1264 14.6145 12.3063 14.361 12.2831H13.7582C13.4053 12.3202 13.3547 11.9715 13.3492 11.9364L12.2796 7.51334L11.2223 11.9319C11.2172 11.967 11.1665 12.3157 10.8133 12.2786H10.2231V12.2789ZM19.044 12.4605C18.8543 12.4608 17.9499 12.4508 17.1939 12.0641C17.1186 12.0322 17.0544 11.9787 17.0096 11.9103C16.9647 11.8419 16.9412 11.7617 16.942 11.68V11.3332C16.942 11.0607 17.142 11.1107 17.2268 11.1432C17.5506 11.2742 17.7583 11.3735 18.156 11.4529C19.3382 11.6958 19.8581 11.3787 19.9855 11.3084C20.4097 11.0565 20.4432 10.4801 20.1548 10.1811C19.8168 9.89758 19.6555 9.88694 18.4412 9.50376C18.2915 9.46215 17.0317 9.06478 17.0288 7.81492C17.0091 6.90406 17.8367 6.00287 19.2711 6.01029C19.6797 6.00997 20.7686 6.1435 21.0634 6.5141C21.107 6.58151 21.1286 6.66086 21.1254 6.74117V7.06726C21.1254 7.21047 21.0731 7.28208 20.9683 7.28208C20.7196 7.25434 20.2784 6.9218 19.3827 6.93534C19.1604 6.92373 18.096 6.9647 18.1438 7.74074C18.1299 8.35228 19.0021 8.58161 19.1017 8.60806C20.2777 8.96189 20.6709 9.02059 21.1376 9.56214C21.6905 10.2798 21.3924 11.12 21.2779 11.3503C20.6625 12.5595 19.0711 12.4612 19.044 12.4605ZM20.3406 15.8427C18.0819 17.5109 14.8029 18.3989 12.0032 18.3989C8.22559 18.4238 4.57529 17.0347 1.76987 14.5048C1.55925 14.3148 1.74504 14.0545 2.00114 14.1993C5.11318 15.9795 8.63667 16.9149 12.2219 16.9126C14.8992 16.8982 17.5474 16.3551 20.0142 15.3144C20.3942 15.1531 20.7164 15.566 20.3406 15.8427ZM21.2821 14.769C20.9931 14.3974 19.3701 14.5954 18.6434 14.6822C18.4244 14.707 18.3873 14.5171 18.5857 14.3767C19.8781 13.4681 22.0008 13.7284 22.2446 14.0339C22.4881 14.3393 22.1785 16.4662 20.9686 17.4822C20.7828 17.6393 20.6051 17.5564 20.6877 17.35C20.9599 16.6645 21.5711 15.1409 21.2821 14.769Z" fill="#0C0C0C"/>
</svg>
