<svg width="16" height="16" viewBox="0 0 16 16" fill="none" xmlns="http://www.w3.org/2000/svg">
<path d="M5.86181 1.95433H9.65902L5.71714 13.6337C5.67663 13.7537 5.5995 13.858 5.49661 13.9319C5.39371 14.0057 5.27025 14.0455 5.14358 14.0455H2.18841C2.09244 14.0455 1.99784 14.0227 1.91245 13.9789C1.82706 13.9351 1.75332 13.8716 1.69734 13.7936C1.64136 13.7157 1.60475 13.6255 1.59053 13.5306C1.57631 13.4357 1.5849 13.3388 1.61558 13.2478L5.2881 2.36617C5.3286 2.2461 5.40574 2.14177 5.50866 2.06786C5.61158 1.99395 5.7351 1.95434 5.86181 1.95433Z" fill="url(#paint0_linear_2407_4291)"/>
<path d="M11.3797 9.78806H5.35825C5.30226 9.788 5.24756 9.8048 5.20126 9.83627C5.15497 9.86774 5.11922 9.91243 5.09868 9.96451C5.07814 10.0166 5.07377 10.0736 5.08612 10.1282C5.09847 10.1828 5.12698 10.2325 5.16793 10.2706L9.03718 13.882C9.14984 13.9871 9.29817 14.0456 9.45222 14.0455H12.8618L11.3797 9.78806Z" fill="#0078D4"/>
<path d="M5.86181 1.95433C5.73371 1.95384 5.60882 1.99432 5.50537 2.06986C5.40192 2.14539 5.32533 2.25203 5.28679 2.37419L1.6201 13.2379C1.58736 13.3292 1.57708 13.427 1.59013 13.5231C1.60318 13.6191 1.63919 13.7107 1.69509 13.7899C1.751 13.8691 1.82516 13.9337 1.91131 13.9782C1.99746 14.0227 2.09305 14.0458 2.19002 14.0455H5.22145C5.33436 14.0254 5.43988 13.9756 5.52725 13.9013C5.61462 13.827 5.6807 13.7308 5.71875 13.6226L6.44995 11.4676L9.06183 13.9038C9.17128 13.9943 9.30858 14.0444 9.45062 14.0455H12.8475L11.3577 9.78806L7.01462 9.78909L9.67272 1.95434L5.86181 1.95433Z" fill="#0C0C0C"/>
<path d="M10.7118 2.36559C10.6713 2.24572 10.5943 2.14155 10.4916 2.06778C10.3888 1.994 10.2655 1.95432 10.139 1.95434H5.90702C6.03352 1.95434 6.15683 1.99403 6.25959 2.0678C6.36236 2.14158 6.43939 2.24573 6.47985 2.36559L10.1525 13.2477C10.1832 13.3386 10.1918 13.4356 10.1776 13.5305C10.1634 13.6255 10.1268 13.7156 10.0708 13.7936C10.0148 13.8716 9.9411 13.9351 9.8557 13.979C9.77029 14.0228 9.67568 14.0457 9.57968 14.0457H13.8118C13.9077 14.0456 14.0023 14.0228 14.0877 13.9789C14.1731 13.9351 14.2468 13.8715 14.3028 13.7936C14.3588 13.7156 14.3954 13.6254 14.4096 13.5305C14.4238 13.4356 14.4152 13.3386 14.3845 13.2477L10.7118 2.36559Z" fill="#0C0C0C"/>
<defs>
<linearGradient id="paint0_linear_2407_4291" x1="10.5813" y1="2.85048" x2="7.93544" y2="15.2718" gradientUnits="userSpaceOnUse">
<stop stop-color="#114A8B"/>
<stop offset="1" stop-color="#0669BC"/>
</linearGradient>
</defs>
</svg>
