<svg width="24" height="24" viewBox="0 0 24 24" fill="none" xmlns="http://www.w3.org/2000/svg">
<path d="M6 4C6 2.89543 6.89543 2 8 2C9.10457 2 10 2.89543 10 4V6.5C10 7.60457 9.10457 8.5 8 8.5C6.89543 8.5 6 7.60457 6 6.5V4Z" stroke="#0C0C0C" stroke-width="1.5"/>
<path d="M14 16.5C14 15.3954 14.8954 14.5 16 14.5C17.1046 14.5 18 15.3954 18 16.5V19C18 20.1046 17.1046 21 16 21C14.8954 21 14 20.1046 14 19V16.5Z" stroke="#0C0C0C" stroke-width="1.5"/>
<path d="M6 11.5C6 10.3954 6.89543 9.5 8 9.5C9.10457 9.5 10 10.3954 10 11.5V19C10 20.1046 9.10457 21 8 21C6.89543 21 6 20.1046 6 19V11.5Z" stroke="#0C0C0C" stroke-width="1.5"/>
<path d="M14 4C14 2.89543 14.8954 2 16 2C17.1046 2 18 2.89543 18 4V11.5C18 12.6046 17.1046 13.5 16 13.5C14.8954 13.5 14 12.6046 14 11.5V4Z" stroke="#0C0C0C" stroke-width="1.5"/>
</svg>
