<svg width="24" height="24" viewBox="0 0 24 24" fill="none" xmlns="http://www.w3.org/2000/svg">
<path d="M19.8919 5.79824L13.2734 1.86651C12.487 1.39142 11.5041 1.39142 10.7177 1.86651L4.09918 5.79824C3.31282 6.27332 2.82135 7.14158 2.82135 8.07537V15.9388C2.82135 16.8726 3.31282 17.7409 4.09918 18.216L10.7177 22.1477C11.1109 22.377 11.5532 22.4917 11.9955 22.4917C12.4379 22.4917 12.8802 22.377 13.2734 22.1477L19.8919 18.216C20.6783 17.7409 21.1697 16.8726 21.1697 15.9388V8.07537C21.1697 7.14158 20.6947 6.27332 19.8919 5.79824Z" fill="white"/>
<path d="M19.8901 5.80152L13.2716 1.86978C12.8784 1.64043 12.436 1.52576 11.9937 1.52576C11.5514 1.52576 11.1091 1.64043 10.7159 1.86978L4.09735 5.80152C3.31099 6.2766 2.81952 7.14486 2.81952 8.07865V15.9421C2.81952 16.8759 3.31099 17.7442 4.09735 18.2192L10.7159 22.151C11.1091 22.3803 11.5514 22.495 11.9937 22.495C12.436 22.495 12.8784 22.3803 13.2716 22.151L19.8901 18.2192C20.6764 17.7442 21.1679 16.8759 21.1679 15.9421V8.07865C21.1679 7.14486 20.6928 6.2766 19.8901 5.80152ZM10.9452 21.7414L4.32671 17.8097C3.67141 17.4329 3.27823 16.7121 3.27823 15.9421V8.07865C3.27823 7.30868 3.68779 6.58786 4.32671 6.21107L10.9452 2.27934C11.2565 2.08275 11.6169 1.98446 11.9937 1.98446C12.3541 1.98446 12.7145 2.08275 13.0422 2.27934L19.6607 6.21107C20.2013 6.53872 20.5781 7.09571 20.6764 7.71824C20.4635 7.24315 19.9556 7.12848 19.3822 7.45612L13.1241 11.3387C12.3377 11.7974 11.7644 12.3053 11.7644 13.2554V20.9715C11.7644 21.5285 11.9937 21.9052 12.3377 22.0035C12.2231 22.0199 12.1084 22.0363 11.9937 22.0363C11.6333 22.0363 11.2729 21.9216 10.9452 21.7414Z" fill="#283037"/>
<path d="M18.1545 16.6929L16.4998 17.6758C16.4507 17.7086 16.4179 17.725 16.4179 17.7905V18.2165C16.4179 18.2656 16.4507 18.2984 16.4998 18.2656L18.1708 17.2499C18.22 17.2171 18.22 17.168 18.22 17.1188V16.7421C18.2364 16.6929 18.2036 16.6765 18.1545 16.6929Z" fill="#4DA825"/>
<path d="M14.6482 13.0725C14.6973 13.0397 14.7465 13.0725 14.7465 13.1544V13.7278C14.9922 13.6295 15.1888 13.6131 15.3854 13.6458C15.4182 13.6622 15.4509 13.7114 15.4345 13.7769L15.3035 14.2847C15.2871 14.3175 15.2707 14.3667 15.2543 14.383C15.238 14.3994 15.238 14.3994 15.2216 14.3994C15.2052 14.4158 15.1888 14.4158 15.1724 14.3994C15.0905 14.383 14.8775 14.3339 14.5663 14.4977C14.2222 14.6615 14.1076 14.9564 14.1076 15.1694C14.1076 15.4315 14.2386 15.5134 14.6973 15.5134C15.3035 15.5298 15.5656 15.7919 15.582 16.4144C15.582 17.0206 15.2707 17.6759 14.7792 18.069L14.7956 18.626C14.7956 18.6916 14.7465 18.7735 14.6973 18.8062L14.3697 19.0028C14.3205 19.0356 14.2714 19.0028 14.2714 18.9209V18.3639C13.9929 18.4786 13.698 18.5114 13.5014 18.4294C13.4686 18.4131 13.4523 18.3639 13.4686 18.2984L13.5833 17.7905C13.5997 17.7578 13.6161 17.7086 13.6489 17.6922C13.6652 17.6759 13.6652 17.6759 13.6816 17.6759C13.698 17.6595 13.7144 17.6595 13.7308 17.6759C13.9274 17.7414 14.1895 17.7086 14.4352 17.594C14.7465 17.4301 14.9595 17.1189 14.9595 16.8076C14.9595 16.5127 14.7956 16.3981 14.4188 16.3981C13.9437 16.3981 13.485 16.2998 13.485 15.5953C13.485 15.0056 13.7799 14.3994 14.255 14.0226V13.4493C14.255 13.3837 14.3042 13.3018 14.3533 13.269L14.6482 13.0725Z" fill="white"/>
</svg>
