<svg width="24" height="24" viewBox="0 0 24 24" fill="none" xmlns="http://www.w3.org/2000/svg">
<path fill-rule="evenodd" clip-rule="evenodd" d="M6.13119 18.7721C5.71327 19.2865 4.95751 19.3647 4.44314 18.9468C3.92878 18.5288 3.8506 17.7731 4.26852 17.2587L8.45369 12.1077L4.26852 6.95675C3.8506 6.44239 3.92878 5.68662 4.44314 5.2687C4.95751 4.85078 5.71327 4.92896 6.13119 5.44333L10.9312 11.351C11.2894 11.7919 11.2894 12.4236 10.9312 12.8644L6.13119 18.7721ZM18.2687 18.7721C18.6866 19.2865 19.4424 19.3647 19.9567 18.9468C20.4711 18.5288 20.5493 17.7731 20.1313 17.2587L15.9462 12.1077L20.1313 6.95675C20.5493 6.44239 20.4711 5.68662 19.9567 5.2687C19.4424 4.85078 18.6866 4.92896 18.2687 5.44333L13.4687 11.351C13.1105 11.7919 13.1105 12.4236 13.4687 12.8644L18.2687 18.7721Z" fill="#0C0C0C"/>
</svg>
