<svg width="24" height="24" viewBox="0 0 24 24" fill="none" xmlns="http://www.w3.org/2000/svg">
<path fill-rule="evenodd" clip-rule="evenodd" d="M9.25 5.5V4.5C9.25 4.36193 9.36193 4.25 9.5 4.25H14.5C14.6381 4.25 14.75 4.36193 14.75 4.5V5.5H9.25ZM7.75 5.5V4.5C7.75 3.5335 8.5335 2.75 9.5 2.75H14.5C15.4665 2.75 16.25 3.5335 16.25 4.5V5.5H19.75C20.1642 5.5 20.5 5.83579 20.5 6.25C20.5 6.66421 20.1642 7 19.75 7H18.75V18C18.75 20.0711 17.0711 21.75 15 21.75H9C6.92893 21.75 5.25 20.0711 5.25 18V7H4.25C3.83579 7 3.5 6.66421 3.5 6.25C3.5 5.83579 3.83579 5.5 4.25 5.5H7.75ZM6.75 7V18C6.75 19.2426 7.75736 20.25 9 20.25H15C16.2426 20.25 17.25 19.2426 17.25 18V7H6.75Z" fill="#0C0C0C"/>
</svg>
