<svg width="24" height="24" viewBox="0 0 24 24" fill="none" xmlns="http://www.w3.org/2000/svg">
<path d="M3.58388 4.00005C3.49975 3.99897 3.41641 4.01613 3.3397 4.0503C3.26299 4.08447 3.19477 4.13484 3.13984 4.19786C3.08491 4.26088 3.04459 4.33503 3.02171 4.4151C2.99884 4.49518 2.99397 4.57923 3.00743 4.66137L5.45733 19.3529C5.48782 19.5327 5.58139 19.6961 5.72159 19.8144C5.8618 19.9328 6.03969 19.9984 6.22401 20H17.9662C18.1044 20.0017 18.2386 19.9543 18.3444 19.8664C18.4502 19.7785 18.5206 19.656 18.5427 19.5211L20.9926 4.66707C21.006 4.58493 21.0012 4.50088 20.9783 4.42081C20.9554 4.34073 20.9151 4.26658 20.8602 4.20356C20.8052 4.14054 20.737 4.09017 20.6603 4.056C20.5836 4.02183 20.5002 4.00468 20.4161 4.00575L3.58388 4.00005ZM13.8879 14.6153H10.141L9.12641 9.37041H14.7958L13.8879 14.6153Z" fill="#0C0C0C"/>
</svg>
