<svg width="24" height="24" viewBox="0 0 24 24" fill="none" xmlns="http://www.w3.org/2000/svg">
<path fill-rule="evenodd" clip-rule="evenodd" d="M3.45707 8.48232C1.51431 10.4251 1.51431 13.5749 3.45707 15.5177L8.48232 20.5429C10.4251 22.4857 13.5749 22.4857 15.5177 20.5429L20.5429 15.5177C22.4857 13.5749 22.4857 10.4251 20.5429 8.48232L15.5177 3.45707C13.5749 1.51431 10.4251 1.51431 8.48232 3.45707L3.45707 8.48232ZM10.293 4.27988L4.27545 10.2974C3.33514 11.2377 3.33514 12.7623 4.27545 13.7026L10.293 19.7201C10.923 20.3501 12.0001 19.9039 12.0001 19.013V4.98698C12.0001 4.09608 10.923 3.64991 10.293 4.27988Z" fill="#0C0C0C"/>
</svg>
