<svg width="24" height="24" viewBox="0 0 24 24" fill="none" xmlns="http://www.w3.org/2000/svg">
<path fill-rule="evenodd" clip-rule="evenodd" d="M6.5 3.25C5.5335 3.25 4.75 4.0335 4.75 5C4.75 5.9665 5.5335 6.75 6.5 6.75C7.4665 6.75 8.25 5.9665 8.25 5C8.25 4.0335 7.4665 3.25 6.5 3.25ZM3.25 5C3.25 3.20507 4.70507 1.75 6.5 1.75C8.29493 1.75 9.75 3.20507 9.75 5C9.75 6.53679 8.68335 7.82445 7.25 8.16303L7.25 12.0359C8.09965 11.2384 9.24279 10.75 10.5 10.75H16.0426C16.7094 10.75 17.25 10.2094 17.25 9.54255V8.16303C15.8166 7.82445 14.75 6.53679 14.75 5C14.75 3.20507 16.2051 1.75 18 1.75C19.7949 1.75 21.25 3.20507 21.25 5C21.25 6.53679 20.1833 7.82445 18.75 8.16303V9.54255C18.75 11.0378 17.5378 12.25 16.0426 12.25H10.5C8.70591 12.25 7.25136 13.7037 7.25 15.4975C7.25 15.4983 7.25 15.4992 7.25 15.5L7.25 15.587C8.68335 15.9255 9.75 17.2132 9.75 18.75C9.75 20.5449 8.29493 22 6.5 22C4.70507 22 3.25 20.5449 3.25 18.75C3.25 17.2132 4.31665 15.9255 5.75 15.587L5.75 15.5C5.75 15.499 5.75 15.498 5.75 15.497L5.75 8.16303C4.31665 7.82445 3.25 6.53679 3.25 5ZM18 3.25C17.0335 3.25 16.25 4.0335 16.25 5C16.25 5.9665 17.0335 6.75 18 6.75C18.9665 6.75 19.75 5.9665 19.75 5C19.75 4.0335 18.9665 3.25 18 3.25ZM4.75 18.75C4.75 17.7835 5.5335 17 6.5 17C7.4665 17 8.25 17.7835 8.25 18.75C8.25 19.7165 7.4665 20.5 6.5 20.5C5.5335 20.5 4.75 19.7165 4.75 18.75Z" fill="#0C0C0C"/>
</svg>
