<svg width="24" height="24" viewBox="0 0 24 24" fill="none" xmlns="http://www.w3.org/2000/svg">
<path fill-rule="evenodd" clip-rule="evenodd" d="M8 2C8.41421 2 8.75 2.33579 8.75 2.75V5H15.25V2.75C15.25 2.33579 15.5858 2 16 2C16.4142 2 16.75 2.33579 16.75 2.75V5H18C19.6569 5 21 6.34315 21 8V10.25V11.75V18C21 19.6569 19.6569 21 18 21H6C4.34315 21 3 19.6569 3 18V11.75V10.25V8C3 6.34315 4.34315 5 6 5H7.25V2.75C7.25 2.33579 7.58579 2 8 2ZM6 6.5H18C18.8284 6.5 19.5 7.17157 19.5 8V10.25H4.5V8C4.5 7.17157 5.17157 6.5 6 6.5ZM19.5 11.75V18C19.5 18.8284 18.8284 19.5 18 19.5H6C5.17157 19.5 4.5 18.8284 4.5 18V11.75H19.5Z" fill="#0C0C0C"/>
</svg>
