<svg width="24" height="24" viewBox="0 0 24 24" fill="none" xmlns="http://www.w3.org/2000/svg">
<path fill-rule="evenodd" clip-rule="evenodd" d="M8 3C8.41421 3 8.75 3.33579 8.75 3.75V6H15.25V3.75C15.25 3.33579 15.5858 3 16 3C16.4142 3 16.75 3.33579 16.75 3.75V6H18C19.6569 6 21 7.34315 21 9V11.25V12.75V19C21 20.6569 19.6569 22 18 22H6C4.34315 22 3 20.6569 3 19V12.75V11.25V9C3 7.34315 4.34315 6 6 6H7.25V3.75C7.25 3.33579 7.58579 3 8 3ZM6 7.5H18C18.8284 7.5 19.5 8.17157 19.5 9V11.25H4.5V9C4.5 8.17157 5.17157 7.5 6 7.5ZM19.5 12.75V19C19.5 19.8284 18.8284 20.5 18 20.5H6C5.17157 20.5 4.5 19.8284 4.5 19V12.75H19.5Z" fill="#0C0C0C"/>
</svg>
