<svg width="24" height="24" viewBox="0 0 24 24" fill="none" xmlns="http://www.w3.org/2000/svg">
<path fill-rule="evenodd" clip-rule="evenodd" d="M10.7212 3.45436L7.19702 9.21439C6.8086 9.83966 7.26334 10.6544 8.00228 10.6544H15.0412C15.7801 10.6544 16.2349 9.83966 15.8465 9.21439L12.3317 3.45436C12.248 3.3157 12.1299 3.20101 11.9888 3.1214C11.8477 3.0418 11.6885 2.99997 11.5265 2.99997C11.3645 2.99997 11.2053 3.0418 11.0642 3.1214C10.9231 3.20101 10.805 3.3157 10.7212 3.45436ZM16.7369 21.0755C19.0913 21.0755 21 19.1668 21 16.8123C21 14.4578 19.0913 12.5491 16.7369 12.5491C14.3824 12.5491 12.4737 14.4578 12.4737 16.8123C12.4737 19.1668 14.3824 21.0755 16.7369 21.0755ZM9.63155 20.6018H3.94736C3.42631 20.6018 3 20.1755 3 19.6544V13.9702C3 13.4491 3.42631 13.0228 3.94736 13.0228H9.63155C10.1526 13.0228 10.5789 13.4491 10.5789 13.9702V19.6544C10.5789 20.1755 10.1526 20.6018 9.63155 20.6018Z" fill="#0C0C0C"/>
</svg>
