<svg width="24" height="24" viewBox="0 0 24 24" fill="none" xmlns="http://www.w3.org/2000/svg">
<path d="M9.19541 17.6856C9.10408 17.6451 9.01946 17.5856 8.94768 17.5074C8.94504 17.5045 8.94243 17.5016 8.93985 17.4987L4.44254 12.5017C4.16544 12.1938 4.1904 11.7196 4.49828 11.4425C4.80617 11.1654 5.28038 11.1904 5.55748 11.4983L9.52864 15.9107L18.4697 6.96967C18.7626 6.67678 19.2374 6.67678 19.5303 6.96967C19.8232 7.26256 19.8232 7.73744 19.5303 8.03033L10.0357 17.525C10.026 17.5348 10.016 17.5445 10.0056 17.554C9.95455 17.6006 9.89859 17.639 9.83949 17.669C9.63716 17.7718 9.39955 17.7761 9.19541 17.6856Z" fill="#0C0C0C"/>
</svg>
