<svg width="24" height="24" viewBox="0 0 24 24" fill="none" xmlns="http://www.w3.org/2000/svg">
<path fill-rule="evenodd" clip-rule="evenodd" d="M12 20.5C16.6944 20.5 20.5 16.6944 20.5 12C20.5 7.30558 16.6944 3.5 12 3.5C7.30558 3.5 3.5 7.30558 3.5 12C3.5 16.6944 7.30558 20.5 12 20.5ZM12 22C17.5228 22 22 17.5228 22 12C22 6.47715 17.5228 2 12 2C6.47715 2 2 6.47715 2 12C2 17.5228 6.47715 22 12 22ZM16.5045 8.94507C16.811 9.2237 16.8336 9.69804 16.555 10.0045L11.5591 15.5C11.5527 15.5071 11.5462 15.5141 11.5395 15.5211C11.3957 15.67 11.2042 15.747 11.0111 15.7499C10.9032 15.7516 10.7949 15.7301 10.6942 15.6851C10.6179 15.651 10.5461 15.6036 10.4824 15.5428C10.4767 15.5374 10.4711 15.5319 10.4657 15.5264L7.46967 12.5304C7.17678 12.2375 7.17678 11.7626 7.46967 11.4697C7.76256 11.1768 8.23744 11.1768 8.53033 11.4697L10.9741 13.9135L15.445 8.99552C15.7237 8.68903 16.198 8.66644 16.5045 8.94507Z" fill="#0C0C0C"/>
</svg>
