<svg width="24" height="24" viewBox="0 0 24 24" fill="none" xmlns="http://www.w3.org/2000/svg">
<path fill-rule="evenodd" clip-rule="evenodd" d="M22 12C22 17.5228 17.5228 22 12 22C6.47715 22 2 17.5228 2 12C2 6.47715 6.47715 2 12 2C17.5228 2 22 6.47715 22 12ZM16.5045 8.94505C16.811 9.22367 16.8336 9.69801 16.555 10.0045L11.5587 15.5004C11.5533 15.5064 11.5478 15.5123 11.5422 15.5182C11.3993 15.6678 11.2084 15.7458 11.0156 15.7498C10.9063 15.7521 10.7963 15.7307 10.6942 15.685C10.6179 15.651 10.5461 15.6036 10.4824 15.5427C10.4768 15.5374 10.4712 15.532 10.4658 15.5265L7.46967 12.5303C7.17678 12.2374 7.17678 11.7626 7.46967 11.4697C7.76256 11.1768 8.23744 11.1768 8.53033 11.4697L10.9741 13.9135L15.445 8.9955C15.7237 8.689 16.198 8.66642 16.5045 8.94505Z" fill="#0C0C0C"/>
</svg>
