<svg width="24" height="24" viewBox="0 0 24 24" fill="none" xmlns="http://www.w3.org/2000/svg">
<path fill-rule="evenodd" clip-rule="evenodd" d="M18.1303 5.41462C18.4537 5.15586 18.9257 5.2083 19.1844 5.53175C19.4432 5.8552 19.3908 6.32717 19.0673 6.58592L12.2994 12.0003L19.0673 17.4146C19.3908 17.6734 19.4432 18.1453 19.1844 18.4688C18.9257 18.7922 18.4537 18.8447 18.1303 18.5859L10.6303 12.5859C10.4524 12.4436 10.3488 12.2281 10.3488 12.0003C10.3488 11.7724 10.4524 11.5569 10.6303 11.4146L18.1303 5.41462ZM12.1303 5.41462C12.4537 5.15586 12.9257 5.2083 13.1844 5.53175C13.4432 5.8552 13.3908 6.32717 13.0673 6.58592L7.03144 11.4146C6.65613 11.7149 6.65613 12.2857 7.03144 12.5859L13.0673 17.4146C13.3908 17.6734 13.4432 18.1453 13.1844 18.4688C12.9257 18.7922 12.4537 18.8447 12.1303 18.5859L6.0944 13.7572C4.96848 12.8565 4.96848 11.144 6.0944 10.2433L12.1303 5.41462Z" fill="#0C0C0C"/>
</svg>
