<svg width="24" height="24" viewBox="0 0 24 24" fill="none" xmlns="http://www.w3.org/2000/svg">
<path fill-rule="evenodd" clip-rule="evenodd" d="M18.1303 5.41464C18.4538 5.15588 18.9257 5.20832 19.1845 5.53177C19.4433 5.85521 19.3908 6.32718 19.0674 6.58594L12.2994 12.0003L19.0674 17.4146C19.3908 17.6734 19.4433 18.1454 19.1845 18.4688C18.9257 18.7923 18.4538 18.8447 18.1303 18.5859L10.6303 12.5859C10.4524 12.4436 10.3488 12.2281 10.3488 12.0003C10.3488 11.7724 10.4524 11.557 10.6303 11.4146L18.1303 5.41464ZM12.1303 5.41464C12.4538 5.15588 12.9257 5.20832 13.1845 5.53177C13.4433 5.85521 13.3908 6.32718 13.0674 6.58594L7.0315 11.4146C6.65619 11.7149 6.6562 12.2857 7.0315 12.5859L13.0674 17.4146C13.3908 17.6734 13.4433 18.1454 13.1845 18.4688C12.9257 18.7923 12.4538 18.8447 12.1303 18.5859L6.09446 13.7572C4.96854 12.8565 4.96854 11.1441 6.09446 10.2433L12.1303 5.41464Z" fill="#0C0C0C"/>
</svg>
