<svg width="24" height="24" viewBox="0 0 24 24" fill="none" xmlns="http://www.w3.org/2000/svg">
<path fill-rule="evenodd" clip-rule="evenodd" d="M6.46855 5.41439C6.1451 5.15563 5.67313 5.20808 5.41438 5.53152C5.15562 5.85497 5.20806 6.32694 5.53151 6.58569L12.2994 12L5.53151 17.4144C5.20806 17.6731 5.15562 18.1451 5.41438 18.4686C5.67313 18.792 6.1451 18.8445 6.46855 18.5857L13.9685 12.5857C14.1465 12.4434 14.25 12.2279 14.25 12C14.25 11.7722 14.1465 11.5567 13.9685 11.4144L6.46855 5.41439ZM12.4685 5.41439C12.1451 5.15563 11.6731 5.20808 11.4144 5.53152C11.1556 5.85497 11.2081 6.32694 11.5315 6.58569L17.5674 11.4144C17.9427 11.7146 17.9427 12.2855 17.5674 12.5857L11.5315 17.4144C11.2081 17.6731 11.1556 18.1451 11.4144 18.4686C11.6731 18.792 12.1451 18.8445 12.4685 18.5857L18.5044 13.757C19.6303 12.8563 19.6303 11.1438 18.5044 10.2431L12.4685 5.41439Z" fill="#0C0C0C"/>
</svg>
