<svg width="24" height="24" viewBox="0 0 24 24" fill="none" xmlns="http://www.w3.org/2000/svg">
<path fill-rule="evenodd" clip-rule="evenodd" d="M12 20.5C16.6944 20.5 20.5 16.6944 20.5 12C20.5 7.30558 16.6944 3.5 12 3.5C7.30558 3.5 3.5 7.30558 3.5 12C3.5 16.6944 7.30558 20.5 12 20.5ZM12 22C17.5228 22 22 17.5228 22 12C22 6.47715 17.5228 2 12 2C6.47715 2 2 6.47715 2 12C2 17.5228 6.47715 22 12 22ZM11.25 12.4835C11.2492 12.5226 11.2514 12.5616 11.2566 12.6001C11.27 12.7007 11.3034 12.795 11.3526 12.8789C11.4282 13.0078 11.5412 13.1121 11.6766 13.1769L14.6646 14.6708C15.0351 14.8561 15.4856 14.7059 15.6708 14.3354C15.8561 13.9649 15.7059 13.5144 15.3354 13.3292L12.75 12.0365V7.5C12.75 7.08579 12.4142 6.75 12 6.75C11.5858 6.75 11.25 7.08579 11.25 7.5V12.4835Z" fill="#0C0C0C"/>
</svg>
