<svg width="24" height="24" viewBox="0 0 24 24" fill="none" xmlns="http://www.w3.org/2000/svg">
<path fill-rule="evenodd" clip-rule="evenodd" d="M12 22C17.5228 22 22 17.5228 22 12C22 6.47715 17.5228 2 12 2C6.47715 2 2 6.47715 2 12C2 17.5228 6.47715 22 12 22ZM8.22038 15.851C7.92654 15.559 7.92654 15.0857 8.22038 14.7937L10.997 12.035L8.22038 9.2762C7.92654 8.98425 7.92654 8.51091 8.22038 8.21896C8.51421 7.92701 8.99061 7.92701 9.28445 8.21896L12.0611 10.9777L14.8377 8.21896C15.1315 7.92701 15.6079 7.92701 15.9017 8.21896C16.1956 8.51091 16.1956 8.98425 15.9017 9.2762L13.1251 12.035L15.9017 14.7937C16.1956 15.0857 16.1956 15.559 15.9017 15.851C15.6079 16.1429 15.1315 16.1429 14.8377 15.851L12.0611 13.0922L9.28445 15.851C8.99062 16.1429 8.51422 16.1429 8.22038 15.851Z" fill="#0C0C0C"/>
</svg>
