<svg width="24" height="24" viewBox="0 0 24 24" fill="none" xmlns="http://www.w3.org/2000/svg">
<path fill-rule="evenodd" clip-rule="evenodd" d="M12.4896 2.83597C10.4775 2.83597 8.80931 3.56571 7.6462 4.78705C6.61626 5.86856 6.01541 7.30042 5.8953 8.86461C2.94371 9.53004 0.739563 12.1668 0.739563 15.3193C0.739563 18.9736 3.70195 21.936 7.35623 21.936H10.2896C10.7038 21.936 11.0396 21.6002 11.0396 21.186C11.0396 20.7718 10.7038 20.436 10.2896 20.436H7.35623C4.53037 20.436 2.23956 18.1452 2.23956 15.3193C2.23956 12.7106 4.19256 10.5568 6.71587 10.2422L7.37591 10.16L7.37308 9.49481L7.3729 9.45263V9.45107C7.37325 8.00309 7.86844 6.72876 8.73245 5.8215C9.5914 4.91953 10.8565 4.33597 12.4896 4.33597C15.8059 4.33597 18.3396 6.70738 18.3396 9.45263V10.186V10.936H19.0896H22.0229C22.4371 10.936 22.7729 10.6002 22.7729 10.186C22.7729 9.77175 22.4371 9.43597 22.0229 9.43597H19.8395C19.8295 5.70918 16.4575 2.83597 12.4896 2.83597ZM17.3645 15.1707C16.5751 14.3813 15.2918 14.3926 14.5164 15.1958C13.7601 15.9792 13.7711 17.2242 14.5411 17.9941L14.8585 18.3115C15.1448 18.5979 15.1448 19.0622 14.8585 19.3486C14.5721 19.635 14.1078 19.635 13.8214 19.3486L13.504 19.0312C12.1684 17.6956 12.1493 15.5361 13.4612 14.1772C14.8062 12.7839 17.0322 12.7643 18.4016 14.1336L18.6509 14.383C18.9373 14.6694 18.9373 15.1337 18.6509 15.4201C18.3645 15.7065 17.9002 15.7065 17.6138 15.4201L17.3645 15.1707ZM20.5194 18.3256C21.361 19.1672 21.249 20.5622 20.284 21.2589L20.223 21.3029C19.4286 21.8763 18.3355 21.7886 17.6428 21.0958L17.0724 20.5254C16.786 20.239 16.3216 20.239 16.0353 20.5254C15.7489 20.8118 15.7489 21.2761 16.0353 21.5625L16.6057 22.1329C17.8074 23.3346 19.7035 23.4868 21.0815 22.4921L21.1424 22.4481C22.8399 21.2227 23.0368 18.7689 21.5565 17.2885C21.2701 17.0021 20.8057 17.0021 20.5194 17.2885C20.233 17.5749 20.233 18.0392 20.5194 18.3256ZM15.7864 16.5127C16.0728 16.2263 16.5371 16.2263 16.8235 16.5127L19.1073 18.7965C19.3937 19.0829 19.3937 19.5472 19.1073 19.8336C18.8209 20.12 18.3566 20.12 18.0702 19.8336L15.7864 17.5498C15.5 17.2634 15.5 16.7991 15.7864 16.5127Z" fill="#0C0C0C"/>
</svg>
