<svg width="24" height="24" viewBox="0 0 24 24" fill="none" xmlns="http://www.w3.org/2000/svg">
<mask id="path-1-inside-1_3071_6090" fill="white">
<path fill-rule="evenodd" clip-rule="evenodd" d="M19.5 9C19.5 9.42447 19.4504 9.83865 19.3561 10.2382C21.6101 10.9254 23.25 13.0212 23.25 15.5C23.25 18.5376 20.7876 21 17.75 21H6.75C3.43629 21 0.75 18.3137 0.75 15C0.75 11.9402 3.04037 9.41538 6.0002 9.0464L6 9C6 5.68629 9.02208 3 12.75 3C16.4779 3 19.5 5.68629 19.5 9Z"/>
</mask>
<path d="M19.3561 10.2382L17.8962 9.89363L17.573 11.2628L18.9187 11.673L19.3561 10.2382ZM6.0002 9.0464L6.18576 10.5349L7.50584 10.3703L7.50018 9.04002L6.0002 9.0464ZM6 9L4.49999 9L4.50001 9.00638L6 9ZM20.816 10.5828C20.9366 10.0716 21 9.54184 21 9H18C18 9.30711 17.9642 9.60568 17.8962 9.89363L20.816 10.5828ZM24.75 15.5C24.75 12.3429 22.6611 9.6776 19.7935 8.8034L18.9187 11.673C20.5592 12.1731 21.75 13.6995 21.75 15.5H24.75ZM17.75 22.5C21.616 22.5 24.75 19.366 24.75 15.5H21.75C21.75 17.7091 19.9591 19.5 17.75 19.5V22.5ZM17.75 19.5H6.75V22.5H17.75V19.5ZM-0.75 15C-0.75 19.1421 2.60786 22.5 6.75 22.5V19.5C4.26472 19.5 2.25 17.4853 2.25 15H-0.75ZM5.81464 7.55792C2.11331 8.01934 -0.75 11.1741 -0.75 15H2.25C2.25 12.7063 3.96742 10.8114 6.18576 10.5349L5.81464 7.55792ZM4.50001 9.00638L4.50021 9.05278L7.50018 9.04002L7.49999 8.99362L4.50001 9.00638ZM12.75 1.5C8.36462 1.5 4.5 4.69665 4.5 9H7.5C7.5 6.67593 9.67953 4.5 12.75 4.5V1.5ZM21 9C21 4.69665 17.1354 1.5 12.75 1.5V4.5C15.8205 4.5 18 6.67593 18 9H21Z" fill="#0C0C0C" mask="url(#path-1-inside-1_3071_6090)"/>
</svg>
