<svg width="24" height="24" viewBox="0 0 24 24" fill="none" xmlns="http://www.w3.org/2000/svg">
<path fill-rule="evenodd" clip-rule="evenodd" d="M12.4895 2.836C10.4775 2.836 8.80925 3.56574 7.64614 4.78708C6.6162 5.86859 6.01535 7.30045 5.89524 8.86464C2.94365 9.53007 0.739502 12.1668 0.739502 15.3193C0.739502 18.9736 3.70188 21.936 7.35617 21.936H12C12.4142 21.936 12.75 21.6002 12.75 21.186C12.75 20.7718 12.4142 20.436 12 20.436H7.35617C4.53031 20.436 2.2395 18.1452 2.2395 15.3193C2.2395 12.7106 4.1925 10.5568 6.71581 10.2423L7.37585 10.16L7.37302 9.49484L7.37284 9.45266V9.4511C7.37319 8.00312 7.86838 6.72879 8.73238 5.82153C9.59134 4.91956 10.8565 4.336 12.4895 4.336C15.8059 4.336 18.3395 6.70741 18.3395 9.45266V10.186V10.936H19.0895H22.0228C22.437 10.936 22.7728 10.6002 22.7728 10.186C22.7728 9.77178 22.437 9.436 22.0228 9.436H19.8395C19.8295 5.70921 16.4574 2.836 12.4895 2.836ZM19.75 14C19.75 13.5858 19.4142 13.25 19 13.25C18.5858 13.25 18.25 13.5858 18.25 14V20.1893L16.5303 18.4697C16.2374 18.1768 15.7626 18.1768 15.4697 18.4697C15.1768 18.7626 15.1768 19.2374 15.4697 19.5303L18.4697 22.5303L19 23.0607L19.5303 22.5303L22.5303 19.5303C22.8232 19.2374 22.8232 18.7626 22.5303 18.4697C22.2374 18.1768 21.7626 18.1768 21.4697 18.4697L19.75 20.1893V14Z" fill="#0C0C0C"/>
</svg>
