<svg width="24" height="24" viewBox="0 0 24 24" fill="none" xmlns="http://www.w3.org/2000/svg">
<path fill-rule="evenodd" clip-rule="evenodd" d="M14.7116 2.78043C15.109 2.8973 15.3364 3.31419 15.2195 3.71158L10.2195 20.7116C10.1026 21.109 9.68573 21.3364 9.28835 21.2195C8.89096 21.1026 8.66357 20.6857 8.78045 20.2883L13.7804 3.28833C13.8973 2.89094 14.3142 2.66355 14.7116 2.78043Z" fill="#0C0C0C"/>
<path fill-rule="evenodd" clip-rule="evenodd" d="M16.9274 7.01551C17.195 6.69931 17.6682 6.65987 17.9844 6.92743L22.1312 10.2823C23.1933 11.1811 23.1933 12.8188 22.1312 13.7176L17.9844 17.0725C17.6682 17.3401 17.195 17.3006 16.9274 16.9844C16.6599 16.6682 16.6993 16.195 17.0155 15.9274L21.1623 12.5725C21.5163 12.2729 21.5163 11.727 21.1623 11.4274L17.0155 8.07251C16.6993 7.80495 16.6599 7.33172 16.9274 7.01551Z" fill="#0C0C0C"/>
<path fill-rule="evenodd" clip-rule="evenodd" d="M6.75035 7.01551C6.48279 6.69931 6.00956 6.65987 5.69335 6.92743L1.54663 10.2823C0.484457 11.1811 0.484457 12.8188 1.54663 13.7176L5.69335 17.0725C6.00956 17.3401 6.48279 17.3006 6.75035 16.9844C7.01791 16.6682 6.97847 16.195 6.66227 15.9274L2.51554 12.5725C2.16149 12.2729 2.16149 11.727 2.51554 11.4274L6.66227 8.07251C6.97847 7.80495 7.01791 7.33172 6.75035 7.01551Z" fill="#0C0C0C"/>
</svg>
