<svg width="24" height="24" viewBox="0 0 24 24" fill="none" xmlns="http://www.w3.org/2000/svg">
<path fill-rule="evenodd" clip-rule="evenodd" d="M8 2C4.68629 2 2 4.68629 2 8V16C2 19.3137 4.68629 22 8 22H16C19.3137 22 22 19.3137 22 16V8C22 4.68629 19.3137 2 16 2H8ZM14.2211 7.2943C14.3349 6.89602 14.1043 6.48091 13.706 6.36711C13.3078 6.25332 12.8927 6.48394 12.7789 6.88222L9.77886 17.3822C9.66506 17.7805 9.89568 18.1956 10.294 18.3094C10.6922 18.4232 11.1074 18.1926 11.2211 17.7943L14.2211 7.2943ZM8.53033 8.80793C8.82322 9.10082 8.82322 9.57569 8.53033 9.86859L6.59099 11.8079C6.2981 12.1008 6.2981 12.5757 6.59099 12.8686L8.53033 14.8079C8.82322 15.1008 8.82322 15.5757 8.53033 15.8686C8.23744 16.1615 7.76256 16.1615 7.46967 15.8686L5.53033 13.9292C4.65165 13.0506 4.65165 11.6259 5.53033 10.7473L7.46967 8.80793C7.76256 8.51503 8.23744 8.51503 8.53033 8.80793ZM15.4697 9.86859C15.1768 9.57569 15.1768 9.10082 15.4697 8.80793C15.7626 8.51503 16.2374 8.51503 16.5303 8.80793L18.4697 10.7473C19.3483 11.6259 19.3484 13.0506 18.4697 13.9292L16.5303 15.8686C16.2374 16.1615 15.7626 16.1615 15.4697 15.8686C15.1768 15.5757 15.1768 15.1008 15.4697 14.8079L17.409 12.8686C17.7019 12.5757 17.7019 12.1008 17.409 11.8079L15.4697 9.86859Z" fill="#0C0C0C"/>
</svg>
