<svg width="24" height="24" viewBox="0 0 24 24" fill="none" xmlns="http://www.w3.org/2000/svg">
<path fill-rule="evenodd" clip-rule="evenodd" d="M14.7116 2.78048C15.109 2.89735 15.3364 3.31424 15.2195 3.71163L10.2195 20.7116C10.1026 21.109 9.68573 21.3364 9.28835 21.2195C8.89096 21.1026 8.66357 20.6858 8.78045 20.2884L13.7804 3.28838C13.8973 2.89099 14.3142 2.6636 14.7116 2.78048Z" fill="#0C0C0C"/>
<path fill-rule="evenodd" clip-rule="evenodd" d="M16.9274 7.01556C17.195 6.69935 17.6682 6.65992 17.9844 6.92748L22.1312 10.2824C23.1933 11.1812 23.1933 12.8189 22.1312 13.7176L17.9844 17.0726C17.6682 17.3401 17.195 17.3007 16.9274 16.9845C16.6599 16.6683 16.6993 16.195 17.0155 15.9275L21.1623 12.5726C21.5163 12.273 21.5163 11.7271 21.1623 11.4275L17.0155 8.07256C16.6993 7.805 16.6599 7.33176 16.9274 7.01556Z" fill="#0C0C0C"/>
<path fill-rule="evenodd" clip-rule="evenodd" d="M6.75035 7.01556C6.48279 6.69935 6.00956 6.65992 5.69335 6.92748L1.54663 10.2824C0.484457 11.1812 0.484457 12.8189 1.54663 13.7176L5.69335 17.0726C6.00956 17.3401 6.48279 17.3007 6.75035 16.9845C7.01791 16.6683 6.97847 16.195 6.66227 15.9275L2.51554 12.5726C2.16149 12.273 2.16149 11.7271 2.51554 11.4275L6.66227 8.07256C6.97847 7.805 7.01791 7.33176 6.75035 7.01556Z" fill="#0C0C0C"/>
</svg>
