<svg width="24" height="24" viewBox="0 0 24 24" fill="none" xmlns="http://www.w3.org/2000/svg">
<path fill-rule="evenodd" clip-rule="evenodd" d="M21.5 4.75C21.5 4.33579 21.1642 4 20.75 4C20.3358 4 20 4.33579 20 4.75V19.25C20 19.6642 20.3358 20 20.75 20C21.1642 20 21.5 19.6642 21.5 19.25V4.75ZM10.5303 4.46967C10.2374 4.17678 9.76256 4.17678 9.46967 4.46967L2.46967 11.4697C2.17678 11.7626 2.17678 12.2374 2.46967 12.5303L9.46967 19.5303C9.76256 19.8232 10.2374 19.8232 10.5303 19.5303C10.8232 19.2374 10.8232 18.7626 10.5303 18.4697L4.81066 12.75H17.25C17.6642 12.75 18 12.4142 18 12C18 11.5858 17.6642 11.25 17.25 11.25H4.81066L10.5303 5.53033C10.8232 5.23744 10.8232 4.76256 10.5303 4.46967Z" fill="#0C0C0C"/>
</svg>
