<svg width="24" height="24" viewBox="0 0 24 24" fill="none" xmlns="http://www.w3.org/2000/svg">
<path fill-rule="evenodd" clip-rule="evenodd" d="M14 5.78571H10L10 19.2143H14L14 5.78571ZM15.5 5.78571L15.5 19.2143H18.5C18.7761 19.2143 19 18.9904 19 18.7143V6.28571C19 6.00956 18.7761 5.78571 18.5 5.78571H15.5ZM5.5 5.78571H8.5L8.5 19.2143H5.5C5.22386 19.2143 5 18.9904 5 18.7143V6.28571C5 6.00956 5.22386 5.78571 5.5 5.78571ZM5.5 4.28571C4.39543 4.28571 3.5 5.18114 3.5 6.28571V18.7143C3.5 19.8188 4.39543 20.7143 5.5 20.7143H18.5C19.6046 20.7143 20.5 19.8188 20.5 18.7143V6.28571C20.5 5.18114 19.6046 4.28571 18.5 4.28571H5.5Z" fill="#0C0C0C"/>
</svg>
