<svg width="24" height="24" viewBox="0 0 24 24" fill="none" xmlns="http://www.w3.org/2000/svg">
<path fill-rule="evenodd" clip-rule="evenodd" d="M11.2492 7L7.1369 17.4772H8.82198L9.66015 15.2333H14.3312L15.1781 17.4772H16.8632L12.7509 7H11.2492ZM12.0001 8.9994L13.7724 13.7316H10.2189L12.0001 8.9994ZM2.73684 16.5526C2.73684 17.0322 2.34804 17.4211 1.86842 17.4211C1.38881 17.4211 1 17.0322 1 16.5526C1 16.073 1.38881 15.6842 1.86842 15.6842C2.34804 15.6842 2.73684 16.073 2.73684 16.5526ZM4.76316 17.421C5.24277 17.421 5.63158 17.0322 5.63158 16.5526C5.63158 16.073 5.24277 15.6842 4.76316 15.6842C4.28354 15.6842 3.89474 16.073 3.89474 16.5526C3.89474 17.0322 4.28354 17.421 4.76316 17.421ZM23 16.5526C23 17.0322 22.6112 17.4211 22.1316 17.4211C21.652 17.4211 21.2632 17.0322 21.2632 16.5526C21.2632 16.073 21.652 15.6842 22.1316 15.6842C22.6112 15.6842 23 16.073 23 16.5526ZM18.6579 17.4211C19.1375 17.4211 19.5263 17.0322 19.5263 16.5526C19.5263 16.073 19.1375 15.6842 18.6579 15.6842C18.1783 15.6842 17.7895 16.073 17.7895 16.5526C17.7895 17.0322 18.1783 17.4211 18.6579 17.4211Z" fill="#0C0C0C"/>
</svg>
