<svg width="24" height="24" viewBox="0 0 24 24" fill="none" xmlns="http://www.w3.org/2000/svg">
<path fill-rule="evenodd" clip-rule="evenodd" d="M10 2.25C9.0335 2.25 8.25 3.0335 8.25 4V6.25H5C4.0335 6.25 3.25 7.0335 3.25 8V20C3.25 20.9665 4.0335 21.75 5 21.75H15C15.9665 21.75 16.75 20.9665 16.75 20V16.75H19C19.9665 16.75 20.75 15.9665 20.75 15V4C20.75 3.0335 19.9665 2.25 19 2.25H10ZM16.75 15.25H19C19.1381 15.25 19.25 15.1381 19.25 15V4C19.25 3.86193 19.1381 3.75 19 3.75H10C9.86193 3.75 9.75 3.86193 9.75 4V6.25H15C15.9665 6.25 16.75 7.0335 16.75 8V15.25ZM4.75 8C4.75 7.86193 4.86193 7.75 5 7.75H15C15.1381 7.75 15.25 7.86193 15.25 8V20C15.25 20.1381 15.1381 20.25 15 20.25H5C4.86193 20.25 4.75 20.1381 4.75 20V8Z" fill="#0C0C0C"/>
</svg>
