<svg width="24" height="24" viewBox="0 0 24 24" fill="none" xmlns="http://www.w3.org/2000/svg">
<path fill-rule="evenodd" clip-rule="evenodd" d="M10.5 9.25C9.80964 9.25 9.25 9.80964 9.25 10.5V13.5C9.25 14.1904 9.80964 14.75 10.5 14.75H13.5C14.1904 14.75 14.75 14.1904 14.75 13.5V10.5C14.75 9.80964 14.1904 9.25 13.5 9.25H10.5ZM13.25 13.25H10.75V10.75H13.25V13.25Z" fill="#0C0C0C"/>
<path fill-rule="evenodd" clip-rule="evenodd" d="M8.25 1.5C8.66421 1.5 9 1.83579 9 2.25V4.25H11V2.25C11 1.83579 11.3358 1.5 11.75 1.5C12.1642 1.5 12.5 1.83579 12.5 2.25V4.25H14.5V2.25C14.5 1.83579 14.8358 1.5 15.25 1.5C15.6642 1.5 16 1.83579 16 2.25V4.25H17C18.5188 4.25 19.75 5.48122 19.75 7V7.5L21.75 7.5C22.1642 7.5 22.5 7.83579 22.5 8.25C22.5 8.66421 22.1642 9 21.75 9L19.75 9V11H21.75C22.1642 11 22.5 11.3358 22.5 11.75C22.5 12.1642 22.1642 12.5 21.75 12.5H19.75V14.5H21.75C22.1642 14.5 22.5 14.8358 22.5 15.25C22.5 15.6642 22.1642 16 21.75 16H19.75V17C19.75 18.5188 18.5188 19.75 17 19.75H16V21.75C16 22.1642 15.6642 22.5 15.25 22.5C14.8358 22.5 14.5 22.1642 14.5 21.75V19.75H12.5V21.75C12.5 22.1642 12.1642 22.5 11.75 22.5C11.3358 22.5 11 22.1642 11 21.75V19.75H9V21.75C9 22.1642 8.66421 22.5 8.25 22.5C7.83579 22.5 7.5 22.1642 7.5 21.75V19.75H7C5.48122 19.75 4.25 18.5188 4.25 17V16H2.25C1.83579 16 1.5 15.6642 1.5 15.25C1.5 14.8358 1.83579 14.5 2.25 14.5H4.25V12.75H2.5C2.08579 12.75 1.75 12.4142 1.75 12C1.75 11.5858 2.08579 11.25 2.5 11.25H4.25V9.25H2.5C2.08579 9.25 1.75 8.91421 1.75 8.5C1.75 8.08579 2.08579 7.75 2.5 7.75H4.25V7C4.25 5.48122 5.48122 4.25 7 4.25H7.5V2.25C7.5 1.83579 7.83579 1.5 8.25 1.5ZM5.75 7C5.75 6.30964 6.30964 5.75 7 5.75H17C17.6904 5.75 18.25 6.30964 18.25 7V17C18.25 17.6904 17.6904 18.25 17 18.25H7C6.30964 18.25 5.75 17.6904 5.75 17V7Z" fill="#0C0C0C"/>
</svg>
