<svg width="24" height="24" viewBox="0 0 24 24" fill="none" xmlns="http://www.w3.org/2000/svg">
<path d="M13.5 13.5C13.5 14.3284 12.8284 15 12 15C11.1716 15 10.5 14.3284 10.5 13.5C10.5 12.6716 11.1716 12 12 12C12.8284 12 13.5 12.6716 13.5 13.5Z" fill="#0C0C0C"/>
<path fill-rule="evenodd" clip-rule="evenodd" d="M12.6268 4.58809C12.4881 4.37707 12.2525 4.25 12 4.25C11.7475 4.25 11.5119 4.37707 11.3733 4.58809L8.20313 9.41173L3.17981 8.17133C2.92989 8.10962 2.66577 8.1804 2.4802 8.35882C2.29463 8.53724 2.21353 8.79837 2.26538 9.05052L4.34231 19.1511C4.42326 19.5447 4.80017 19.8046 5.19692 19.7403L5.20791 19.7386L5.24252 19.7331L5.37838 19.7118C5.49718 19.6934 5.67049 19.667 5.88713 19.6352C6.3206 19.5718 6.9266 19.4871 7.61598 19.4025C9.00347 19.2322 10.6964 19.0662 12 19.0662C13.3036 19.0662 14.9966 19.2322 16.384 19.4025C17.0734 19.4871 17.6794 19.5718 18.1129 19.6352C18.3295 19.667 18.5029 19.6934 18.6217 19.7118L18.7575 19.7331L18.7921 19.7386L18.8026 19.7403C19.1994 19.8046 19.5768 19.5447 19.6577 19.1511L21.7346 9.05052C21.7865 8.79837 21.7054 8.53724 21.5198 8.35882C21.3343 8.1804 21.0701 8.10962 20.8202 8.17133L15.7969 9.41173L12.6268 4.58809ZM5.66981 18.1511L5.66812 18.1513L3.97401 9.9125L8.35868 10.9952C8.66738 11.0714 8.9906 10.9447 9.16524 10.679L12 6.36559L14.8348 10.679C15.0094 10.9447 15.3326 11.0714 15.6413 10.9952L20.026 9.9125L18.3319 18.1513L18.3302 18.1511C17.8881 18.0863 17.2702 18 16.5668 17.9137C15.1686 17.7421 13.4 17.5662 12 17.5662C10.6 17.5662 8.83139 17.7421 7.43325 17.9137C6.72981 18 6.11198 18.0863 5.66981 18.1511Z" fill="#0C0C0C"/>
</svg>
