<svg width="24" height="24" viewBox="0 0 24 24" fill="none" xmlns="http://www.w3.org/2000/svg">
<path fill-rule="evenodd" clip-rule="evenodd" d="M5.5 3C4.11929 3 3 4.11929 3 5.5V8.5C3 9.88071 4.11929 11 5.5 11H8.5C9.88071 11 11 9.88071 11 8.5V5.5C11 4.11929 9.88071 3 8.5 3H5.5ZM8.5 4.5H5.5C4.94772 4.5 4.5 4.94772 4.5 5.5V8.5C4.5 9.05228 4.94772 9.5 5.5 9.5H8.5C9.05228 9.5 9.5 9.05228 9.5 8.5V5.5C9.5 4.94772 9.05228 4.5 8.5 4.5ZM5.5 13C4.11929 13 3 14.1193 3 15.5V18.5C3 19.8807 4.11929 21 5.5 21H8.5C9.88071 21 11 19.8807 11 18.5V15.5C11 14.1193 9.88071 13 8.5 13H5.5ZM8.5 14.5H5.5C4.94772 14.5 4.5 14.9477 4.5 15.5V18.5C4.5 19.0523 4.94772 19.5 5.5 19.5H8.5C9.05228 19.5 9.5 19.0523 9.5 18.5V15.5C9.5 14.9477 9.05228 14.5 8.5 14.5ZM15.5 3C14.1193 3 13 4.11929 13 5.5V8.5C13 9.88071 14.1193 11 15.5 11H18.5C19.8807 11 21 9.88071 21 8.5V5.5C21 4.11929 19.8807 3 18.5 3H15.5ZM18.5 4.5H15.5C14.9477 4.5 14.5 4.94772 14.5 5.5V8.5C14.5 9.05228 14.9477 9.5 15.5 9.5H18.5C19.0523 9.5 19.5 9.05228 19.5 8.5V5.5C19.5 4.94772 19.0523 4.5 18.5 4.5ZM17 13C17.4142 13 17.75 13.3358 17.75 13.75V16.25H20.25C20.6642 16.25 21 16.5858 21 17C21 17.4142 20.6642 17.75 20.25 17.75H17.75V20.25C17.75 20.6642 17.4142 21 17 21C16.5858 21 16.25 20.6642 16.25 20.25V17.75H13.75C13.3358 17.75 13 17.4142 13 17C13 16.5858 13.3358 16.25 13.75 16.25H16.25V13.75C16.25 13.3358 16.5858 13 17 13Z" fill="#0C0C0C"/>
</svg>
