<svg width="24" height="24" viewBox="0 0 24 24" fill="none" xmlns="http://www.w3.org/2000/svg">
<path fill-rule="evenodd" clip-rule="evenodd" d="M7.88972 8.16694C7.88972 5.86945 9.79074 4.00006 12.1283 4.00006C14.4799 4.00006 16.3668 5.88372 16.3668 8.18121C16.3668 10.4787 14.4658 12.3481 12.1283 12.3481C10.8328 12.3481 9.67808 11.7773 8.9036 10.8783L5.10157 13.3613C4.97484 13.4326 4.8481 13.4754 4.70729 13.4754C4.48198 13.4754 4.25668 13.3613 4.11586 13.1615C3.90464 12.8333 3.98913 12.4052 4.313 12.1911L8.17136 9.66531C7.9883 9.20866 7.88972 8.69494 7.88972 8.16694ZM9.29788 8.16694C9.29788 9.69385 10.5652 10.9353 12.1283 10.9353C13.6773 10.9353 14.9446 9.69385 14.9446 8.16694C14.9446 6.64004 13.6913 5.39854 12.1283 5.39854C10.5652 5.39854 9.29788 6.64004 9.29788 8.16694ZM17.1414 10.3789V19.2549C17.1414 19.2549 17.1836 19.3405 17.2259 19.3405H19.9155C19.9155 19.3405 20 19.2977 20 19.2549V8.72356C20 8.56658 19.8169 8.46669 19.6761 8.56658L17.1696 10.3218C17.1696 10.3218 17.1273 10.3646 17.1273 10.3932L17.1414 10.3789ZM12.4096 19.2549V15.1451H12.3956C12.3956 15.1166 12.4378 15.0738 12.4378 15.0738L15.0007 13.3328C15.057 13.29 15.1415 13.4042 15.1415 13.4042V19.2549C15.1415 19.2977 15.057 19.3405 15.057 19.3405H12.4941C12.4519 19.3405 12.4096 19.2549 12.4096 19.2549ZM7.62213 19.2407V15.1452H7.60805C7.60805 15.1166 7.6503 15.0738 7.6503 15.0738L10.185 13.604C10.2554 13.5612 10.3258 13.6754 10.3258 13.6754V19.2407C10.3258 19.2835 10.2413 19.3263 10.2413 19.3263H7.70662C7.66438 19.3263 7.62213 19.2407 7.62213 19.2407Z" fill="#0C0C0C"/>
</svg>
