<svg width="24" height="24" viewBox="0 0 24 24" fill="none" xmlns="http://www.w3.org/2000/svg">
<path fill-rule="evenodd" clip-rule="evenodd" d="M4.75 6C4.75 5.05377 5.50566 4.10458 6.65151 3.4376C7.84379 2.74359 9.60692 2.25 12 2.25C14.3931 2.25 16.1562 2.74359 17.3485 3.4376C18.4943 4.10458 19.25 5.05377 19.25 6V16C19.25 16.7549 18.9376 17.8565 17.8131 18.7511C16.7051 19.6327 14.8889 20.25 12 20.25C9.11107 20.25 7.2949 19.6327 6.18687 18.7511C5.06242 17.8565 4.75 16.7549 4.75 16V6ZM6.25 6C6.25 5.84166 6.44941 5.29085 7.40611 4.73397C8.31635 4.20413 9.80323 3.75 12 3.75C14.1968 3.75 15.6836 4.20413 16.5939 4.73397C17.5506 5.29085 17.75 5.84166 17.75 6C17.75 6.34962 17.6074 6.99804 16.8793 7.5773C16.1348 8.16962 14.7009 8.75 12 8.75C9.29908 8.75 7.86525 8.16962 7.12075 7.5773C6.39265 6.99804 6.25 6.34962 6.25 6ZM6.25 13.8005V16C6.25 16.3496 6.39265 16.998 7.12075 17.5773C7.86525 18.1696 9.29908 18.75 12 18.75C14.7009 18.75 16.1348 18.1696 16.8793 17.5773C17.6074 16.998 17.75 16.3496 17.75 16V13.8005C16.6365 14.6556 14.8347 15.25 12 15.25C9.16528 15.25 7.36345 14.6556 6.25 13.8005ZM17.75 11C17.75 11.3496 17.6074 11.998 16.8793 12.5773C16.1348 13.1696 14.7009 13.75 12 13.75C9.29908 13.75 7.86525 13.1696 7.12075 12.5773C6.39265 11.998 6.25 11.3496 6.25 11V8.80048C7.36345 9.65562 9.16528 10.25 12 10.25C14.8347 10.25 16.6365 9.65562 17.75 8.80048V11Z" fill="#0C0C0C"/>
</svg>
