<svg width="24" height="24" viewBox="0 0 24 24" fill="none" xmlns="http://www.w3.org/2000/svg">
<path d="M22.0775 7.83108C21.7846 7.53819 21.3097 7.53819 21.0168 7.83108C20.8192 8.02871 20.634 8.19311 20.4536 8.32849L17.6581 5.53299C17.3652 5.24009 16.8903 5.24009 16.5974 5.53299C16.3045 5.82588 16.3045 6.30075 16.5974 6.59365L18.8794 8.87566C18.15 8.89543 17.1715 8.70819 15.6646 8.26538C15.6017 8.24689 15.5348 8.22693 15.4641 8.20585C14.751 7.9933 13.6572 7.66725 12.5109 7.59765C11.2391 7.52043 9.77963 7.75014 8.64024 8.88953C7.50086 10.0289 7.27114 11.4884 7.34836 12.7602C7.41797 13.9065 7.7439 14.9999 7.95645 15.713C7.97753 15.7837 7.99761 15.851 8.01609 15.9139C8.5122 17.6022 8.68752 18.6272 8.61032 19.3817C8.53997 20.0693 8.25197 20.5959 7.5818 21.2661C7.28891 21.559 7.28891 22.0339 7.5818 22.3268C7.87469 22.6197 8.34957 22.6197 8.64246 22.3268C9.46507 21.5042 9.98581 20.6751 10.1025 19.5344C10.2124 18.4607 9.95309 17.1852 9.45524 15.491C9.43631 15.4266 9.41662 15.3602 9.39638 15.2921C9.18079 14.5656 8.90415 13.6335 8.84561 12.6693C8.78227 11.6262 8.98275 10.6683 9.7009 9.95019C10.4191 9.23204 11.3769 9.03155 12.42 9.09489C13.3842 9.15344 14.3163 9.43006 15.0427 9.64565C15.1109 9.66588 15.1773 9.6856 15.2417 9.70453C16.9359 10.2024 18.2114 10.4617 19.2851 10.3518C20.4258 10.2351 21.2549 9.71436 22.0775 8.89174C22.3704 8.59885 22.3704 8.12398 22.0775 7.83108Z" fill="#0C0C0C"/>
<path d="M16.4206 3.23489C16.7135 2.942 16.7135 2.46712 16.4206 2.17423C16.1277 1.88134 15.6529 1.88134 15.36 2.17423C14.5372 2.99696 14.0164 3.82612 13.8996 4.96685C13.8508 5.44287 13.8746 5.95856 13.9596 6.5328C14.5768 6.65241 15.1303 6.80611 15.5561 6.93132C15.3931 6.16062 15.3438 5.58802 15.3918 5.11967C15.4622 4.43202 15.7503 3.90521 16.4206 3.23489Z" fill="#0C0C0C"/>
<path d="M16.6209 11.3604C16.1172 11.2499 15.5935 11.1105 15.0475 10.9523C15.099 11.2392 15.1379 11.5343 15.156 11.8324C15.2066 12.6665 15.0885 13.4461 14.672 14.0923L11.916 11.3363C11.6231 11.0434 11.1482 11.0434 10.8553 11.3363C10.5624 11.6291 10.5624 12.104 10.8553 12.3969L13.5469 15.0886C12.9638 15.3713 12.2921 15.4508 11.5808 15.4077C11.2826 15.3896 10.9875 15.3507 10.7006 15.2992C10.8588 15.8452 10.9982 16.3688 11.1087 16.8726C11.2348 16.8862 11.3621 16.8972 11.49 16.9049C12.7619 16.9821 14.2215 16.7522 15.361 15.6127C16.5005 14.4732 16.7304 13.0136 16.6533 11.7417C16.6455 11.6138 16.6346 11.4865 16.6209 11.3604Z" fill="#0C0C0C"/>
<path d="M6.67964 15.8077C6.55443 15.3819 6.40073 14.8285 6.28112 14.2113C5.70688 14.1263 5.19119 14.1025 4.71517 14.1513C3.82046 14.2429 3.11742 14.5831 2.45882 15.1225C2.39397 15.1567 2.33307 15.2011 2.2785 15.2557C2.25074 15.2835 2.22562 15.3129 2.20312 15.3436C2.10922 15.4289 2.01584 15.5184 1.92255 15.6117C1.62966 15.9045 1.62966 16.3794 1.92255 16.6723C2.15435 16.9041 2.50014 16.9525 2.77949 16.8174L5.46048 19.4983C5.75337 19.7912 6.22825 19.7912 6.52114 19.4983C6.81403 19.2055 6.81403 18.7306 6.52114 18.4377L3.98275 15.8993C4.26346 15.756 4.54835 15.6762 4.86799 15.6435C5.33635 15.5955 5.90894 15.6448 6.67964 15.8077Z" fill="#0C0C0C"/>
</svg>
