<svg width="24" height="24" viewBox="0 0 24 24" fill="none" xmlns="http://www.w3.org/2000/svg">
<path d="M18.2027 8.14377C17.7943 8.80257 17.661 9.32795 17.7027 10.2036C17.7277 10.7039 17.786 11.0542 17.8777 11.2377L18.0277 11.5045L17.7943 11.5962C17.2193 11.8131 16.3944 11.8381 9.76116 11.8381H2.76963L2.71963 12.0549C2.6363 12.3801 2.74463 13.8812 2.89462 14.5067C3.11962 15.449 3.70294 16.5165 4.36959 17.2253C5.27791 18.176 6.25289 18.693 7.66953 18.9766C8.47785 19.135 10.5778 19.1267 11.6445 18.9682C15.2777 18.4178 18.011 16.4748 19.561 13.3308L19.8776 12.697L20.4276 12.647C21.1859 12.5803 21.6943 12.3885 22.1359 11.9965C22.5359 11.6463 23.0609 10.8207 22.9942 10.6456C22.9692 10.5872 22.7526 10.4287 22.5109 10.2953C22.1192 10.0868 21.9609 10.0535 21.1776 10.0201L20.2859 9.98676L20.186 9.64485C20.136 9.46138 20.0026 9.17784 19.8943 9.01106C19.611 8.56907 18.711 7.75182 18.511 7.75182C18.4777 7.75182 18.3443 7.92694 18.2027 8.14377Z" fill="#0C0C0C"/>
<path d="M6.76957 9.25289V7.25145H8.9362V9.25289H6.76957Z" fill="#0C0C0C"/>
<path d="M11.6862 6.91808V5.00003H13.8528V6.91808H11.6862Z" fill="#0C0C0C"/>
<path d="M9.18618 9.25289H11.3528V7.25145H9.18618V9.25289Z" fill="#0C0C0C"/>
<path d="M11.6862 9.25289V7.25145H13.8528V9.25289H11.6862Z" fill="#0C0C0C"/>
<path d="M4.2696 11.5047V9.50323H6.43623V11.5047H4.2696Z" fill="#0C0C0C"/>
<path d="M6.76957 11.5047H8.9362V9.50323H6.76957V11.5047Z" fill="#0C0C0C"/>
<path d="M9.18618 11.5047V9.50323H11.3528V11.5047H9.18618Z" fill="#0C0C0C"/>
<path d="M11.6862 11.5047H13.8528V9.50323H11.6862V11.5047Z" fill="#0C0C0C"/>
<path d="M14.186 11.5047V9.50323H16.3527V11.5047H14.186Z" fill="#0C0C0C"/>
</svg>
