<svg width="24" height="24" viewBox="0 0 24 24" fill="none" xmlns="http://www.w3.org/2000/svg">
<mask id="path-1-inside-1_1656_9409" fill="white">
<path d="M4 5C4 3.89543 4.89543 3 6 3H18C19.1046 3 20 3.89543 20 5V19C20 20.1046 19.1046 21 18 21H6C4.89543 21 4 20.1046 4 19V5Z"/>
</mask>
<path d="M8.5 7.25C8.08579 7.25 7.75 7.58579 7.75 8C7.75 8.41421 8.08579 8.75 8.5 8.75V7.25ZM15.5 8.75C15.9142 8.75 16.25 8.41421 16.25 8C16.25 7.58579 15.9142 7.25 15.5 7.25V8.75ZM8.5 11.25C8.08579 11.25 7.75 11.5858 7.75 12C7.75 12.4142 8.08579 12.75 8.5 12.75V11.25ZM15.5 12.75C15.9142 12.75 16.25 12.4142 16.25 12C16.25 11.5858 15.9142 11.25 15.5 11.25V12.75ZM8.5 15.25C8.08579 15.25 7.75 15.5858 7.75 16C7.75 16.4142 8.08579 16.75 8.5 16.75V15.25ZM12.5 16.75C12.9142 16.75 13.25 16.4142 13.25 16C13.25 15.5858 12.9142 15.25 12.5 15.25V16.75ZM8.5 8.75H15.5V7.25H8.5V8.75ZM8.5 12.75H15.5V11.25H8.5V12.75ZM8.5 16.75H12.5V15.25H8.5V16.75ZM5.5 5C5.5 4.72386 5.72386 4.5 6 4.5V1.5C4.067 1.5 2.5 3.067 2.5 5H5.5ZM6 4.5H18V1.5H6V4.5ZM18 4.5C18.2761 4.5 18.5 4.72386 18.5 5H21.5C21.5 3.067 19.933 1.5 18 1.5V4.5ZM18.5 5V19H21.5V5H18.5ZM18.5 19C18.5 19.2761 18.2761 19.5 18 19.5V22.5C19.933 22.5 21.5 20.933 21.5 19H18.5ZM18 19.5H6V22.5H18V19.5ZM6 19.5C5.72386 19.5 5.5 19.2761 5.5 19H2.5C2.5 20.933 4.067 22.5 6 22.5V19.5ZM5.5 19V5H2.5V19H5.5Z" fill="#0C0C0C" mask="url(#path-1-inside-1_1656_9409)"/>
</svg>
