<svg width="24" height="24" viewBox="0 0 24 24" fill="none" xmlns="http://www.w3.org/2000/svg">
<path fill-rule="evenodd" clip-rule="evenodd" d="M4.75 15C4.75 14.5858 4.41421 14.25 4 14.25C3.58579 14.25 3.25 14.5858 3.25 15V18C3.25 18.9665 4.0335 19.75 5 19.75H19C19.9665 19.75 20.75 18.9665 20.75 18V15C20.75 14.5858 20.4142 14.25 20 14.25C19.5858 14.25 19.25 14.5858 19.25 15V18C19.25 18.1381 19.1381 18.25 19 18.25H5C4.86193 18.25 4.75 18.1381 4.75 18V15ZM17.5303 9.46967C17.8232 9.76256 17.8232 10.2374 17.5303 10.5303L12.5303 15.5303C12.2374 15.8232 11.7626 15.8232 11.4697 15.5303L6.46967 10.5303C6.17678 10.2374 6.17678 9.76256 6.46967 9.46967C6.76256 9.17678 7.23744 9.17678 7.53033 9.46967L11.25 13.1893V4C11.25 3.58579 11.5858 3.25 12 3.25C12.4142 3.25 12.75 3.58579 12.75 4V13.1893L16.4697 9.46967C16.7626 9.17678 17.2374 9.17678 17.5303 9.46967Z" fill="#0C0C0C"/>
</svg>
