<svg width="24" height="24" viewBox="0 0 24 24" fill="none" xmlns="http://www.w3.org/2000/svg">
<path fill-rule="evenodd" clip-rule="evenodd" d="M8.75 7C9.57843 7 10.25 6.32843 10.25 5.5C10.25 4.67157 9.57843 4 8.75 4C7.92157 4 7.25 4.67157 7.25 5.5C7.25 6.32843 7.92157 7 8.75 7ZM15 7C15.8284 7 16.5 6.32843 16.5 5.5C16.5 4.67157 15.8284 4 15 4C14.1716 4 13.5 4.67157 13.5 5.5C13.5 6.32843 14.1716 7 15 7ZM10.5 12C10.5 12.8284 9.82843 13.5 9 13.5C8.17157 13.5 7.5 12.8284 7.5 12C7.5 11.1716 8.17157 10.5 9 10.5C9.82843 10.5 10.5 11.1716 10.5 12ZM15 13.5C15.8284 13.5 16.5 12.8284 16.5 12C16.5 11.1716 15.8284 10.5 15 10.5C14.1716 10.5 13.5 11.1716 13.5 12C13.5 12.8284 14.1716 13.5 15 13.5ZM10.5 18.5C10.5 19.3284 9.82843 20 9 20C8.17157 20 7.5 19.3284 7.5 18.5C7.5 17.6716 8.17157 17 9 17C9.82843 17 10.5 17.6716 10.5 18.5ZM15 20C15.8284 20 16.5 19.3284 16.5 18.5C16.5 17.6716 15.8284 17 15 17C14.1716 17 13.5 17.6716 13.5 18.5C13.5 19.3284 14.1716 20 15 20Z" fill="#0C0C0C"/>
</svg>
