<svg width="24" height="24" viewBox="0 0 24 24" fill="none" xmlns="http://www.w3.org/2000/svg">
<path fill-rule="evenodd" clip-rule="evenodd" d="M10 2.25C9.0335 2.25 8.25 3.0335 8.25 4V14C8.25 14.9665 9.0335 15.75 10 15.75H20C20.9665 15.75 21.75 14.9665 21.75 14V4C21.75 3.0335 20.9665 2.25 20 2.25H10ZM9.75 4C9.75 3.86193 9.86193 3.75 10 3.75H20C20.1381 3.75 20.25 3.86193 20.25 4V14C20.25 14.1381 20.1381 14.25 20 14.25H10C9.86193 14.25 9.75 14.1381 9.75 14V4ZM13 21.75C13.9665 21.75 14.75 20.9665 14.75 20V18.5C14.75 18.0858 14.4142 17.75 14 17.75C13.5858 17.75 13.25 18.0858 13.25 18.5V20C13.25 20.1381 13.1381 20.25 13 20.25H4C3.86193 20.25 3.75 20.1381 3.75 20V11C3.75 10.8619 3.86193 10.75 4 10.75H5.5C5.91421 10.75 6.25 10.4142 6.25 10C6.25 9.58579 5.91421 9.25 5.5 9.25H4C3.0335 9.25 2.25 10.0335 2.25 11V20C2.25 20.9665 3.0335 21.75 4 21.75H13Z" fill="#0C0C0C"/>
</svg>
