<svg width="24" height="24" viewBox="0 0 24 24" fill="none" xmlns="http://www.w3.org/2000/svg">
<path fill-rule="evenodd" clip-rule="evenodd" d="M9 3.25C8.0335 3.25 7.25 4.0335 7.25 5V8.25H5C4.0335 8.25 3.25 9.0335 3.25 10V19C3.25 19.9665 4.0335 20.75 5 20.75H15C15.9665 20.75 16.75 19.9665 16.75 19V16.75H19C19.9665 16.75 20.75 15.9665 20.75 15V5C20.75 4.0335 19.9665 3.25 19 3.25H9ZM15.25 16.75H9C8.0335 16.75 7.25 15.9665 7.25 15V9.75H5C4.86193 9.75 4.75 9.86193 4.75 10V19C4.75 19.1381 4.86193 19.25 5 19.25H15C15.1381 19.25 15.25 19.1381 15.25 19V16.75ZM8.75 5C8.75 4.86193 8.86193 4.75 9 4.75H19C19.1381 4.75 19.25 4.86193 19.25 5V15C19.25 15.1381 19.1381 15.25 19 15.25H9C8.86193 15.25 8.75 15.1381 8.75 15V5Z" fill="#0C0C0C"/>
</svg>
