<svg width="24" height="24" viewBox="0 0 24 24" fill="none" xmlns="http://www.w3.org/2000/svg">
<path fill-rule="evenodd" clip-rule="evenodd" d="M18.9445 3.88389C17.8706 2.80994 16.1294 2.80995 15.0555 3.88389L4.46967 14.4697C4.32902 14.6103 4.25 14.8011 4.25 15V19C4.25 19.4142 4.58579 19.75 5 19.75H9C9.19891 19.75 9.38968 19.671 9.53033 19.5303L20.1161 8.94455C21.1901 7.87061 21.1901 6.1294 20.1161 5.05546L18.9445 3.88389ZM16.1161 4.94455C16.6043 4.45639 17.3957 4.45639 17.8839 4.94455L19.0555 6.11612C19.5436 6.60428 19.5436 7.39573 19.0555 7.88389L17.5 9.43934L14.5607 6.5L16.1161 4.94455ZM13.5 7.56066L5.75 15.3107V18.25H8.68934L16.4393 10.5L13.5 7.56066Z" fill="#0C0C0C"/>
</svg>
