<svg width="24" height="24" viewBox="0 0 24 24" fill="none" xmlns="http://www.w3.org/2000/svg">
<path fill-rule="evenodd" clip-rule="evenodd" d="M22 17.2242L17.987 7H16.5216L12.5086 17.2242H14.153L14.9794 15.0345H19.5377L20.3556 17.2242H22ZM15.5247 13.569L17.2543 8.95111L18.9924 13.569H15.5247ZM9.62703 17.1694C9.159 17.1694 8.77959 16.79 8.77959 16.3219C8.77959 15.8539 9.159 15.4745 9.62703 15.4745C10.0951 15.4745 10.4745 15.8539 10.4745 16.3219C10.4745 16.79 10.0951 17.1694 9.62703 17.1694ZM5.38979 16.3219C5.38979 16.79 5.76921 17.1694 6.23724 17.1694C6.70527 17.1694 7.08469 16.79 7.08469 16.3219C7.08469 15.8539 6.70527 15.4745 6.23724 15.4745C5.76921 15.4745 5.38979 15.8539 5.38979 16.3219ZM2.84745 17.1694C2.37942 17.1694 2 16.79 2 16.3219C2 15.8539 2.37942 15.4745 2.84745 15.4745C3.31548 15.4745 3.6949 15.8539 3.6949 16.3219C3.6949 16.79 3.31548 17.1694 2.84745 17.1694Z" fill="#0C0C0C"/>
</svg>
