<svg width="24" height="24" viewBox="0 0 24 24" fill="none" xmlns="http://www.w3.org/2000/svg">
<path d="M18.8571 9.71162H5.14286C4.83975 9.71162 4.54906 9.59121 4.33474 9.37688C4.12041 9.16255 4 8.87186 4 8.56876C4 8.26566 4.12041 7.97497 4.33474 7.76064C4.54906 7.54631 4.83975 7.4259 5.14286 7.4259H18.8571C19.1602 7.4259 19.4509 7.54631 19.6653 7.76064C19.8796 7.97497 20 8.26566 20 8.56876C20 8.87186 19.8796 9.16255 19.6653 9.37688C19.4509 9.59121 19.1602 9.71162 18.8571 9.71162ZM18.8571 16.5688H5.14286C4.83975 16.5688 4.54906 16.4484 4.33474 16.234C4.12041 16.0197 4 15.729 4 15.4259C4 15.1228 4.12041 14.8321 4.33474 14.6178C4.54906 14.4035 4.83975 14.283 5.14286 14.283H18.8571C19.1602 14.283 19.4509 14.4035 19.6653 14.6178C19.8796 14.8321 20 15.1228 20 15.4259C20 15.729 19.8796 16.0197 19.6653 16.234C19.4509 16.4484 19.1602 16.5688 18.8571 16.5688Z" fill="#0C0C0C"/>
</svg>
