<svg width="24" height="24" viewBox="0 0 24 24" fill="none" xmlns="http://www.w3.org/2000/svg">
<path d="M19.0601 12.8159C19.4743 12.8163 19.8104 12.4807 19.8107 12.0665L19.8159 5.0611C19.816 4.862 19.737 4.67101 19.5962 4.53022C19.4554 4.38943 19.2645 4.3104 19.0653 4.31055L12.0601 4.31569C11.6459 4.31599 11.3104 4.65202 11.3107 5.06624C11.311 5.48045 11.647 5.81599 12.0612 5.81569L17.2355 5.81189L9.98517 12.9544C9.97785 12.9613 9.97064 12.9684 9.96353 12.9757L5.81356 17.2236L5.8174 12.0596C5.81771 11.6454 5.48217 11.3094 5.06796 11.3091C4.65374 11.3088 4.31771 11.6443 4.3174 12.0585L4.3122 19.0639C4.31205 19.2629 4.391 19.4539 4.53167 19.5946C4.67234 19.7354 4.86319 19.8145 5.06219 19.8145L12 19.8145C12.4142 19.8145 12.75 19.4787 12.75 19.0645C12.75 18.6503 12.4142 18.3145 12 18.3145L6.84479 18.3145L11.0257 14.035C11.0254 14.0352 11.0259 14.0348 11.0257 14.035L18.3146 6.85453L18.3107 12.0654C18.3104 12.4796 18.6459 12.8156 19.0601 12.8159Z" fill="#0C0C0C"/>
</svg>
