<svg width="24" height="24" viewBox="0 0 24 24" fill="none" xmlns="http://www.w3.org/2000/svg">
<path d="M19.0602 12.8159C19.4744 12.8163 19.8104 12.4807 19.8108 12.0665L19.816 5.0611C19.8161 4.862 19.7371 4.67101 19.5963 4.53022C19.4555 4.38943 19.2645 4.3104 19.0654 4.31055L12.0602 4.31569C11.646 4.31599 11.3105 4.65202 11.3108 5.06624C11.3111 5.48045 11.6471 5.81599 12.0613 5.81569L17.2356 5.81189L9.98523 12.9544C9.97791 12.9613 9.9707 12.9684 9.9636 12.9757L5.81362 17.2236L5.81746 12.0596C5.81777 11.6454 5.48223 11.3094 5.06802 11.3091C4.6538 11.3088 4.31777 11.6443 4.31746 12.0585L4.31226 19.0639C4.31211 19.2629 4.39106 19.4539 4.53173 19.5946C4.6724 19.7354 4.86325 19.8145 5.06226 19.8145L12.0001 19.8145C12.4143 19.8145 12.7501 19.4787 12.7501 19.0645C12.7501 18.6503 12.4143 18.3145 12.0001 18.3145L6.84485 18.3145L11.0257 14.035C11.0255 14.0352 11.026 14.0348 11.0257 14.035L18.3146 6.85453L18.3108 12.0654C18.3104 12.4796 18.646 12.8156 19.0602 12.8159Z" fill="#0C0C0C"/>
</svg>
