<svg width="24" height="24" viewBox="0 0 24 24" fill="none" xmlns="http://www.w3.org/2000/svg">
<path d="M19.9019 16.4019C21.558 15.0135 22.534 13.4917 22.9387 12.7757C23.2123 12.2918 23.2123 11.7082 22.9387 11.2242C22.0961 9.73348 18.7769 4.74998 12 4.74998C10.6802 4.74998 9.49143 4.93902 8.42662 5.25447L9.69194 6.48364C10.4045 6.33449 11.1731 6.24998 12 6.24998C17.9377 6.24998 20.8667 10.6069 21.6329 11.9623C21.6417 11.9778 21.6439 11.9904 21.6439 12C21.6439 12.0096 21.6417 12.0221 21.6329 12.0376C21.255 12.7061 20.3511 14.1047 18.8196 15.3505L19.9019 16.4019Z" fill="#0C0C0C"/>
<path fill-rule="evenodd" clip-rule="evenodd" d="M20.8724 19.4359L3.47746 2.53795C3.39284 2.45575 3.33177 2.35845 3.29435 2.25446C3.1283 2.27234 2.96715 2.34553 2.84081 2.47379C2.55012 2.76888 2.55369 3.24374 2.84878 3.53442L5.77066 6.4127C3.07748 8.00345 1.5872 10.2939 1.06136 11.2242C0.787815 11.7082 0.787814 12.2918 1.06136 12.7757C1.90399 14.2665 5.22315 19.25 12 19.25C14.1862 19.25 16.0125 18.7314 17.5119 17.9787L19.5988 20.0345C19.8939 20.3252 20.3687 20.3216 20.6594 20.0265C20.8196 19.8639 20.8904 19.6467 20.8724 19.4359ZM2.36719 11.9623C2.86836 11.0757 4.29495 8.90481 6.88373 7.50916L8.87733 9.47301C8.32792 10.1594 8.00005 11.0262 8.00005 11.9685C8.00005 14.1951 9.83082 16.0001 12.0892 16.0001C13.0462 16.0001 13.9264 15.6759 14.623 15.133L16.3713 16.8551C15.1465 17.3945 13.696 17.75 12 17.75C6.06234 17.75 3.13335 13.3931 2.36719 12.0376C2.35844 12.0221 2.3562 12.0096 2.3562 12C2.3562 11.9904 2.35844 11.9778 2.36719 11.9623Z" fill="#0C0C0C"/>
</svg>
