<svg width="24" height="24" viewBox="0 0 24 24" fill="none" xmlns="http://www.w3.org/2000/svg">
<path fill-rule="evenodd" clip-rule="evenodd" d="M12 8C9.7909 8 8.00004 9.79086 8.00004 12C8.00004 14.2091 9.7909 16 12 16C14.2092 16 16 14.2091 16 12C16 9.79086 14.2092 8 12 8ZM9.50004 12C9.50004 10.6193 10.6193 9.5 12 9.5C13.3808 9.5 14.5 10.6193 14.5 12C14.5 13.3807 13.3808 14.5 12 14.5C10.6193 14.5 9.50004 13.3807 9.50004 12Z" fill="#0C0C0C"/>
<path fill-rule="evenodd" clip-rule="evenodd" d="M12 4.75C5.22315 4.75 1.90399 9.73351 1.06136 11.2243C0.787815 11.7082 0.787814 12.2918 1.06136 12.7757C1.90399 14.2665 5.22315 19.25 12 19.25C18.7769 19.25 22.0961 14.2665 22.9387 12.7757C23.2123 12.2918 23.2123 11.7082 22.9387 11.2243C22.0961 9.7335 18.7769 4.75 12 4.75ZM2.36719 11.9624C3.13336 10.6069 6.06234 6.25 12 6.25C17.9377 6.25 20.8667 10.6069 21.6329 11.9624C21.6417 11.9779 21.6439 11.9904 21.6439 12C21.6439 12.0096 21.6417 12.0221 21.6329 12.0376C20.8667 13.3931 17.9377 17.75 12 17.75C6.06234 17.75 3.13335 13.3931 2.36719 12.0376C2.35844 12.0221 2.3562 12.0096 2.3562 12C2.3562 11.9904 2.35844 11.9779 2.36719 11.9624Z" fill="#0C0C0C"/>
</svg>
