<svg width="24" height="24" viewBox="0 0 24 24" fill="none" xmlns="http://www.w3.org/2000/svg">
<path fill-rule="evenodd" clip-rule="evenodd" d="M5.89287 3.46429C5.51811 3.46429 5.2143 3.7681 5.2143 4.14287L5.21429 19.8571C5.21429 20.2319 5.5181 20.5357 5.89286 20.5357H10.25C10.6642 20.5357 11 20.8715 11 21.2857C11 21.6999 10.6642 22.0357 10.25 22.0357H5.89286C4.68967 22.0357 3.71429 21.0603 3.71429 19.8571L3.7143 4.14286C3.7143 2.93967 4.68968 1.96429 5.89287 1.96429H11.7297C12.3075 1.96429 12.8616 2.19382 13.2702 2.60238L18.1476 7.47983C18.5562 7.88839 18.7857 8.44252 18.7857 9.02031V12C18.7857 12.4142 18.4499 12.75 18.0357 12.75C17.6215 12.75 17.2857 12.4142 17.2857 12V10.6071H12.3214C11.1183 10.6071 10.1429 9.63177 10.1429 8.42858V3.46429H5.89287ZM17.2857 9.02031V9.10715H12.3214C11.9467 9.10715 11.6429 8.80334 11.6429 8.42858V3.46429H11.7297C11.9097 3.46429 12.0823 3.53579 12.2095 3.66304L17.087 8.54049C17.2142 8.66774 17.2857 8.84034 17.2857 9.02031ZM17.7808 15.3747C18.1258 14.9434 18.0559 14.3141 17.6246 13.9691C17.1934 13.6241 16.5641 13.694 16.2191 14.1253L13.414 17.6316C12.8117 18.3846 13.3477 19.5 14.312 19.5H16.9193L15.2191 21.6253C14.8741 22.0566 14.944 22.6859 15.3752 23.0309C15.8065 23.3759 16.4358 23.306 16.7808 22.8747L19.5858 19.3684C20.1882 18.6154 19.6521 17.5 18.6878 17.5H16.0806L17.7808 15.3747Z" fill="#0C0C0C"/>
</svg>
