<svg width="24" height="24" viewBox="0 0 24 24" fill="none" xmlns="http://www.w3.org/2000/svg">
<path fill-rule="evenodd" clip-rule="evenodd" d="M6.92106 21.2369H17.579C18.3638 21.2369 19.0001 20.6007 19.0001 19.8158V9.03598C19.0001 8.65909 18.8503 8.29764 18.5838 8.03114L13.7321 3.17934C13.4656 2.91284 13.1041 2.76312 12.7272 2.76312H6.92107C6.13624 2.76312 5.50001 3.39935 5.50001 4.18418L5.5 19.8158C5.5 20.6007 6.13623 21.2369 6.92106 21.2369ZM12 4.87772C12 4.1848 12.8378 3.83778 13.3278 4.32775L17.6723 8.67225C18.1622 9.16222 17.8152 10 17.1223 10H12.7778C12.3482 10 12 9.65178 12 9.22222V4.87772ZM12.5247 13.2498C12.8007 12.9047 12.7448 12.4013 12.3998 12.1253C12.0547 11.8493 11.5513 11.9052 11.2753 12.2502L9.03128 15.0553C8.54937 15.6577 8.97825 16.55 9.74967 16.55H12.8355L11.4753 18.2502C11.1993 18.5953 11.2552 19.0987 11.6002 19.3747C11.9453 19.6507 12.4487 19.5948 12.7247 19.2498L14.9687 16.4447C15.4506 15.8423 15.0218 14.95 14.2503 14.95H11.1645L12.5247 13.2498Z" fill="#0C0C0C"/>
</svg>
