<svg width="24" height="24" viewBox="0 0 24 24" fill="none" xmlns="http://www.w3.org/2000/svg">
<path fill-rule="evenodd" clip-rule="evenodd" d="M9.24041 2.99164C8.02805 2.99164 7.04524 3.97445 7.04524 5.18681L7.04524 5.88196H6.35021C5.13785 5.88196 4.15504 6.86477 4.15504 8.07713L4.15503 19.845C4.15503 21.0573 5.13784 22.0402 6.3502 22.0402H15.2277C16.4401 22.0402 17.4229 21.0573 17.4229 19.845V19.1498H18.1179C19.3303 19.1498 20.3131 18.167 20.3131 16.9547V9.29513C20.3131 8.71293 20.0818 8.15458 19.6701 7.74291L15.5618 3.63459C15.1501 3.22291 14.5918 2.99164 14.0096 2.99164H9.24041ZM17.4229 17.6498H18.1179C18.5018 17.6498 18.8131 17.3386 18.8131 16.9547V9.29513C18.8131 9.11076 18.7398 8.93394 18.6095 8.80357L14.5012 4.69525C14.3708 4.56488 14.194 4.49164 14.0096 4.49164H9.24041C8.85648 4.49164 8.54524 4.80288 8.54524 5.18681L8.54524 5.88196H11.1194C11.7016 5.88196 12.2599 6.11324 12.6716 6.52491L16.7799 10.6332C17.1916 11.0449 17.4229 11.6033 17.4229 12.1855V17.6498ZM6.35021 7.38196C5.96628 7.38196 5.65504 7.6932 5.65504 8.07714L5.65503 19.845C5.65503 20.2289 5.96627 20.5402 6.3502 20.5402H15.2277C15.6116 20.5402 15.9229 20.2289 15.9229 19.845V13.5756H11.9245C10.7121 13.5756 9.72932 12.5928 9.72932 11.3804V7.38196H6.35021ZM15.7193 11.6939C15.8235 11.7981 15.8912 11.9319 15.9141 12.0756H11.9245C11.5406 12.0756 11.2293 11.7643 11.2293 11.3804V7.39071C11.373 7.41371 11.5068 7.48141 11.611 7.58557L15.7193 11.6939Z" fill="#0C0C0C"/>
</svg>
