<svg width="24" height="24" viewBox="0 0 24 24" fill="none" xmlns="http://www.w3.org/2000/svg">
<path fill-rule="evenodd" clip-rule="evenodd" d="M17.579 21.2369H6.92106C6.13623 21.2369 5.5 20.6007 5.5 19.8158L5.50001 4.18418C5.50001 3.39935 6.13624 2.76312 6.92107 2.76312H12.7272C13.1041 2.76312 13.4656 2.91284 13.7321 3.17934L18.5838 8.03114C18.8503 8.29764 19.0001 8.65909 19.0001 9.03598V19.8158C19.0001 20.6007 18.3638 21.2369 17.579 21.2369ZM13.3278 4.32775C12.8378 3.83778 12 4.1848 12 4.87772V9.22222C12 9.65178 12.3482 10 12.7778 10H17.1223C17.8152 10 18.1622 9.16222 17.6723 8.67225L13.3278 4.32775Z" fill="#0C0C0C"/>
</svg>
