<svg width="24" height="24" viewBox="0 0 24 24" fill="none" xmlns="http://www.w3.org/2000/svg">
<path fill-rule="evenodd" clip-rule="evenodd" d="M4.5 3.75C4.08579 3.75 3.75 4.08579 3.75 4.5V9.75C3.75 10.1642 4.08579 10.5 4.5 10.5H5.25C5.66421 10.5 6 10.8358 6 11.25C6 11.6642 5.66421 12 5.25 12H4.5C3.25736 12 2.25 10.9926 2.25 9.75V4.5C2.25 3.25736 3.25736 2.25 4.5 2.25H19.5C20.7426 2.25 21.75 3.25736 21.75 4.5V9.75C21.75 10.9926 20.7426 12 19.5 12H18.75C18.3358 12 18 11.6642 18 11.25C18 10.8358 18.3358 10.5 18.75 10.5H19.5C19.9142 10.5 20.25 10.1642 20.25 9.75V4.5C20.25 4.08579 19.9142 3.75 19.5 3.75H4.5ZM12.4963 5.88177C12.9758 6.15579 13.1424 6.76665 12.8684 7.24616L10.7232 11H14.6898C15.5959 11 16.1639 11.9788 15.7144 12.7654L12.8684 17.7461C12.5944 18.2256 11.9835 18.3923 11.504 18.1183C11.0245 17.8443 10.8579 17.2334 11.1319 16.7539L13.2769 13H9.31018C8.40414 13 7.83612 12.0212 8.28567 11.2345L11.1319 6.25384C11.4059 5.77433 12.0168 5.60775 12.4963 5.88177ZM3.75 19.5C3.75 19.9142 4.08579 20.25 4.5 20.25H19.5C19.9142 20.25 20.25 19.9142 20.25 19.5V15.75C20.25 15.3358 20.5858 15 21 15C21.4142 15 21.75 15.3358 21.75 15.75V19.5C21.75 20.7426 20.7426 21.75 19.5 21.75H4.5C3.25736 21.75 2.25 20.7426 2.25 19.5V15.75C2.25 15.3358 2.58579 15 3 15C3.41421 15 3.75 15.3358 3.75 15.75V19.5Z" fill="black"/>
</svg>
