<svg width="24" height="24" viewBox="0 0 24 24" fill="none" xmlns="http://www.w3.org/2000/svg">
<path fill-rule="evenodd" clip-rule="evenodd" d="M6.2143 4.14287C6.2143 3.7681 6.51811 3.46429 6.89287 3.46429H11.1429V8.42858C11.1429 9.63177 12.1183 10.6071 13.3214 10.6071H18.2857V12C18.2857 12.4142 18.6215 12.75 19.0357 12.75C19.4499 12.75 19.7857 12.4142 19.7857 12V9.02031C19.7857 8.44252 19.5562 7.88839 19.1476 7.47983L14.2702 2.60238C13.8616 2.19382 13.3075 1.96429 12.7297 1.96429H6.89287C5.68968 1.96429 4.7143 2.93967 4.7143 4.14286L4.71429 19.8571C4.71429 21.0603 5.68967 22.0357 6.89286 22.0357H12.25C12.6642 22.0357 13 21.6999 13 21.2857C13 20.8715 12.6642 20.5357 12.25 20.5357H6.89286C6.5181 20.5357 6.21429 20.2319 6.21429 19.8571L6.2143 4.14287ZM18.2857 9.10715V9.02031C18.2857 8.84034 18.2142 8.66774 18.087 8.54049L13.2095 3.66304C13.0823 3.53579 12.9097 3.46429 12.7297 3.46429H12.6429V8.42858C12.6429 8.80334 12.9467 9.10715 13.3214 9.10715H18.2857ZM17 14C17.4142 14 17.75 14.3358 17.75 14.75V17.25H20.25C20.6642 17.25 21 17.5858 21 18C21 18.4142 20.6642 18.75 20.25 18.75H17.75V21.25C17.75 21.6642 17.4142 22 17 22C16.5858 22 16.25 21.6642 16.25 21.25V18.75H13.75C13.3358 18.75 13 18.4142 13 18C13 17.5858 13.3358 17.25 13.75 17.25H16.25V14.75C16.25 14.3358 16.5858 14 17 14Z" fill="#0C0C0C"/>
</svg>
