<svg width="24" height="24" viewBox="0 0 24 24" fill="none" xmlns="http://www.w3.org/2000/svg">
<path fill-rule="evenodd" clip-rule="evenodd" d="M7.5 1.75C5.98122 1.75 4.75 2.98122 4.75 4.5V19C4.75 20.5188 5.98122 21.75 7.5 21.75H17C18.5188 21.75 19.75 20.5188 19.75 19V8.8798C19.75 8.10896 19.4265 7.37351 18.8582 6.85263L14.0803 2.47283C13.5731 2.00791 12.9101 1.75 12.222 1.75H7.5ZM6.25 4.5C6.25 3.80964 6.80964 3.25 7.5 3.25H10.75V7.5C10.75 9.01844 11.9802 10.25 13.4993 10.25H18.25V19C18.25 19.6904 17.6904 20.25 17 20.25H7.5C6.80964 20.25 6.25 19.6904 6.25 19V4.5ZM18.2432 8.75H13.4993C12.8093 8.75 12.25 8.1907 12.25 7.5V3.25031C12.5527 3.25708 12.843 3.37354 13.0667 3.57856L17.8447 7.95836C18.0708 8.16568 18.2117 8.44779 18.2432 8.75Z" fill="#0C0C0C"/>
</svg>
