<svg width="24" height="24" viewBox="0 0 24 24" fill="none" xmlns="http://www.w3.org/2000/svg">
<path fill-rule="evenodd" clip-rule="evenodd" d="M7.5 1.75C5.98122 1.75 4.75 2.98122 4.75 4.5V9.5C4.75 9.91421 5.08579 10.25 5.5 10.25C5.91421 10.25 6.25 9.91421 6.25 9.5V4.5C6.25 3.80964 6.80964 3.25 7.5 3.25H10.75V7.5C10.75 9.01844 11.9802 10.25 13.4993 10.25H18.25V19C18.25 19.6904 17.6904 20.25 17 20.25H6C5.58579 20.25 5.25 20.5858 5.25 21C5.25 21.4142 5.58579 21.75 6 21.75H17C18.5188 21.75 19.75 20.5188 19.75 19V8.8798C19.75 8.10896 19.4265 7.37351 18.8582 6.85263L14.0803 2.47283C13.5731 2.00791 12.9101 1.75 12.222 1.75H7.5ZM12.25 3.25031V7.5C12.25 8.1907 12.8093 8.75 13.4993 8.75H18.2432C18.2117 8.44779 18.0708 8.16568 17.8447 7.95836L13.0667 3.57856C12.843 3.37354 12.5527 3.25708 12.25 3.25031Z" fill="#0C0C0C"/>
<path d="M6.6103 12.5641C6.85106 12.9011 6.77299 13.3695 6.43593 13.6103L3.79035 15.5L6.43593 17.3897C6.77299 17.6305 6.85106 18.0989 6.6103 18.4359C6.36954 18.773 5.90113 18.8511 5.56407 18.6103L2.06407 16.1103C1.86697 15.9695 1.75 15.7422 1.75 15.5C1.75 15.2578 1.86697 15.0305 2.06407 14.8897L5.56407 12.3897C5.90113 12.1489 6.36954 12.227 6.6103 12.5641Z" fill="#0C0C0C"/>
<path d="M9.06407 13.6103C8.72701 13.3695 8.64894 12.9011 8.8897 12.5641C9.13046 12.227 9.59887 12.1489 9.93593 12.3897L13.4359 14.8897C13.633 15.0305 13.75 15.2578 13.75 15.5C13.75 15.7422 13.633 15.9695 13.4359 16.1103L9.93593 18.6103C9.59887 18.8511 9.13046 18.773 8.8897 18.4359C8.64894 18.0989 8.72701 17.6305 9.06407 17.3897L11.7097 15.5L9.06407 13.6103Z" fill="#0C0C0C"/>
</svg>
