<svg width="24" height="24" viewBox="0 0 24 24" fill="none" xmlns="http://www.w3.org/2000/svg">
<path fill-rule="evenodd" clip-rule="evenodd" d="M6.92106 21.2369H17.579C18.3638 21.2369 19.0001 20.6007 19.0001 19.8158V9.03598C19.0001 8.65909 18.8503 8.29764 18.5838 8.03114L13.7321 3.17934C13.4656 2.91284 13.1041 2.76312 12.7272 2.76312H6.92107C6.13624 2.76312 5.50001 3.39935 5.50001 4.18418L5.5 19.8158C5.5 20.6007 6.13623 21.2369 6.92106 21.2369ZM12 4.87772C12 4.1848 12.8378 3.83778 13.3278 4.32775L17.6723 8.67225C18.1622 9.16222 17.8152 10 17.1223 10H12.7778C12.3482 10 12 9.65178 12 9.22222V4.87772ZM10.0393 14.1868C9.00458 14.1868 8.17095 15.0352 8.18918 16.0698C8.20697 17.0788 9.03005 17.8876 10.0393 17.8876L10.4553 17.8876C10.8307 17.8876 11.135 18.1919 11.135 18.5672C11.135 18.9426 10.8307 19.2469 10.4553 19.2469H10.0393C8.28863 19.2469 6.86087 17.8441 6.83002 16.0937C6.7984 14.2992 8.24445 12.8274 10.0393 12.8274H10.3661C10.7415 12.8274 11.0458 13.1317 11.0458 13.5071C11.0458 13.8825 10.7415 14.1868 10.3661 14.1868H10.0393ZM10.5642 15.4208C10.1889 15.4208 9.88456 15.7251 9.88456 16.1005C9.88456 16.4759 10.1889 16.7802 10.5642 16.7802H13.5577C13.9331 16.7802 14.2374 16.4759 14.2374 16.1005C14.2374 15.7251 13.9331 15.4208 13.5577 15.4208L10.5642 15.4208ZM15.9223 16.0698C15.9406 15.0352 15.1069 14.1868 14.0722 14.1868H13.7454C13.37 14.1868 13.0657 13.8825 13.0657 13.5071C13.0657 13.1317 13.37 12.8274 13.7454 12.8274H14.0722C15.8671 12.8274 17.3131 14.2992 17.2815 16.0937C17.2506 17.8441 15.8229 19.2469 14.0722 19.2469H13.6562C13.2808 19.2469 12.9765 18.9426 12.9765 18.5672C12.9765 18.1919 13.2808 17.8876 13.6562 17.8876H14.0722C15.0815 17.8876 15.9045 17.0788 15.9223 16.0698Z" fill="#0C0C0C"/>
</svg>
