<svg width="24" height="24" viewBox="0 0 24 24" fill="none" xmlns="http://www.w3.org/2000/svg">
<path d="M14 13L13.4697 12.4697C13.329 12.6103 13.25 12.8011 13.25 13H14ZM10 13H10.75C10.75 12.8011 10.671 12.6103 10.5303 12.4697L10 13ZM19.7071 7.29289L20.2374 7.82322L19.7071 7.29289ZM11.5 20.75H12.5V19.25H11.5V20.75ZM14.75 18.5V13H13.25V18.5H14.75ZM18.5 3.25H5.5V4.75H18.5V3.25ZM9.25 13V18.5H10.75V13H9.25ZM3.25 5.5V6.58579H4.75V5.5H3.25ZM3.76256 7.82322L9.46967 13.5303L10.5303 12.4697L4.82322 6.76256L3.76256 7.82322ZM14.5303 13.5303L20.2374 7.82322L19.1768 6.76256L13.4697 12.4697L14.5303 13.5303ZM20.75 6.58579V5.5H19.25V6.58579H20.75ZM20.2374 7.82322C20.5656 7.49503 20.75 7.04991 20.75 6.58579H19.25C19.25 6.65209 19.2237 6.71568 19.1768 6.76256L20.2374 7.82322ZM5.5 3.25C4.25736 3.25 3.25 4.25736 3.25 5.5H4.75C4.75 5.08579 5.08579 4.75 5.5 4.75V3.25ZM18.5 4.75C18.9142 4.75 19.25 5.08579 19.25 5.5H20.75C20.75 4.25736 19.7426 3.25 18.5 3.25V4.75ZM3.25 6.58579C3.25 7.04992 3.43437 7.49503 3.76256 7.82322L4.82322 6.76256C4.77634 6.71568 4.75 6.65209 4.75 6.58579H3.25ZM12.5 20.75C13.7426 20.75 14.75 19.7426 14.75 18.5H13.25C13.25 18.9142 12.9142 19.25 12.5 19.25V20.75ZM11.5 19.25C11.0858 19.25 10.75 18.9142 10.75 18.5H9.25C9.25 19.7426 10.2574 20.75 11.5 20.75V19.25Z" fill="#0C0C0C"/>
</svg>
