<svg width="24" height="24" viewBox="0 0 24 24" fill="none" xmlns="http://www.w3.org/2000/svg">
<path fill-rule="evenodd" clip-rule="evenodd" d="M6 2.25C5.0335 2.25 4.25 3.0335 4.25 4V8V14V21C4.25 21.4142 4.58579 21.75 5 21.75C5.41421 21.75 5.75 21.4142 5.75 21V15.7323C5.83165 15.744 5.91512 15.75 6 15.75H19.1834C20.831 15.75 21.5657 13.6808 20.287 12.6418L15.5104 8.76081C15.3808 8.65555 15.3888 8.45533 15.5264 8.36077L19.7717 5.44207C21.1879 4.46845 20.4989 2.25 18.7803 2.25H6ZM5.75 14C5.75 14.1381 5.86193 14.25 6 14.25H19.1834C19.4188 14.25 19.5237 13.9544 19.3411 13.806L14.5645 9.92498C13.6576 9.18819 13.7137 7.78665 14.6766 7.12471L18.922 4.20601C19.1243 4.06692 19.0258 3.75 18.7803 3.75H6C5.86193 3.75 5.75 3.86193 5.75 4V8V14Z" fill="#0C0C0C"/>
</svg>
