<svg width="24" height="24" viewBox="0 0 24 24" fill="none" xmlns="http://www.w3.org/2000/svg">
<path fill-rule="evenodd" clip-rule="evenodd" d="M22 16C22 18.7614 19.7614 21 17 21C14.2386 21 12 18.7614 12 16C12 13.2386 14.2386 11 17 11C19.7614 11 22 13.2386 22 16ZM17 13.3571C17.2761 13.3571 17.5 13.581 17.5 13.8571V15.5L19.1429 15.5C19.419 15.5 19.6429 15.7239 19.6429 16C19.6429 16.2761 19.419 16.5 19.1429 16.5L17.5 16.5V18.1429C17.5 18.419 17.2761 18.6429 17 18.6429C16.7239 18.6429 16.5 18.419 16.5 18.1429V16.5H14.8571C14.581 16.5 14.3571 16.2761 14.3571 16C14.3571 15.7239 14.581 15.5 14.8571 15.5H16.5V13.8571C16.5 13.581 16.7239 13.3571 17 13.3571Z" fill="#0C0C0C"/>
<path d="M13.2502 7.69995L20 7.69995C20.2761 7.69995 20.5 7.92381 20.5 8.19995V11.126C21.0889 11.5497 21.5978 12.0774 22 12.6822V8.19995C22 7.09539 21.1046 6.19995 20 6.19995L13.2602 6.19995C12.3464 6.19381 11.5521 5.56856 11.3324 4.68031L11.2926 4.51969C11.0718 3.62704 10.2707 3 9.35116 3H4C2.89543 3 2 3.89543 2 5V17C2 18.1045 2.89543 19 4 19H11.8027C11.5341 18.5357 11.326 18.0321 11.189 17.5H4C3.72386 17.5 3.5 17.2761 3.5 17V5C3.5 4.72386 3.72386 4.5 4 4.5H9.35116C9.58105 4.5 9.78132 4.65676 9.83653 4.87992L9.87627 5.04054C10.2608 6.59501 11.6508 7.6892 13.2502 7.69995Z" fill="#0C0C0C"/>
</svg>
