<svg width="24" height="24" viewBox="0 0 24 24" fill="none" xmlns="http://www.w3.org/2000/svg">
<path fill-rule="evenodd" clip-rule="evenodd" d="M20 7.19995L13.2602 7.19995C12.3464 7.19381 11.5521 6.56856 11.3324 5.68031L11.2926 5.51969C11.0718 4.62704 10.2707 4 9.35116 4H4C2.89543 4 2 4.89543 2 6V17C2 18.1045 2.89543 19 4 19L20 19C21.1046 19 22 18.1045 22 17V9.19995C22 8.09539 21.1046 7.19995 20 7.19995ZM9.87262 11.0509C8.76194 11.0509 7.86709 11.9617 7.88666 13.0722C7.90575 14.1553 8.78928 15.0234 9.87262 15.0234L10.3192 15.0234C10.7221 15.0234 11.0488 15.3501 11.0488 15.753C11.0488 16.156 10.7221 16.4826 10.3192 16.4826L9.87262 16.4826C7.99341 16.4826 6.4608 14.9768 6.42769 13.0979C6.39374 11.1716 7.94599 9.59171 9.87262 9.59171L10.2235 9.59171C10.6264 9.59171 10.9531 9.91836 10.9531 10.3213C10.9531 10.7243 10.6264 11.0509 10.2235 11.0509H9.87262ZM10.4361 12.3756C10.0332 12.3756 9.70653 12.7022 9.70653 13.1052C9.70653 13.5081 10.0332 13.8348 10.4361 13.8348H13.6494C14.0524 13.8348 14.379 13.5081 14.379 13.1052C14.379 12.7022 14.0524 12.3756 13.6494 12.3756L10.4361 12.3756ZM16.1877 13.0722C16.2073 11.9617 15.3124 11.0509 14.2017 11.0509H13.8509C13.4479 11.0509 13.1213 10.7243 13.1213 10.3213C13.1213 9.91836 13.4479 9.59171 13.8509 9.59171H14.2017C16.1284 9.59171 17.6806 11.1716 17.6466 13.0979C17.6135 14.9768 16.0809 16.4826 14.2017 16.4826L13.7552 16.4826C13.3522 16.4826 13.0256 16.156 13.0256 15.753C13.0256 15.3501 13.3522 15.0234 13.7552 15.0234L14.2017 15.0234C15.2851 15.0234 16.1686 14.1553 16.1877 13.0722Z" fill="#0C0C0C"/>
</svg>
