<svg width="24" height="24" viewBox="0 0 24 24" fill="none" xmlns="http://www.w3.org/2000/svg">
<path fill-rule="evenodd" clip-rule="evenodd" d="M20 8.69995L13.2502 8.69995C11.6508 8.6892 10.2608 7.59501 9.87627 6.04054L9.83653 5.87992C9.78132 5.65676 9.58105 5.5 9.35116 5.5H4C3.72386 5.5 3.5 5.72386 3.5 6V17C3.5 17.2761 3.72386 17.5 4 17.5H10.8027C12 17.5 12 19 10.8027 19H4C2.89543 19 2 18.1045 2 17V6C2 4.89543 2.89543 4 4 4H9.35116C10.2707 4 11.0718 4.62704 11.2926 5.51969L11.3324 5.68031C11.5521 6.56856 12.3464 7.19381 13.2602 7.19995L20 7.19995C21.1046 7.19995 22 8.09539 22 9.19995V10.5C22 11.5 20.5 11.5 20.5 10.5V9.19995C20.5 8.92381 20.2761 8.69995 20 8.69995ZM18.7809 14.3747C19.1259 13.9434 19.056 13.3141 18.6247 12.9691C18.1934 12.6241 17.5641 12.694 17.2191 13.1253L14.4141 16.6316C13.8117 17.3846 14.3478 18.5 15.3121 18.5H17.9194L16.2191 20.6253C15.8741 21.0566 15.944 21.6859 16.3753 22.0309C16.8066 22.3759 17.4359 22.306 17.7809 21.8747L20.5859 18.3684C21.1883 17.6154 20.6522 16.5 19.6879 16.5H17.0806L18.7809 14.3747Z" fill="#0C0C0C"/>
</svg>
