<svg width="24" height="24" viewBox="0 0 24 24" fill="none" xmlns="http://www.w3.org/2000/svg">
<path fill-rule="evenodd" clip-rule="evenodd" d="M20 7.69995L13.2502 7.69995C11.6508 7.6892 10.2608 6.59501 9.87627 5.04054L9.83653 4.87992C9.78132 4.65676 9.58105 4.5 9.35116 4.5H4C3.72386 4.5 3.5 4.72386 3.5 5V17C3.5 17.2761 3.72386 17.5 4 17.5H10.8027C12 17.5 12 19 10.8027 19H4C2.89543 19 2 18.1045 2 17V5C2 3.89543 2.89543 3 4 3H9.35116C10.2707 3 11.0718 3.62704 11.2926 4.51969L11.3324 4.68031C11.5521 5.56856 12.3464 6.19381 13.2602 6.19995L20 6.19995C21.1046 6.19995 22 7.09539 22 8.19995V9.5C22 10.5 20.5 10.5 20.5 9.5V8.19995C20.5 7.92381 20.2761 7.69995 20 7.69995ZM18.8866 12.6796C19.2054 12.3449 19.7223 12.3449 20.0411 12.6796L23.3064 16.1082C23.3849 16.1906 23.4441 16.2856 23.4839 16.387C23.5203 16.4794 23.5417 16.5799 23.545 16.6852L23.5455 16.7064L23.5455 16.7143L23.5455 16.7222C23.5436 16.9348 23.4669 17.1468 23.3153 17.3109L23.3053 17.3216L20.0411 20.7489C19.7223 21.0837 19.2054 21.0837 18.8866 20.7489C18.5678 20.4142 18.5678 19.8715 18.8866 19.5368L20.7584 17.5714H15.2709C14.8201 17.5714 14.4546 17.1877 14.4546 16.7143C14.4546 16.2409 14.8201 15.8571 15.2709 15.8571H20.7584L18.8866 13.8918C18.5678 13.5571 18.5678 13.0143 18.8866 12.6796Z" fill="#0C0C0C"/>
</svg>
