<svg width="24" height="24" viewBox="0 0 24 24" fill="none" xmlns="http://www.w3.org/2000/svg">
<path fill-rule="evenodd" clip-rule="evenodd" d="M22 17C22 19.7614 19.7614 22 17 22C14.2386 22 12 19.7614 12 17C12 14.2386 14.2386 12 17 12C19.7614 12 22 14.2386 22 17ZM17 14.3571C17.2761 14.3571 17.5 14.581 17.5 14.8571V16.5L19.1429 16.5C19.419 16.5 19.6429 16.7239 19.6429 17C19.6429 17.2761 19.419 17.5 19.1429 17.5L17.5 17.5V19.1429C17.5 19.419 17.2761 19.6429 17 19.6429C16.7239 19.6429 16.5 19.419 16.5 19.1429V17.5H14.8571C14.581 17.5 14.3571 17.2761 14.3571 17C14.3571 16.7239 14.581 16.5 14.8571 16.5H16.5V14.8571C16.5 14.581 16.7239 14.3571 17 14.3571Z" fill="#0C0C0C"/>
<path d="M13.2502 8.69995L20 8.69995C20.2761 8.69995 20.5 8.92381 20.5 9.19995V12.126C21.0889 12.5497 21.5978 13.0774 22 13.6822V9.19995C22 8.09539 21.1046 7.19995 20 7.19995L13.2602 7.19995C12.3464 7.19381 11.5521 6.56856 11.3324 5.68031L11.2926 5.51969C11.0718 4.62704 10.2707 4 9.35116 4H4C2.89543 4 2 4.89543 2 6V18C2 19.1045 2.89543 20 4 20H11.8027C11.5341 19.5357 11.326 19.0321 11.189 18.5H4C3.72386 18.5 3.5 18.2761 3.5 18V6C3.5 5.72386 3.72386 5.5 4 5.5H9.35116C9.58105 5.5 9.78132 5.65676 9.83653 5.87992L9.87627 6.04054C10.2608 7.59501 11.6508 8.6892 13.2502 8.69995Z" fill="#0C0C0C"/>
</svg>
