<svg width="24" height="24" viewBox="0 0 24 24" fill="none" xmlns="http://www.w3.org/2000/svg">
<path fill-rule="evenodd" clip-rule="evenodd" d="M20 7.19995L13.2602 7.19995C12.3464 7.19381 11.5521 6.56856 11.3324 5.68031L11.2926 5.51969C11.0718 4.62704 10.2707 4 9.35116 4H4C2.89543 4 2 4.89543 2 6V17C2 18.1045 2.89543 19 4 19L20 19C21.1046 19 22 18.1045 22 17V9.19995C22 8.09539 21.1046 7.19995 20 7.19995ZM12.5247 10.4998C12.8007 10.1547 12.7448 9.65131 12.3998 9.37531C12.0547 9.0993 11.5513 9.15523 11.2753 9.50024L9.03128 12.3053C8.54937 12.9077 8.97825 13.8 9.74967 13.8H12.8355L11.4753 15.5002C11.1993 15.8453 11.2552 16.3487 11.6002 16.6247C11.9453 16.9007 12.4487 16.8448 12.7247 16.4998L14.9687 13.6947C15.4506 13.0923 15.0218 12.2 14.2503 12.2H11.1645L12.5247 10.4998Z" fill="#0C0C0C"/>
</svg>
