<svg width="24" height="24" viewBox="0 0 24 24" fill="none" xmlns="http://www.w3.org/2000/svg">
<path fill-rule="evenodd" clip-rule="evenodd" d="M21 11.25V9.19995C21 8.09539 20.1046 7.19995 19 7.19995L12.2602 7.19995C11.3464 7.19381 10.5521 6.56856 10.3324 5.68031L10.2926 5.51969C10.0718 4.62704 9.27073 4 8.35116 4H4C2.89543 4 2 4.89543 2 6V18C2 19.1045 2.89543 20 4 20L19 20C19.6231 20 20.1797 19.715 20.5465 19.2683C20.7155 19.1077 20.8537 18.9121 20.9491 18.6894L23.092 13.6894C23.5869 12.5346 22.7398 11.25 21.4835 11.25H21ZM12.2502 8.69992C10.6508 8.68917 9.26083 7.59501 8.87627 6.04054L8.83653 5.87992C8.78132 5.65676 8.58105 5.5 8.35116 5.5H4C3.72386 5.5 3.5 5.72386 3.5 6V15.9294L5.05089 12.3106C5.32665 11.6672 5.95935 11.25 6.6594 11.25H19.5V9.19995C19.5 8.92381 19.2761 8.69995 19 8.69995L12.2602 8.69995L12.2502 8.69992ZM6.42961 12.9015C6.469 12.8096 6.55939 12.75 6.6594 12.75H21.4835C21.6629 12.75 21.7839 12.9335 21.7132 13.0985L19.5704 18.0985C19.531 18.1904 19.4406 18.25 19.3406 18.25H4.1374L6.42961 12.9015Z" fill="#0C0C0C"/>
</svg>
