<svg width="24" height="24" viewBox="0 0 24 24" fill="none" xmlns="http://www.w3.org/2000/svg">
<path fill-rule="evenodd" clip-rule="evenodd" d="M13.1324 6.49993L18.1138 6.49993C19.4945 6.49993 20.6138 7.61922 20.6138 8.99993V9.75H7.93785C7.22251 9.75 6.5695 10.157 6.25447 10.7993L3.49265 16.4295C3.25255 15.8448 3.11378 15.2361 3.11378 14.7499L3.11378 13.2574L3.11377 13.25V6C3.11377 4.61929 4.23306 3.5 5.61377 3.5H9.37641C10.2776 3.5 11.0595 4.12194 11.2622 5C11.4638 5.87298 12.2379 6.4928 13.1324 6.49993ZM8.78064 11C8.31794 11 7.89309 11.2556 7.67631 11.6644L5.02479 16.6644C4.5833 17.4969 5.18677 18.5 6.12912 18.5H18.0721C18.5348 18.5 18.9596 18.2444 19.1764 17.8356L21.8279 12.8356C22.2694 12.0031 21.6659 11 20.7236 11H8.78064Z" fill="#0C0C0C"/>
</svg>
