<svg width="24" height="24" viewBox="0 0 24 24" fill="none" xmlns="http://www.w3.org/2000/svg">
<path d="M13.2502 8.69995L20 8.69995C20.2761 8.69995 20.5 8.92381 20.5 9.19995V10.5C20.5 11.5 22 11.5 22 10.5V9.19995C22 8.09539 21.1046 7.19995 20 7.19995L13.2602 7.19995C12.3464 7.19381 11.5521 6.56856 11.3324 5.68031L11.2926 5.51969C11.0718 4.62704 10.2707 4 9.35116 4H4C2.89543 4 2 4.89543 2 6V17C2 18.1045 2.89543 19 4 19H10.8027C12 19 12 17.5 10.8027 17.5H4C3.72386 17.5 3.5 17.2761 3.5 17V6C3.5 5.72386 3.72386 5.5 4 5.5H9.35116C9.58105 5.5 9.78132 5.65676 9.83653 5.87992L9.87627 6.04054C10.2608 7.59501 11.6508 8.6892 13.2502 8.69995Z" fill="#0C0C0C"/>
<path d="M16.8296 13.0536C16.0535 12.2775 14.7918 12.2886 14.0295 13.0783C13.286 13.8485 13.2968 15.0725 14.0538 15.8295L14.3692 16.1449C14.6621 16.4378 14.6621 16.9127 14.3692 17.2055C14.0763 17.4984 13.6014 17.4984 13.3085 17.2055L12.9931 16.8901C11.6576 15.5546 11.6386 13.3953 12.9503 12.0365C14.2952 10.6434 16.5211 10.6238 17.8903 11.993L18.1381 12.2408C18.431 12.5337 18.431 13.0085 18.1381 13.3014C17.8452 13.5943 17.3703 13.5943 17.0774 13.3014L16.8296 13.0536Z" fill="#0C0C0C"/>
<path d="M19.9649 16.1889C20.7921 17.016 20.6821 18.3871 19.7336 19.0718L19.673 19.1155C18.892 19.6793 17.8173 19.593 17.1362 18.9119L16.5693 18.3451C16.2764 18.0522 15.8016 18.0522 15.5087 18.3451C15.2158 18.638 15.2158 19.1128 15.5087 19.4057L16.0756 19.9726C17.2772 21.1742 19.1731 21.3263 20.551 20.3317L20.6116 20.288C22.3091 19.0626 22.506 16.6086 21.0256 15.1282C20.7327 14.8353 20.2578 14.8353 19.9649 15.1282C19.672 15.4211 19.672 15.896 19.9649 16.1889Z" fill="#0C0C0C"/>
<path d="M16.591 14.4697C16.2981 14.1768 15.8232 14.1768 15.5303 14.4697C15.2374 14.7626 15.2374 15.2374 15.5303 15.5303L17.7699 17.7699C18.0628 18.0628 18.5377 18.0628 18.8306 17.7699C19.1235 17.477 19.1235 17.0022 18.8306 16.7093L16.591 14.4697Z" fill="#0C0C0C"/>
</svg>
