<svg width="24" height="24" viewBox="0 0 24 24" fill="none" xmlns="http://www.w3.org/2000/svg">
<path fill-rule="evenodd" clip-rule="evenodd" d="M20.5 12C20.5 16.6944 16.6944 20.5 12 20.5C7.30558 20.5 3.5 16.6944 3.5 12C3.5 7.30558 7.30558 3.5 12 3.5C16.6944 3.5 20.5 7.30558 20.5 12ZM22 12C22 17.5228 17.5228 22 12 22C6.47715 22 2 17.5228 2 12C2 6.47715 6.47715 2 12 2C17.5228 2 22 6.47715 22 12ZM14.4749 15.8891C14.8654 16.2796 15.4986 16.2796 15.8891 15.8891C16.2796 15.4986 16.2796 14.8654 15.8891 14.4749L9.52513 8.11091C9.1346 7.72039 8.50144 7.72039 8.11091 8.11091C7.72039 8.50144 7.72039 9.1346 8.11091 9.52513L14.4749 15.8891Z" fill="#0C0C0C"/>
</svg>
