<svg width="24" height="24" viewBox="0 0 24 24" fill="none" xmlns="http://www.w3.org/2000/svg">
<path d="M11.9991 2.5C6.75384 2.5 2.5 6.8609 2.5 12.2407C2.5 16.5442 5.22178 20.1947 8.99682 21.4827C9.47213 21.5724 9.64534 21.2717 9.64534 21.0133C9.64534 20.7819 9.63717 20.1696 9.63251 19.357C6.99004 19.9454 6.4325 18.0511 6.4325 18.0511C6.00035 16.9257 5.3775 16.6261 5.3775 16.6261C4.51495 16.0222 5.44282 16.0342 5.44282 16.0342C6.39634 16.1029 6.89789 17.0381 6.89789 17.0381C7.74528 18.5264 9.12163 18.0965 9.66284 17.8472C9.74915 17.2181 9.99467 16.7888 10.2659 16.5454C8.15644 16.2996 5.93853 15.4637 5.93853 11.7313C5.93853 10.6681 6.30886 9.79806 6.91656 9.11759C6.81858 8.87123 6.49257 7.88042 7.00987 6.5398C7.00987 6.5398 7.8071 6.27789 9.62201 7.53838C10.3796 7.32192 11.1926 7.21429 12.0003 7.21011C12.8074 7.21429 13.6198 7.32192 14.3786 7.53838C16.1923 6.27789 16.9884 6.5398 16.9884 6.5398C17.5068 7.88042 17.1808 8.87123 17.0834 9.11759C17.6923 9.79806 18.0597 10.6681 18.0597 11.7313C18.0597 15.4733 15.8383 16.2967 13.7225 16.5376C14.0631 16.8384 14.3669 17.4328 14.3669 18.3411C14.3669 19.6434 14.3552 20.694 14.3552 21.0133C14.3552 21.2741 14.5267 21.5772 15.0084 21.4821C18.7805 20.1912 21.5 16.543 21.5 12.2407C21.5 6.8609 17.2462 2.5 11.9991 2.5Z" fill="#0C0C0C"/>
</svg>
