<svg width="24" height="24" viewBox="0 0 24 24" fill="none" xmlns="http://www.w3.org/2000/svg">
<path fill-rule="evenodd" clip-rule="evenodd" d="M12 21.5C17.2467 21.5 21.5 17.2467 21.5 12C21.5 6.75329 17.2467 2.5 12 2.5C6.75329 2.5 2.5 6.75329 2.5 12C2.5 17.2467 6.75329 21.5 12 21.5ZM15.928 5.90591C15.9729 5.77705 16.1014 5.69046 16.2454 5.69195C16.3809 5.69357 16.5019 5.7732 16.5497 5.8926L18.5232 10.8469C18.5234 10.8499 18.5243 10.8528 18.5258 10.8555L19.51 13.3243C19.5616 13.4547 19.5152 13.6011 19.3958 13.6835L12.1622 18.634L12.1596 18.6378C12.1574 18.6392 12.1553 18.6404 12.1532 18.6417C12.1502 18.6434 12.1472 18.6452 12.1441 18.6474C12.1435 18.6474 12.1428 18.6477 12.1422 18.648C12.1415 18.6483 12.1408 18.6486 12.1402 18.6486C12.1389 18.6498 12.1375 18.6511 12.1352 18.652C12.1285 18.656 12.1216 18.6597 12.1145 18.6631L12.107 18.6665C12.1056 18.6678 12.1043 18.6678 12.103 18.6678C12.1022 18.6686 12.1019 18.6689 12.1015 18.669C12.1019 18.669 12.1013 18.669 12.1015 18.669C12.0908 18.6743 12.0787 18.6788 12.0672 18.6823H12.0632C12.0619 18.6836 12.0606 18.6836 12.0583 18.6836C12.0561 18.6843 12.0538 18.685 12.0516 18.6856C12.0495 18.6862 12.0473 18.6868 12.0451 18.6873C12.044 18.6879 12.0424 18.6882 12.0407 18.6886C12.0391 18.6889 12.0375 18.6892 12.0362 18.6898C12.0336 18.6898 12.0323 18.6907 12.0313 18.6907C12.0284 18.6907 12.0274 18.6907 12.0247 18.6919H12.0221C12.0168 18.6932 12.0132 18.6932 12.008 18.6932C12.0001 18.6949 11.9922 18.6954 11.984 18.696C11.9801 18.6962 11.9762 18.6965 11.9721 18.6969C11.9655 18.6969 11.9588 18.6966 11.952 18.6963C11.9453 18.696 11.9386 18.6957 11.932 18.6957L11.9063 18.6919C11.9052 18.6917 11.9042 18.6915 11.9031 18.6913C11.8979 18.6903 11.8927 18.6893 11.8872 18.6873C11.8833 18.6873 11.8807 18.6861 11.878 18.6861C11.8715 18.6836 11.8665 18.6823 11.8616 18.6811C11.8603 18.6799 11.8603 18.6799 11.859 18.6799L11.8369 18.6727V18.6715C11.8327 18.6703 11.8284 18.6685 11.8243 18.6667C11.8211 18.6654 11.8181 18.6641 11.8152 18.6631L11.8099 18.6594C11.8076 18.6594 11.8063 18.6582 11.805 18.657C11.8037 18.657 11.8024 18.6557 11.8024 18.6557C11.8019 18.6557 11.8016 18.6556 11.8014 18.6554C11.8009 18.655 11.8006 18.6545 11.7998 18.6545C11.7968 18.6533 11.7944 18.6516 11.792 18.6499C11.7901 18.6486 11.7881 18.6472 11.7859 18.6461L11.7728 18.639C11.7728 18.6384 11.7728 18.6381 11.7726 18.6379C11.7725 18.6378 11.7721 18.6378 11.7715 18.6378L11.7701 18.6353L4.53655 13.6832C4.41648 13.6016 4.36909 13.4546 4.42077 13.324L5.40753 10.8469C5.40806 10.8465 5.40838 10.8461 5.40866 10.8457C5.40906 10.8451 5.40938 10.8447 5.41016 10.8447L7.38137 5.8926C7.43115 5.76972 7.55747 5.68946 7.69714 5.69195C7.83681 5.69547 7.95914 5.78104 8.00303 5.90591L9.63875 10.6462H14.2923L15.928 5.90591Z" fill="#0C0C0C"/>
</svg>
