<svg width="24" height="24" viewBox="0 0 24 24" fill="none" xmlns="http://www.w3.org/2000/svg">
<path d="M13.3016 13.7506C13.2426 13.6914 13.124 13.6316 13.0651 13.6316H12.4734C12.4137 13.6316 12.3548 13.6316 12.2958 13.5725L11.8817 13.3352C11.8221 13.2761 11.7631 13.2163 11.7041 13.1571L11.5855 12.8601C11.5265 12.7418 11.4079 12.6228 11.29 12.6228H11.0528C10.9349 12.6228 10.8752 12.5637 10.8163 12.5046L10.5208 12.0886C10.4611 12.0294 10.3432 11.9703 10.2246 11.9703H9.92907C9.86943 11.9703 9.81046 11.9703 9.75149 11.9111L9.33671 11.733C9.15981 11.6732 8.98224 11.733 8.86363 11.8513L8.27195 12.8601C8.27195 12.9199 8.21298 12.9199 8.15334 12.979L7.9168 13.1571C7.79887 13.2163 7.73923 13.3352 7.73923 13.4535V14.1068C7.73923 14.2251 7.79887 14.344 7.85784 14.4031L8.27195 14.7593C8.33092 14.8185 8.39055 14.9374 8.39055 15.0564V15.2345C8.39055 15.3528 8.44952 15.4717 8.56813 15.5309L9.10017 15.8279C9.15981 15.8871 9.21878 15.9462 9.27774 16.0652L9.51428 17.4893V17.6674L9.33671 18.1425C9.27774 18.3199 9.33671 18.498 9.51428 18.5579C9.63289 18.617 9.75149 18.7951 9.69186 18.9134L9.57392 19.3885C9.57392 19.5075 9.57392 19.6258 9.63289 19.6849L10.4021 20.5163C10.4611 20.5754 10.5797 20.6345 10.6387 20.6345H10.8163C10.9938 20.6345 11.1714 20.4564 11.1714 20.279V19.6849C11.1714 19.6258 11.1714 19.5666 11.1124 19.5075L10.8163 19.0915C10.6983 18.9134 10.7573 18.6761 10.9349 18.5579L11.29 18.3798C11.349 18.3798 11.4079 18.3199 11.4079 18.2608L12.1182 17.3112C12.1772 17.252 12.1772 17.1929 12.1772 17.0739L12.1182 16.3615L12.4734 16.4805C12.5913 16.5396 12.7689 16.4805 12.8279 16.3615L13.0651 16.0652C13.124 16.006 13.124 15.9462 13.124 15.8871V15.0564C13.124 14.9966 13.124 14.9374 13.183 14.8783L13.4202 14.344C13.4792 14.2251 13.4792 14.0476 13.3606 13.9287L13.3016 13.7506Z" fill="#0C0C0C"/>
<path d="M17.621 5.85766L17.7396 6.03575C17.8575 6.27299 17.7986 6.51023 17.562 6.62919L17.3845 6.68833C17.0883 6.86643 17.0883 7.22262 17.3255 7.40072L17.7396 7.63796L17.7986 7.6971L19.1005 8.23139C19.2781 8.29053 19.4557 8.23139 19.5736 8.11311C19.6326 7.99415 19.7512 7.99415 19.8698 7.99415C20.0474 8.29053 20.1653 8.64673 20.2839 9.00292L20.0474 8.88397C19.9288 8.82483 19.7512 8.88397 19.6326 9.00292L19.4557 9.24016C19.3371 9.35912 19.2185 9.35912 19.1005 9.35912L18.6268 9.24016C18.4492 9.18102 18.3313 9.06207 18.3313 8.88397C18.3313 8.64673 18.0948 8.46863 17.8575 8.52845L17.0293 8.76568H16.2011C16.0235 8.76568 15.8459 8.88397 15.8459 9.06207L15.787 9.41826C15.787 9.53722 15.7273 9.59636 15.6094 9.6555L14.8402 10.1898C14.7215 10.2489 14.6626 10.427 14.6626 10.546L14.7805 11.8518C14.7805 11.9701 14.8402 12.0299 14.8991 12.0891L15.7273 12.8014C15.8459 12.8606 15.9646 12.9197 16.0825 12.8606L17.0293 12.5635C17.1479 12.5044 17.3255 12.5635 17.4434 12.6825L17.5024 12.8014C17.562 12.8606 17.68 12.9197 17.7986 12.9197H18.0948V13.8694C18.0948 13.9285 18.0948 14.0474 18.1537 14.1066L18.5089 14.5219C18.5678 14.6409 18.6268 14.7598 18.5678 14.8781L18.3313 15.4716C18.2717 15.5905 18.3313 15.7686 18.4492 15.8869L18.5089 15.9467C18.6268 16.065 18.6268 16.1839 18.6268 16.3029L18.5678 16.4803C18.5089 16.5993 18.5678 16.7774 18.6864 16.8365L18.8633 16.9555C18.9819 17.0146 19.0409 17.1336 19.0409 17.2519C17.4434 19.3884 14.8402 20.7533 11.9997 20.7533C7.08862 20.7533 3.12373 16.7774 3.12373 11.8518C3.12373 10.7832 3.3013 9.77446 3.65645 8.82483L4.18916 10.1898C4.24813 10.3087 4.30777 10.3679 4.36674 10.427L5.49114 11.0205C5.72768 11.1394 6.02318 11.0205 6.08282 10.7241L6.31936 9.77446C6.37833 9.59636 6.5559 9.47807 6.73347 9.47807H7.73927C7.79891 9.47807 7.85788 9.47807 7.91684 9.41826L8.98228 8.82483C9.10021 8.76568 9.21882 8.58759 9.21882 8.46863V8.52845C9.21882 8.40949 9.27778 8.23139 9.39639 8.17225L10.6977 7.28176C10.7573 7.28176 10.7573 7.22262 10.8163 7.22262L11.8221 6.92557C12.0586 6.86643 12.1772 6.57005 12.0586 6.33213C11.9997 6.21385 11.9997 6.0949 12.0586 5.97661L12.4138 5.38318C12.5324 5.14527 12.4138 4.90803 12.2362 4.78974L10.8753 4.19564C10.8163 4.19564 10.7573 4.1365 10.6977 4.1365H9.92911C9.8105 4.1365 9.75153 4.1365 9.6919 4.19564L8.92264 4.78974C8.8047 4.84889 8.6861 4.90803 8.56816 4.84889L7.38413 4.49269C8.74507 3.6022 10.3432 3.12773 12.1183 3.12773C14.3074 3.12773 16.319 3.9584 17.8575 5.26422H17.7986C17.562 5.38318 17.5024 5.67956 17.621 5.85766ZM2 11.9701C2 17.4898 6.49694 22 11.9997 22C17.5024 22 22 17.4898 22 11.9701C22 6.45109 17.5024 2 11.9997 2C6.49694 2 2 6.45109 2 11.9701Z" fill="#0C0C0C"/>
</svg>
