<svg width="24" height="24" viewBox="0 0 24 24" fill="none" xmlns="http://www.w3.org/2000/svg">
<path fill-rule="evenodd" clip-rule="evenodd" d="M14.7534 8.62741H14.7032C12.9176 7.18213 10.3146 7.37998 8.76788 9.07843C8.75277 9.07538 8.73532 9.08084 8.71673 9.09207C10.0572 9.35405 11.2716 10.0969 12.117 11.2014L9.5978 13.7205C9.37983 13.2393 8.9942 12.8537 8.513 12.6357C7.41982 12.142 6.13382 12.6274 5.64005 13.7205C5.14627 14.8137 5.63166 16.0997 6.72485 16.5935L6.72239 16.596C7.00288 16.7238 7.30734 16.7893 7.61512 16.7893H11.9585V16.8187L11.9644 16.8127H16.3077C17.5065 16.8127 18.479 15.8411 18.479 14.6415C18.479 13.4426 17.5073 12.4702 16.3077 12.4702V12.0368C16.3326 10.7227 15.7603 9.46906 14.7534 8.62741ZM4.21082 19.1075L4.2048 19.1316C5.18648 19.8727 6.38445 20.2709 7.61512 20.2659H11.9402L11.9644 20.2901H16.3077C18.7975 20.3094 21.0065 18.6956 21.7459 16.3181C22.4836 13.9398 21.5782 11.3577 19.516 9.96275C19.1161 8.49148 18.2962 7.1686 17.1553 6.15674L17.1205 6.19151L17.1252 6.15099C13.8901 3.29564 8.95148 3.60331 6.09613 6.83842C5.30223 7.73711 4.7263 8.80598 4.41277 9.96287C4.45326 9.94621 4.49467 9.93249 4.53669 9.92171C3.51005 10.5996 2.7075 11.6102 2.29596 12.8327C1.52637 15.1189 2.29344 17.6422 4.20567 19.1127L4.21082 19.1075Z" fill="#0C0C0C"/>
</svg>
