<svg width="24" height="24" viewBox="0 0 24 24" fill="none" xmlns="http://www.w3.org/2000/svg">
<path fill-rule="evenodd" clip-rule="evenodd" d="M14.7535 8.62741H14.7033C12.9177 7.18213 10.3147 7.37998 8.76794 9.07843C8.75283 9.07538 8.73539 9.08084 8.71679 9.09207C10.0573 9.35405 11.2716 10.0969 12.117 11.2014L9.59786 13.7205C9.37989 13.2393 8.99426 12.8537 8.51306 12.6357C7.41988 12.142 6.13388 12.6274 5.64011 13.7205C5.14633 14.8137 5.63173 16.0997 6.72491 16.5935L6.72245 16.596C7.00294 16.7238 7.3074 16.7893 7.61518 16.7893H11.9586V16.8187L11.9645 16.8127H16.3078C17.5066 16.8127 18.479 15.8411 18.479 14.6415C18.479 13.4426 17.5074 12.4702 16.3078 12.4702V12.0368C16.3326 10.7227 15.7604 9.46906 14.7535 8.62741ZM4.21088 19.1075L4.20486 19.1316C5.18654 19.8727 6.38451 20.2709 7.61518 20.2659H11.9402L11.9645 20.2901H16.3078C18.7976 20.3094 21.0065 18.6956 21.7459 16.3181C22.4837 13.9398 21.5783 11.3577 19.516 9.96275C19.1161 8.49148 18.2963 7.1686 17.1553 6.15674L17.1205 6.19151L17.1252 6.15099C13.8901 3.29564 8.95154 3.60331 6.09619 6.83842C5.30229 7.73711 4.72636 8.80598 4.41283 9.96287C4.45332 9.94621 4.49473 9.93249 4.53676 9.92171C3.51011 10.5996 2.70756 11.6102 2.29602 12.8327C1.52643 15.1189 2.2935 17.6422 4.20573 19.1127L4.21088 19.1075Z" fill="#0C0C0C"/>
</svg>
