<svg width="24" height="24" viewBox="0 0 24 24" fill="none" xmlns="http://www.w3.org/2000/svg">
<path fill-rule="evenodd" clip-rule="evenodd" d="M12 20.5C16.6944 20.5 20.5 16.6944 20.5 12C20.5 7.30558 16.6944 3.5 12 3.5C7.30558 3.5 3.5 7.30558 3.5 12C3.5 16.6944 7.30558 20.5 12 20.5ZM12 22C17.5228 22 22 17.5228 22 12C22 6.47715 17.5228 2 12 2C6.47715 2 2 6.47715 2 12C2 17.5228 6.47715 22 12 22ZM13.5 16.5C13.5 17.3284 12.8284 18 12 18C11.1716 18 10.5 17.3284 10.5 16.5C10.5 15.6716 11.1716 15 12 15C12.8284 15 13.5 15.6716 13.5 16.5ZM11.875 6C10.5673 6 9.67643 6.44606 9.1331 7.12523C8.61592 7.7717 8.5 8.52253 8.5 9C8.5 9.41421 8.83579 9.75 9.25 9.75C9.66421 9.75 10 9.41421 10 9C10 8.72747 10.0716 8.3533 10.3044 8.06227C10.5111 7.80394 10.9327 7.5 11.875 7.5C12.4461 7.5 12.8186 7.61303 13.072 7.7554C13.3233 7.89662 13.5068 8.09436 13.6579 8.34428C14.0756 9.03523 14.1127 9.86935 13.7603 10.4068C13.5489 10.7292 13.2764 10.875 12.9379 10.9746C12.7919 11.0175 12.6531 11.0468 12.493 11.0806L12.493 11.0806C12.4495 11.0898 12.4045 11.0993 12.3574 11.1095C12.1655 11.151 11.9013 11.2108 11.6646 11.3292C11.4105 11.4562 11.25 11.7159 11.25 12V13.5C11.25 13.9142 11.5858 14.25 12 14.25C12.4142 14.25 12.75 13.9142 12.75 13.5V12.5595L12.777 12.5539L12.777 12.5539C12.9417 12.5193 13.153 12.4749 13.3614 12.4135C13.9041 12.2538 14.5421 11.9502 15.0148 11.2292C15.769 10.0789 15.568 8.60448 14.9416 7.56829C14.6871 7.14728 14.3303 6.74189 13.8067 6.44769C13.2852 6.15465 12.6481 6 11.875 6Z" fill="#0C0C0C"/>
</svg>
