<svg width="24" height="24" viewBox="0 0 24 24" fill="none" xmlns="http://www.w3.org/2000/svg">
<path d="M19.9018 16.4019C21.5579 15.0136 22.534 13.4918 22.9387 12.7758C23.2122 12.2918 23.2122 11.7082 22.9387 11.2243C22.096 9.73351 18.7769 4.75001 12 4.75001C10.6801 4.75001 9.49137 4.93905 8.42656 5.2545L9.69188 6.48367C10.4044 6.33452 11.173 6.25001 12 6.25001C17.9377 6.25001 20.8667 10.6069 21.6328 11.9624C21.6416 11.9779 21.6438 11.9904 21.6438 12C21.6438 12.0096 21.6416 12.0222 21.6328 12.0376C21.255 12.7061 20.351 14.1047 18.8196 15.3506L19.9018 16.4019Z" fill="#0C0C0C"/>
<path fill-rule="evenodd" clip-rule="evenodd" d="M20.8723 19.4359L3.47739 2.53798C3.39278 2.45578 3.3317 2.35848 3.29429 2.25449C3.12824 2.27237 2.96709 2.34556 2.84074 2.47382C2.55006 2.76891 2.55363 3.24377 2.84872 3.53445L5.7706 6.41273C3.07742 8.00348 1.58714 10.294 1.0613 11.2243C0.787754 11.7082 0.787753 12.2918 1.0613 12.7758C1.90393 14.2665 5.22309 19.25 12 19.25C14.1861 19.25 16.0124 18.7314 17.5118 17.9788L19.5987 20.0345C19.8938 20.3252 20.3687 20.3216 20.6593 20.0265C20.8195 19.8639 20.8904 19.6468 20.8723 19.4359ZM2.36713 11.9624C2.8683 11.0757 4.29489 8.90484 6.88366 7.50919L8.87727 9.47304C8.32786 10.1595 7.99998 11.0262 7.99998 11.9685C7.99998 14.1951 9.83076 16.0001 12.0891 16.0001C13.0461 16.0001 13.9263 15.676 14.623 15.133L16.3712 16.8551C15.1464 17.3946 13.6959 17.75 12 17.75C6.06228 17.75 3.13329 13.3931 2.36713 12.0376C2.35838 12.0222 2.35614 12.0096 2.35614 12C2.35614 11.9904 2.35838 11.9779 2.36713 11.9624Z" fill="#0C0C0C"/>
</svg>
