<svg width="24" height="24" viewBox="0 0 24 24" fill="none" xmlns="http://www.w3.org/2000/svg">
<path d="M6.75 9.5C6.75 9.08579 6.41421 8.75 6 8.75C5.58579 8.75 5.25 9.08579 5.25 9.5H6.75ZM18.75 9.5C18.75 9.08579 18.4142 8.75 18 8.75C17.5858 8.75 17.25 9.08579 17.25 9.5H18.75ZM3.50612 10.4356C3.19439 10.7083 3.16281 11.1822 3.43557 11.4939C3.70833 11.8056 4.18215 11.8372 4.49388 11.5644L3.50612 10.4356ZM19.5061 11.5644C19.8178 11.8372 20.2917 11.8056 20.5644 11.4939C20.8372 11.1822 20.8056 10.7083 20.4939 10.4356L19.5061 11.5644ZM12.6585 4.57619L13.1524 4.01176L12.6585 4.57619ZM6.49813 20.25H17.5012V18.75H6.49813V20.25ZM6.75 19V9.5H5.25V19H6.75ZM18.75 19V9.5H17.25V19H18.75ZM17.5012 20.25C18.1939 20.25 18.75 19.688 18.75 19H17.25C17.25 18.8643 17.3608 18.75 17.5012 18.75V20.25ZM6.49813 18.75C6.63986 18.75 6.75 18.8656 6.75 19H5.25C5.25 19.6867 5.80411 20.25 6.49813 20.25V18.75ZM10.8476 4.01176L3.50612 10.4356L4.49388 11.5644L11.8354 5.14062L10.8476 4.01176ZM12.1646 5.14062L19.5061 11.5644L20.4939 10.4356L13.1524 4.01176L12.1646 5.14062ZM11.8354 5.14062C11.9296 5.05815 12.0704 5.05815 12.1646 5.14062L13.1524 4.01176C12.4926 3.43444 11.5074 3.43444 10.8476 4.01176L11.8354 5.14062Z" fill="#0C0C0C"/>
</svg>
