<svg width="24" height="24" viewBox="0 0 24 24" fill="none" xmlns="http://www.w3.org/2000/svg">
<path d="M6.02303 6.82284L6.6178 6.36595C6.60486 6.34911 6.59121 6.33282 6.57689 6.31714L6.02303 6.82284ZM10 12L10.5948 12.4569C10.8017 12.1875 10.8017 11.8125 10.5948 11.5431L10 12ZM14 12L13.4052 11.5431C13.1983 11.8125 13.1983 12.1875 13.4052 12.4569L14 12ZM17.977 6.82284L17.4231 6.31714C17.4088 6.33282 17.3951 6.34911 17.3822 6.36595L17.977 6.82284ZM6.02303 17.1772L6.57689 17.6829C6.59121 17.6672 6.60486 17.6509 6.6178 17.634L6.02303 17.1772ZM17.977 17.1772L17.3822 17.634C17.3951 17.6509 17.4088 17.6672 17.4231 17.6829L17.977 17.1772ZM16.5 2.25H7.5V3.75H16.5V2.25ZM4.75 5V5.4743H6.25V5H4.75ZM5.42826 7.27973L9.40523 12.4569L10.5948 11.5431L6.6178 6.36595L5.42826 7.27973ZM14.5948 12.4569L18.5717 7.27973L17.3822 6.36595L13.4052 11.5431L14.5948 12.4569ZM19.25 5.4743V5H17.75V5.4743H19.25ZM18.5308 7.32854C18.9935 6.82183 19.25 6.16046 19.25 5.4743H17.75C17.75 5.78619 17.6334 6.08681 17.4231 6.31714L18.5308 7.32854ZM4.75 5.4743C4.75 6.16046 5.00651 6.82183 5.46916 7.32854L6.57689 6.31714C6.3666 6.08681 6.25 5.78619 6.25 5.4743H4.75ZM7.5 2.25C5.98122 2.25 4.75 3.48122 4.75 5H6.25C6.25 4.30964 6.80964 3.75 7.5 3.75V2.25ZM16.5 3.75C17.1904 3.75 17.75 4.30964 17.75 5H19.25C19.25 3.48122 18.0188 2.25 16.5 2.25V3.75ZM16.5 20.25H7.5V21.75H16.5V20.25ZM6.25 19V18.5257H4.75V19H6.25ZM6.6178 17.634L10.5948 12.4569L9.40523 11.5431L5.42826 16.7203L6.6178 17.634ZM13.4052 12.4569L17.3822 17.634L18.5717 16.7203L14.5948 11.5431L13.4052 12.4569ZM17.75 18.5257V19H19.25V18.5257H17.75ZM17.4231 17.6829C17.6334 17.9132 17.75 18.2138 17.75 18.5257H19.25C19.25 17.8395 18.9935 17.1782 18.5308 16.6715L17.4231 17.6829ZM6.25 18.5257C6.25 18.2138 6.3666 17.9132 6.57689 17.6829L5.46916 16.6715C5.00651 17.1782 4.75 17.8395 4.75 18.5257H6.25ZM7.5 20.25C6.80964 20.25 6.25 19.6904 6.25 19H4.75C4.75 20.5188 5.98122 21.75 7.5 21.75V20.25ZM16.5 21.75C18.0188 21.75 19.25 20.5188 19.25 19H17.75C17.75 19.6904 17.1904 20.25 16.5 20.25V21.75Z" fill="#0C0C0C"/>
</svg>
