<svg width="24" height="24" viewBox="0 0 24 24" fill="none" xmlns="http://www.w3.org/2000/svg">
<path fill-rule="evenodd" clip-rule="evenodd" d="M12 20.5C16.6944 20.5 20.5 16.6944 20.5 12C20.5 7.30558 16.6944 3.5 12 3.5C7.30558 3.5 3.5 7.30558 3.5 12C3.5 16.6944 7.30558 20.5 12 20.5ZM12 22C17.5228 22 22 17.5228 22 12C22 6.47715 17.5228 2 12 2C6.47715 2 2 6.47715 2 12C2 17.5228 6.47715 22 12 22ZM13.5 7.5C13.5 8.32843 12.8284 9 12 9C11.1716 9 10.5 8.32843 10.5 7.5C10.5 6.67157 11.1716 6 12 6C12.8284 6 13.5 6.67157 13.5 7.5ZM10.75 10.5C10.3358 10.5 10 10.8358 10 11.25C10 11.6642 10.3358 12 10.75 12H11C11.0863 12 11.1701 11.9891 11.25 11.9685V16.5H10.75C10.3358 16.5 10 16.8358 10 17.25C10 17.6642 10.3358 18 10.75 18H13.25C13.6642 18 14 17.6642 14 17.25C14 16.8358 13.6642 16.5 13.25 16.5H12.75V11.25C12.75 10.8358 12.4142 10.5 12 10.5H10.75Z" fill="#0C0C0C"/>
</svg>
