<svg width="24" height="24" viewBox="0 0 24 24" fill="none" xmlns="http://www.w3.org/2000/svg">
<path d="M18.9947 17.9924C19.3645 17.4329 19.5834 16.7635 19.5834 16.0416C19.5834 14.086 17.9981 12.5 16.0416 12.5C14.0852 12.5 12.5 14.086 12.5 16.0416C12.5 17.9974 14.0852 19.5834 16.0416 19.5834C16.7635 19.5834 17.4329 19.3645 17.9931 18.994L19.9984 21L21 19.9984L18.9947 17.9924ZM16.0416 18.1666C14.8701 18.1666 13.9166 17.2132 13.9166 16.0416C13.9166 14.8701 14.8701 13.9166 16.0416 13.9166C17.2132 13.9166 18.1666 14.8701 18.1666 16.0416C18.1666 17.2132 17.2132 18.1666 16.0416 18.1666ZM12.5779 19.5834H7.54166L9.38262 17.4584H11.2923C11.5366 18.2744 11.9836 19.0025 12.5779 19.5834ZM11.0834 16.0416H4V4H19.5834V12.5779C19.1767 12.1629 18.6972 11.8214 18.1666 11.5685V5.41666H5.41666V14.625H11.2923C11.1577 15.0741 11.0834 15.5494 11.0834 16.0416ZM8.25 13.2084H6.83334V8.95834H8.25V13.2084ZM10.375 13.2084H8.95834V6.83334H10.375V13.2084ZM12.5 13.2084H11.0834V10.375H12.5V13.2084Z" fill="#0C0C0C"/>
</svg>
