<svg width="24" height="24" viewBox="0 0 24 24" fill="none" xmlns="http://www.w3.org/2000/svg">
<path fill-rule="evenodd" clip-rule="evenodd" d="M19.1511 3.13739C19.161 3.37228 19.1018 3.60491 18.9808 3.80648C18.8601 4.00705 18.6828 4.1674 18.4711 4.26728C18.2598 4.36649 18.0236 4.40022 17.7929 4.36416C17.5619 4.32815 17.3469 4.22408 17.1753 4.06524C17.0029 3.90544 16.8816 3.69834 16.8265 3.46989C16.7713 3.24144 16.7848 3.00179 16.8652 2.78097C16.9448 2.56059 17.0877 2.36863 17.276 2.22923C17.4639 2.09051 17.689 2.01102 17.9223 2.00095C18.0771 1.99442 18.2317 2.01862 18.3771 2.07215C18.5225 2.12568 18.6559 2.20748 18.7695 2.31283C19.0002 2.52647 19.1378 2.82325 19.1511 3.13739ZM12.2746 16.1237C9.13418 16.1237 6.39173 14.973 4.96715 13.2694C5.4954 14.7948 6.48362 16.1188 7.79569 17.0592C9.10227 17.9953 10.6692 18.4988 12.2765 18.4991C13.8837 18.4985 15.4504 17.995 16.7571 17.0592C18.069 16.1189 19.0568 14.7947 19.5844 13.2694C18.1573 14.973 15.4149 16.1237 12.2746 16.1237ZM12.2734 7.04406C15.4138 7.04406 18.1567 8.1952 19.5808 9.89808C19.0525 8.37275 18.0643 7.04874 16.7523 6.1084C15.4459 5.17232 13.8793 4.66855 12.2721 4.66773C10.665 4.66855 9.09835 5.17232 7.79194 6.1084C6.47971 7.04848 5.49153 8.37259 4.96371 9.89808C6.39064 8.19833 9.13293 7.04406 12.2734 7.04406ZM7.96289 20.4354C7.97576 20.7315 7.90126 21.0249 7.74866 21.279C7.59702 21.5319 7.37351 21.7338 7.10663 21.8592C6.83975 21.9845 6.54159 22.0276 6.25017 21.9828C5.95875 21.9378 5.68762 21.8061 5.47201 21.605C5.2555 21.4034 5.10289 21.1428 5.03309 20.8554C4.96418 20.5669 4.98118 20.2645 5.082 19.9855C5.18312 19.7075 5.364 19.4654 5.60202 19.2897C5.87924 19.086 6.21879 18.9853 6.56225 19.0049C6.90571 19.0245 7.23159 19.1633 7.48381 19.3972C7.77402 19.6669 7.94617 20.0396 7.96289 20.4354ZM5.32544 5.65889C5.15283 5.6664 4.98192 5.62199 4.8348 5.53139C4.68668 5.4406 4.56878 5.30797 4.49597 5.15023C4.42317 4.99249 4.39872 4.81672 4.42572 4.64511C4.45165 4.47305 4.52818 4.31259 4.64558 4.18415C4.76193 4.05629 4.91359 3.9658 5.08137 3.92414C5.24904 3.88226 5.42548 3.89228 5.58733 3.95289C5.74976 4.01273 5.89051 4.1199 5.99141 4.26056C6.11056 4.42514 6.1694 4.62574 6.15805 4.82861C6.14669 5.03147 6.06583 5.22425 5.92906 5.37451C5.8521 5.45944 5.75908 5.5283 5.65537 5.57711C5.55167 5.62592 5.43995 5.65372 5.32544 5.65889Z" fill="#0C0C0C"/>
</svg>
