<svg width="24" height="24" viewBox="0 0 24 24" fill="none" xmlns="http://www.w3.org/2000/svg">
<path fill-rule="evenodd" clip-rule="evenodd" d="M19.1512 3.1374C19.1611 3.37229 19.1019 3.60492 18.9809 3.80648C18.8603 4.00706 18.6829 4.1674 18.4712 4.26728C18.2599 4.36649 18.0237 4.40023 17.7931 4.36416C17.562 4.32815 17.347 4.22408 17.1754 4.06524C17.0031 3.90544 16.8817 3.69834 16.8266 3.46989C16.7714 3.24144 16.7849 3.0018 16.8654 2.78098C16.9449 2.56059 17.0878 2.36864 17.2762 2.22924C17.4641 2.09051 17.6891 2.01103 17.9224 2.00095C18.0773 1.99443 18.2318 2.01863 18.3772 2.07216C18.5227 2.12569 18.656 2.20749 18.7697 2.31284C19.0004 2.52647 19.1379 2.82325 19.1512 3.1374ZM12.2747 16.1237C9.1343 16.1237 6.39186 14.973 4.96727 13.2694C5.49552 14.7948 6.48374 16.1188 7.79581 17.0592C9.1024 17.9953 10.6693 18.4988 12.2766 18.4991C13.8838 18.4985 15.4506 17.995 16.7572 17.0592C18.0691 16.1189 19.0569 14.7948 19.5845 13.2694C18.1574 14.973 15.415 16.1237 12.2747 16.1237ZM12.2735 7.04407C15.4139 7.04407 18.1568 8.1952 19.5809 9.89808C19.0527 8.37275 18.0644 7.04874 16.7524 6.10841C15.446 5.17232 13.8794 4.66855 12.2722 4.66773C10.6651 4.66855 9.09847 5.17232 7.79206 6.10841C6.47983 7.04848 5.49165 8.37259 4.96383 9.89808C6.39076 8.19833 9.13305 7.04407 12.2735 7.04407ZM7.96301 20.4354C7.97588 20.7315 7.90138 21.0249 7.74878 21.279C7.59714 21.5319 7.37364 21.7339 7.10676 21.8592C6.83988 21.9845 6.54172 22.0276 6.25029 21.9828C5.95887 21.9378 5.68774 21.8061 5.47213 21.605C5.25562 21.4034 5.10301 21.1428 5.03321 20.8554C4.96431 20.5669 4.98131 20.2645 5.08212 19.9855C5.18324 19.7075 5.36413 19.4654 5.60214 19.2897C5.87936 19.086 6.21891 18.9853 6.56237 19.0049C6.90583 19.0245 7.23171 19.1633 7.48393 19.3972C7.77414 19.6669 7.94629 20.0396 7.96301 20.4354ZM5.32557 5.6589C5.15295 5.6664 4.98204 5.62199 4.83492 5.53139C4.68681 5.4406 4.5689 5.30797 4.4961 5.15023C4.42329 4.9925 4.39885 4.81673 4.42585 4.64511C4.45177 4.47305 4.5283 4.31259 4.6457 4.18415C4.76205 4.05629 4.91371 3.9658 5.08149 3.92415C5.24917 3.88226 5.4256 3.89229 5.58745 3.9529C5.74988 4.01274 5.89063 4.11991 5.99153 4.26056C6.11068 4.42515 6.16952 4.62574 6.15817 4.82861C6.14682 5.03148 6.06595 5.22425 5.92918 5.37451C5.85222 5.45945 5.7592 5.52831 5.6555 5.57712C5.55179 5.62593 5.44007 5.65372 5.32557 5.6589Z" fill="#0C0C0C"/>
</svg>
