<svg width="24" height="24" viewBox="0 0 24 24" fill="none" xmlns="http://www.w3.org/2000/svg">
<path fill-rule="evenodd" clip-rule="evenodd" d="M12.25 3.75C10.8693 3.75 9.75 4.86929 9.75 6.25C9.75 7.63071 10.8693 8.75 12.25 8.75C13.6307 8.75 14.75 7.63071 14.75 6.25C14.75 4.86929 13.6307 3.75 12.25 3.75ZM8.25 6.25C8.25 4.04086 10.0409 2.25 12.25 2.25C14.4591 2.25 16.25 4.04086 16.25 6.25C16.25 7.68441 15.495 8.94248 14.3607 9.64845L16.5282 15.284C16.6822 15.2616 16.8398 15.25 17 15.25C18.7949 15.25 20.25 16.7051 20.25 18.5C20.25 20.2949 18.7949 21.75 17 21.75C15.2051 21.75 13.75 20.2949 13.75 18.5C13.75 17.3993 14.2972 16.4264 15.1343 15.8385L12.9607 10.1871C12.73 10.2284 12.4925 10.25 12.25 10.25C11.5735 10.25 10.9363 10.0821 10.3776 9.78562L8.62417 12.4158C9.01652 12.9229 9.25 13.5592 9.25 14.25C9.25 15.9069 7.90685 17.25 6.25 17.25C4.59315 17.25 3.25 15.9069 3.25 14.25C3.25 12.5931 4.59315 11.25 6.25 11.25C6.67132 11.25 7.07236 11.3369 7.43619 11.4936L9.20368 8.8424C8.60895 8.14422 8.25 7.23903 8.25 6.25ZM6.25 12.75C5.42157 12.75 4.75 13.4216 4.75 14.25C4.75 15.0784 5.42157 15.75 6.25 15.75C7.07843 15.75 7.75 15.0784 7.75 14.25C7.75 13.4216 7.07843 12.75 6.25 12.75ZM17 16.75C16.0335 16.75 15.25 17.5335 15.25 18.5C15.25 19.4665 16.0335 20.25 17 20.25C17.9665 20.25 18.75 19.4665 18.75 18.5C18.75 17.5335 17.9665 16.75 17 16.75Z" fill="#0C0C0C"/>
</svg>
