<svg width="24" height="24" viewBox="0 0 24 24" fill="none" xmlns="http://www.w3.org/2000/svg">
<g clip-path="url(#clip0_1704_5540)">
<path fill-rule="evenodd" clip-rule="evenodd" d="M16.0306 15.7276C16.9562 15.7264 17.8441 16.0949 18.4977 16.7515V16.7485C19.5863 17.8394 19.8322 19.5164 19.1028 20.8749C18.3733 22.2334 16.8412 22.952 15.3327 22.6432C13.8241 22.3343 12.6962 21.071 12.5572 19.5348C12.4183 17.9985 13.3011 16.5526 14.7296 15.9771L13.4846 10.12C13.3706 10.128 13.2566 10.136 13.1426 10.136C12.2522 10.1366 11.3817 9.87117 10.6426 9.37358L7.5156 12.9133C8.23268 13.9565 8.05957 15.3718 7.11229 16.2107C6.16501 17.0495 4.74176 17.0478 3.79649 16.2067C2.85122 15.3656 2.68149 13.9498 3.40106 12.9083C4.12063 11.8669 5.50299 11.5275 6.6216 12.1178L9.75161 8.57407C8.46621 7.08485 8.29869 4.9305 9.33839 3.2598C10.3781 1.58911 12.3826 0.791557 14.2831 1.29244C16.1835 1.79332 17.5369 3.47586 17.6214 5.44287C17.706 7.40987 16.5021 9.20277 14.6516 9.86551L15.8996 15.7346C15.9163 15.7338 15.9329 15.7327 15.9495 15.7315C15.9768 15.7295 16.0039 15.7276 16.0306 15.7276ZM4.7404 15.4133C5.25678 15.7581 5.94443 15.6892 6.3824 15.2487V15.2477C6.62573 15.005 6.76218 14.6749 6.7614 14.331C6.76211 13.7092 6.32409 13.1737 5.71549 13.0521C5.10689 12.9306 4.49741 13.257 4.26015 13.8315C4.02289 14.406 4.22401 15.0684 4.7404 15.4133ZM11.2376 7.54915C10.329 6.63928 10.1887 5.21298 10.9025 4.14289C11.6163 3.07281 12.9853 2.65714 14.172 3.15021C15.3586 3.64328 16.0322 4.90768 15.7805 6.16982C15.5289 7.43195 14.4222 8.3401 13.1376 8.33864C12.4245 8.33981 11.7405 8.0556 11.2376 7.54915ZM14.5507 17.7404C13.7333 18.5593 13.7333 19.8871 14.5507 20.706C15.368 21.5249 16.6932 21.5249 17.5106 20.706C17.9064 20.3145 18.1291 19.7804 18.1291 19.2232C18.1291 18.666 17.9064 18.1319 17.5106 17.7404C16.6932 16.9215 15.368 16.9215 14.5507 17.7404Z" fill="black"/>
</g>
<defs>
<clipPath id="clip0_1704_5540">
<rect width="16.7391" height="22" fill="white" transform="translate(2.95654 1)"/>
</clipPath>
</defs>
</svg>
