<svg width="24" height="24" viewBox="0 0 24 24" fill="none" xmlns="http://www.w3.org/2000/svg">
<path fill-rule="evenodd" clip-rule="evenodd" d="M11.1161 6.51996C9.84689 5.25075 7.7891 5.25075 6.5199 6.51996C5.25069 7.78916 5.25069 9.84695 6.5199 11.1162L7.93411 12.5304C8.227 12.8233 8.227 13.2981 7.93411 13.591C7.64122 13.8839 7.16634 13.8839 6.87345 13.591L5.45924 12.1768C3.60425 10.3218 3.60425 7.31429 5.45924 5.4593C7.31423 3.60431 10.3218 3.60431 12.1768 5.4593L13.591 6.87351C13.8839 7.1664 13.8839 7.64128 13.591 7.93417C13.2981 8.22706 12.8232 8.22706 12.5303 7.93417L11.1161 6.51996ZM17.48 12.8839C18.7493 14.1531 18.7493 16.2109 17.48 17.4801C16.2108 18.7493 14.1531 18.7493 12.8839 17.4801L11.4696 16.0659C11.1767 15.773 10.7019 15.773 10.409 16.0659C10.1161 16.3588 10.1161 16.8337 10.409 17.1266L11.8232 18.5408C13.6782 20.3958 16.6857 20.3958 18.5407 18.5408C20.3957 16.6858 20.3957 13.6782 18.5407 11.8233L17.1265 10.409C16.8336 10.1161 16.3587 10.1161 16.0658 10.409C15.7729 10.7019 15.7729 11.1768 16.0658 11.4697L17.48 12.8839ZM10.391 9.34833C10.0981 9.05544 9.62319 9.05544 9.3303 9.34833C9.03741 9.64123 9.03741 10.1161 9.3303 10.409L13.9265 15.0052C14.2194 15.2981 14.6943 15.2981 14.9872 15.0052C15.28 14.7123 15.28 14.2374 14.9872 13.9445L10.391 9.34833Z" fill="#0C0C0C"/>
</svg>
