<svg width="24" height="24" viewBox="0 0 24 24" fill="none" xmlns="http://www.w3.org/2000/svg">
<path fill-rule="evenodd" clip-rule="evenodd" d="M11.1162 6.51996C9.84701 5.25075 7.78922 5.25075 6.52002 6.51996C5.25081 7.78916 5.25081 9.84695 6.52002 11.1162L7.93423 12.5304C8.22713 12.8233 8.22712 13.2981 7.93423 13.591C7.64134 13.8839 7.16646 13.8839 6.87357 13.591L5.45936 12.1768C3.60437 10.3218 3.60437 7.31429 5.45936 5.4593C7.31435 3.60431 10.3219 3.60431 12.1769 5.4593L13.5911 6.87351C13.884 7.1664 13.884 7.64128 13.5911 7.93417C13.2982 8.22706 12.8233 8.22706 12.5304 7.93417L11.1162 6.51996ZM17.4802 12.8839C18.7494 14.1531 18.7494 16.2109 17.4802 17.4801C16.211 18.7493 14.1532 18.7493 12.884 17.4801L11.4698 16.0659C11.1769 15.773 10.702 15.773 10.4091 16.0659C10.1162 16.3588 10.1162 16.8337 10.4091 17.1266L11.8233 18.5408C13.6783 20.3958 16.6858 20.3958 18.5408 18.5408C20.3958 16.6858 20.3958 13.6782 18.5408 11.8233L17.1266 10.409C16.8337 10.1161 16.3589 10.1161 16.066 10.409C15.7731 10.7019 15.7731 11.1768 16.066 11.4697L17.4802 12.8839ZM10.3911 9.34833C10.0982 9.05544 9.62331 9.05544 9.33042 9.34833C9.03753 9.64123 9.03753 10.1161 9.33042 10.409L13.9266 15.0052C14.2195 15.2981 14.6944 15.2981 14.9873 15.0052C15.2802 14.7123 15.2802 14.2374 14.9873 13.9445L10.3911 9.34833Z" fill="#0C0C0C"/>
</svg>
