<svg width="24" height="24" viewBox="0 0 24 24" fill="none" xmlns="http://www.w3.org/2000/svg">
<path fill-rule="evenodd" clip-rule="evenodd" d="M19.8636 4.59098C20.1565 4.29809 20.1565 3.82322 19.8636 3.53032C19.5707 3.23743 19.0958 3.23743 18.8029 3.53032L11.688 10.6452L10.3911 9.34833C10.0982 9.05543 9.62332 9.05543 9.33043 9.34833C9.03754 9.64122 9.03754 10.1161 9.33043 10.409L10.6274 11.7059L3.86359 18.4697C3.5707 18.7626 3.5707 19.2374 3.86359 19.5303C4.15648 19.8232 4.63136 19.8232 4.92425 19.5303L19.8636 4.59098ZM11.1162 6.51995C9.84702 5.25075 7.78923 5.25075 6.52003 6.51995C5.25082 7.78915 5.25082 9.84694 6.52003 11.1161L7.93424 12.5304C8.22713 12.8233 8.22713 13.2981 7.93424 13.591C7.64135 13.8839 7.16647 13.8839 6.87358 13.591L5.45937 12.1768C3.60438 10.3218 3.60438 7.31428 5.45937 5.45929C7.31436 3.6043 10.3219 3.6043 12.1769 5.45929L13.5911 6.8735C13.884 7.1664 13.884 7.64127 13.5911 7.93416C13.2982 8.22706 12.8233 8.22706 12.5304 7.93416L11.1162 6.51995ZM17.4802 12.8839C18.7494 14.1531 18.7494 16.2109 17.4802 17.4801C16.211 18.7493 14.1532 18.7493 12.884 17.4801L11.4698 16.0659C11.1769 15.773 10.702 15.773 10.4091 16.0659C10.1162 16.3588 10.1162 16.8337 10.4091 17.1265L11.8233 18.5408C13.6783 20.3958 16.6859 20.3958 18.5408 18.5408C20.3958 16.6858 20.3958 13.6782 18.5408 11.8232L17.1266 10.409C16.8337 10.1161 16.3589 10.1161 16.066 10.409C15.7731 10.7019 15.7731 11.1768 16.066 11.4697L17.4802 12.8839ZM13.9266 15.0052L12.5214 13.5999L13.582 12.5393L14.9873 13.9445C15.2802 14.2374 15.2802 14.7123 14.9873 15.0052C14.6944 15.2981 14.2195 15.2981 13.9266 15.0052Z" fill="#0C0C0C"/>
</svg>
