<svg width="24" height="24" viewBox="0 0 24 24" fill="none" xmlns="http://www.w3.org/2000/svg">
<path fill-rule="evenodd" clip-rule="evenodd" d="M5 8.5C5.82843 8.5 6.5 7.82843 6.5 7C6.5 6.17157 5.82843 5.5 5 5.5C4.17157 5.5 3.5 6.17157 3.5 7C3.5 7.82843 4.17157 8.5 5 8.5ZM8.75 7C8.75 6.58579 9.08579 6.25 9.5 6.25H19.5C19.9142 6.25 20.25 6.58579 20.25 7C20.25 7.41421 19.9142 7.75 19.5 7.75H9.5C9.08579 7.75 8.75 7.41421 8.75 7ZM9.5 11.25C9.08579 11.25 8.75 11.5858 8.75 12C8.75 12.4142 9.08579 12.75 9.5 12.75H19.5C19.9142 12.75 20.25 12.4142 20.25 12C20.25 11.5858 19.9142 11.25 19.5 11.25H9.5ZM9.5 16.25C9.08579 16.25 8.75 16.5858 8.75 17C8.75 17.4142 9.08579 17.75 9.5 17.75H19.5C19.9142 17.75 20.25 17.4142 20.25 17C20.25 16.5858 19.9142 16.25 19.5 16.25H9.5ZM6.5 12C6.5 12.8284 5.82843 13.5 5 13.5C4.17157 13.5 3.5 12.8284 3.5 12C3.5 11.1716 4.17157 10.5 5 10.5C5.82843 10.5 6.5 11.1716 6.5 12ZM5 18.5C5.82843 18.5 6.5 17.8284 6.5 17C6.5 16.1716 5.82843 15.5 5 15.5C4.17157 15.5 3.5 16.1716 3.5 17C3.5 17.8284 4.17157 18.5 5 18.5Z" fill="#0C0C0C"/>
</svg>
