<svg width="24" height="24" viewBox="0 0 24 24" fill="none" xmlns="http://www.w3.org/2000/svg">
<path fill-rule="evenodd" clip-rule="evenodd" d="M12 2.25C9.10051 2.25 6.75 4.60051 6.75 7.5V10H6C4.89543 10 4 10.8954 4 12V20C4 21.1046 4.89543 22 6 22H18C19.1046 22 20 21.1046 20 20V12C20 10.8954 19.1046 10 18 10H17.25V7.5C17.25 4.6005 14.8995 2.25 12 2.25ZM15.75 10V7.5C15.75 5.42893 14.0711 3.75 12 3.75C9.92893 3.75 8.25 5.42893 8.25 7.5V10H15.75ZM5.5 12C5.5 11.7239 5.72386 11.5 6 11.5H18C18.2761 11.5 18.5 11.7239 18.5 12V20C18.5 20.2761 18.2761 20.5 18 20.5H6C5.72386 20.5 5.5 20.2761 5.5 20V12Z" fill="#0C0C0C"/>
</svg>
