<svg width="24" height="24" viewBox="0 0 24 24" fill="none" xmlns="http://www.w3.org/2000/svg">
<path fill-rule="evenodd" clip-rule="evenodd" d="M5.70004 4.64996C5.42157 4.64996 5.15451 4.76058 4.95761 4.95749C4.7607 5.15439 4.65009 5.42145 4.65009 5.69991V18.2995C4.65009 18.578 4.7607 18.845 4.95761 19.0419C5.15451 19.2388 5.42157 19.3495 5.70004 19.3495H9.29995C9.71417 19.3495 10.05 19.6853 10.05 20.0995C10.05 20.5137 9.71417 20.8495 9.29995 20.8495H5.70004C5.02375 20.8495 4.37516 20.5808 3.89695 20.1026C3.41874 19.6244 3.15009 18.9758 3.15009 18.2995V5.69991C3.15009 5.02362 3.41874 4.37503 3.89695 3.89682C4.37516 3.41862 5.02375 3.14996 5.70004 3.14996H9.29995C9.71417 3.14996 10.05 3.48575 10.05 3.89996C10.05 4.31418 9.71417 4.64996 9.29995 4.64996H5.70004ZM15.083 6.73176C15.3829 6.44609 15.8577 6.45767 16.1433 6.75762L20.6432 11.4825C20.9191 11.7721 20.9191 12.2273 20.6432 12.517L16.1433 17.2418C15.8577 17.5418 15.3829 17.5533 15.083 17.2677C14.7831 16.982 14.7715 16.5073 15.0571 16.2073L18.3501 12.7497H9.29995C8.88574 12.7497 8.54995 12.4139 8.54995 11.9997C8.54995 11.5855 8.88574 11.2497 9.29995 11.2497H18.3501L15.0571 7.7921C14.7715 7.49216 14.7831 7.01742 15.083 6.73176Z" fill="#0C0C0C"/>
</svg>
