<svg width="24" height="24" viewBox="0 0 24 24" fill="none" xmlns="http://www.w3.org/2000/svg">
<path fill-rule="evenodd" clip-rule="evenodd" d="M6.38486 15.9231C5.87506 16.1355 5.28958 15.8944 5.07717 15.3846C4.86475 14.8748 5.10583 14.2893 5.61563 14.0769L15.4002 10L5.61563 5.92308C5.10583 5.71066 4.86475 5.12519 5.07717 4.61539C5.28958 4.10558 5.87506 3.86451 6.38486 4.07692L18.3849 9.07692C18.7575 9.23219 19.0002 9.5963 19.0002 10C19.0002 10.4037 18.7575 10.7678 18.3849 10.9231L6.38486 15.9231ZM18.0002 18C18.5525 18 19.0002 18.4477 19.0002 19C19.0002 19.5523 18.5525 20 18.0002 20H6.00024C5.44796 20 5.00024 19.5523 5.00024 19C5.00024 18.4477 5.44796 18 6.00024 18H18.0002Z" fill="#0C0C0C"/>
</svg>
