<svg width="24" height="24" viewBox="0 0 24 24" fill="none" xmlns="http://www.w3.org/2000/svg">
<path d="M18.7902 13.1635C19.2132 12.6636 19.5348 12.0872 19.7553 11.4355C19.9853 10.7835 20.1 10.0892 20.1 9.35336V9.2527L19.9993 9.25336L17.8509 9.26749L17.7516 9.26815V9.36749C17.7516 9.93981 17.6501 10.4435 17.4497 10.8806L17.449 10.8822C17.2578 11.3193 16.9863 11.6573 16.6357 11.9001L16.6357 11.9001L16.6347 11.9008C16.2954 12.1418 15.8922 12.264 15.4205 12.264C14.9764 12.264 14.5652 12.1555 14.1851 11.9386C13.8065 11.7076 13.3599 11.3591 12.8447 10.8907L12.8439 10.89C12.1516 10.2736 11.4763 9.78811 10.8178 9.43498C10.1606 9.07742 9.40885 8.9 8.56537 8.9C7.88294 8.9 7.25129 9.03463 6.67183 9.30498C6.10268 9.5655 5.61062 9.93709 5.19627 10.4189C4.78249 10.9 4.46089 11.4621 4.23095 12.1041L4.23094 12.1041L4.23051 12.1053C4.00985 12.7481 3.9 13.4424 3.9 14.1873V14.2885L4.00124 14.2873L6.27686 14.259L6.37562 14.2578V14.159C6.37562 13.5754 6.4636 13.0808 6.63593 12.6723C6.81775 12.2635 7.07002 11.9545 7.39116 11.7404L7.39117 11.7405L7.39273 11.7394C7.71259 11.5173 8.10176 11.4039 8.56537 11.4039C9.01818 11.4039 9.43846 11.5213 9.82812 11.757C10.2259 11.9975 10.6634 12.3368 11.1407 12.7767L11.1407 12.7767L11.1428 12.7786C11.8815 13.4226 12.5663 13.9129 13.197 14.2474L13.1975 14.2476C13.8452 14.586 14.587 14.7537 15.4205 14.7537C16.1036 14.7537 16.7313 14.6141 17.3021 14.3336L17.3027 14.3333C17.8801 14.0445 18.3762 13.6545 18.7902 13.1635ZM18.7902 13.1635C18.7902 13.1635 18.7902 13.1634 18.7902 13.1634L18.7138 13.0989L18.7901 13.1635C18.7901 13.1635 18.7901 13.1635 18.7902 13.1635ZM20 9.35336C20 9.38678 19.9998 9.42012 19.9993 9.45336L20.0007 9.45335L20 9.35336ZM20 9.35336H19.9C19.9 9.35358 19.9 9.3538 19.9 9.35401L20 9.35336ZM4 14.1873C4 14.1538 4.00022 14.1205 4.00067 14.0873L3.99876 14.0873L4 14.1873ZM4 14.1873H4.1C4.1 14.1869 4.1 14.1865 4.1 14.186L4 14.1873Z" fill="#0C0C0C" stroke="#0C0C0C" stroke-width="0.2"/>
</svg>
