<svg width="24" height="24" viewBox="0 0 24 24" fill="none" xmlns="http://www.w3.org/2000/svg">
<path fill-rule="evenodd" clip-rule="evenodd" d="M17.7115 15.6923C18.0939 15.8516 18.533 15.6708 18.6923 15.2885C18.8516 14.9061 18.6708 14.467 18.2885 14.3077L7.95 10L18.2885 5.69231C18.6708 5.53299 18.8516 5.09389 18.6923 4.71154C18.533 4.32919 18.0939 4.14838 17.7115 4.30769L5.71154 9.30769C5.43205 9.42414 5.25 9.69722 5.25 10C5.25 10.3028 5.43205 10.5759 5.71154 10.6923L17.7115 15.6923ZM6 18.25C5.58579 18.25 5.25 18.5858 5.25 19C5.25 19.4142 5.58579 19.75 6 19.75H18C18.4142 19.75 18.75 19.4142 18.75 19C18.75 18.5858 18.4142 18.25 18 18.25H6Z" fill="#0C0C0C"/>
</svg>
