<svg width="24" height="24" viewBox="0 0 24 24" fill="none" xmlns="http://www.w3.org/2000/svg">
<path d="M7.03033 15.5303C6.73743 15.8232 6.26256 15.8232 5.96967 15.5303L2.96967 12.5303C2.67678 12.2374 2.67678 11.7625 2.96967 11.4696L5.96967 8.46964C6.26256 8.17675 6.73743 8.17675 7.03033 8.46964C7.32322 8.76254 7.32322 9.23741 7.03033 9.5303L5.31066 11.25H18.6893L16.9697 9.5303C16.6768 9.23741 16.6768 8.76254 16.9697 8.46964C17.2626 8.17675 17.7374 8.17675 18.0303 8.46964L21.0303 11.4696C21.171 11.6103 21.25 11.8011 21.25 12C21.25 12.1989 21.171 12.3897 21.0303 12.5303L18.0303 15.5303C17.7374 15.8232 17.2626 15.8232 16.9697 15.5303C16.6768 15.2374 16.6768 14.7625 16.9697 14.4696L18.6893 12.75H5.31066L7.03033 14.4696C7.32322 14.7625 7.32322 15.2374 7.03033 15.5303Z" fill="#0C0C0C"/>
<path d="M8.46967 7.03033C8.17678 6.73743 8.17678 6.26256 8.46967 5.96967L11.4697 2.96967C11.7626 2.67678 12.2374 2.67678 12.5303 2.96967L15.5303 5.96967C15.8232 6.26256 15.8232 6.73743 15.5303 7.03033C15.2374 7.32322 14.7626 7.32322 14.4697 7.03033L12.75 5.31066V18.6893L14.4697 16.9697C14.7626 16.6768 15.2374 16.6768 15.5303 16.9697C15.8232 17.2626 15.8232 17.7374 15.5303 18.0303L12.5303 21.0303C12.3897 21.171 12.1989 21.25 12 21.25C11.8011 21.25 11.6103 21.171 11.4697 21.0303L8.46967 18.0303C8.17678 17.7374 8.17678 17.2626 8.46967 16.9697C8.76256 16.6768 9.23744 16.6768 9.53033 16.9697L11.25 18.6893V5.31066L9.53033 7.03033C9.23744 7.32322 8.76256 7.32322 8.46967 7.03033Z" fill="#0C0C0C"/>
</svg>
