<svg width="24" height="24" viewBox="0 0 24 24" fill="none" xmlns="http://www.w3.org/2000/svg">
<path d="M7.03033 15.5303C6.73743 15.8232 6.26256 15.8232 5.96967 15.5303L2.96967 12.5303C2.67678 12.2374 2.67678 11.7626 2.96967 11.4697L5.96967 8.46968C6.26256 8.17678 6.73743 8.17678 7.03033 8.46967C7.32322 8.76257 7.32322 9.23744 7.03033 9.53033L5.31066 11.25H18.6893L16.9697 9.53033C16.6768 9.23744 16.6768 8.76257 16.9697 8.46967C17.2626 8.17678 17.7374 8.17678 18.0303 8.46967L21.0303 11.4697C21.171 11.6103 21.25 11.8011 21.25 12C21.25 12.1989 21.171 12.3897 21.0303 12.5303L18.0303 15.5303C17.7374 15.8232 17.2626 15.8232 16.9697 15.5303C16.6768 15.2374 16.6768 14.7626 16.9697 14.4697L18.6893 12.75H5.31066L7.03033 14.4697C7.32322 14.7626 7.32322 15.2374 7.03033 15.5303Z" fill="#0C0C0C"/>
<path d="M8.46967 7.03036C8.17678 6.73746 8.17678 6.26259 8.46967 5.9697L11.4697 2.9697C11.7626 2.67681 12.2374 2.67681 12.5303 2.9697L15.5303 5.9697C15.8232 6.26259 15.8232 6.73746 15.5303 7.03036C15.2374 7.32325 14.7626 7.32325 14.4697 7.03036L12.75 5.31069V18.6894L14.4697 16.9697C14.7626 16.6768 15.2374 16.6768 15.5303 16.9697C15.8232 17.2626 15.8232 17.7375 15.5303 18.0304L12.5303 21.0304C12.3897 21.171 12.1989 21.25 12 21.25C11.8011 21.25 11.6103 21.171 11.4697 21.0304L8.46967 18.0304C8.17678 17.7375 8.17678 17.2626 8.46967 16.9697C8.76256 16.6768 9.23744 16.6768 9.53033 16.9697L11.25 18.6894V5.31069L9.53033 7.03036C9.23744 7.32325 8.76256 7.32325 8.46967 7.03036Z" fill="#0C0C0C"/>
</svg>
