<svg width="24" height="24" viewBox="0 0 24 24" fill="none" xmlns="http://www.w3.org/2000/svg">
<path fill-rule="evenodd" clip-rule="evenodd" d="M21.0715 3.29069C21.1133 2.57982 20.5279 1.95781 19.8588 2.00224C15.1755 2.22439 10.9939 4.17927 7.89957 7.37816C5.64153 6.71173 2.25447 6.88944 1 10.2661C2.04539 10.5771 3.29986 11.1546 4.55433 12.0432L4.42888 12.3098C4.17799 12.7985 4.30343 13.3761 4.63796 13.7315L5.82387 14.9916C4.62279 15.9451 3.80146 17.1191 3.52842 18.4236C3.3698 19.0933 4.21581 19.6573 5.22045 19.5516C6.67578 19.4162 8.02279 19.0786 9.20602 18.5851L10.0322 19.4629C10.4085 19.8627 10.9521 19.9516 11.3703 19.685L11.6212 19.5517C12.4575 20.8846 13.0011 22.2175 13.2938 23.3282C16.5136 21.862 16.639 18.3966 16.0118 15.9974C19.0225 12.7097 20.8624 8.26674 21.0715 3.29069ZM16.5643 6.50686C15.5704 5.51611 14.0147 5.51611 13.0207 6.50686C12.07 7.45454 12.0268 9.04837 13.0207 10.0391C14.0147 11.0299 15.5704 11.0299 16.5643 10.0391C17.5583 9.04837 17.5583 7.49762 16.5643 6.50686Z" fill="#3F4E5D"/>
</svg>
