<svg width="24" height="24" viewBox="0 0 24 24" fill="none" xmlns="http://www.w3.org/2000/svg">
<path d="M11.8 1C13.2297 1 14.5946 1.27782 15.8435 1.78242L15.8395 1.83742C15.8205 2.00828 15.7825 2.19813 15.7825 2.35H13.15V3.7H15.04L14.8569 3.9021C14.4167 4.37184 13.8925 4.82219 13.42 5.1175L14.1625 6.265L14.3932 6.10203C15.9292 4.99003 16.8784 3.74564 17.1316 2.40526C20.397 4.26233 22.6 7.77389 22.6 11.8C22.6 15.8254 20.3978 19.3364 17.1324 21.1939C16.7772 19.2689 15.0105 17.5752 12.07 16.255C10.5175 15.58 9.3025 14.7025 8.56 13.825H12.475V12.475H7.8175L7.78456 12.3465C7.75 12.1672 7.75 11.962 7.75 11.8C7.75 11.5975 7.8175 11.3275 7.8175 11.125H10.45V9.775H8.56L8.76644 9.5479C9.18679 9.10276 9.64964 8.71429 10.1125 8.425L9.37 7.2775C7.4125 8.56 6.4 10.18 6.4 11.8C6.4 14.0275 8.2225 15.985 11.53 17.47C13.0825 18.145 14.2975 19.0225 15.04 19.9H11.125V21.25H15.7825L15.8154 21.3785C15.85 21.5578 15.85 21.763 15.85 21.925L15.8498 21.815C14.5992 22.3212 13.2321 22.6 11.8 22.6C10.3703 22.6 9.00542 22.3222 7.7565 21.8176L7.76055 21.7626C7.77953 21.5917 7.8175 21.4019 7.8175 21.25H10.45V19.9H8.56L8.77017 19.6729C9.20469 19.2278 9.71714 18.8393 10.18 18.55L9.4375 17.4025C7.71729 18.492 6.72772 19.825 6.46881 21.1947C3.20304 19.3377 1 15.8261 1 11.8C1 7.77463 3.20223 4.26363 6.4676 2.40607C6.82278 4.33114 8.58954 6.02479 11.53 7.345C13.0825 8.02 14.2975 8.8975 15.04 9.775H11.125V11.125H15.7825L15.8154 11.2535C15.85 11.4328 15.85 11.638 15.85 11.8C15.85 12.0025 15.7825 12.2725 15.7825 12.475H13.15V13.825H15.04L14.8569 14.0271C14.4167 14.4968 13.8925 14.9472 13.42 15.2425L14.1625 16.39L14.4006 16.2345C16.2669 14.9778 17.2 13.42 17.2 11.8C17.2 9.5725 15.3775 7.615 12.07 6.13C10.5175 5.455 9.3025 4.5775 8.56 3.7H12.475V2.35H7.8175L7.80695 2.18758C7.78797 2.01672 7.75 1.82688 7.75 1.675L7.7565 1.78242C9.00542 1.27782 10.3703 1 11.8 1Z" fill="#3F4E5D"/>
</svg>
