<svg width="24" height="24" viewBox="0 0 24 24" fill="none" xmlns="http://www.w3.org/2000/svg">
<circle cx="12" cy="12" r="11" fill="url(#paint0_linear_32_94)"/>
<path fill-rule="evenodd" clip-rule="evenodd" d="M16.6196 8.68832C16.8522 8.08764 17.4771 7.68636 18.1776 7.68794C19.0345 7.68201 19.7533 8.27442 19.8307 9.05038C19.9081 9.82634 19.3182 10.5266 18.4741 10.661L17.6817 14.4278V15.966C17.6817 16.2141 17.4604 16.4153 17.1875 16.4153L6.94579 16.4258C6.67285 16.4258 6.45158 16.2246 6.45158 15.9765V14.4338L5.6592 10.6685C4.89443 10.5449 4.32849 9.95242 4.30109 9.24666C4.27368 8.5409 4.79224 7.91361 5.54552 7.74132C6.2988 7.56903 7.08211 7.89854 7.42529 8.53208C7.76848 9.16562 7.57828 9.93103 6.96886 10.3689L8.99183 11.8666L11.2553 9.30101C10.6024 8.96483 10.2818 8.26997 10.4756 7.61091C10.6694 6.95185 11.3286 6.49513 12.079 6.50004C12.8293 6.50495 13.4812 6.97024 13.6645 7.63177C13.8479 8.29329 13.5164 8.98389 12.8582 9.31149L14.9734 11.8681L17.1447 10.3554C16.5976 9.95771 16.387 9.289 16.6196 8.68832ZM12.7247 7.98753C12.7247 7.65666 12.4297 7.38843 12.0658 7.38843V7.39442C11.7044 7.39441 11.4105 7.659 11.4068 7.98753C11.4068 8.3184 11.7019 8.58663 12.0658 8.58663C12.4297 8.58663 12.7247 8.3184 12.7247 7.98753ZM9.117 12.948C9.24666 12.9343 9.36511 12.8746 9.44647 12.7818L12.0526 9.83272L14.4841 12.7713C14.5633 12.867 14.6813 12.9301 14.8118 12.9464C14.9424 12.9627 15.0747 12.9309 15.1793 12.8582L17.3209 11.3604L16.7806 13.9216H7.35102L6.82551 11.4203L8.75458 12.8492C8.85618 12.9245 8.98655 12.9601 9.117 12.948ZM5.95076 8.5881C5.58683 8.5881 5.29181 8.85633 5.29181 9.1872C5.29181 9.51807 5.58683 9.7863 5.95076 9.7863C6.31468 9.7863 6.6097 9.51807 6.6097 9.1872C6.6097 8.85633 6.31468 8.5881 5.95076 8.5881ZM7.43338 15.5257V14.8202H16.6916V15.5167L7.43338 15.5257ZM17.5186 9.19015C17.5186 9.52102 17.8136 9.78925 18.1775 9.78925C18.5415 9.78925 18.8365 9.52102 18.8365 9.19015C18.8365 8.85928 18.5415 8.59105 18.1775 8.59105C17.8136 8.59105 17.5186 8.85928 17.5186 9.19015Z" fill="white"/>
<defs>
<linearGradient id="paint0_linear_32_94" x1="-3.02344" y1="5.6888" x2="6.35417" y2="27.6888" gradientUnits="userSpaceOnUse">
<stop stop-color="#027BEE"/>
<stop offset="1" stop-color="#00BCFF"/>
</linearGradient>
</defs>
</svg>
