<svg width="24" height="24" viewBox="0 0 24 24" fill="none" xmlns="http://www.w3.org/2000/svg">
<g clip-path="url(#clip0_29_191)">
<path d="M20.4919 2.00189C20.6253 1.77426 20.688 1.51205 20.6719 1.24868C20.6634 1.07579 20.6208 0.906283 20.5465 0.74992C20.4722 0.593556 20.3678 0.453415 20.2392 0.337555C20.1106 0.221695 19.9603 0.132403 19.7971 0.0748136C19.6339 0.017224 19.4608 -0.00752698 19.288 0.00198397C19.0244 0.0133728 18.7701 0.102977 18.5576 0.259382C18.3451 0.415787 18.1839 0.631915 18.0947 0.880228C18.0054 1.12854 17.9921 1.39781 18.0564 1.65372C18.1207 1.90962 18.2598 2.1406 18.4558 2.3172C18.6519 2.49381 18.8961 2.60807 19.1573 2.64541C19.4185 2.68275 19.6849 2.6415 19.9226 2.5269C20.1603 2.41229 20.3585 2.22953 20.4919 2.00189Z" fill="#3F4E5D"/>
<path d="M15.6705 8.99956V9.82285H16.4233V10.2149H15.6705V11.7595C15.6705 12.1124 15.7725 12.3162 16.0626 12.3162C16.1656 12.3179 16.2684 12.3061 16.3684 12.281L16.3919 12.673C16.242 12.7249 16.0839 12.7488 15.9254 12.7436C15.8204 12.7501 15.7152 12.7339 15.6171 12.696C15.519 12.6581 15.4302 12.5994 15.3569 12.524C15.1972 12.3104 15.1244 12.0443 15.153 11.7791V10.211H14.7061V9.81893H15.1609V9.12109L15.6705 8.99956Z" fill="#3F4E5D"/>
<path fill-rule="evenodd" clip-rule="evenodd" d="M8.47076 9.82467C8.49428 10.0952 8.49428 10.3931 8.49428 10.7577V13.8666H9.01178V12.2985C9.10877 12.4438 9.24165 12.5617 9.39756 12.6407C9.55346 12.7197 9.72712 12.7571 9.90171 12.7493C10.5839 12.7493 11.2151 12.2396 11.2151 11.2125C11.2151 10.3422 10.6897 9.75802 9.99188 9.75802C9.78632 9.74919 9.58222 9.7963 9.40133 9.89434C9.22044 9.99238 9.06955 10.1377 8.96473 10.3147L8.94121 9.82467H8.47076ZM9.0353 11.7339C9.02107 11.6642 9.0132 11.5933 9.01178 11.5222V11.0322C9.02154 10.8129 9.11095 10.6047 9.26323 10.4466C9.41552 10.2886 9.62023 10.1915 9.83899 10.1736C10.3918 10.1736 10.6976 10.6636 10.6976 11.236C10.6976 11.8907 10.3722 12.3416 9.81938 12.3416C9.63971 12.3419 9.46506 12.2824 9.32305 12.1723C9.18104 12.0623 9.07978 11.908 9.0353 11.7339Z" fill="#3F4E5D"/>
<path d="M3.38465 13.2862C3.52579 13.1216 3.58067 12.8981 3.58067 12.2121V9.801H4.10601V12.3963C4.13042 12.6055 4.11245 12.8174 4.05318 13.0195C3.99391 13.2215 3.89454 13.4096 3.76101 13.5724C3.51285 13.7865 3.19486 13.9023 2.86716 13.8978L2.81227 13.5058C3.02365 13.5059 3.22757 13.4277 3.38465 13.2862Z" fill="#3F4E5D"/>
<path d="M7.522 12.6869C7.49848 12.4595 7.49848 12.1969 7.49848 11.9028L7.51024 11.8871V9.8054H6.98491V11.5617C6.98595 11.6593 6.9675 11.7562 6.93064 11.8465C6.89378 11.9369 6.83923 12.019 6.77022 12.088C6.70121 12.157 6.61911 12.2116 6.52873 12.2484C6.43836 12.2853 6.34154 12.3038 6.24395 12.3027C5.76958 12.3027 5.601 11.9381 5.601 11.3932V9.825H5.07566V11.499C5.07566 12.5066 5.61668 12.7536 6.07144 12.7536C6.26317 12.7567 6.45232 12.709 6.61965 12.6154C6.78698 12.5217 6.92653 12.3854 7.02411 12.2204L7.05547 12.6869H7.522Z" fill="#3F4E5D"/>
<path d="M12.7822 11.5118L12.151 9.82205L12.1432 9.81421H11.5708L12.6372 12.4527C12.6561 12.4963 12.668 12.5426 12.6725 12.5899C12.6653 12.6338 12.6507 12.6763 12.6293 12.7153C12.5294 12.9409 12.3776 13.1397 12.1863 13.2955C12.051 13.4088 11.8953 13.4953 11.7276 13.5504L11.857 13.9895C12.0968 13.9344 12.3183 13.8182 12.5 13.6523C12.8606 13.3465 13.0998 12.8408 13.4918 11.8607L14.2759 9.82205H13.7231L13.1508 11.5C13.1069 11.6266 13.0676 11.7592 13.031 11.8829C13.0087 11.9583 12.9873 12.0306 12.9665 12.0959C12.9195 11.9273 12.8489 11.6999 12.7822 11.5118Z" fill="#3F4E5D"/>
<path fill-rule="evenodd" clip-rule="evenodd" d="M17.4448 11.738C17.4005 11.6177 17.3818 11.4896 17.3899 11.3618H19.4061C19.4111 11.2809 19.4111 11.1997 19.4061 11.1188C19.4061 10.5934 19.1709 9.77016 18.23 9.77016C17.391 9.77016 16.8774 10.4523 16.8774 11.3148C16.8611 11.5063 16.8865 11.6991 16.9517 11.88C17.0169 12.0608 17.1205 12.2254 17.2553 12.3624C17.3901 12.4995 17.553 12.6057 17.7327 12.6739C17.9125 12.7421 18.1048 12.7706 18.2966 12.7575C18.6256 12.7666 18.9528 12.7064 19.2571 12.5811L19.1669 12.1891C18.919 12.2933 18.6518 12.344 18.3829 12.338C18.2499 12.3487 18.1162 12.3303 17.991 12.2842C17.8659 12.2382 17.7522 12.1654 17.6579 12.0711C17.5636 11.9768 17.4909 11.8631 17.4448 11.738ZM18.9278 10.9542C18.9429 10.8493 18.9354 10.7425 18.9058 10.6408C18.8761 10.5392 18.825 10.445 18.7559 10.3648C18.6868 10.2846 18.6013 10.2201 18.5052 10.1756C18.409 10.1312 18.3045 10.1079 18.1986 10.1073C17.9832 10.1229 17.7814 10.2184 17.6327 10.3751C17.484 10.5317 17.3992 10.7382 17.3949 10.9542H18.9278Z" fill="#3F4E5D"/>
<path d="M20.2032 10.7135C20.2032 10.3764 20.2032 10.0863 20.1797 9.81968H20.6501V10.3803H20.6736C20.723 10.2073 20.825 10.0539 20.9655 9.9415C21.106 9.82909 21.2781 9.76322 21.4577 9.75303C21.5072 9.74654 21.5572 9.74654 21.6067 9.75303V10.2431C21.5468 10.2361 21.4863 10.2361 21.4263 10.2431C21.2484 10.25 21.079 10.3214 20.9499 10.4441C20.8207 10.5667 20.7407 10.7322 20.7246 10.9096C20.7099 10.9898 20.7021 11.0711 20.7011 11.1526V12.6777H20.1836V10.7175L20.2032 10.7135Z" fill="#3F4E5D"/>
<path d="M12.2209 18.0272C8.33967 18.0272 4.9285 16.6342 3.1647 14.5772C3.84906 16.4277 5.08391 18.0242 6.70303 19.1517C8.32214 20.2793 10.2479 20.8837 12.2209 20.8837C14.1939 20.8837 16.1196 20.2793 17.7387 19.1517C19.3578 18.0242 20.5927 16.4277 21.2771 14.5772C19.5176 16.6342 16.1193 18.0272 12.2209 18.0272Z" fill="#3F4E5D"/>
<path d="M21.2771 7.86492C19.5133 5.80789 16.1021 4.41496 12.2209 4.41496C8.32243 4.41496 4.9285 5.80358 3.1647 7.86492C3.84906 6.01439 5.08391 4.41791 6.70303 3.29039C8.32214 2.16287 10.2479 1.55843 12.2209 1.55843C14.1939 1.55843 16.1196 2.16287 17.7387 3.29039C19.3578 4.41791 20.5927 6.01439 21.2771 7.86492Z" fill="#3F4E5D"/>
<path d="M6.66464 21.6393C6.68534 21.971 6.6068 22.3014 6.43905 22.5884C6.2713 22.8753 6.02192 23.1058 5.72269 23.2506C5.42346 23.3953 5.08792 23.4476 4.75883 23.401C4.42973 23.3543 4.12198 23.2107 3.87478 22.9885C3.62758 22.7663 3.45213 22.4755 3.37077 22.1533C3.28941 21.831 3.30584 21.4918 3.41795 21.1789C3.53006 20.866 3.73279 20.5935 4.00029 20.3962C4.26781 20.199 4.58799 20.0858 4.92005 20.0711C5.13758 20.0595 5.35527 20.0908 5.56069 20.1634C5.76611 20.2359 5.95522 20.3482 6.11723 20.4938C6.27924 20.6394 6.41097 20.8155 6.5049 21.0121C6.59882 21.2086 6.65311 21.4218 6.66464 21.6393Z" fill="#3F4E5D"/>
<path d="M2.45234 2.471C2.6135 2.57198 2.80093 2.62306 2.99106 2.61781C3.24792 2.6076 3.49039 2.49647 3.66581 2.30856C3.84124 2.12066 3.93546 1.87114 3.92804 1.61419C3.92023 1.42415 3.85641 1.24067 3.7446 1.08681C3.6328 0.932949 3.47799 0.815584 3.29966 0.749472C3.12132 0.683361 2.92742 0.671454 2.74235 0.715251C2.55726 0.759047 2.38926 0.856591 2.25947 0.995614C2.12968 1.13464 2.04389 1.30894 2.01289 1.49659C1.9819 1.68424 2.00708 1.87686 2.08527 2.05024C2.16346 2.22362 2.29117 2.37001 2.45234 2.471Z" fill="#3F4E5D"/>
</g>
<defs>
<clipPath id="clip0_29_191">
<rect width="24" height="24" fill="white"/>
</clipPath>
</defs>
</svg>
