<svg width="24" height="24" viewBox="0 0 24 24" fill="none" xmlns="http://www.w3.org/2000/svg">
<path fill-rule="evenodd" clip-rule="evenodd" d="M12.108 10.6876C15.5235 10.6876 18.3697 13.1633 18.8251 16.2849C20.1913 16.7154 21.216 17.8995 21.216 19.2988C21.216 21.1287 19.736 22.528 17.8005 22.528C15.8651 22.528 14.385 21.1287 14.385 19.2988C14.385 17.8995 15.2958 16.7154 16.5482 16.2849C16.2066 14.3474 14.2711 12.8404 12.108 12.8404H7.554V16.2849C8.9202 16.7154 9.831 17.8995 9.831 19.2988C9.831 21.1287 8.35095 22.528 6.4155 22.528C4.48005 22.528 3 21.1287 3 19.2988C3 17.8995 3.9108 16.7154 5.277 16.2849V7.24312C3.9108 6.81256 3 5.62852 3 4.2292C3 2.39932 4.48005 1 6.4155 1C8.35095 1 9.831 2.39932 9.831 4.2292C9.831 5.62852 8.9202 6.81256 7.554 7.24312V10.6876H12.108ZM7.554 4.22919C7.554 3.58335 7.0986 3.15279 6.4155 3.15279C5.7324 3.15279 5.277 3.58335 5.277 4.22919C5.277 4.87503 5.7324 5.30559 6.4155 5.30559C7.0986 5.30559 7.554 4.87503 7.554 4.22919ZM6.4155 20.3752C5.7324 20.3752 5.277 19.9446 5.277 19.2988C5.277 18.653 5.7324 18.2224 6.4155 18.2224C7.0986 18.2224 7.554 18.653 7.554 19.2988C7.554 19.9446 7.0986 20.3752 6.4155 20.3752ZM16.662 19.2988C16.662 19.9446 17.1174 20.3752 17.8005 20.3752C18.4836 20.3752 18.939 19.9446 18.939 19.2988C18.939 18.653 18.4836 18.2224 17.8005 18.2224C17.1174 18.2224 16.662 18.653 16.662 19.2988Z" fill="#3F4E5D"/>
</svg>
