<svg width="24" height="24" viewBox="0 0 24 24" fill="none" xmlns="http://www.w3.org/2000/svg">
<path d="M21.8007 11.9504L12.8579 2.37786C12.48 1.87405 11.7243 1.87405 11.3465 2.37786L2.27776 12.2023C1.64799 12.958 2.15181 14.2176 3.15944 14.2176H5.17471V21.0191C5.17471 21.271 5.42661 21.7748 5.93043 21.7748H9.20524C9.5831 21.7748 9.96097 21.3969 9.96097 21.0191V17.3664C9.96097 16.9885 10.2129 16.7366 10.5907 16.7366H14.1175C14.3694 16.7366 14.6213 16.9885 14.6213 17.3664V21.0191C14.6213 21.3969 14.8732 21.7748 15.377 21.7748H18.3999C19.1556 21.7748 19.2816 21.3969 19.2816 21.0191V14.2176H20.919C22.0526 14.2176 22.5564 12.8321 21.8007 11.9504Z" fill="#0C0C0C"/>
</svg>
