<svg width="24" height="24" viewBox="0 0 24 24" fill="none" xmlns="http://www.w3.org/2000/svg">
<path fill-rule="evenodd" clip-rule="evenodd" d="M21.2794 2.29797H17.0392V6.53811H21.2794V2.29797ZM11.739 7.14384C9.39729 7.14384 7.49891 9.04221 7.49891 11.384H11.739V7.14384ZM6.9689 11.9897C4.62713 11.9897 2.72876 13.8881 2.72876 16.2298H6.9689V11.9897ZM12.2691 7.14384H16.5092V11.384H12.2691V7.14384ZM12.2691 11.914H16.5092C16.5092 14.2557 14.6108 16.1541 12.2691 16.1541V11.914ZM21.2794 7.06812H17.0392V11.3083C19.381 11.3083 21.2794 9.40988 21.2794 7.06812ZM7.49891 11.914H11.739V16.1541H7.49891V11.914ZM6.9689 16.7599H2.72876V21H6.9689V16.7599ZM5.98458 3.58514C4.8346 3.58514 3.90237 4.51737 3.90237 5.66735V11.2704H2.76662V5.66735C2.76662 3.89012 4.20735 2.44939 5.98458 2.44939H16.3956V3.58514H5.98458ZM20.0679 17.782C20.0679 18.932 19.1356 19.8642 17.9857 19.8642H7.57463V21H17.9857C19.7629 21 21.2036 19.5592 21.2036 17.782V11.4218H20.0679V17.782Z" fill="#0C0C0C"/>
</svg>
