<svg width="24" height="24" viewBox="0 0 24 24" fill="none" xmlns="http://www.w3.org/2000/svg">
<path fill-rule="evenodd" clip-rule="evenodd" d="M12 19.5C12.3485 19.5 18.6666 14.0152 18.6666 8.66664C18.6666 4.98474 15.6819 1.99997 12 1.99997C8.31808 1.99997 5.33331 4.98474 5.33331 8.66664C5.33331 14.0152 11.6514 19.5 12 19.5ZM12 11.1666C13.3807 11.1666 14.5 10.0473 14.5 8.66664C14.5 7.28592 13.3807 6.16664 12 6.16664C10.6193 6.16664 9.49998 7.28592 9.49998 8.66664C9.49998 10.0473 10.6193 11.1666 12 11.1666Z" fill="#0C0C0C"/>
<path d="M13.722 19.1681C15.8298 19.2786 17.8333 19.572 17.8333 19.9166C17.8333 20.356 14.5773 20.7121 12 20.7121C9.42265 20.7121 6.16665 20.356 6.16665 19.9166C6.16665 19.572 8.17015 19.2786 10.278 19.1681C10.1324 19.0258 9.98109 18.8741 9.82541 18.7138C5.81248 18.8913 2.83331 19.5491 2.83331 20.3333C2.83331 21.2538 6.93737 22 12 22C17.0626 22 21.1666 21.2538 21.1666 20.3333C21.1666 19.5491 18.1875 18.8913 14.1746 18.7138C14.0189 18.8741 13.8676 19.0258 13.722 19.1681Z" fill="#0C0C0C"/>
</svg>
