<svg width="24" height="24" viewBox="0 0 24 24" fill="none" xmlns="http://www.w3.org/2000/svg">
<path d="M11.5602 3.04071C10.7179 3.19978 10.0563 3.5396 9.43812 4.13611C8.90669 4.64585 8.5271 5.29297 8.33549 6.0124C8.24873 6.33054 8.23788 6.42815 8.23788 6.99935C8.23788 7.56693 8.24872 7.66816 8.33187 7.98268C8.72232 9.42514 9.79603 10.5133 11.2132 10.8965C11.5277 10.9833 11.6217 10.9905 12.2291 10.9905C12.8364 10.9905 12.9304 10.9833 13.2485 10.8965C14.6621 10.5133 15.7358 9.42514 16.1262 7.98268C16.2094 7.66816 16.2202 7.56693 16.2202 6.99935C16.2202 6.42815 16.2094 6.33054 16.1226 6.0124C15.931 5.29297 15.5587 4.66031 15.0236 4.13973C14.4416 3.57214 13.827 3.24316 13.0461 3.07324C12.6737 2.99009 11.9145 2.97563 11.5602 3.04071Z" fill="#3F4E5D"/>
<path d="M11.0722 11.6629C10.736 11.6991 10.2985 11.7822 9.9804 11.869L9.77795 11.9232L9.56103 12.4727C9.10552 13.6224 8.75485 14.8985 8.52709 16.2579L8.50178 16.3916L8.74038 16.5001C9.06937 16.6555 9.34412 16.9267 9.51042 17.2629C9.64057 17.5268 9.64418 17.5449 9.64418 17.9317C9.64418 18.3077 9.63695 18.3474 9.5285 18.5788C9.36943 18.915 9.09829 19.1898 8.76208 19.3561C8.49817 19.4862 8.48009 19.4898 8.08965 19.4898C7.69921 19.4898 7.68113 19.4862 7.41722 19.3561C7.08101 19.1898 6.80987 18.915 6.6508 18.5788C6.54235 18.3474 6.53512 18.3077 6.53512 17.9353C6.53512 17.5629 6.54235 17.5232 6.6508 17.2918C6.80625 16.9628 7.07739 16.6844 7.39553 16.5254C7.53291 16.4567 7.66667 16.3988 7.68836 16.3988C7.71367 16.3988 7.7679 16.1602 7.82936 15.7987C7.96312 15.0106 8.26679 13.8031 8.53432 13.0078C8.65362 12.6571 8.74761 12.3607 8.74038 12.3534C8.71869 12.3354 8.33187 12.5631 7.94504 12.8234C7.22923 13.3115 6.65442 13.8899 6.1519 14.6419C5.48671 15.6288 5.12157 16.6953 5.03481 17.9028C4.98781 18.5824 4.98781 21.0408 5.03842 21.2179C5.06373 21.3119 5.11434 21.377 5.19026 21.424C5.30233 21.4963 5.4361 21.4963 12.229 21.4963C19.022 21.4963 19.1558 21.4963 19.2678 21.424C19.3438 21.377 19.3944 21.3119 19.4197 21.2179C19.4703 21.0371 19.4703 18.4776 19.4233 17.8594C19.2281 15.4734 17.876 13.4525 15.7394 12.3534C15.5333 12.2486 15.3634 12.1691 15.3526 12.1763C15.3453 12.1871 15.3707 12.3462 15.414 12.5342C15.537 13.0909 15.6273 13.7887 15.6273 14.1755V14.537L16.0178 14.9347C16.9396 15.8819 17.4205 16.764 17.4639 17.5919C17.4928 18.1884 17.3301 18.6113 16.918 18.9837C16.6721 19.2079 16.3106 19.3995 16.0901 19.4248C15.8949 19.4465 15.7575 19.3488 15.696 19.1464C15.6309 18.9331 15.7249 18.7993 16.0539 18.6367C16.1985 18.5643 16.3684 18.4595 16.4263 18.4017C17.0011 17.8558 16.6577 16.7387 15.5514 15.5529C15.4104 15.4011 15.2477 15.242 15.1899 15.2022L15.0814 15.1263L14.7163 15.3324C14.0475 15.712 13.4221 16.2398 13.122 16.6772C12.8509 17.0713 12.7713 17.5196 12.9196 17.8449C12.9629 17.9425 13.0931 18.1052 13.2521 18.2498C13.5016 18.4848 13.5124 18.5029 13.5124 18.662C13.5124 18.803 13.4944 18.8427 13.3931 18.9331C13.2196 19.0886 13.0461 19.0777 12.8183 18.8969C12.2471 18.445 11.9796 17.8377 12.0808 17.2231C12.1676 16.7025 12.3881 16.2904 12.8436 15.8096C13.3208 15.3034 13.9535 14.8443 14.6259 14.5153L14.8681 14.396V14.1863C14.8681 13.7959 14.6332 12.4077 14.4958 11.9992C14.4452 11.8473 14.4379 11.8437 13.8197 11.7316C13.4763 11.6666 13.2305 11.6521 12.3917 11.6449C11.835 11.6376 11.2421 11.6449 11.0722 11.6629Z" fill="#3F4E5D"/>
</svg>
