<svg width="24" height="24" viewBox="0 0 24 24" fill="none" xmlns="http://www.w3.org/2000/svg">
<path fill-rule="evenodd" clip-rule="evenodd" d="M14.8434 7.9937C14.8434 11.8056 9.12552 11.8056 9.12552 7.9937C9.12552 4.18179 14.8434 4.18179 14.8434 7.9937ZM8.64905 9.89966C8.64905 13.0763 3.88415 13.0763 3.88415 9.89966C3.88415 6.72306 8.64905 6.72306 8.64905 9.89966ZM6.26661 13.4238C2.83715 13.4238 1.50171 16.4263 1.50171 16.4263V18L6.26659 18L11.0315 18H12.9374L17.7023 18L22.4672 18V16.4263C22.4672 16.4263 21.1318 13.4238 17.7023 13.4238C16.9518 13.4238 16.3016 13.5676 15.7437 13.7922C14.8483 13.1209 13.6154 12.5674 11.9845 12.5674C10.3535 12.5674 9.12067 13.1209 8.22521 13.7922C7.66733 13.5676 7.01711 13.4238 6.26661 13.4238ZM20.0848 9.89966C20.0848 13.0763 15.3199 13.0763 15.3199 9.89966C15.3199 6.72306 20.0848 6.72306 20.0848 9.89966Z" fill="#0C0C0C"/>
</svg>
