<svg width="24" height="24" viewBox="0 0 24 24" fill="none" xmlns="http://www.w3.org/2000/svg">
<path d="M6.95999 5.37778C7.04135 5.37778 7.12343 5.35942 7.20083 5.3209L9.44183 4.20346L9.70499 4.8439C10.0085 4.65274 10.3357 4.49578 10.6835 4.38418L10.2198 3.25594C10.2173 3.24982 10.2133 3.24514 10.2108 3.23866C10.2079 3.23254 10.2065 3.22606 10.2036 3.2203C10.1982 3.2095 10.191 3.2005 10.1849 3.19078C10.1755 3.17458 10.1662 3.15874 10.1557 3.14398C10.1449 3.12958 10.1334 3.11626 10.1212 3.10294C10.11 3.08998 10.0985 3.07738 10.0855 3.0655C10.0718 3.0529 10.0578 3.04174 10.043 3.03094C10.0301 3.02122 10.0171 3.01114 10.0034 3.00286C9.98759 2.99314 9.97103 2.9845 9.95447 2.97694C9.93971 2.96974 9.92567 2.9629 9.91091 2.95714C9.89327 2.95066 9.87563 2.94598 9.85835 2.94094C9.84251 2.93662 9.82703 2.93302 9.81119 2.9305C9.79283 2.9269 9.77483 2.92546 9.75647 2.92402C9.74027 2.9233 9.72407 2.92186 9.70715 2.92258C9.68879 2.92294 9.67043 2.9251 9.65243 2.92762C9.63551 2.92978 9.61859 2.93194 9.60167 2.93554C9.58367 2.9395 9.56567 2.94562 9.54839 2.95138C9.53723 2.95534 9.52607 2.95714 9.51527 2.9611C9.50879 2.96398 9.50411 2.96794 9.49763 2.9701C9.49187 2.97298 9.48539 2.97442 9.47927 2.9773L6.71879 4.35394C6.45203 4.48678 6.34331 4.81114 6.47651 5.07826C6.57119 5.26834 6.76163 5.37778 6.95999 5.37778ZM9.91235 5.34934C9.66395 5.51494 9.43679 5.7097 9.23375 5.92714C9.22295 5.93902 9.21179 5.95126 9.20099 5.9635C9.11135 6.0625 9.02639 6.16654 8.94755 6.27454C8.93891 6.28642 8.92919 6.29794 8.92091 6.31018C8.75063 6.54922 8.60771 6.80878 8.49611 7.08346C8.48639 7.10794 8.47811 7.1335 8.46875 7.15762C8.42807 7.26562 8.39171 7.37578 8.36039 7.48846C8.34923 7.52914 8.33843 7.5709 8.32835 7.61302C8.30351 7.71562 8.28371 7.82038 8.26751 7.92658C8.26103 7.9687 8.25347 8.0101 8.24807 8.0533C8.23079 8.19874 8.21963 8.34634 8.21963 8.49682C8.21963 8.78734 8.25815 9.07498 8.32511 9.35614C8.36183 9.31942 8.40215 9.28846 8.43959 9.25354C8.53643 9.16282 8.63291 9.0721 8.73407 8.98966C8.80427 8.9317 8.87843 8.88058 8.95115 8.82694C9.02747 8.77006 9.10307 8.71174 9.18155 8.65918C9.25895 8.60734 9.33923 8.56126 9.41843 8.51338C9.49655 8.46658 9.57431 8.41978 9.65387 8.3773C9.73523 8.3341 9.81767 8.29486 9.90119 8.25598C9.98399 8.21746 10.0675 8.18002 10.1518 8.14546C10.2342 8.11234 10.3174 8.08102 10.4012 8.05186C10.4927 8.02018 10.5848 7.99282 10.6781 7.9669C10.758 7.94458 10.8372 7.9219 10.9182 7.90318C11.0273 7.87834 11.1371 7.86034 11.2476 7.84306C11.3153 7.83262 11.3822 7.81858 11.4503 7.81066C11.631 7.79014 11.8124 7.7779 11.9957 7.77754C11.9968 7.77754 11.9982 7.77754 11.9989 7.77754C12.184 7.77754 12.3672 7.79014 12.5494 7.81102C12.6152 7.81858 12.6793 7.8319 12.7448 7.84162C12.8579 7.85926 12.9713 7.87834 13.0829 7.90354C13.1614 7.9219 13.2384 7.9435 13.3154 7.96546C13.4112 7.9921 13.5062 8.0209 13.6006 8.0533C13.6826 8.08138 13.7629 8.11198 13.8432 8.14438C13.93 8.17966 14.0156 8.21782 14.1013 8.25742C14.1827 8.29558 14.2633 8.33374 14.3429 8.37586C14.4246 8.41942 14.5038 8.4673 14.5837 8.51518C14.6618 8.56234 14.7407 8.60806 14.8166 8.65846C14.8958 8.71174 14.9725 8.77078 15.0492 8.82802C15.1208 8.88166 15.1943 8.93242 15.2641 8.98966C15.362 9.06994 15.456 9.15778 15.5503 9.24562C15.5906 9.28342 15.6342 9.31726 15.6742 9.35686C15.7408 9.0757 15.7793 8.78806 15.7793 8.49754C15.7793 8.34778 15.7681 8.2009 15.7512 8.0551C15.744 7.99606 15.7321 7.93918 15.7228 7.88086C15.7091 7.79842 15.6943 7.71598 15.6752 7.63534C15.6619 7.57702 15.6468 7.51978 15.6306 7.4629C15.605 7.37254 15.5755 7.28398 15.5435 7.19686C15.5287 7.15654 15.5161 7.1155 15.4999 7.07626C15.4484 6.95026 15.3908 6.82822 15.3271 6.70942C15.3127 6.68242 15.2962 6.6565 15.2807 6.62986C15.2238 6.5305 15.1633 6.4333 15.0974 6.3397C15.0802 6.3145 15.0625 6.28966 15.0449 6.26518C14.8739 6.03262 14.6784 5.81986 14.4602 5.63194C14.4527 5.6251 14.4444 5.61898 14.4365 5.61214C14.3321 5.52394 14.2223 5.44078 14.1085 5.36446C13.7986 5.15494 13.4573 4.98898 13.0915 4.87846C13.044 4.86442 12.9954 4.85254 12.9479 4.8403C12.8917 4.8259 12.8356 4.81186 12.7783 4.79998C12.7333 4.79062 12.6876 4.78162 12.6419 4.77406C12.5753 4.7629 12.5083 4.75318 12.4403 4.74526C12.4025 4.74094 12.3643 4.7359 12.3258 4.73266C12.2182 4.72366 12.1098 4.71718 12 4.71718C11.8844 4.71718 11.7692 4.72438 11.6562 4.73482C11.6184 4.73806 11.581 4.74274 11.5435 4.74742C11.4676 4.75642 11.3923 4.76866 11.3178 4.78198C11.276 4.78954 11.2346 4.79674 11.1932 4.80574C11.1079 4.8241 11.0233 4.84642 10.9405 4.87054C10.9236 4.87558 10.906 4.87882 10.889 4.88458C10.5384 4.99222 10.2104 5.14882 9.91163 5.34754L9.91235 5.34934ZM14.5589 4.20382L16.7999 5.32126C16.8773 5.35978 16.9594 5.37814 17.0404 5.37814C17.2387 5.37814 17.4295 5.26834 17.5242 5.07934C17.657 4.81222 17.5487 4.48786 17.2816 4.35502L14.5211 2.97838C14.515 2.9755 14.5092 2.97442 14.5031 2.97154C14.497 2.96902 14.4919 2.9647 14.4854 2.96218C14.4746 2.95786 14.4631 2.95606 14.452 2.95246C14.434 2.94634 14.4163 2.94058 14.3987 2.93662C14.3818 2.93266 14.3652 2.9305 14.3483 2.9287C14.3299 2.92654 14.3116 2.92438 14.2936 2.92366C14.2766 2.9233 14.2601 2.92438 14.2432 2.92546C14.2252 2.92654 14.2075 2.92834 14.1899 2.93158C14.1733 2.93446 14.1571 2.93878 14.1409 2.94274C14.1236 2.94742 14.1071 2.95174 14.0902 2.95822C14.0743 2.9647 14.0592 2.97154 14.0441 2.9791C14.0282 2.98666 14.0128 2.99458 13.9976 3.00358C13.9829 3.01222 13.9692 3.02302 13.9555 3.0331C13.9415 3.04354 13.9282 3.05434 13.9152 3.06622C13.9019 3.0781 13.8904 3.09106 13.8781 3.10438C13.8666 3.1177 13.8554 3.1303 13.8446 3.14434C13.8342 3.1591 13.8245 3.1753 13.8151 3.1915C13.809 3.20122 13.8018 3.21058 13.7964 3.22102C13.7932 3.22678 13.7921 3.23326 13.7892 3.23938C13.7863 3.24586 13.7824 3.25054 13.7802 3.25666L13.3154 4.38706C13.6632 4.49902 13.9933 4.65022 14.2968 4.84174L14.5589 4.20382ZM6.63167 12.1224C6.75047 11.7699 6.89447 11.4355 7.05791 11.1147C6.14063 10.853 5.29787 10.2371 4.69415 9.7381C4.46375 9.54802 4.12355 9.58042 3.93383 9.80974C3.74375 10.0398 3.77615 10.38 4.00583 10.5697C4.66571 11.1162 5.57939 11.789 6.63167 12.1224ZM17.368 12.1231C18.4206 11.7897 19.3346 11.1162 19.9949 10.5701C20.2249 10.3803 20.257 10.0394 20.0665 9.8101C19.8772 9.58006 19.5359 9.54802 19.3066 9.73846C18.7021 10.2385 17.8594 10.8545 16.9421 11.1158C17.1052 11.4362 17.2492 11.7714 17.368 12.1231ZM17.368 17.288C17.2495 17.6397 17.1055 17.9749 16.9417 18.2957C17.8594 18.5567 18.7025 19.1726 19.3062 19.6723C19.4066 19.7558 19.5287 19.7961 19.65 19.7961C19.8055 19.7961 19.9596 19.7292 20.0665 19.6007C20.2562 19.3706 20.2242 19.0304 19.9945 18.84C19.3343 18.2942 18.4206 17.6207 17.368 17.288ZM20.2764 14.165H17.7665C17.778 14.3443 17.7892 14.5236 17.7892 14.7057C17.7892 14.8879 17.778 15.0665 17.7665 15.245H20.2764C20.5745 15.245 20.8164 15.0031 20.8164 14.705C20.8164 14.4069 20.5745 14.165 20.2764 14.165ZM15.731 10.2147C15.7184 10.1993 15.7062 10.1838 15.6932 10.1683C15.5856 10.0383 15.4736 9.9145 15.357 9.79642C15.3422 9.78166 15.3275 9.76726 15.3127 9.75286C15.1939 9.63478 15.0715 9.52246 14.9444 9.41734C14.9344 9.40906 14.9232 9.40114 14.9131 9.39286C14.6492 9.17758 14.3681 8.99218 14.0736 8.83774C14.0578 8.82982 14.0423 8.82046 14.0264 8.81254C13.8868 8.74126 13.7438 8.67862 13.5984 8.62174C13.5754 8.6131 13.5523 8.60374 13.5293 8.59546C13.3856 8.54254 13.2388 8.4961 13.0897 8.45794C13.0656 8.45146 13.0408 8.44606 13.0163 8.4403C12.8647 8.40358 12.711 8.37406 12.5551 8.35462C12.5364 8.3521 12.5177 8.35102 12.499 8.34886C12.3348 8.32978 12.1685 8.3179 11.9996 8.3179C11.8247 8.3179 11.6515 8.32906 11.4809 8.34958C11.4096 8.35822 11.3401 8.37478 11.2692 8.38702C11.1727 8.40358 11.0759 8.41798 10.9808 8.4403C10.8887 8.46262 10.7994 8.4925 10.7094 8.52058C10.6399 8.54218 10.5694 8.5609 10.5013 8.5861C10.398 8.62354 10.2968 8.66854 10.196 8.71354C10.1453 8.73586 10.0942 8.7571 10.0438 8.78122C9.93287 8.83558 9.82559 8.89642 9.71867 8.95942C9.68231 8.98138 9.64559 9.00082 9.60959 9.0235C9.49583 9.09478 9.38495 9.17182 9.27623 9.25282C9.25031 9.2719 9.22403 9.29026 9.19883 9.3097C9.08579 9.39754 8.97563 9.49042 8.86835 9.58726C8.84963 9.60454 8.83091 9.62146 8.81219 9.63874C8.70347 9.74062 8.59799 9.84718 8.49647 9.95878C8.48171 9.97498 8.46695 9.99082 8.45255 10.0074C8.33051 10.1435 8.21459 10.2871 8.10299 10.4365C8.06159 10.4923 8.01767 10.5463 7.97771 10.6043C7.85711 10.7767 7.74551 10.9581 7.64039 11.1461C7.07807 12.1634 6.74939 13.3881 6.74939 14.7065C6.74939 16.4658 7.33439 18.0584 8.28011 19.2137C8.28587 19.2209 8.29163 19.2277 8.29775 19.2349C8.52131 19.5049 8.76539 19.7504 9.02567 19.9682C9.04979 19.9887 9.07463 20.0089 9.09911 20.0287C9.22295 20.1291 9.34931 20.2235 9.48035 20.3106C9.50123 20.3246 9.52247 20.3365 9.54335 20.3498C9.65855 20.4243 9.77699 20.4931 9.89723 20.5572C9.92819 20.5741 9.95915 20.5917 9.99083 20.6072C10.1251 20.6753 10.2623 20.7365 10.4023 20.7908C10.4354 20.8034 10.4693 20.8146 10.5028 20.8268C10.6288 20.8725 10.7566 20.9132 10.8865 20.9471C10.9117 20.9543 10.9366 20.9618 10.9618 20.9683C11.1097 21.0043 11.2602 21.0317 11.4125 21.0518C11.4492 21.0569 11.4856 21.0608 11.5223 21.0651C11.5903 21.0723 11.6609 21.0727 11.7296 21.0777V12.2772C11.7296 12.1281 11.8506 12.0072 11.9996 12.0072C12.1487 12.0072 12.2696 12.1281 12.2696 12.2772V21.0767C12.3391 21.0709 12.41 21.0709 12.4788 21.0633C12.5137 21.0597 12.5486 21.0558 12.5836 21.0515C12.738 21.0302 12.8906 21.0029 13.0408 20.9665C13.0613 20.9615 13.0811 20.9553 13.1012 20.9496C13.2384 20.9136 13.373 20.8715 13.5059 20.8229C13.534 20.8124 13.5628 20.8031 13.5908 20.7919C13.7348 20.7365 13.8767 20.6731 14.0153 20.6036C14.0401 20.591 14.0646 20.577 14.0891 20.5644C14.2198 20.4949 14.3486 20.4204 14.4732 20.3387C14.4858 20.3311 14.4988 20.3232 14.5114 20.3149C14.6482 20.2242 14.7806 20.1259 14.9092 20.0211C14.9268 20.0071 14.9441 19.9923 14.9614 19.9783C16.342 18.8274 17.2488 16.896 17.2488 14.7061C17.2495 12.954 16.6696 11.3685 15.731 10.2147ZM6.20975 14.7057C6.20975 14.5236 6.22091 14.3443 6.23279 14.165H3.72359C3.42551 14.165 3.18359 14.4069 3.18359 14.705C3.18359 15.0031 3.42551 15.245 3.72359 15.245H6.23315C6.22091 15.0665 6.20975 14.8875 6.20975 14.7057ZM4.00547 18.84C3.77543 19.0304 3.74303 19.371 3.93347 19.6007C4.04003 19.7292 4.19483 19.7961 4.34999 19.7961C4.47095 19.7961 4.59299 19.7555 4.69379 19.6723C5.29787 19.1723 6.14027 18.557 7.05755 18.2957C6.89411 17.9749 6.75011 17.6397 6.63131 17.288C5.57939 17.6214 4.66535 18.2942 4.00547 18.84Z" fill="#3F4E5D"/>
</svg>
