<svg width="24" height="24" viewBox="0 0 24 24" fill="none" xmlns="http://www.w3.org/2000/svg">
<path d="M12 2C17.54 2 22 6.46 22 12C22 17.54 17.54 22 12 22C6.46 22 2 17.54 2 12C2 6.46 6.46 2 12 2ZM11.6304 15.7748C10.5537 15.7748 10.5537 15.7748 10.5537 16.8808C10.5537 17.4154 10.5537 17.4154 10.832 17.7121C11.1104 18.0087 11.1104 18.0087 11.6304 18.0087C12.1504 18.0087 12.1504 18.0087 12.4324 17.7047C12.7144 17.4008 12.7144 17.4008 12.7144 16.8808C12.7144 16.3534 12.7144 16.3534 12.436 16.0641C12.1577 15.7748 12.1577 15.7748 11.6304 15.7748ZM12.0845 6.93448C10.516 6.93448 10.516 6.93448 9.12843 7.63969L8.89844 7.76212L9.51367 9.05118C10.0776 8.77286 10.0776 8.77286 10.6709 8.5751C11.2642 8.37735 11.2642 8.37735 11.96 8.37735C12.729 8.37735 12.729 8.37735 13.1392 8.70694C13.5493 9.03653 13.5493 9.03653 13.5493 9.65176C13.5493 10.1791 13.5493 10.1791 13.2966 10.56C13.0439 10.9408 13.0439 10.9408 12.1724 11.6293C11.4399 12.2006 11.4399 12.2006 11.147 12.7353C10.8906 13.2031 10.8906 13.2031 10.8586 13.8784L10.854 14.0756V14.5443H12.2896V14.2148C12.2896 13.6215 12.2896 13.6215 12.5203 13.2699C12.751 12.9184 12.751 12.9184 13.4321 12.3837C14.2305 11.7611 14.2305 11.7611 14.5564 11.373C14.8823 10.9848 14.8823 10.9848 15.0435 10.5563C15.2046 10.1278 15.2046 10.1278 15.2046 9.57852C15.2046 8.34073 15.2046 8.34073 14.3623 7.6376C13.52 6.93448 13.52 6.93448 12.0845 6.93448Z" fill="#3F4E5D"/>
</svg>
