<svg width="24" height="24" viewBox="0 0 24 24" fill="none" xmlns="http://www.w3.org/2000/svg">
<path fill-rule="evenodd" clip-rule="evenodd" d="M11.6101 10.3461C16.5807 10.3461 20.6101 8.36807 20.6101 5.92805C20.6101 3.48803 16.5807 1.51001 11.6101 1.51001C6.63954 1.51001 2.61011 3.48803 2.61011 5.92805C2.61011 8.36807 6.63954 10.3461 11.6101 10.3461ZM20.6101 11.5042V9.31665C20.6101 9.10218 20.3803 8.9735 20.2271 9.10218C18.3505 10.775 14.9803 11.6329 11.6101 11.6329C8.27819 11.6329 4.90798 10.775 2.99309 9.10218C2.83989 8.9735 2.61011 9.10218 2.61011 9.31665V11.5471C2.61011 13.9369 6.5905 15.9021 11.5341 15.9221C12.4856 14.1149 14.3821 12.8827 16.5665 12.8827C17.6223 12.8827 18.6109 13.1706 19.4581 13.6722C20.1918 13.0322 20.6101 12.2927 20.6101 11.5042ZM11.0087 17.3714C7.87794 17.2745 4.79278 16.4221 2.99309 14.8499C2.83989 14.7213 2.61011 14.8499 2.61011 15.0644V17.2949C2.61011 19.6969 6.63138 21.67 11.6101 21.67C11.6748 21.67 11.7393 21.6697 11.8036 21.669C11.2213 20.7769 10.8828 19.7112 10.8828 18.5663C10.8828 18.1564 10.9262 17.7567 11.0087 17.3714ZM12.1328 18.5663C12.1328 16.1177 14.1178 14.1327 16.5665 14.1327C19.0151 14.1327 21.0001 16.1177 21.0001 18.5663C21.0001 21.015 19.0151 23 16.5665 23C14.1178 23 12.1328 21.015 12.1328 18.5663ZM16.9056 15.9085C16.7104 15.7133 16.3938 15.7133 16.1985 15.9085C16.0033 16.1038 16.0033 16.4204 16.1985 16.6156L17.6672 18.0844H14.2766C14.0005 18.0844 13.7766 18.3082 13.7766 18.5844C13.7766 18.8605 14.0005 19.0844 14.2766 19.0844H17.6313L16.1985 20.5172C16.0033 20.7124 16.0033 21.029 16.1985 21.2243C16.3938 21.4195 16.7104 21.4195 16.9056 21.2243L19.2099 18.92C19.4052 18.7247 19.4052 18.4081 19.2099 18.2128L16.9056 15.9085Z" fill="#0C0C0C"/>
</svg>
