<svg width="24" height="24" viewBox="0 0 24 24" fill="none" xmlns="http://www.w3.org/2000/svg">
<path fill-rule="evenodd" clip-rule="evenodd" d="M3.23108 13.6859L4.00845 13.2299C4.94775 12.6789 4.94775 11.3209 4.00845 10.7699L3.23108 10.3139C2.55837 9.91933 2.32747 9.0575 2.71278 8.37943L4.25099 5.67249C4.64387 4.98109 5.52638 4.74464 6.21231 5.14701L6.90502 5.55335C7.85565 6.111 9.05254 5.42548 9.05254 4.32336V3.44407C9.05254 2.65651 9.69098 2.01807 10.4785 2.01807H13.5213C14.3088 2.01807 14.9473 2.65651 14.9473 3.44407V4.32346C14.9473 5.42558 16.1442 6.1111 17.0948 5.55345L17.7875 5.14712C18.4734 4.74475 19.3559 4.98119 19.7488 5.6726L21.287 8.37954C21.6723 9.05761 21.4414 9.91944 20.7687 10.314L19.9915 10.7699C19.0522 11.3209 19.0522 12.6789 19.9915 13.2299L20.7687 13.6858C21.4414 14.0804 21.6723 14.9423 21.287 15.6203L19.7488 18.3273C19.3559 19.0187 18.4734 19.2551 17.7875 18.8528L17.0948 18.4464C16.1442 17.8888 14.9473 18.5743 14.9473 19.6764V20.5561C14.9473 21.3436 14.3088 21.9821 13.5213 21.9821H10.4785C9.69098 21.9821 9.05254 21.3436 9.05254 20.5561V19.6765C9.05254 18.5744 7.85565 17.8889 6.90502 18.4465L6.21231 18.8529C5.52638 19.2552 4.64387 19.0188 4.25098 18.3274L2.71278 15.6205C2.32747 14.9424 2.55838 14.0805 3.23108 13.6859ZM15 12C15 13.6569 13.6569 15 12 15C10.3431 15 9 13.6569 9 12C9 10.3431 10.3431 9 12 9C13.6569 9 15 10.3431 15 12Z" fill="#0C0C0C"/>
</svg>
