<svg width="24" height="24" viewBox="0 0 24 24" fill="none" xmlns="http://www.w3.org/2000/svg">
<path fill-rule="evenodd" clip-rule="evenodd" d="M11.895 2.78C12.4012 2.78 12.8116 2.38154 12.8116 1.89C12.8116 1.39847 12.4012 1 11.895 1C11.3888 1 10.9784 1.39847 10.9784 1.89C10.9784 2.38154 11.3888 2.78 11.895 2.78ZM16.3799 15.031C16.107 15.3838 15.8176 15.7578 15.5729 16.153C15.5461 16.1785 15.5192 16.306 15.5192 16.663C15.4924 16.867 15.3045 17.02 15.0897 17.02H8.75423C8.51263 17.02 8.35155 16.867 8.32471 16.663C8.29786 16.2805 8.24417 16.1785 8.21733 16.1275C7.92203 15.694 7.62673 15.286 7.33144 14.9035L7.32327 14.8926C6.38673 13.6472 5.50589 12.4758 5.47912 10.6959C5.45228 7.63582 7.92203 4.95826 11.1166 4.60125C12.9689 4.39725 14.7944 4.95826 16.1635 6.10579C17.5326 7.27881 18.3111 8.93635 18.3111 10.6704C18.3111 12.417 17.4372 13.6021 16.5194 14.8468L16.4588 14.929L16.3799 15.031ZM8.22866 18.8C8.22866 18.312 8.62049 17.91 9.09627 17.91H14.6937C15.1695 17.91 15.5614 18.312 15.5614 18.8C15.5614 19.2881 15.1695 19.69 14.6937 19.69H9.09627C8.62049 19.69 8.22866 19.2881 8.22866 18.8ZM15.5614 21.47C15.5614 20.982 15.1695 20.58 14.6937 20.58H9.09627C8.62049 20.58 8.22866 20.982 8.22866 21.47C8.22866 21.9581 8.62049 22.36 9.09627 22.36H14.6937C15.1695 22.36 15.5614 21.9868 15.5614 21.47ZM2.72915 11.68C3.23536 11.68 3.64573 11.2816 3.64573 10.79C3.64573 10.2985 3.23536 9.90001 2.72915 9.90001C2.22293 9.90001 1.81256 10.2985 1.81256 10.79C1.81256 11.2816 2.22293 11.68 2.72915 11.68ZM21.9775 10.79C21.9775 11.2816 21.5671 11.68 21.0609 11.68C20.5547 11.68 20.1443 11.2816 20.1443 10.79C20.1443 10.2985 20.5547 9.90001 21.0609 9.90001C21.5671 9.90001 21.9775 10.2985 21.9775 10.79ZM6.15235 16.3466C6.48779 16.682 6.45821 17.2555 6.08628 17.6274C5.71435 17.9993 5.14092 18.0289 4.80547 17.6935C4.47003 17.358 4.49961 16.7846 4.87154 16.4127C5.24346 16.0407 5.8169 16.0112 6.15235 16.3466ZM18.9185 5.16739C19.2904 4.79546 19.32 4.22203 18.9845 3.88658C18.6491 3.55114 18.0757 3.58072 17.7037 3.95265C17.3318 4.32457 17.3022 4.89801 17.6377 5.23345C17.9731 5.5689 18.5466 5.53932 18.9185 5.16739ZM18.9845 16.3466C19.32 16.682 19.2904 17.2555 18.9185 17.6274C18.5466 17.9993 17.9731 18.0289 17.6377 17.6935C17.3022 17.358 17.3318 16.7846 17.7037 16.4127C18.0757 16.0407 18.6491 16.0112 18.9845 16.3466ZM6.08628 5.16739C6.4582 4.79546 6.48778 4.22203 6.15234 3.88658C5.8169 3.55114 5.24346 3.58072 4.87153 3.95265C4.49961 4.32457 4.47003 4.89801 4.80547 5.23345C5.14091 5.5689 5.71435 5.53932 6.08628 5.16739Z" fill="#0C0C0C"/>
</svg>
