<svg width="24" height="24" viewBox="0 0 24 24" fill="none" xmlns="http://www.w3.org/2000/svg">
<path fill-rule="evenodd" clip-rule="evenodd" d="M11.61 10.3461C16.5805 10.3461 20.61 8.36804 20.61 5.92802C20.61 3.488 16.5805 1.50998 11.61 1.50998C6.63942 1.50998 2.60999 3.488 2.60999 5.92802C2.60999 8.36804 6.63942 10.3461 11.61 10.3461ZM20.61 11.3755V9.31662C20.61 9.10215 20.3802 8.97347 20.227 9.10215C18.3504 10.775 14.9802 11.6329 11.61 11.6329C8.27807 11.6329 4.90786 10.775 2.99296 9.10215C2.83977 8.97347 2.60999 9.10215 2.60999 9.31662V11.3755V11.5471C2.60999 13.9491 6.63126 15.9222 11.61 15.9222C16.5887 15.9222 20.61 13.9491 20.61 11.5042V11.3755ZM20.61 17.1233V15.0644C20.61 14.8499 20.3802 14.7212 20.227 14.8499C18.3504 16.5228 14.9802 17.3806 11.61 17.3806C8.27807 17.3806 4.90786 16.5228 2.99296 14.8499C2.83977 14.7212 2.60999 14.8499 2.60999 15.0644V17.1233V17.2948C2.60999 19.6969 6.63126 21.67 11.61 21.67C16.5887 21.67 20.61 19.6969 20.61 17.252V17.1233Z" fill="#3F4E5D"/>
</svg>
