<svg width="24" height="24" viewBox="0 0 24 24" fill="none" xmlns="http://www.w3.org/2000/svg">
<path d="M12.0021 1.99997C12.7442 1.99997 13.4582 2.57349 14.0696 3.61461C14.6782 4.6511 15.1698 6.12719 15.4741 7.87489C15.4857 7.94152 15.4342 8.00303 15.3658 8.00303H8.63836C8.57003 8.00303 8.51846 7.94152 8.53006 7.87489C8.83439 6.12719 9.326 4.6511 9.93462 3.61461C10.546 2.57349 11.2599 1.99997 12.0021 1.99997Z" fill="#0C0C0C"/>
<path d="M8.3027 14.4141C8.22866 13.6386 8.18678 12.835 8.18678 12C8.18678 11.165 8.22866 10.3614 8.3027 9.58581C8.30805 9.52979 8.35535 9.48671 8.41244 9.48671H15.5877C15.6448 9.48671 15.6921 9.52979 15.6974 9.58581C15.7715 10.3614 15.8133 11.165 15.8133 12C15.8133 12.835 15.7715 13.6386 15.6974 14.4141C15.6921 14.4701 15.6448 14.5132 15.5877 14.5132H8.41244C8.35535 14.5132 8.30805 14.4701 8.3027 14.4141Z" fill="#0C0C0C"/>
<path d="M15.41 2.60262C17.9404 3.51862 19.9924 5.42513 21.1028 7.85326C21.1344 7.92239 21.084 8.00303 21.0036 8.00303H17.0862C17.0317 8.00303 16.9847 7.9631 16.9758 7.90832C16.6522 5.91677 16.0855 4.10898 15.2821 2.77907C15.2537 2.73196 15.2608 2.67856 15.2899 2.64C15.3184 2.60231 15.3622 2.5853 15.41 2.60262Z" fill="#0C0C0C"/>
<path d="M2.90094 7.8534C4.00794 5.42559 6.06252 3.51914 8.58984 2.60296C8.63769 2.58562 8.68151 2.60261 8.71 2.6403C8.73915 2.67886 8.74627 2.73227 8.71781 2.77939C7.91464 4.10922 7.34835 5.91677 7.02816 7.90812C7.01933 7.96299 6.97226 8.00303 6.91765 8.00303H3.00015C2.91979 8.00303 2.86944 7.9225 2.90094 7.8534Z" fill="#0C0C0C"/>
<path d="M17.299 9.48671H21.5874C21.6381 9.48671 21.6816 9.52074 21.6934 9.56848C21.8877 10.3497 21.998 11.159 21.998 12C21.998 12.8413 21.8876 13.6507 21.6899 14.432C21.6779 14.4794 21.6346 14.5132 21.5841 14.5132H17.299C17.2335 14.5132 17.1816 14.4566 17.1877 14.3904C17.2602 13.6042 17.3011 12.8022 17.3011 12C17.3011 11.1977 17.2602 10.3957 17.1877 9.60953C17.1816 9.54338 17.2335 9.48671 17.299 9.48671Z" fill="#0C0C0C"/>
<path d="M6.81644 9.60953C6.74401 10.3957 6.70311 11.1977 6.70311 12C6.70311 12.8026 6.74405 13.6048 6.81339 14.391C6.8192 14.4569 6.76747 14.5132 6.70218 14.5132H2.41674C2.36604 14.5132 2.32261 14.4792 2.3107 14.4314C2.11599 13.65 2.00209 12.8407 2.00209 12C2.00209 11.1592 2.11599 10.35 2.3107 9.56851C2.32261 9.52074 2.36604 9.48671 2.41674 9.48671H6.70519C6.77067 9.48671 6.82253 9.54338 6.81644 9.60953Z" fill="#0C0C0C"/>
<path d="M12.0021 22C11.2599 22 10.546 21.4264 9.93462 20.3853C9.326 19.3488 8.83439 17.8727 8.53006 16.125C8.51846 16.0584 8.57003 15.9969 8.63836 15.9969H15.3658C15.4342 15.9969 15.4857 16.0584 15.4741 16.125C15.1698 17.8727 14.6782 19.3488 14.0696 20.3853C13.4582 21.4264 12.7442 22 12.0021 22Z" fill="#0C0C0C"/>
<path d="M21.1068 16.1467C19.9964 18.5745 17.9416 20.4808 15.4143 21.397C15.3665 21.4143 15.3227 21.3973 15.2942 21.3596C15.265 21.3211 15.2579 21.2677 15.2864 21.2206C16.0896 19.8907 16.6563 18.083 16.9798 16.0916C16.9887 16.0368 17.0358 15.9969 17.0903 15.9969H21.0077C21.0881 15.9969 21.1385 16.0776 21.1068 16.1467Z" fill="#0C0C0C"/>
<path d="M8.59415 21.3973C6.06376 20.4813 4.01177 18.5748 2.90139 16.1467C2.86978 16.0776 2.92015 15.9969 3.00056 15.9969H6.91795C6.97249 15.9969 7.01952 16.0368 7.02842 16.0916C7.35196 18.0832 7.91872 19.891 8.72207 21.2209C8.75052 21.268 8.74342 21.3214 8.71428 21.3599C8.68581 21.3976 8.64199 21.4146 8.59415 21.3973Z" fill="#0C0C0C"/>
</svg>
