<svg width="24" height="24" viewBox="0 0 24 24" fill="none" xmlns="http://www.w3.org/2000/svg">
<path fill-rule="evenodd" clip-rule="evenodd" d="M12 23C18.0751 23 23 18.0751 23 12C23 5.92487 18.0751 1 12 1C5.92487 1 1 5.92487 1 12C1 18.0751 5.92487 23 12 23ZM18.1776 7.68794C17.4771 7.68636 16.8522 8.08764 16.6196 8.68832C16.387 9.289 16.5976 9.95771 17.1447 10.3554L14.9734 11.8681L12.8582 9.31149C13.5164 8.98389 13.8479 8.29329 13.6645 7.63177C13.4812 6.97024 12.8293 6.50495 12.079 6.50004C11.3286 6.49513 10.6694 6.95185 10.4756 7.61091C10.2818 8.26997 10.6024 8.96483 11.2553 9.30101L8.99183 11.8666L6.96886 10.3689C7.57828 9.93103 7.76848 9.16562 7.42529 8.53208C7.08211 7.89854 6.2988 7.56903 5.54552 7.74132C4.79224 7.91361 4.27368 8.5409 4.30109 9.24666C4.32849 9.95242 4.89443 10.5449 5.6592 10.6685L6.45158 14.4338V15.9765C6.45158 16.2246 6.67285 16.4258 6.94579 16.4258L17.1875 16.4153C17.4604 16.4153 17.6817 16.2141 17.6817 15.966V14.4278L18.4741 10.661C19.3182 10.5266 19.9081 9.82634 19.8307 9.05038C19.7533 8.27442 19.0345 7.68201 18.1776 7.68794ZM12.0658 7.38843C12.4297 7.38843 12.7247 7.65666 12.7247 7.98753C12.7247 8.3184 12.4297 8.58663 12.0658 8.58663C11.7019 8.58663 11.4068 8.3184 11.4068 7.98753C11.4105 7.659 11.7044 7.39441 12.0658 7.39442V7.38843ZM9.44647 12.7818C9.36511 12.8746 9.24666 12.9343 9.117 12.948C8.98655 12.9601 8.85618 12.9245 8.75458 12.8492L6.82551 11.4203L7.35102 13.9216H16.7806L17.3209 11.3604L15.1793 12.8582C15.0747 12.9309 14.9424 12.9627 14.8118 12.9464C14.6813 12.9301 14.5633 12.867 14.4841 12.7713L12.0526 9.83272L9.44647 12.7818ZM5.29181 9.1872C5.29181 8.85633 5.58683 8.5881 5.95076 8.5881C6.31468 8.5881 6.6097 8.85633 6.6097 9.1872C6.6097 9.51807 6.31468 9.7863 5.95076 9.7863C5.58683 9.7863 5.29181 9.51807 5.29181 9.1872ZM7.43338 14.8202V15.5257L16.6916 15.5167V14.8202H7.43338ZM18.1775 9.78925C17.8136 9.78925 17.5186 9.52102 17.5186 9.19015C17.5186 8.85928 17.8136 8.59105 18.1775 8.59105C18.5415 8.59105 18.8365 8.85928 18.8365 9.19015C18.8365 9.52102 18.5415 9.78925 18.1775 9.78925Z" fill="url(#paint0_linear_1656_9527)"/>
<defs>
<linearGradient id="paint0_linear_1656_9527" x1="-3.02344" y1="5.6888" x2="6.35417" y2="27.6888" gradientUnits="userSpaceOnUse">
<stop stop-color="#027BEE"/>
<stop offset="1" stop-color="#00BCFF"/>
</linearGradient>
</defs>
</svg>
