<svg width="24" height="24" viewBox="0 0 24 24" fill="none" xmlns="http://www.w3.org/2000/svg">
<path fill-rule="evenodd" clip-rule="evenodd" d="M14.8434 7.99373C14.8434 11.8056 9.12551 11.8056 9.12551 7.99373C9.12551 4.18181 14.8434 4.18181 14.8434 7.99373ZM8.64904 9.89968C8.64904 13.0763 3.88414 13.0763 3.88414 9.89968C3.88414 6.72309 8.64904 6.72309 8.64904 9.89968ZM6.2666 13.4238C2.83714 13.4238 1.5017 16.4263 1.5017 16.4263V18L6.26658 18L11.0315 18H12.9374L17.7023 18L22.4672 18V16.4263C22.4672 16.4263 21.1318 13.4238 17.7023 13.4238C16.9518 13.4238 16.3016 13.5676 15.7437 13.7923C14.8483 13.1209 13.6154 12.5674 11.9845 12.5674C10.3535 12.5674 9.12066 13.1209 8.2252 13.7923C7.66732 13.5676 7.0171 13.4238 6.2666 13.4238ZM20.0848 9.89968C20.0848 13.0763 15.3199 13.0763 15.3199 9.89968C15.3199 6.72309 20.0848 6.72309 20.0848 9.89968Z" fill="#3F4E5D"/>
</svg>
