<svg width="24" height="24" viewBox="0 0 24 24" fill="none" xmlns="http://www.w3.org/2000/svg">
<path fill-rule="evenodd" clip-rule="evenodd" d="M23 12C23 18.0751 18.0751 23 12 23C5.92487 23 1 18.0751 1 12C1 5.92487 5.92487 1 12 1C18.0751 1 23 5.92487 23 12ZM11.9732 10.8524C13.3652 10.8524 14.5042 9.79893 14.5042 8.51141V7.34094C14.5042 6.05342 13.3652 5 11.9732 5C10.5811 5 9.44214 6.05342 9.44214 7.34094V8.51141C9.44214 9.79893 10.5811 10.8524 11.9732 10.8524ZM17.9604 15.366C17.9604 17.2752 15.283 18.823 11.9802 18.823C8.67744 18.823 6 17.2752 6 15.366C6 13.4568 8.67744 11.9091 11.9802 11.9091C15.283 11.9091 17.9604 13.4568 17.9604 15.366Z" fill="url(#paint0_linear_1656_9528)"/>
<defs>
<linearGradient id="paint0_linear_1656_9528" x1="-3.02344" y1="5.6888" x2="6.35417" y2="27.6888" gradientUnits="userSpaceOnUse">
<stop stop-color="#027BEE"/>
<stop offset="1" stop-color="#00BCFF"/>
</linearGradient>
</defs>
</svg>
