<svg width="24" height="24" viewBox="0 0 24 24" fill="none" xmlns="http://www.w3.org/2000/svg">
<path d="M2.25 5.84522C5.3271 6.04958 7.79268 8.5214 7.98612 11.6016H11.5796C11.3799 6.53474 7.31454 2.46158 2.25 2.25098V5.84522Z" fill="#0DC09D"/>
<path d="M8.0064 12.4214C7.80204 15.4985 5.33022 17.9641 2.25 18.1575V21.751C7.31688 21.5513 11.39 17.486 11.6006 12.4214H8.0064Z" fill="#0DC09D"/>
<path d="M15.9936 11.5806C16.1979 8.50346 18.6697 6.03788 21.75 5.84444V2.25098C16.683 2.45066 12.6099 6.51602 12.3993 11.5806H15.9936Z" fill="#0DC09D"/>
<path d="M21.75 18.1568C18.6729 17.9524 16.2074 15.4805 16.014 12.4003H12.4204C12.6201 17.4672 16.6855 21.5404 21.75 21.751V18.1568Z" fill="#0DC09D"/>
</svg>
