<svg width="24" height="24" viewBox="0 0 24 24" fill="none" xmlns="http://www.w3.org/2000/svg">
<path fill-rule="evenodd" clip-rule="evenodd" d="M17.3592 4.77003C17.4106 4.56877 17.4227 4.36353 17.3923 4.16983C17.3395 3.83274 17.1623 3.55822 16.8998 3.40667C16.6373 3.25512 16.311 3.23894 15.9926 3.36171C15.6743 3.48448 15.39 3.73613 15.2022 4.0613L13.2597 7.42591H5.14286C4.83975 7.42591 4.54906 7.54631 4.33474 7.76064C4.12041 7.97497 4 8.26566 4 8.56876C4 8.87187 4.12041 9.16256 4.33474 9.37689C4.54906 9.59121 4.83975 9.71162 5.14286 9.71162H11.94L9.30068 14.283H5.14286C4.83975 14.283 4.54906 14.4035 4.33474 14.6178C4.12041 14.8321 4 15.1228 4 15.4259C4 15.729 4.12041 16.0197 4.33474 16.234C4.54906 16.4484 4.83975 16.5688 5.14286 16.5688H7.98103L6.70786 18.7739C6.52013 19.0991 6.44435 19.4712 6.49722 19.8083C6.55008 20.1454 6.72725 20.4199 6.98974 20.5714C7.25224 20.723 7.57856 20.7392 7.89693 20.6164C8.21529 20.4936 8.49961 20.242 8.68735 19.9168L8.91742 19.5183C8.97122 19.3424 9.04982 19.1623 9.14959 18.9895L17.3592 4.77003ZM12.2824 16.5688H18.8571C19.1602 16.5688 19.4509 16.4484 19.6653 16.234C19.8796 16.0197 20 15.729 20 15.4259C20 15.1228 19.8796 14.8321 19.6653 14.6178C19.4509 14.4035 19.1602 14.283 18.8571 14.283H13.6021L12.2824 16.5688ZM16.2414 9.71162H18.8571C19.1602 9.71162 19.4509 9.59121 19.6653 9.37689C19.8796 9.16256 20 8.87187 20 8.56876C20 8.26566 19.8796 7.97497 19.6653 7.76064C19.4509 7.54631 19.1602 7.42591 18.8571 7.42591H17.5611L16.2414 9.71162Z" fill="#0C0C0C"/>
</svg>
