<svg width="24" height="24" viewBox="0 0 24 24" fill="none" xmlns="http://www.w3.org/2000/svg">
<path fill-rule="evenodd" clip-rule="evenodd" d="M19.65 12C19.65 16.225 16.225 19.65 12 19.65C10.2118 19.65 8.56689 19.0365 7.26432 18.0084L18.0084 7.26432C19.0365 8.56689 19.65 10.2118 19.65 12ZM5.99154 16.7356L16.7356 5.99154C15.433 4.96352 13.7882 4.35 12 4.35C7.77502 4.35 4.35 7.77502 4.35 12C4.35 13.7882 4.96352 15.433 5.99154 16.7356ZM21 12C21 16.9706 16.9706 21 12 21C7.02944 21 3 16.9706 3 12C3 7.02944 7.02944 3 12 3C16.9706 3 21 7.02944 21 12Z" fill="#0C0C0C"/>
</svg>
