<svg width="24" height="24" viewBox="0 0 24 24" fill="none" xmlns="http://www.w3.org/2000/svg">
<path fill-rule="evenodd" clip-rule="evenodd" d="M6.4 4.74999C6.00611 4.74999 5.75 5.04522 5.75 5.33332V18.6667C5.75 18.9548 6.00611 19.25 6.4 19.25H17.6C17.9939 19.25 18.25 18.9548 18.25 18.6667V15C18.25 14.5858 18.5858 14.25 19 14.25C19.4142 14.25 19.75 14.5858 19.75 15V18.6667C19.75 19.8513 18.7525 20.75 17.6 20.75H6.4C5.24749 20.75 4.25 19.8513 4.25 18.6667V5.33332C4.25 4.14866 5.24749 3.24999 6.4 3.24999H10C10.4142 3.24999 10.75 3.58577 10.75 3.99999C10.75 4.4142 10.4142 4.74999 10 4.74999H6.4Z" fill="#0C0C0C"/>
<path fill-rule="evenodd" clip-rule="evenodd" d="M20.5488 8.07371C21.3823 7.18814 21.3612 5.80056 20.5013 4.94065L18.6236 3.06294C17.726 2.16538 16.2641 2.18753 15.3942 3.11186L13.3395 5.29497C13.338 5.29657 13.3365 5.29817 13.335 5.29979L8.45385 10.486C8.32291 10.6251 8.25 10.8089 8.25 11V15C8.25 15.4142 8.58579 15.75 9 15.75H13C13.2068 15.75 13.4044 15.6646 13.5461 15.514L18.4271 10.328C18.4291 10.3259 18.4311 10.3238 18.4331 10.3216L20.5488 8.07371ZM16.8388 9.82692L12.6759 14.25H9.75V11.2974L13.9 6.88807L16.8388 9.82692ZM14.9285 5.79526L17.8673 8.73412L19.4565 7.04566C19.7343 6.75047 19.7273 6.28795 19.4407 6.00131L17.563 4.1236C17.2638 3.82441 16.7765 3.8318 16.4865 4.13991L14.9285 5.79526Z" fill="#0C0C0C"/>
</svg>
