<svg width="24" height="24" viewBox="0 0 24 24" fill="none" xmlns="http://www.w3.org/2000/svg">
<path fill-rule="evenodd" clip-rule="evenodd" d="M4.25 6C4.25 4.48122 5.48122 3.25 7 3.25H17C18.5188 3.25 19.75 4.48122 19.75 6V8.5C19.75 8.91421 19.4142 9.25 19 9.25C18.5858 9.25 18.25 8.91421 18.25 8.5V6C18.25 5.30964 17.6904 4.75 17 4.75H7C6.30964 4.75 5.75 5.30964 5.75 6V18C5.75 18.6904 6.30964 19.25 7 19.25H9C9.41421 19.25 9.75 19.5858 9.75 20C9.75 20.4142 9.41421 20.75 9 20.75H7C5.48122 20.75 4.25 19.5188 4.25 18V6ZM19.8329 18.7722L22.5303 21.4696C22.8232 21.7625 22.8232 22.2374 22.5303 22.5303C22.2374 22.8232 21.7626 22.8232 21.4697 22.5303L18.7723 19.8329C17.8547 20.5285 16.7108 20.9412 15.4706 20.9412C12.4493 20.9412 10 18.4919 10 15.4706C10 12.4493 12.4493 10 15.4706 10C18.4919 10 20.9412 12.4493 20.9412 15.4706C20.9412 16.7108 20.5285 17.8546 19.8329 18.7722ZM19.4412 15.4706C19.4412 17.6635 17.6635 19.4412 15.4706 19.4412C13.2777 19.4412 11.5 17.6635 11.5 15.4706C11.5 13.2777 13.2777 11.5 15.4706 11.5C17.6635 11.5 19.4412 13.2777 19.4412 15.4706Z" fill="#0C0C0C"/>
</svg>
