<svg width="24" height="24" viewBox="0 0 24 24" fill="none" xmlns="http://www.w3.org/2000/svg">
<path d="M18.3107 12.0654C18.3104 12.4796 18.6459 12.8156 19.0601 12.8159C19.4743 12.8162 19.8104 12.4807 19.8107 12.0665L18.3107 12.0654ZM19.0659 5.06052L19.8159 5.06107L19.8164 4.30996L19.0653 4.31052L19.0659 5.06052ZM12.0601 4.31566C11.6459 4.31596 11.3104 4.65199 11.3107 5.06621C11.311 5.48042 11.647 5.81596 12.0612 5.81566L12.0601 4.31566ZM9.97366 12.9657C9.67858 13.2564 9.67502 13.7312 9.96572 14.0263C10.2564 14.3214 10.7313 14.325 11.0263 14.0343L9.97366 12.9657ZM19.5316 5.65554C19.8267 5.36485 19.8302 4.88999 19.5395 4.59491C19.2488 4.29983 18.774 4.29627 18.4789 4.58696L19.5316 5.65554ZM7 5.75C7.41421 5.75 7.75 5.41421 7.75 5C7.75 4.58579 7.41421 4.25 7 4.25V5.75ZM19.75 17C19.75 16.5858 19.4142 16.25 19 16.25C18.5858 16.25 18.25 16.5858 18.25 17H19.75ZM19.8107 12.0665L19.8159 5.06107L18.3159 5.05996L18.3107 12.0654L19.8107 12.0665ZM19.0653 4.31052L12.0601 4.31566L12.0612 5.81566L19.0664 5.81052L19.0653 4.31052ZM11.0263 14.0343L19.5316 5.65554L18.4789 4.58696L9.97366 12.9657L11.0263 14.0343ZM7 4.25H6V5.75H7V4.25ZM3.25 7V18H4.75V7H3.25ZM6 20.75H17V19.25H6V20.75ZM19.75 18V17H18.25V18H19.75ZM17 20.75C18.5188 20.75 19.75 19.5188 19.75 18H18.25C18.25 18.6904 17.6904 19.25 17 19.25V20.75ZM3.25 18C3.25 19.5188 4.48122 20.75 6 20.75V19.25C5.30964 19.25 4.75 18.6904 4.75 18H3.25ZM6 4.25C4.48122 4.25 3.25 5.48122 3.25 7H4.75C4.75 6.30964 5.30964 5.75 6 5.75V4.25Z" fill="#0C0C0C"/>
</svg>
