<svg width="24" height="24" viewBox="0 0 24 24" fill="none" xmlns="http://www.w3.org/2000/svg">
<path fill-rule="evenodd" clip-rule="evenodd" d="M6.28571 2C3.91878 2 2 3.91878 2 6.28571V17.7143C2 20.0812 3.91878 22 6.28571 22H17.7143C20.0812 22 22 20.0812 22 17.7143V6.28571C22 3.91878 20.0812 2 17.7143 2H6.28571ZM17.7143 8.73485V6.28571C17.7143 5.49676 15.1558 4.85714 12 4.85714C8.84419 4.85714 6.28571 5.49676 6.28571 6.28571V8.73485C6.28571 9.52342 8.84419 10.1634 12 10.1634C15.1558 10.1634 17.7143 9.52342 17.7143 8.73485ZM12 11.1021C9.41143 11.1021 7.22476 10.672 6.52229 10.0815C6.36838 10.211 6.28571 10.3478 6.28571 10.4899V12.9387C6.28571 13.7276 8.84419 14.3672 12 14.3672C15.1558 14.3672 17.7143 13.7276 17.7143 12.9387V10.4899C17.7143 10.3482 17.6316 10.211 17.4777 10.0815C16.7752 10.6716 14.5886 11.1021 12 11.1021ZM6.52229 14.3813C7.22476 14.9714 9.41143 15.4019 12 15.4019C14.5886 15.4019 16.7752 14.971 17.4777 14.3809C17.6316 14.5105 17.7143 14.6472 17.7143 14.7889V17.2381C17.7143 18.027 15.1558 18.6666 12 18.6666C8.84419 18.6666 6.28571 18.027 6.28571 17.2381V14.7893C6.28571 14.648 6.36838 14.5108 6.52229 14.3813Z" fill="#0C0C0C"/>
</svg>
