<svg width="24" height="24" viewBox="0 0 24 24" fill="none" xmlns="http://www.w3.org/2000/svg">
<path fill-rule="evenodd" clip-rule="evenodd" d="M12.897 2.15281C13.3956 1.28941 14.4996 0.993504 15.3632 1.49204L20.8471 4.65818C20.8471 4.65819 20.8471 4.65818 20.8471 4.65818C21.7105 5.15668 22.0066 6.26082 21.5079 7.12439C21.5079 7.12441 21.5079 7.12437 21.5079 7.12439L16.0783 16.5287L18.1708 17.7368C18.5295 17.9439 18.6524 18.4026 18.4453 18.7613C18.2382 19.12 17.7795 19.2429 17.4208 19.0358L11.6724 15.717L7.8259 22.3794C7.6188 22.7381 7.1601 22.861 6.80138 22.6539C6.44266 22.4468 6.31976 21.9881 6.52686 21.6294L10.3734 14.967L4.625 11.6481C4.26628 11.441 4.14338 10.9823 4.35049 10.6236C4.5576 10.2649 5.01629 10.142 5.37501 10.3491L7.46745 11.5572L12.897 2.15281ZM8.76648 12.3072L11.7729 14.043L14.7793 15.7787L20.2089 6.37439C20.2932 6.2284 20.2432 6.0416 20.0971 5.95724L14.6132 2.7911C14.6132 2.7911 14.6132 2.7911 14.6132 2.7911C14.4672 2.70679 14.2804 2.75678 14.196 2.90293L8.76648 12.3072Z" fill="#0C0C0C"/>
</svg>
