<svg width="24" height="24" viewBox="0 0 24 24" fill="none" xmlns="http://www.w3.org/2000/svg">
<path fill-rule="evenodd" clip-rule="evenodd" d="M18.5 3.25C17.2574 3.25 16.25 4.25736 16.25 5.5C16.25 6.74264 17.2574 7.75 18.5 7.75C19.7426 7.75 20.75 6.74264 20.75 5.5C20.75 4.25736 19.7426 3.25 18.5 3.25ZM14.75 5.5C14.75 3.42893 16.4289 1.75 18.5 1.75C20.5711 1.75 22.25 3.42893 22.25 5.5C22.25 7.31422 20.9617 8.82753 19.25 9.17499V15.75C19.25 17.9591 17.4591 19.75 15.25 19.75C13.0409 19.75 11.25 17.9591 11.25 15.75V8.75C11.25 7.36929 10.1307 6.25 8.75 6.25C7.36929 6.25 6.25 7.36929 6.25 8.75V14.825C7.96168 15.1725 9.25 16.6858 9.25 18.5C9.25 20.5711 7.57107 22.25 5.5 22.25C3.42893 22.25 1.75 20.5711 1.75 18.5C1.75 16.6858 3.03832 15.1725 4.75 14.825V8.75C4.75 6.54086 6.54086 4.75 8.75 4.75C10.9591 4.75 12.75 6.54086 12.75 8.75V15.75C12.75 17.1307 13.8693 18.25 15.25 18.25C16.6307 18.25 17.75 17.1307 17.75 15.75V9.17499C16.0383 8.82753 14.75 7.31422 14.75 5.5ZM5.5 16.25C4.25736 16.25 3.25 17.2574 3.25 18.5C3.25 19.7426 4.25736 20.75 5.5 20.75C6.74264 20.75 7.75 19.7426 7.75 18.5C7.75 17.2574 6.74264 16.25 5.5 16.25Z" fill="#0C0C0C"/>
</svg>
