<svg width="24" height="24" viewBox="0 0 24 24" fill="none" xmlns="http://www.w3.org/2000/svg">
<path fill-rule="evenodd" clip-rule="evenodd" d="M20.5 12C20.5 16.6944 16.6944 20.5 12 20.5C7.30558 20.5 3.5 16.6944 3.5 12C3.5 7.30558 7.30558 3.5 12 3.5C16.6944 3.5 20.5 7.30558 20.5 12ZM22 12C22 17.5228 17.5228 22 12 22C6.47715 22 2 17.5228 2 12C2 6.47715 6.47715 2 12 2C17.5228 2 22 6.47715 22 12ZM10.4472 8.22361L16.2111 11.1056C16.9482 11.4741 16.9482 12.5259 16.2111 12.8944L10.4472 15.7764C9.78231 16.1088 9 15.6253 9 14.882V9.11803C9 8.37465 9.78231 7.89116 10.4472 8.22361Z" fill="#0C0C0C"/>
</svg>
