<svg width="24" height="24" viewBox="0 0 24 24" fill="none" xmlns="http://www.w3.org/2000/svg">
<path d="M12.75 20.4853C12.75 20.8995 12.4142 21.2353 12 21.2353C11.5858 21.2353 11.25 20.8995 11.25 20.4853V12.7501L3.51471 12.7501C3.1005 12.7501 2.76471 12.4143 2.76471 12.0001C2.76471 11.5858 3.1005 11.2501 3.51471 11.2501L11.25 11.2501L11.25 3.51476C11.25 3.10055 11.5858 2.76476 12 2.76476C12.4142 2.76476 12.75 3.10055 12.75 3.51476L12.75 11.2501L20.4853 11.2501C20.8995 11.2501 21.2353 11.5858 21.2353 12.0001C21.2353 12.4143 20.8995 12.7501 20.4853 12.7501L12.75 12.7501V20.4853Z" fill="#0C0C0C"/>
</svg>
