<svg width="24" height="24" viewBox="0 0 24 24" fill="none" xmlns="http://www.w3.org/2000/svg">
<path d="M5.52941 15.2941C7.47865 15.2941 9.05882 16.7953 9.05882 18.6471C9.05882 20.4988 7.47865 22 5.52941 22C3.58017 22 2 20.4988 2 18.6471C2 16.7953 3.58017 15.2941 5.52941 15.2941Z" fill="#0C0C0C"/>
<path d="M12 3C13.9492 3 15.5294 4.50116 15.5294 6.35294C15.5294 8.20472 13.9492 9.70588 12 9.70588C10.0508 9.70588 8.47059 8.20472 8.47059 6.35294C8.47059 4.50116 10.0508 3 12 3Z" fill="#0C0C0C"/>
<path d="M18.4706 15.2941C20.4198 15.2941 22 16.7953 22 18.6471C22 20.4988 20.4198 22 18.4706 22C16.5213 22 14.9412 20.4988 14.9412 18.6471C14.9412 16.7953 16.5213 15.2941 18.4706 15.2941Z" fill="#0C0C0C"/>
</svg>
