<svg width="24" height="24" viewBox="0 0 24 24" fill="none" xmlns="http://www.w3.org/2000/svg">
<path fill-rule="evenodd" clip-rule="evenodd" d="M6 3C6.41421 3 6.75 3.33579 6.75 3.75V6.25H9.25V3.75C9.25 3.33579 9.58579 3 10 3C10.4142 3 10.75 3.33579 10.75 3.75V6.25H13.25V3.75C13.25 3.33579 13.5858 3 14 3C14.4142 3 14.75 3.33579 14.75 3.75V6.25H17.25V3.75C17.25 3.33579 17.5858 3 18 3C18.4142 3 18.75 3.33579 18.75 3.75V6.25H19C20.5188 6.25 21.75 7.48122 21.75 9V15C21.75 16.5188 20.5188 17.75 19 17.75H18.75V20.25C18.75 20.6642 18.4142 21 18 21C17.5858 21 17.25 20.6642 17.25 20.25V17.75H14.75V20.25C14.75 20.6642 14.4142 21 14 21C13.5858 21 13.25 20.6642 13.25 20.25V17.75H10.75V20.25C10.75 20.6642 10.4142 21 10 21C9.58579 21 9.25 20.6642 9.25 20.25V17.75H6.75V20.25C6.75 20.6642 6.41421 21 6 21C5.58579 21 5.25 20.6642 5.25 20.25V17.75H5C3.48122 17.75 2.25 16.5188 2.25 15V9C2.25 7.48122 3.48122 6.25 5 6.25H5.25V3.75C5.25 3.33579 5.58579 3 6 3ZM5 7.75C4.30964 7.75 3.75 8.30964 3.75 9V15C3.75 15.6904 4.30964 16.25 5 16.25H19C19.6904 16.25 20.25 15.6904 20.25 15V9C20.25 8.30964 19.6904 7.75 19 7.75H5Z" fill="#0C0C0C"/>
</svg>
