<svg width="24" height="24" viewBox="0 0 24 24" fill="none" xmlns="http://www.w3.org/2000/svg">
<path fill-rule="evenodd" clip-rule="evenodd" d="M14 10.25C13.5858 10.25 13.25 9.91424 13.25 9.50003C13.25 9.08582 13.5858 8.75003 14 8.75003H17.2635C16.5686 7.74705 15.4609 6.55065 14.4544 6.04977C11.076 4.36856 6.97443 5.7444 5.29322 9.12279C3.61201 12.5012 4.98784 16.6028 8.36623 18.284C11.7055 19.9457 15.3613 18.5421 17.0626 15.1234C17.2472 14.7525 17.6974 14.6015 18.0682 14.786C18.4391 14.9706 18.5901 15.4208 18.4056 15.7916C16.3754 19.8713 11.8571 21.6967 7.69795 19.6269C3.5779 17.5766 1.90002 12.5746 3.95031 8.45451C6.0006 4.33445 11.0027 2.65657 15.1227 4.70686C16.3203 5.30281 17.4762 6.51746 18.25 7.55365L18.25 4.50003C18.25 4.08582 18.5858 3.75003 19 3.75003C19.4142 3.75003 19.75 4.08582 19.75 4.50003V9.50003C19.75 9.69894 19.671 9.88971 19.5303 10.0304C19.3897 10.171 19.1989 10.25 19 10.25H14Z" fill="#0C0C0C"/>
</svg>
