<svg width="24" height="24" viewBox="0 0 24 24" fill="none" xmlns="http://www.w3.org/2000/svg">
<path fill-rule="evenodd" clip-rule="evenodd" d="M13.9999 10.25C13.5857 10.25 13.2499 9.91421 13.2499 9.5C13.2499 9.08579 13.5857 8.75 13.9999 8.75H17.2634C16.5685 7.74702 15.4608 6.55062 14.4543 6.04974C11.0759 4.36853 6.9743 5.74437 5.29309 9.12276C3.61189 12.5011 4.98772 16.6028 8.36611 18.284C11.7054 19.9457 15.3612 18.5421 17.0625 15.1233C17.2471 14.7525 17.6973 14.6015 18.0681 14.786C18.439 14.9706 18.59 15.4208 18.4054 15.7916C16.3752 19.8713 11.857 21.6966 7.69783 19.6269C3.57777 17.5766 1.8999 12.5745 3.95019 8.45448C6.00048 4.33442 11.0025 2.65654 15.1226 4.70683C16.3201 5.30278 17.476 6.51743 18.2499 7.55362L18.2499 4.5C18.2499 4.08579 18.5857 3.75 18.9999 3.75C19.4141 3.75 19.7499 4.08579 19.7499 4.5V9.5C19.7499 9.69891 19.6709 9.88968 19.5302 10.0303C19.3896 10.171 19.1988 10.25 18.9999 10.25H13.9999Z" fill="#0C0C0C"/>
</svg>
