<svg width="24" height="24" viewBox="0 0 24 24" fill="none" xmlns="http://www.w3.org/2000/svg">
<path fill-rule="evenodd" clip-rule="evenodd" d="M14.8329 5.46747C11.4545 3.78626 7.35288 5.1621 5.67167 8.54049C5.48713 8.91132 5.03691 9.06234 4.66608 8.8778C4.29525 8.69326 4.14422 8.24304 4.32877 7.87221C6.37906 3.75215 11.3811 2.07427 15.5012 4.12456C16.2437 4.49405 16.9737 5.15919 17.5826 5.82132C18.0193 6.29619 18.4203 6.79903 18.75 7.25248V5.00001C18.75 4.58579 19.0858 4.25001 19.5 4.25001C19.9142 4.25001 20.25 4.58579 20.25 5.00001V9.00001C20.25 9.19892 20.171 9.38968 20.0303 9.53034C19.8897 9.67099 19.6989 9.75001 19.5 9.75001L15.5 9.75001C15.0858 9.75001 14.75 9.41422 14.75 9.00001C14.75 8.58579 15.0858 8.25001 15.5 8.25001H17.6199C17.3066 7.81037 16.9102 7.30613 16.4785 6.83667C15.9078 6.21608 15.3269 5.71331 14.8329 5.46747ZM9.16711 18.5325C12.5455 20.2137 16.6471 18.8379 18.3283 15.4595C18.5129 15.0887 18.9631 14.9377 19.3339 15.1222C19.7048 15.3067 19.8558 15.757 19.6712 16.1278C17.6209 20.2479 12.6189 21.9257 8.49883 19.8754C7.75635 19.506 7.02629 18.8408 6.4174 18.1787C5.98069 17.7038 5.57972 17.201 5.25 16.7475L5.25 19C5.25 19.4142 4.91421 19.75 4.5 19.75C4.08579 19.75 3.75 19.4142 3.75 19V15C3.75 14.8011 3.82902 14.6103 3.96967 14.4697C4.11032 14.329 4.30109 14.25 4.5 14.25L8.5 14.25C8.91421 14.25 9.25 14.5858 9.25 15C9.25 15.4142 8.91421 15.75 8.5 15.75L6.38012 15.75C6.69337 16.1896 7.08978 16.6939 7.5215 17.1633C8.0922 17.7839 8.6731 18.2867 9.16711 18.5325Z" fill="#0C0C0C"/>
</svg>
