<svg width="24" height="24" viewBox="0 0 24 24" fill="none" xmlns="http://www.w3.org/2000/svg">
<path fill-rule="evenodd" clip-rule="evenodd" d="M19.1791 4.1368C19.4952 4.18948 19.7429 4.43719 19.7956 4.75329L19.9105 5.44262C20.322 7.91144 19.5158 10.427 17.746 12.1968L16.4299 13.513L17.0025 14.6798C17.6562 16.0119 17.3904 17.6122 16.3412 18.6614L13.7604 21.2422C13.5871 21.4156 13.3399 21.4932 13.0985 21.4502C12.8572 21.4072 12.6521 21.249 12.5492 21.0264L11.0064 17.6868L6.24844 12.9289L2.99172 11.4649C2.76685 11.3638 2.60603 11.1587 2.56153 10.9162C2.51704 10.6737 2.59456 10.4248 2.76889 10.2505L5.36377 7.6556C6.40421 6.61517 7.98779 6.34421 9.31496 6.97955L10.4156 7.50643L11.7356 6.18639C13.5054 4.41659 16.021 3.61044 18.4898 4.02191L19.1791 4.1368ZM11.6312 16.1903L14.99 12.8315L16.6854 11.1361C18.1126 9.70888 18.7628 7.6802 18.4309 5.68922L18.4041 5.52832L18.2432 5.5015C16.2522 5.16967 14.2235 5.81979 12.7963 7.24705L11.1009 8.94246L7.74212 12.3012L11.6312 16.1903ZM12.5315 17.4114L13.46 19.4213L15.2805 17.6008C15.8761 17.0052 16.027 16.0968 15.6559 15.3407L15.309 14.6338L12.5315 17.4114ZM9.29095 8.63107L6.51702 11.405L4.59823 10.5425L6.42443 8.71626C7.01503 8.12567 7.91393 7.97187 8.66727 8.33251L9.29095 8.63107ZM16.2274 9.82634C15.6416 10.4121 14.6919 10.4121 14.1061 9.82634C13.5203 9.24055 13.5203 8.29081 14.1061 7.70502C14.6919 7.11923 15.6416 7.11923 16.2274 7.70502C16.8132 8.29081 16.8132 9.24055 16.2274 9.82634ZM4.28818 19.6816C4.5098 19.9032 6.93027 20.0064 7.74956 19.1871C8.56884 18.3678 8.56884 17.0395 7.74956 16.2202C6.93027 15.4009 5.60195 15.4009 4.78266 16.2202C3.96337 17.0395 4.06656 19.4599 4.28818 19.6816Z" fill="#0C0C0C"/>
</svg>
