<svg width="24" height="24" viewBox="0 0 24 24" fill="none" xmlns="http://www.w3.org/2000/svg">
<path fill-rule="evenodd" clip-rule="evenodd" d="M19.0711 4.92893C22.9763 8.83418 22.9763 15.1658 19.0711 19.0711C15.1658 22.9763 8.83417 22.9763 4.92893 19.0711C1.02369 15.1658 1.02369 8.83417 4.92893 4.92893C8.83418 1.02369 15.1658 1.02369 19.0711 4.92893ZM16.5069 15.1914H15.4223L13.0982 11.7698C14.2893 11.4244 15.0576 10.611 15.0576 9.32952C15.0576 7.6736 13.6728 6.99574 12.1815 6.99574C11.7974 6.99574 11.4092 7.04093 11.021 7.08612C10.6329 7.13131 10.2447 7.1765 9.8606 7.1765C9.35059 7.1765 8.94387 7.10226 8.47582 6.99574V7.79303L9.71212 7.94474V15.1914H8.47582V16.0339H12.075V15.1914H10.645V11.9215H12.1072L14.851 16.0339H16.5069V15.1914ZM11.4294 11.1242L10.645 11.1081V7.94474C11.1873 7.88341 11.7005 7.83822 12.1976 7.83822C13.2499 7.83822 14.0795 8.29013 14.0795 9.43604C14.0795 10.4173 13.3435 11.1533 11.4294 11.1242Z" fill="#0C0C0C"/>
</svg>
