<svg width="24" height="24" viewBox="0 0 24 24" fill="none" xmlns="http://www.w3.org/2000/svg">
<path d="M14.9325 6.76548C14.0366 6.26357 13.0269 6 12 6V12L7.14149 15.5206C7.74406 16.3522 8.54997 17.0152 9.48208 17.4461C10.4142 17.8771 11.4413 18.0616 12.4651 17.9819C13.489 17.9023 14.4752 17.5613 15.3295 16.9914C16.1838 16.4216 16.8776 15.642 17.3443 14.7273C17.8111 13.8126 18.0353 12.7934 17.9955 11.7673C17.9556 10.7411 17.6531 9.74236 17.1168 8.86661C16.5805 7.99085 15.8284 7.2674 14.9325 6.76548Z" fill="#0C0C0C"/>
<path fill-rule="evenodd" clip-rule="evenodd" d="M22 12C22 17.5228 17.5228 22 12 22C6.47715 22 2 17.5228 2 12C2 6.47715 6.47715 2 12 2C17.5228 2 22 6.47715 22 12ZM20.5 12C20.5 16.6944 16.6944 20.5 12 20.5C7.30558 20.5 3.5 16.6944 3.5 12C3.5 7.30558 7.30558 3.5 12 3.5C16.6944 3.5 20.5 7.30558 20.5 12Z" fill="#0C0C0C"/>
</svg>
