<svg width="24" height="24" viewBox="0 0 24 24" fill="none" xmlns="http://www.w3.org/2000/svg">
<path fill-rule="evenodd" clip-rule="evenodd" d="M17.5 11.25C17.5 14.7018 14.7018 17.5 11.25 17.5C7.79822 17.5 5 14.7018 5 11.25C5 7.79822 7.79822 5 11.25 5C14.7018 5 17.5 7.79822 17.5 11.25ZM16.1742 17.2348C14.8353 18.3377 13.12 19 11.25 19C6.96979 19 3.5 15.5302 3.5 11.25C3.5 6.96979 6.96979 3.5 11.25 3.5C15.5302 3.5 19 6.96979 19 11.25C19 13.12 18.3377 14.8353 17.2348 16.1742L21.0303 19.9697C21.3232 20.2626 21.3232 20.7374 21.0303 21.0303C20.7374 21.3232 20.2626 21.3232 19.9697 21.0303L16.1742 17.2348Z" fill="#0C0C0C"/>
</svg>
