<svg width="24" height="24" viewBox="0 0 24 24" fill="none" xmlns="http://www.w3.org/2000/svg">
<path d="M15 12C15 13.6569 13.6569 15 12 15C10.3431 15 9 13.6569 9 12C9 10.3431 10.3431 9 12 9C13.6569 9 15 10.3431 15 12Z" fill="#0C0C0C"/>
<path fill-rule="evenodd" clip-rule="evenodd" d="M9.96866 3.5V4.15537C9.96866 6.0796 7.88584 7.28245 6.21918 6.32073L5.64959 5.99206L3.61887 9.50746L4.18599 9.8347C5.85334 10.7968 5.85334 13.2033 4.18599 14.1654L3.61887 14.4927L5.64959 18.0081L6.21918 17.6794C7.88584 16.7177 9.96866 17.9205 9.96866 19.8448V20.5H14.0313V19.8448C14.0313 17.9205 16.1142 16.7177 17.7808 17.6794L18.3504 18.0081L20.3811 14.4927L19.814 14.1654C18.1467 13.2033 18.1467 10.7968 19.814 9.8347L20.3811 9.50746L18.3504 5.99206L17.7808 6.32072C16.1142 7.28245 14.0313 6.0796 14.0313 4.15536V3.5H9.96866ZM18.6296 5.83095C18.6298 5.83082 18.6294 5.83109 18.6296 5.83095V5.83095ZM20.5432 9.78808C20.5433 9.78824 20.5431 9.78791 20.5432 9.78808V9.78808ZM9.64578 2C8.99568 2 8.46866 2.52672 8.46866 3.17647V4.15537C8.46866 4.92506 7.63554 5.4062 6.96887 5.02151L6.12009 4.53174C5.55709 4.20686 4.83718 4.39966 4.51213 4.96236L2.1579 9.03777C1.83285 9.60047 2.02575 10.32 2.58875 10.6449L3.43629 11.1339C4.10323 11.5188 4.10323 12.4814 3.43629 12.8662L2.58876 13.3553C2.02575 13.6801 1.83285 14.3997 2.1579 14.9624L4.51213 19.0378C4.83718 19.6005 5.55709 19.7933 6.12009 19.4684L6.96887 18.9786C7.63554 18.5939 8.46866 19.0751 8.46866 19.8448V20.8235C8.46866 21.4733 8.99568 22 9.64578 22H14.3542C15.0043 22 15.5313 21.4733 15.5313 20.8235V19.8448C15.5313 19.0751 16.3645 18.5939 17.0311 18.9786L17.8799 19.4684C18.4429 19.7933 19.1628 19.6005 19.4879 19.0378L21.8421 14.9624C22.1671 14.3997 21.9742 13.6801 21.4112 13.3553L20.5637 12.8662C19.8968 12.4814 19.8968 11.5188 20.5637 11.1339L21.4112 10.6449C21.9743 10.32 22.1672 9.60047 21.8421 9.03777L19.4879 4.96236C19.1628 4.39966 18.4429 4.20686 17.8799 4.53174L17.0311 5.02151C16.3645 5.4062 15.5313 4.92506 15.5313 4.15536V3.17647C15.5313 2.52672 15.0043 2 14.3542 2H9.64578Z" fill="#0C0C0C"/>
</svg>
