<svg width="24" height="24" viewBox="0 0 24 24" fill="none" xmlns="http://www.w3.org/2000/svg">
<path fill-rule="evenodd" clip-rule="evenodd" d="M18 3.25C16.7574 3.25 15.75 4.25736 15.75 5.5C15.75 6.74264 16.7574 7.75 18 7.75C19.2426 7.75 20.25 6.74264 20.25 5.5C20.25 4.25736 19.2426 3.25 18 3.25ZM14.25 5.5C14.25 3.42893 15.9289 1.75 18 1.75C20.0711 1.75 21.75 3.42893 21.75 5.5C21.75 7.57107 20.0711 9.25 18 9.25C16.8167 9.25 15.7614 8.70191 15.0741 7.84575L9.61764 11.0089C9.70393 11.3246 9.75 11.6569 9.75 12C9.75 12.3393 9.70493 12.6682 9.62044 12.9808L15.2319 15.9702C15.9175 15.2203 16.9038 14.75 18 14.75C20.0711 14.75 21.75 16.4289 21.75 18.5C21.75 20.5711 20.0711 22.25 18 22.25C15.9289 22.25 14.25 20.5711 14.25 18.5C14.25 18.065 14.3241 17.6472 14.4603 17.2587L8.94569 14.3209C8.25897 15.1913 7.19473 15.75 6 15.75C3.92893 15.75 2.25 14.0711 2.25 12C2.25 9.92893 3.92893 8.25 6 8.25C7.19018 8.25 8.25086 8.80446 8.93783 9.66917L14.3876 6.50991C14.2979 6.1886 14.25 5.8499 14.25 5.5ZM6 9.75C4.75736 9.75 3.75 10.7574 3.75 12C3.75 13.2426 4.75736 14.25 6 14.25C7.24264 14.25 8.25 13.2426 8.25 12C8.25 10.7574 7.24264 9.75 6 9.75ZM15.75 18.5C15.75 17.2574 16.7574 16.25 18 16.25C19.2426 16.25 20.25 17.2574 20.25 18.5C20.25 19.7426 19.2426 20.75 18 20.75C16.7574 20.75 15.75 19.7426 15.75 18.5Z" fill="#0C0C0C"/>
</svg>
