<svg width="24" height="24" viewBox="0 0 24 24" fill="none" xmlns="http://www.w3.org/2000/svg">
<path fill-rule="evenodd" clip-rule="evenodd" d="M12 8C9.79084 8 7.99998 9.79086 7.99998 12C7.99998 14.2091 9.79084 16 12 16C14.2091 16 16 14.2091 16 12C16 9.79086 14.2091 8 12 8ZM9.49998 12C9.49998 10.6193 10.6193 9.5 12 9.5C13.3807 9.5 14.5 10.6193 14.5 12C14.5 13.3807 13.3807 14.5 12 14.5C10.6193 14.5 9.49998 13.3807 9.49998 12Z" fill="#0C0C0C"/>
<path fill-rule="evenodd" clip-rule="evenodd" d="M12 4.75C5.22309 4.75 1.90393 9.73351 1.0613 11.2243C0.787754 11.7082 0.787753 12.2918 1.0613 12.7757C1.90393 14.2665 5.22309 19.25 12 19.25C18.7769 19.25 22.096 14.2665 22.9387 12.7757C23.2122 12.2918 23.2122 11.7082 22.9387 11.2243C22.096 9.7335 18.7769 4.75 12 4.75ZM2.36713 11.9624C3.13329 10.6069 6.06228 6.25 12 6.25C17.9377 6.25 20.8667 10.6069 21.6328 11.9624C21.6416 11.9779 21.6438 11.9904 21.6438 12C21.6438 12.0096 21.6416 12.0221 21.6328 12.0376C20.8667 13.3931 17.9377 17.75 12 17.75C6.06228 17.75 3.13329 13.3931 2.36713 12.0376C2.35838 12.0221 2.35614 12.0096 2.35614 12C2.35614 11.9904 2.35838 11.9779 2.36713 11.9624Z" fill="#0C0C0C"/>
</svg>
