<svg width="24" height="24" viewBox="0 0 24 24" fill="none" xmlns="http://www.w3.org/2000/svg">
<path fill-rule="evenodd" clip-rule="evenodd" d="M3.25397 9C3.25397 9.41421 3.58975 9.75 4.00397 9.75C4.41818 9.75 4.75397 9.41421 4.75397 9V6C4.75397 5.30964 5.31361 4.75 6.00397 4.75H9C9.41421 4.75 9.75 4.41421 9.75 4C9.75 3.58579 9.41421 3.25 9 3.25H6.00397C4.48518 3.25 3.25397 4.48122 3.25397 6V9ZM19.9999 9.75C20.4142 9.75 20.7499 9.41421 20.7499 9V6C20.7499 4.48122 19.5187 3.25 17.9999 3.25H15.0039C14.5897 3.25 14.2539 3.58579 14.2539 4C14.2539 4.41421 14.5897 4.75 15.0039 4.75H17.9999C18.6903 4.75 19.2499 5.30964 19.2499 6V9C19.2499 9.41421 19.5857 9.75 19.9999 9.75ZM19.9999 14.25C20.4142 14.25 20.7499 14.5858 20.7499 15V18C20.7499 19.5188 19.5187 20.75 17.9999 20.75H15.0039C14.5897 20.75 14.2539 20.4142 14.2539 20C14.2539 19.5858 14.5897 19.25 15.0039 19.25H17.9999C18.6903 19.25 19.2499 18.6904 19.2499 18V15C19.2499 14.5858 19.5857 14.25 19.9999 14.25ZM4.00397 14.25C3.58975 14.25 3.25397 14.5858 3.25397 15V18C3.25397 19.5188 4.48518 20.75 6.00397 20.75H9C9.41421 20.75 9.75 20.4142 9.75 20C9.75 19.5858 9.41421 19.25 9 19.25H6.00397C5.31361 19.25 4.75397 18.6904 4.75397 18V15C4.75397 14.5858 4.41818 14.25 4.00397 14.25ZM12.0001 15C13.6569 15 15.0001 13.6569 15.0001 12C15.0001 10.3431 13.6569 9 12.0001 9C10.3432 9 9.00006 10.3431 9.00006 12C9.00006 13.6569 10.3432 15 12.0001 15Z" fill="#0C0C0C"/>
</svg>
