<svg width="24" height="24" viewBox="0 0 24 24" fill="none" xmlns="http://www.w3.org/2000/svg">
<path fill-rule="evenodd" clip-rule="evenodd" d="M12.2803 8.28033C12.5732 7.98744 12.5732 7.51256 12.2803 7.21967L8.28033 3.21967C7.98744 2.92678 7.51256 2.92678 7.21967 3.21967L3.21967 7.21967C2.92678 7.51256 2.92678 7.98744 3.21967 8.28033C3.51256 8.57322 3.98744 8.57322 4.28033 8.28033L7 5.56066V17C7 17.4142 7.33579 17.75 7.75 17.75C8.16421 17.75 8.5 17.4142 8.5 17V5.56066L11.2197 8.28033C11.5126 8.57322 11.9874 8.57322 12.2803 8.28033ZM20.2803 15.4697C20.5732 15.7626 20.5732 16.2374 20.2803 16.5303L16.2803 20.5303C15.9874 20.8232 15.5126 20.8232 15.2197 20.5303L11.2197 16.5303C10.9268 16.2374 10.9268 15.7626 11.2197 15.4697C11.5126 15.1768 11.9874 15.1768 12.2803 15.4697L15 18.1893V6.75C15 6.33579 15.3358 6 15.75 6C16.1642 6 16.5 6.33579 16.5 6.75V18.1893L19.2197 15.4697C19.5126 15.1768 19.9874 15.1768 20.2803 15.4697Z" fill="#0C0C0C"/>
</svg>
