<svg width="24" height="24" viewBox="0 0 24 24" fill="none" xmlns="http://www.w3.org/2000/svg">
<path fill-rule="evenodd" clip-rule="evenodd" d="M16.7384 15.4707L16.6564 15.2965L14.8657 11.9016C14.8051 11.788 14.8126 11.7204 14.8927 11.6238L17.7258 8.29651C17.7588 8.25756 17.7888 8.2159 17.8015 8.14665L16.9743 8.36305L13.5388 9.27603C13.4322 9.3047 13.3838 9.27332 13.3305 9.18513L11.3796 5.93469C11.3458 5.87842 11.3093 5.82648 11.2376 5.77644L11.0801 6.64396L10.5356 9.70884L10.4793 10.0399C10.4701 10.1481 10.416 10.1844 10.3208 10.2144L6.27642 11.4926C6.21691 11.5115 6.15956 11.5353 6.09599 11.5932L9.42327 12.9144L9.42236 12.9151L10.0103 13.1713L9.35483 18.3921L12.9375 14.421L13.5415 14.5907L13.5421 14.5925L16.736 15.4734L16.7384 15.4707ZM7.60382 14.7481L7.08212 14.3721C7.05899 14.3679 7.03656 14.36 7.01573 14.3486L4.54164 13.246C4.17159 13.0837 3.83832 12.8611 3.57917 12.5441C2.99297 11.8272 3.10848 11.0111 3.88971 10.5152C4.14535 10.3521 4.4356 10.2298 4.72505 10.1354L8.69776 8.87351C8.80596 8.83888 8.86006 8.78911 8.88089 8.66873L9.42191 5.60385C9.43953 5.50617 9.45568 5.40793 9.47184 5.30961L9.47185 5.30957C9.54599 4.85848 9.6204 4.40578 9.8385 3.99756C9.94048 3.80821 10.063 3.61669 10.2083 3.45546C10.7344 2.87116 11.4689 2.84898 12.025 3.40515C12.2128 3.59288 12.3767 3.81443 12.5138 4.04166L14.3268 7.05406C14.3977 7.17308 14.4621 7.19743 14.593 7.16226L19.0337 5.98257C19.3388 5.90195 19.6477 5.87247 19.9607 5.92846C20.6424 6.05615 20.9408 6.57769 20.71 7.23395C20.6051 7.53151 20.4238 7.78768 20.2231 8.02708L17.1239 11.67C17.0392 11.769 17.0373 11.8405 17.096 11.9514L18.9414 15.4501C19.0886 15.7293 19.2011 16.019 19.2038 16.3396C19.2111 17.0689 18.6779 17.6656 17.9533 17.7717C17.5475 17.8312 17.1704 17.7446 16.7901 17.6272L14.0038 16.7797C13.9537 16.7647 13.9215 16.747 13.9005 16.7164L13.3186 16.5113L10.8169 19.212C10.8169 19.212 10.7157 19.3169 10.5576 19.4582C9.41621 20.6042 8.74994 20.9136 8.38555 20.9651C8.55785 20.9993 8.66456 21.0212 8.37345 20.9667C8.09978 21.0018 8.00174 20.8898 8.00174 20.8898C8.00174 20.8898 8.02281 20.8939 8.05672 20.9005C7.08407 20.4931 7.60354 14.7484 7.60354 14.7484L7.60383 14.7483C7.60382 14.7482 7.60382 14.7481 7.60382 14.7481Z" fill="#0C0C0C"/>
</svg>
