<svg width="24" height="24" viewBox="0 0 24 24" fill="none" xmlns="http://www.w3.org/2000/svg">
<path fill-rule="evenodd" clip-rule="evenodd" d="M2 17.2242L6.01298 7H7.47844L11.4914 17.2242H9.84704L9.02058 15.0345H4.46232L3.64438 17.2242H2ZM8.4753 13.569L6.74571 8.95111L5.0076 13.569H8.4753ZM14.373 17.1694C14.841 17.1694 15.2204 16.79 15.2204 16.3219C15.2204 15.8539 14.841 15.4745 14.373 15.4745C13.9049 15.4745 13.5255 15.8539 13.5255 16.3219C13.5255 16.79 13.9049 17.1694 14.373 17.1694ZM18.6102 16.3219C18.6102 16.79 18.2308 17.1694 17.7628 17.1694C17.2947 17.1694 16.9153 16.79 16.9153 16.3219C16.9153 15.8539 17.2947 15.4745 17.7628 15.4745C18.2308 15.4745 18.6102 15.8539 18.6102 16.3219ZM21.1526 17.1694C21.6206 17.1694 22 16.79 22 16.3219C22 15.8539 21.6206 15.4745 21.1526 15.4745C20.6845 15.4745 20.3051 15.8539 20.3051 16.3219C20.3051 16.79 20.6845 17.1694 21.1526 17.1694Z" fill="#0C0C0C"/>
</svg>
