<svg width="24" height="24" viewBox="0 0 24 24" fill="none" xmlns="http://www.w3.org/2000/svg">
<path d="M11.7805 3.40237C11.8753 3.22865 12.1247 3.22865 12.2195 3.40237L14.9417 8.39313C14.9785 8.46059 15.0443 8.50738 15.1201 8.52001L20.4841 9.41402C20.6914 9.44856 20.7661 9.70787 20.6091 9.84747L16.6017 13.4096C16.5383 13.466 16.5078 13.5506 16.5207 13.6345L17.4232 19.5005C17.4546 19.7051 17.2381 19.8571 17.0564 19.758L12.1197 17.0653C12.0451 17.0246 11.9549 17.0246 11.8803 17.0653L6.94365 19.758C6.76193 19.8571 6.54537 19.7051 6.57684 19.5005L7.47931 13.6345C7.49221 13.5506 7.46171 13.466 7.39831 13.4096L3.3909 9.84747C3.23385 9.70787 3.30863 9.44856 3.51589 9.41402L8.87992 8.52001C8.95572 8.50738 9.0215 8.46059 9.05829 8.39313L11.7805 3.40237Z" stroke="#0C0C0C" stroke-width="1.5"/>
</svg>
