<svg width="24" height="24" viewBox="0 0 24 24" fill="none" xmlns="http://www.w3.org/2000/svg">
<path fill-rule="evenodd" clip-rule="evenodd" d="M5 4H19V5.5H5V4Z" fill="#0C0C0C"/>
<path fill-rule="evenodd" clip-rule="evenodd" d="M8 19.75C8 19.3358 8.33579 19 8.75 19L11 18.75H13L15.25 19C15.6642 19 16 19.3358 16 19.75C16 20.1642 15.6642 20.5 15.25 20.5H8.75C8.33579 20.5 8 20.1642 8 19.75Z" fill="#0C0C0C"/>
<path fill-rule="evenodd" clip-rule="evenodd" d="M12 5C12.5523 5 13 4.44772 13 5V19.6667C13 20.219 12.5523 19.6667 12 19.6667C11.4477 19.6667 11 20.219 11 19.6667L11 5C11 4.44772 11.4477 5 12 5Z" fill="#0C0C0C"/>
<path fill-rule="evenodd" clip-rule="evenodd" d="M4.88635 4C5.30057 4 6 4.33579 6 4.75L5.63635 8.25C5.63635 8.66421 5.30057 9 4.88635 9C4.47214 9 4.13635 8.66421 4.13635 8.25L4.13635 4.75C4.13635 4.33579 4.47214 4 4.88635 4Z" fill="#0C0C0C"/>
<path fill-rule="evenodd" clip-rule="evenodd" d="M19.1136 4C18.6994 4 18 4.33579 18 4.75L18.3636 8.25C18.3636 8.66421 18.6994 9 19.1136 9C19.5279 9 19.8636 8.66421 19.8636 8.25V4.75C19.8636 4.33579 19.5279 4 19.1136 4Z" fill="#0C0C0C"/>
</svg>
