<svg width="24" height="24" viewBox="0 0 24 24" fill="none" xmlns="http://www.w3.org/2000/svg">
<path fill-rule="evenodd" clip-rule="evenodd" d="M12.6429 5.28571H19C19.3945 5.28571 19.7143 5.60551 19.7143 6V9.14286H12.6429V5.28571ZM11.3572 5.28571H5C4.60551 5.28571 4.28571 5.60551 4.28571 6V9.14286H11.3572V5.28571ZM11.3572 10.4286H4.28571V14.2857H9.3869C9.23804 14.6966 9.12943 15.1268 9.06582 15.5714H4.28571V18.7143C4.28571 19.1088 4.60551 19.4286 5 19.4286H9.69555C9.92968 19.8917 10.2176 20.323 10.5511 20.7143H5C3.89543 20.7143 3 19.8189 3 18.7143V15.5714V14.2857V10.4286V10.4286V9.14286V9.14286V6C3 4.89543 3.89543 4 5 4H19C20.1046 4 21 4.89543 21 6V9.14286V10.4286V13.0343C20.6481 12.477 20.2138 11.9769 19.7143 11.5511V10.4286H17.8261C17.1038 10.1517 16.3196 10 15.5 10C14.6804 10 13.8962 10.1517 13.1739 10.4286H12.6429V10.66C12.1808 10.8864 11.7496 11.1661 11.3572 11.4911V10.4286ZM21.2262 22.2262C20.8611 22.5913 20.2693 22.5913 19.9042 22.2262L18.0156 20.3376C17.6694 20.5422 17.3074 20.7037 16.9297 20.822C16.552 20.9404 16.1585 20.9993 15.7493 20.9986C14.5689 20.9986 13.5658 20.5857 12.7399 19.7597C11.9139 18.9338 11.5006 17.9303 11.5 16.7493C11.4994 15.5683 11.9126 14.5652 12.7399 13.7399C13.5671 12.9145 14.5702 12.5013 15.7493 12.5C16.9284 12.4987 17.9319 12.912 18.7597 13.7399C19.5876 14.5677 20.0005 15.5708 19.9986 16.7493C19.9986 17.1585 19.9398 17.552 19.822 17.9297C19.7043 18.3074 19.5428 18.6694 19.3376 19.0156L21.2262 20.9042C21.5913 21.2693 21.5913 21.8611 21.2262 22.2262ZM18.8222 16.7295C18.8222 18.4223 17.45 19.7946 15.7572 19.7946C14.0644 19.7946 12.6921 18.4223 12.6921 16.7295C12.6921 15.0367 14.0644 13.6645 15.7572 13.6645C17.45 13.6645 18.8222 15.0367 18.8222 16.7295Z" fill="#0C0C0C"/>
</svg>
