<svg width="24" height="24" viewBox="0 0 24 24" fill="none" xmlns="http://www.w3.org/2000/svg">
<path fill-rule="evenodd" clip-rule="evenodd" d="M12.6429 5.28571H19C19.3945 5.28571 19.7143 5.60551 19.7143 6V9.14286H12.6429V5.28571ZM11.3572 5.28571H5C4.60551 5.28571 4.28571 5.60551 4.28571 6V9.14286H11.3572V5.28571ZM11.3572 10.4286H4.28571V14.2857H11.3572L11.3572 10.4286ZM11.3572 15.5714V19.4286H12.6429V15.5714H19.7143V18.7143C19.7143 19.1088 19.3945 19.4286 19 19.4286H5C4.60551 19.4286 4.28571 19.1088 4.28571 18.7143V15.5714H11.3572ZM12.6429 14.2857L12.6429 10.4286H19.7143V14.2857H12.6429ZM3 6C3 4.89543 3.89543 4 5 4H19C20.1046 4 21 4.89543 21 6V9.14286V10.4286V14.2857V15.5714V18.7143C21 19.8189 20.1046 20.7143 19 20.7143H5C3.89543 20.7143 3 19.8189 3 18.7143V15.5714V14.2857V10.4286V10.4286V9.14286V9.14286V6Z" fill="#0C0C0C"/>
</svg>
