<svg width="24" height="24" viewBox="0 0 24 24" fill="none" xmlns="http://www.w3.org/2000/svg">
<path fill-rule="evenodd" clip-rule="evenodd" d="M4.46973 14.9697V8.96967H16.4697V4.45705L16.4697 4.46973V12.1197C16.9544 12.0213 17.456 11.9697 17.9697 11.9697H17.9697V4.46973C17.9697 2.81287 16.6266 1.46973 14.9697 1.46973H5.96973C4.31287 1.46973 2.96973 2.81287 2.96973 4.46973V19.4697C2.96973 21.1266 4.31287 22.4697 5.96973 22.4697H11.0938C10.8857 21.9935 10.7256 21.4914 10.6197 20.9697H5.96973L5.95605 20.9697H10.6197C10.5213 20.485 10.4697 19.9834 10.4697 19.4697C10.4697 17.7813 11.0276 16.2232 11.9691 14.9697H4.46973ZM20.932 15.0073C21.2249 15.3002 21.2249 15.7751 20.932 16.068L18.2803 18.7197L20.932 21.3713C21.2249 21.6642 21.2249 22.1391 20.932 22.432C20.6391 22.7249 20.1642 22.7249 19.8713 22.432L17.2196 19.7803L14.568 22.4319C14.2751 22.7248 13.8002 22.7248 13.5073 22.4319C13.2144 22.1391 13.2144 21.6642 13.5073 21.3713L16.159 18.7197L13.5073 16.068C13.2144 15.7751 13.2144 15.3003 13.5073 15.0074C13.8002 14.7145 14.2751 14.7145 14.568 15.0074L17.2196 17.659L19.8713 15.0073C20.1642 14.7144 20.6391 14.7144 20.932 15.0073Z" fill="black"/>
</svg>
