<svg width="24" height="24" viewBox="0 0 24 24" fill="none" xmlns="http://www.w3.org/2000/svg">
<path fill-rule="evenodd" clip-rule="evenodd" d="M19.5 4.5H15V9H19.5V4.5ZM15 3C14.1716 3 13.5 3.67157 13.5 4.5V9C13.5 9.82843 14.1716 10.5 15 10.5H19.5C20.3284 10.5 21 9.82843 21 9V4.5C21 3.67157 20.3284 3 19.5 3H15ZM9.53033 3.96967C9.23744 3.67678 8.76256 3.67678 8.46967 3.96967C8.17678 4.26256 8.17678 4.73744 8.46967 5.03033L9.43934 6H6C4.75736 6 3.75 7.00736 3.75 8.25V11.25C3.75 11.6642 4.08579 12 4.5 12C4.91421 12 5.25 11.6642 5.25 11.25V8.25C5.25 7.83579 5.58579 7.5 6 7.5H9.43934L8.46967 8.46967C8.17678 8.76256 8.17678 9.23744 8.46967 9.53033C8.76256 9.82322 9.23744 9.82322 9.53033 9.53033L11.7803 7.28033L12.3107 6.75L11.7803 6.21967L9.53033 3.96967ZM12.2197 17.7803L14.4697 20.0303C14.7626 20.3232 15.2374 20.3232 15.5303 20.0303C15.8232 19.7374 15.8232 19.2626 15.5303 18.9697L14.5607 18H18C19.2426 18 20.25 16.9926 20.25 15.75V12.75C20.25 12.3358 19.9142 12 19.5 12C19.0858 12 18.75 12.3358 18.75 12.75V15.75C18.75 16.1642 18.4142 16.5 18 16.5H14.5607L15.5303 15.5303C15.8232 15.2374 15.8232 14.7626 15.5303 14.4697C15.2374 14.1768 14.7626 14.1768 14.4697 14.4697L12.2197 16.7197L11.6893 17.25L12.2197 17.7803ZM4.5 15H9V19.5H4.5L4.5 15ZM3 15C3 14.1716 3.67157 13.5 4.5 13.5H9C9.82843 13.5 10.5 14.1716 10.5 15V19.5C10.5 20.3284 9.82843 21 9 21H4.5C3.67157 21 3 20.3284 3 19.5V15Z" fill="#0C0C0C"/>
</svg>
