<svg width="24" height="24" viewBox="0 0 24 24" fill="none" xmlns="http://www.w3.org/2000/svg">
<path fill-rule="evenodd" clip-rule="evenodd" d="M21.9999 6.57147C21.9999 4.59903 20.401 3.00005 18.4285 3.00005H14.8571C14.4626 3.00005 14.1428 3.31984 14.1428 3.71433C14.1428 4.10882 14.4626 4.42862 14.8571 4.42862H18.4285C19.612 4.42862 20.5714 5.38801 20.5714 6.57147V18C20.5714 19.1835 19.612 20.1429 18.4285 20.1429H14.8571C14.4626 20.1429 14.1428 20.4627 14.1428 20.8572C14.1428 21.2517 14.4626 21.5715 14.8571 21.5715H18.4285C20.401 21.5715 21.9999 19.9725 21.9999 18V6.57147ZM11.9999 4.42865C12.3944 4.42865 12.7142 4.74844 12.7142 5.14293L12.7142 19.4286C12.7142 19.8231 12.3944 20.1429 11.9999 20.1429C11.6054 20.1429 11.2857 19.8231 11.2857 19.4286L11.2857 5.14293C11.2857 4.74844 11.6054 4.42865 11.9999 4.42865ZM5.57137 3.00005C3.59892 3.00005 1.99994 4.59903 1.99994 6.57147V18C1.99994 19.9725 3.59892 21.5715 5.57137 21.5715H9.1428C9.53729 21.5715 9.85708 21.2517 9.85708 20.8572C9.85708 20.4627 9.53729 20.1429 9.1428 20.1429H5.57137C4.3879 20.1429 3.42851 19.1835 3.42851 18V6.57147C3.42851 5.38801 4.3879 4.42862 5.57137 4.42862H9.1428C9.53729 4.42862 9.85708 4.10882 9.85708 3.71433C9.85708 3.31984 9.53729 3.00005 9.1428 3.00005H5.57137ZM18.9337 8.20929C18.6547 7.93035 18.2024 7.93035 17.9235 8.20929L14.3521 11.7807L13.847 12.2858L14.3521 12.7909L17.9235 16.3623C18.2024 16.6412 18.6547 16.6412 18.9337 16.3623C19.2126 16.0834 19.2126 15.6311 18.9337 15.3522L15.8673 12.2858L18.9337 9.21945C19.2126 8.9405 19.2126 8.48824 18.9337 8.20929ZM6.0765 8.20929C5.79755 7.93035 5.3453 7.93035 5.06635 8.20929C4.7874 8.48824 4.7874 8.9405 5.06635 9.21945L8.1327 12.2858L5.06635 15.3522C4.7874 15.6311 4.7874 16.0834 5.06635 16.3623C5.3453 16.6412 5.79755 16.6412 6.0765 16.3623L9.64793 12.7909L10.153 12.2858L9.64793 11.7807L6.0765 8.20929Z" fill="#0C0C0C"/>
</svg>
