<svg width="24" height="24" viewBox="0 0 24 24" fill="none" xmlns="http://www.w3.org/2000/svg">
<path fill-rule="evenodd" clip-rule="evenodd" d="M7.14366 3C9.05943 3 10.6125 4.55304 10.6125 6.46882V17.569C10.6125 19.4848 9.05943 21.0378 7.14366 21.0378H3.67484C3.29169 21.0378 2.98108 20.7272 2.98108 20.3441C2.98108 19.9609 3.29169 19.6503 3.67484 19.6503H7.14366C8.29312 19.6503 9.22495 18.7185 9.22495 17.569V6.46882C9.22495 5.31935 8.29312 4.38753 7.14366 4.38753H3.67484C3.29169 4.38753 2.98108 4.07692 2.98108 3.69376C2.98108 3.31061 3.29169 3 3.67484 3H7.14366ZM16.8563 3C14.9406 3 13.3875 4.55304 13.3875 6.46882V17.569C13.3875 19.4848 14.9406 21.0378 16.8563 21.0378H20.3252C20.7083 21.0378 21.0189 20.7272 21.0189 20.3441C21.0189 19.9609 20.7083 19.6503 20.3252 19.6503H16.8563C15.7069 19.6503 14.7751 18.7185 14.7751 17.569V6.46882C14.7751 5.31935 15.7069 4.38753 16.8563 4.38753H20.3252C20.7083 4.38753 21.0189 4.07692 21.0189 3.69376C21.0189 3.31061 20.7083 3 20.3252 3H16.8563ZM6.94057 8.05954C6.66964 7.78861 6.23037 7.78861 5.95944 8.05954L2.49063 11.5284L2.00006 12.0189L2.49063 12.5095L5.95944 15.9783C6.23037 16.2492 6.66964 16.2492 6.94057 15.9783C7.2115 15.7074 7.2115 15.2681 6.94057 14.9972L3.96232 12.0189L6.94057 9.04067C7.2115 8.76974 7.2115 8.33047 6.94057 8.05954ZM18.0407 8.05954C17.7697 7.78861 17.3305 7.78861 17.0595 8.05954C16.7886 8.33047 16.7886 8.76974 17.0595 9.04067L20.0378 12.0189L17.0595 14.9972C16.7886 15.2681 16.7886 15.7074 17.0595 15.9783C17.3305 16.2492 17.7697 16.2492 18.0407 15.9783L21.5095 12.5095L22.0001 12.0189L21.5095 11.5284L18.0407 8.05954Z" fill="#0C0C0C"/>
</svg>
