<svg width="24" height="24" viewBox="0 0 24 24" fill="none" xmlns="http://www.w3.org/2000/svg">
<path fill-rule="evenodd" clip-rule="evenodd" d="M9.82579 10.25C10.24 10.25 10.5758 9.91421 10.5758 9.5C10.5758 9.08579 10.24 8.75 9.82579 8.75H6.23955C6.55453 8.31709 7.0281 7.80875 7.56967 7.32772C8.18093 6.78479 8.83229 6.31801 9.37137 6.04974C12.7498 4.36853 16.8514 5.74437 18.5326 9.12276C20.2138 12.5011 18.838 16.6028 15.4596 18.284C12.1203 19.9457 8.46446 18.5421 6.76316 15.1233C6.57862 14.7525 6.1284 14.6015 5.75757 14.786C5.38673 14.9706 5.23571 15.4208 5.42025 15.7916C7.45045 19.8713 11.9687 21.6966 16.1279 19.6269C20.2479 17.5766 21.9258 12.5745 19.8755 8.45448C17.8252 4.33442 12.8232 2.65654 8.70309 4.70683C8.00568 5.05389 7.24399 5.61074 6.57355 6.20623C6.21982 6.52041 5.87854 6.85688 5.57579 7.19422L5.57579 4.5C5.57579 4.08579 5.24001 3.75 4.82579 3.75C4.41158 3.75 4.07579 4.08579 4.07579 4.5V9.5C4.07579 9.69891 4.15481 9.88968 4.29546 10.0303C4.43611 10.171 4.62688 10.25 4.82579 10.25H9.82579Z" fill="#0C0C0C"/>
</svg>
