<svg width="24" height="24" viewBox="0 0 24 24" fill="none" xmlns="http://www.w3.org/2000/svg">
<path fill-rule="evenodd" clip-rule="evenodd" d="M9.82573 10.25C10.2399 10.25 10.5757 9.91421 10.5757 9.5C10.5757 9.08579 10.2399 8.75 9.82573 8.75H6.23949C6.55446 8.31709 7.02804 7.80875 7.56961 7.32772C8.18087 6.78479 8.83223 6.31801 9.37131 6.04974C12.7497 4.36853 16.8513 5.74437 18.5325 9.12276C20.2137 12.5011 18.8379 16.6028 15.4595 18.284C12.1203 19.9457 8.4644 18.5421 6.7631 15.1233C6.57856 14.7525 6.12834 14.6015 5.7575 14.786C5.38667 14.9706 5.23565 15.4208 5.42019 15.7916C7.45039 19.8713 11.9686 21.6966 16.1278 19.6269C20.2478 17.5766 21.9257 12.5745 19.8754 8.45448C17.8251 4.33442 12.8231 2.65654 8.70303 4.70683C8.00562 5.05389 7.24393 5.61074 6.57349 6.20623C6.21976 6.52041 5.87848 6.85688 5.57573 7.19422L5.57573 4.5C5.57573 4.08579 5.23995 3.75 4.82573 3.75C4.41152 3.75 4.07573 4.08579 4.07573 4.5V9.5C4.07573 9.69891 4.15475 9.88968 4.2954 10.0303C4.43605 10.171 4.62682 10.25 4.82573 10.25H9.82573Z" fill="#0C0C0C"/>
</svg>
