<svg width="24" height="24" viewBox="0 0 24 24" fill="none" xmlns="http://www.w3.org/2000/svg">
<path fill-rule="evenodd" clip-rule="evenodd" d="M12.1667 2.25C9.17512 2.25 6.75 4.67512 6.75 7.66667V10L6 10C4.89543 10 4 10.8954 4 12V20C4 21.1046 4.89543 22 6 22H18C19.1046 22 20 21.1046 20 20V12C20 10.8954 19.1046 10 18 10L8.25 10V7.66667C8.25 5.50355 10.0036 3.75 12.1667 3.75C13.3995 3.75 14.5603 4.33043 15.3 5.31667L15.4 5.45C15.6485 5.78137 16.1186 5.84853 16.45 5.6C16.7814 5.35147 16.8485 4.88137 16.6 4.55L16.5 4.41667C15.477 3.05272 13.8716 2.25 12.1667 2.25ZM6 11.5H18C18.2761 11.5 18.5 11.7239 18.5 12V20C18.5 20.2761 18.2761 20.5 18 20.5H6C5.72386 20.5 5.5 20.2761 5.5 20V12C5.5 11.7239 5.72386 11.5 6 11.5Z" fill="#0C0C0C"/>
</svg>
