<svg width="24" height="24" viewBox="0 0 24 24" fill="none" xmlns="http://www.w3.org/2000/svg">
<path fill-rule="evenodd" clip-rule="evenodd" d="M4.75 15C4.75 14.5858 4.41421 14.25 4 14.25C3.58579 14.25 3.25 14.5858 3.25 15V18C3.25 18.9665 4.0335 19.75 5 19.75H19C19.9665 19.75 20.75 18.9665 20.75 18V15C20.75 14.5858 20.4142 14.25 20 14.25C19.5858 14.25 19.25 14.5858 19.25 15V18C19.25 18.1381 19.1381 18.25 19 18.25H5C4.86193 18.25 4.75 18.1381 4.75 18V15ZM12.75 15V6.31066L16.4697 10.0303C16.7626 10.3232 17.2374 10.3232 17.5303 10.0303C17.8232 9.73744 17.8232 9.26256 17.5303 8.96967L12.5303 3.96967C12.2374 3.67678 11.7626 3.67678 11.4697 3.96967L6.46967 8.96967C6.17678 9.26256 6.17678 9.73744 6.46967 10.0303C6.76256 10.3232 7.23744 10.3232 7.53033 10.0303L11.25 6.31066V15C11.25 15.4142 11.5858 15.75 12 15.75C12.4142 15.75 12.75 15.4142 12.75 15Z" fill="#0C0C0C"/>
</svg>
