<svg width="24" height="24" viewBox="0 0 24 24" fill="none" xmlns="http://www.w3.org/2000/svg">
<path fill-rule="evenodd" clip-rule="evenodd" d="M10.9097 10.0057C10.2911 10.6601 9.43972 11.0444 8.53982 11.0756C7.63886 11.0444 6.78623 10.6605 6.16573 10.0065C5.54524 9.35251 5.20658 8.4809 5.22277 7.57955C5.20361 7.12625 5.2744 6.67364 5.43106 6.24784C5.58772 5.82205 5.82715 5.43149 6.13553 5.0987C6.44391 4.76591 6.81514 4.49749 7.2278 4.30891C7.64046 4.12034 8.08637 4.01535 8.53982 4C8.99224 4.01689 9.43686 4.123 9.84814 4.31226C10.2594 4.50152 10.6293 4.77018 10.9364 5.10281C11.2435 5.43544 11.4819 5.82548 11.6378 6.25052C11.7937 6.67556 11.8641 7.12722 11.8449 7.57955C11.8643 8.47978 11.5283 9.35141 10.9097 10.0057ZM9.27697 5.69742C9.04656 5.58446 8.79598 5.51851 8.53982 5.50341C8.28366 5.51851 8.03307 5.58446 7.80267 5.69742C7.57226 5.81038 7.36666 5.96809 7.19784 6.16134C7.02902 6.35459 6.90037 6.57952 6.81939 6.82301C6.73842 7.0665 6.70673 7.32368 6.72618 7.57955C6.70958 8.08362 6.88944 8.57443 7.22781 8.94842C7.56618 9.32241 8.0366 9.55033 8.53982 9.58409C9.04303 9.55033 9.51345 9.32241 9.85182 8.94842C10.1902 8.57443 10.3701 8.08362 10.3535 7.57955C10.3729 7.32368 10.3412 7.0665 10.2602 6.82301C10.1793 6.57952 10.0506 6.35459 9.88179 6.16134C9.71298 5.96809 9.50737 5.81038 9.27697 5.69742ZM19.0958 10.6268C18.5817 11.1767 17.871 11.501 17.1188 11.529C16.3687 11.4979 15.6611 11.1723 15.1495 10.6228C14.638 10.0732 14.3638 9.34417 14.3864 8.59375C14.3606 7.8413 14.6333 7.10916 15.1452 6.55705C15.6571 6.00493 16.3665 5.67765 17.1188 5.64659C17.8732 5.67458 18.5856 6.00052 19.1001 6.55297C19.6145 7.10543 19.8889 7.83931 19.8631 8.59375C19.8857 9.34616 19.6098 10.077 19.0958 10.6268ZM18.0423 7.61018C17.8081 7.33804 17.4766 7.16854 17.1188 7.13807C16.7589 7.16558 16.4243 7.3338 16.1876 7.60627C15.9508 7.87875 15.831 8.23353 15.854 8.59375C15.8342 8.95198 15.9556 9.3037 16.192 9.57356C16.4284 9.84343 16.7611 10.01 17.1188 10.0375C17.4744 10.007 17.8041 9.83921 18.038 9.56967C18.2719 9.30013 18.3916 8.95007 18.3716 8.59375C18.3948 8.23544 18.2766 7.88233 18.0423 7.61018ZM14.9926 13.4921C15.628 13.1795 16.3271 13.0181 17.0353 13.0205C18.1991 12.9916 19.3269 13.4247 20.1721 14.2252C21.0174 15.0257 21.5112 16.1284 21.5455 17.292V18.3V18.3182V19.6636H2.45459V18.3182V18.3H2.45527C2.51585 16.7411 3.18469 15.2677 4.31885 14.1958C5.45741 13.1197 6.97355 12.5347 8.53982 12.567C9.46215 12.5609 10.3743 12.7601 11.2101 13.1501C12.0459 13.5402 12.7845 14.1113 13.3722 14.8222C13.8026 14.2598 14.3572 13.8046 14.9926 13.4921ZM3.94683 18.3H13.1209C13.0729 17.1346 12.5667 16.0349 11.7121 15.2403C10.853 14.4417 9.71205 14.0166 8.53982 14.0585C7.36641 14.0166 6.22418 14.4413 5.3632 15.2396C4.50668 16.0338 3.99794 17.1335 3.94683 18.3ZM14.6132 18.3H20.054V17.292C20.0199 16.5239 19.6833 15.8005 19.1178 15.2797C18.5522 14.7588 17.8036 14.4828 17.0353 14.5119C16.4443 14.5044 15.864 14.6697 15.3658 14.9877C14.8676 15.3057 14.4732 15.7625 14.2313 16.3017C14.4848 16.9374 14.6144 17.6157 14.6132 18.3Z" fill="#0C0C0C"/>
</svg>
