<svg width="24" height="24" viewBox="0 0 24 24" fill="none" xmlns="http://www.w3.org/2000/svg">
<path fill-rule="evenodd" clip-rule="evenodd" d="M16.9215 19.3746C18.1527 18.6821 18.5 17.96 18.5 17.5C18.5 17.04 18.1527 16.3179 16.9215 15.6254C15.7373 14.9593 14.0003 14.5 12 14.5C9.99969 14.5 8.26273 14.9593 7.07854 15.6254C5.84733 16.3179 5.5 17.04 5.5 17.5C5.5 17.96 5.84733 18.6821 7.07854 19.3746C8.26273 20.0407 9.99969 20.5 12 20.5C14.0003 20.5 15.7373 20.0407 16.9215 19.3746ZM20 17.5C20 19.9853 16.4183 22 12 22C7.58172 22 4 19.9853 4 17.5C4 15.0147 7.58172 13 12 13C16.4183 13 20 15.0147 20 17.5Z" fill="#0C0C0C"/>
<path fill-rule="evenodd" clip-rule="evenodd" d="M12 9.5C12.7319 9.5 13.5 8.82423 13.5 7.8V6.2C13.5 5.17576 12.7319 4.5 12 4.5C11.2681 4.5 10.5 5.17576 10.5 6.2V7.8C10.5 8.82423 11.2681 9.5 12 9.5ZM15 7.8C15 9.56 13.65 11 12 11C10.35 11 9 9.56 9 7.8V6.2C9 4.44 10.35 3 12 3C13.65 3 15 4.44 15 6.2V7.8Z" fill="#0C0C0C"/>
</svg>
