<svg width="24" height="24" viewBox="0 0 24 24" fill="none" xmlns="http://www.w3.org/2000/svg">
<path fill-rule="evenodd" clip-rule="evenodd" d="M12.2193 4.46089C12.1244 4.28773 11.8757 4.28774 11.7808 4.46089L3.46903 19.6299C3.37774 19.7965 3.4983 20 3.68828 20H20.3118C20.5018 20 20.6224 19.7965 20.5311 19.6299L12.2193 4.46089ZM10.4653 3.74009C11.1295 2.528 12.8706 2.528 13.5348 3.74009L21.8465 18.9091C22.4856 20.0753 21.6417 21.5 20.3118 21.5H3.68828C2.35844 21.5 1.51453 20.0753 2.15357 18.9091L10.4653 3.74009ZM12 8.00002C12.4143 8.00002 12.75 8.3358 12.75 8.75002V13.25C12.75 13.6642 12.4143 14 12 14C11.5858 14 11.25 13.6642 11.25 13.25V8.75002C11.25 8.3358 11.5858 8.00002 12 8.00002ZM12 18.5C12.8285 18.5 13.5 17.8284 13.5 17C13.5 16.1716 12.8285 15.5 12 15.5C11.1716 15.5 10.5 16.1716 10.5 17C10.5 17.8284 11.1716 18.5 12 18.5Z" fill="#0C0C0C"/>
</svg>
