<svg width="24" height="24" viewBox="0 0 24 24" fill="none" xmlns="http://www.w3.org/2000/svg">
<path fill-rule="evenodd" clip-rule="evenodd" d="M6.28571 2C3.91878 2 2 3.91878 2 6.28571V17.7143C2 20.0812 3.91878 22 6.28571 22H17.7143C20.0812 22 22 20.0812 22 17.7143V6.28571C22 3.91878 20.0812 2 17.7143 2H6.28571ZM11.2004 11.547C10.7468 12.0269 10.1224 12.3087 9.4625 12.3316C8.8018 12.3087 8.17653 12.0272 7.72151 11.5476C7.26648 11.068 7.01813 10.4288 7.03 9.76782C7.01595 9.4354 7.06786 9.10349 7.18274 8.79124C7.29763 8.47899 7.47321 8.19258 7.69936 7.94853C7.9255 7.70449 8.19774 7.50765 8.50035 7.36936C8.80297 7.23107 9.12998 7.15408 9.4625 7.14282C9.79428 7.15521 10.1203 7.23303 10.4219 7.37181C10.7235 7.5106 10.9948 7.70762 11.22 7.95155C11.4452 8.19548 11.62 8.4815 11.7344 8.7932C11.8487 9.1049 11.9003 9.43611 11.8863 9.76782C11.9005 10.428 11.6541 11.0672 11.2004 11.547ZM17.2035 12.0025C16.8265 12.4057 16.3054 12.6435 15.7537 12.6641C15.2037 12.6413 14.6847 12.4025 14.3096 11.9995C13.9345 11.5965 13.7334 11.0619 13.75 10.5116C13.731 9.95978 13.9311 9.42287 14.3065 9.01799C14.6818 8.61311 15.2021 8.3731 15.7537 8.35032C16.3069 8.37085 16.8294 8.60987 17.2067 9.015C17.5839 9.42014 17.7852 9.95832 17.7663 10.5116C17.7828 11.0633 17.5805 11.5993 17.2035 12.0025ZM15.6925 13.7578C15.1732 13.7561 14.6605 13.8745 14.1945 14.1037C13.7286 14.3329 13.3219 14.6667 13.0062 15.0791C12.5752 14.5578 12.0336 14.1389 11.4207 13.8529C10.8078 13.5669 10.1389 13.4208 9.4625 13.4253C8.3139 13.4016 7.20207 13.8306 6.36712 14.6197C5.53217 15.4089 5.04111 16.4947 5 17.6428H19V16.8903C18.9748 16.037 18.6127 15.2284 17.9929 14.6413C17.373 14.0543 16.5459 13.7366 15.6925 13.7578Z" fill="#0C0C0C"/>
</svg>
