<svg width="32" height="32" viewBox="0 0 32 32" fill="none" xmlns="http://www.w3.org/2000/svg">
<path fill-rule="evenodd" clip-rule="evenodd" d="M10.5 7.27778C9.2727 7.27778 8.27778 8.2727 8.27778 9.5C8.27778 10.7273 9.2727 11.7222 10.5 11.7222C11.7273 11.7222 12.7222 10.7273 12.7222 9.5C12.7222 8.2727 11.7273 7.27778 10.5 7.27778ZM6.5 9.5C6.5 7.29086 8.29086 5.5 10.5 5.5C12.7091 5.5 14.5 7.29086 14.5 9.5C14.5 11.339 13.2589 12.8882 11.5686 13.3557C12.6589 15.219 13.4769 15.7562 14.365 15.9637C14.9 16.0887 15.5307 16.1094 16.3935 16.0863C16.6555 16.0793 16.9419 16.068 17.2495 16.0559L17.2496 16.0559C17.3398 16.0524 17.4318 16.0487 17.5256 16.0451C17.7514 14.0502 19.4447 12.5 21.5 12.5C23.7091 12.5 25.5 14.2909 25.5 16.5C25.5 18.7091 23.7091 20.5 21.5 20.5C19.8351 20.5 18.4078 19.4828 17.8056 18.0361C17.6627 18.0414 17.5224 18.0469 17.3841 18.0524L17.384 18.0524L17.3839 18.0524C17.0636 18.0651 16.754 18.0773 16.4471 18.0856C15.5631 18.1093 14.7125 18.0988 13.91 17.9113C12.9968 17.6979 12.2211 17.2752 11.5 16.5785V18.626C13.2252 19.0701 14.5 20.6362 14.5 22.5C14.5 24.7091 12.7091 26.5 10.5 26.5C8.29086 26.5 6.5 24.7091 6.5 22.5C6.5 20.6362 7.77477 19.0701 9.5 18.626V13.374C7.77477 12.9299 6.5 11.3638 6.5 9.5ZM19.5 17.4698C19.8602 18.2112 20.6204 18.7222 21.5 18.7222C22.7273 18.7222 23.7222 17.7273 23.7222 16.5C23.7222 15.2727 22.7273 14.2778 21.5 14.2778C20.4445 14.2778 19.5608 15.0137 19.3342 16.0004C19.3891 16.0001 19.4444 16 19.5 16V17.4698ZM8.27778 22.5C8.27778 21.2727 9.2727 20.2778 10.5 20.2778C11.7273 20.2778 12.7222 21.2727 12.7222 22.5C12.7222 23.7273 11.7273 24.7222 10.5 24.7222C9.2727 24.7222 8.27778 23.7273 8.27778 22.5Z" fill="white"/>
</svg>
