<svg width="32" height="32" viewBox="0 0 32 32" fill="none" xmlns="http://www.w3.org/2000/svg">
<rect width="32" height="32" rx="8" fill="url(#paint0_linear_2752_84)"/>
<path d="M23.4828 14.6367C23.4865 14.5559 23.4889 14.4746 23.4889 14.393C23.4891 11.4144 21.0725 8.99988 18.0912 8.99988C15.9324 8.99988 14.0704 10.2668 13.2073 12.0963C12.7277 11.7544 12.1354 11.5518 11.494 11.5518C9.89825 11.5518 8.60483 12.8024 8.60483 14.3447C8.60483 14.5737 8.63386 14.7962 8.68772 15.009C6.86734 15.3967 5.5 17.0431 5.5 19.0157C5.5 21.2763 7.29555 23.0001 9.51034 23.0001H22.6623C24.7818 23.0001 26.5 21.1902 26.5 18.8232C26.5 16.7709 25.2079 15.0565 23.4828 14.6367ZM18.5215 20.5471H14.8175C14.5169 20.5471 14.298 20.262 14.3758 19.9716L15.2977 16.5259C14.7364 16.1124 14.404 15.4573 14.4023 14.7601C14.4023 13.5055 15.4194 12.4884 16.674 12.4884C17.9287 12.4884 18.9457 13.5055 18.9457 14.7601C18.9444 15.4569 18.6132 16.112 18.0528 16.5259L18.9637 19.973C19.0403 20.2631 18.8216 20.5471 18.5215 20.5471Z" fill="white"/>
<defs>
<linearGradient id="paint0_linear_2752_84" x1="0" y1="32" x2="32" y2="0" gradientUnits="userSpaceOnUse">
<stop stop-color="#5C5C5C"/>
<stop offset="1" stop-color="#CCCCCC"/>
</linearGradient>
</defs>
</svg>
