<svg width="32" height="32" viewBox="0 0 32 32" fill="none" xmlns="http://www.w3.org/2000/svg">
<rect width="32" height="32" rx="8" fill="url(#paint0_linear_2752_83)"/>
<path d="M23.9306 14.3062L16.8269 21.269C16.5986 21.4931 16.2993 21.6052 16 21.6052C15.7 21.6052 15.3992 21.4924 15.1701 21.2668L11.6386 17.7851C11.1812 17.3339 11.1819 16.6034 11.6401 16.1523C12.099 15.7018 12.8409 15.7018 13.2983 16.1537L16.0022 18.8198L22.2761 12.6698C22.735 12.2194 23.4776 12.2215 23.9343 12.6734C24.391 13.1253 24.3895 13.8566 23.9306 14.3062ZM24.7834 8.69031C23.6764 7.6003 22.2007 7 20.6282 7C19.0556 7 17.5799 7.6003 16.4729 8.69031L15.9993 9.156L15.5263 8.69031C14.4201 7.6003 12.9436 7 11.3711 7C9.79784 7 8.32212 7.6003 7.21588 8.69031C6.10965 9.77959 5.5 11.2327 5.5 12.7818C5.5 14.3317 6.10965 15.7848 7.21588 16.8741L15.0925 24.6387C15.598 25.1204 16.4005 25.1204 16.906 24.6387L24.7834 16.8741C25.8904 15.7848 26.5 14.3317 26.5 12.7818C26.5 11.2334 25.8904 9.78031 24.7834 8.69031Z" fill="white"/>
<defs>
<linearGradient id="paint0_linear_2752_83" x1="6.9847e-05" y1="32.0001" x2="32.0001" y2="0.000113716" gradientUnits="userSpaceOnUse">
<stop stop-color="#EEAA0B"/>
<stop offset="1" stop-color="#F6BD83"/>
</linearGradient>
</defs>
</svg>
