<svg width="32" height="32" viewBox="0 0 32 32" fill="none" xmlns="http://www.w3.org/2000/svg">
<path d="M24.15 14.3547C24.0792 14.3473 24.0084 14.3473 23.9376 14.3547L20.2403 14.7574C19.6691 14.819 19.2574 15.3245 19.32 15.8862C19.3461 16.1183 19.4519 16.3349 19.6197 16.4993L20.2658 17.1354L15.4481 21.8794C14.8068 22.5101 13.7641 22.5101 13.1228 21.8794L11.3158 20.0996C10.79 19.5819 9.93834 19.5819 9.41252 20.0996C8.88738 20.6166 8.88738 21.4557 9.4132 21.9728L11.2202 23.7519C12.9104 25.416 15.6605 25.416 17.3507 23.7519L22.1683 19.0087L22.8145 19.6448C23.2193 20.0454 23.8778 20.0468 24.284 19.6475C24.4524 19.4831 24.5576 19.2665 24.5837 19.0344L24.994 15.3949C25.0525 14.8785 24.6751 14.4122 24.15 14.3547Z" fill="white"/>
<path d="M12.68 16.1138C12.6539 15.8817 12.5481 15.6651 12.3803 15.5L11.7342 14.8646L16.5519 10.1206C17.1932 9.48989 18.2359 9.48922 18.8772 10.1206L20.6849 11.9004C21.21 12.4181 22.0617 12.4181 22.5875 11.9004C23.1126 11.3834 23.1126 10.5449 22.5875 10.0272L20.7798 8.24808C19.0896 6.58397 16.3395 6.58397 14.6493 8.24808L9.83166 12.9913L9.18555 12.3552C8.7807 11.9546 8.12291 11.9532 7.716 12.3518C7.5476 12.517 7.44243 12.7335 7.41631 12.9656L7.00596 16.6045C6.94754 17.1215 7.32489 17.5871 7.85003 17.6453C7.92083 17.6527 7.99162 17.6527 8.06242 17.6453L11.7604 17.2426C12.3309 17.181 12.7426 16.6755 12.68 16.1138Z" fill="white"/>
</svg>
