<svg width="32" height="32" viewBox="0 0 32 32" fill="none" xmlns="http://www.w3.org/2000/svg">
<path d="M17.1714 17.5755C17.1184 17.5223 17.0116 17.4685 16.9586 17.4685H16.426C16.3724 17.4685 16.3193 17.4685 16.2662 17.4152L15.8935 17.2017C15.8398 17.1485 15.7868 17.0947 15.7337 17.0414L15.627 16.7741C15.5739 16.6676 15.4671 16.5606 15.361 16.5606H15.1475C15.0414 16.5606 14.9877 16.5073 14.9346 16.4541L14.6687 16.0797C14.615 16.0265 14.5089 15.9732 14.4021 15.9732H14.1362C14.0825 15.9732 14.0294 15.9732 13.9763 15.92L13.603 15.7597C13.4438 15.7059 13.284 15.7597 13.1773 15.8662L12.6448 16.7741C12.6448 16.8279 12.5917 16.8279 12.538 16.8811L12.3251 17.0414C12.219 17.0947 12.1653 17.2017 12.1653 17.3082V17.8961C12.1653 18.0025 12.219 18.1096 12.2721 18.1628L12.6448 18.4834C12.6978 18.5366 12.7515 18.6437 12.7515 18.7508V18.911C12.7515 19.0175 12.8046 19.1246 12.9113 19.1778L13.3902 19.4451C13.4438 19.4984 13.4969 19.5516 13.55 19.6586L13.7629 20.9403V21.1006L13.603 21.5283C13.55 21.688 13.603 21.8482 13.7629 21.9021C13.8696 21.9553 13.9763 22.1156 13.9227 22.222L13.8165 22.6497C13.8165 22.7567 13.8165 22.8632 13.8696 22.9164L14.5619 23.6646C14.615 23.7179 14.7217 23.7711 14.7748 23.7711H14.9346C15.0944 23.7711 15.2543 23.6108 15.2543 23.4511V22.9164C15.2543 22.8632 15.2543 22.81 15.2012 22.7567L14.9346 22.3823C14.8285 22.222 14.8816 22.0085 15.0414 21.9021L15.361 21.7418C15.4141 21.7418 15.4671 21.688 15.4671 21.6347L16.1064 20.7801C16.1595 20.7268 16.1595 20.6736 16.1595 20.5665L16.1064 19.9254L16.426 20.0325C16.5322 20.0857 16.692 20.0325 16.7451 19.9254L16.9586 19.6586C17.0116 19.6054 17.0116 19.5516 17.0116 19.4984V18.7508C17.0116 18.6969 17.0116 18.6437 17.0647 18.5905L17.2782 18.1096C17.3313 18.0025 17.3313 17.8429 17.2245 17.7358L17.1714 17.5755Z" fill="white"/>
<path d="M21.0589 10.4719L21.1656 10.6322C21.2718 10.8457 21.2187 11.0592 21.0058 11.1663L20.846 11.2195C20.5795 11.3798 20.5795 11.7004 20.7929 11.8606L21.1656 12.0742L21.2187 12.1274L22.3905 12.6083C22.5503 12.6615 22.7101 12.6083 22.8163 12.5018C22.8693 12.3947 22.9761 12.3947 23.0828 12.3947C23.2426 12.6615 23.3488 12.9821 23.4555 13.3026L23.2426 13.1956C23.1359 13.1423 22.9761 13.1956 22.8693 13.3026L22.7101 13.5161C22.6034 13.6232 22.4966 13.6232 22.3905 13.6232L21.9641 13.5161C21.8043 13.4629 21.6982 13.3559 21.6982 13.1956C21.6982 12.9821 21.4853 12.8218 21.2718 12.8756L20.5264 13.0891H19.781C19.6212 13.0891 19.4614 13.1956 19.4614 13.3559L19.4083 13.6764C19.4083 13.7835 19.3546 13.8367 19.2485 13.8899L18.5561 14.3708C18.4494 14.424 18.3963 14.5843 18.3963 14.6914L18.5025 15.8666C18.5025 15.9731 18.5561 16.0269 18.6092 16.0801L19.3546 16.7213C19.4614 16.7745 19.5681 16.8278 19.6742 16.7745L20.5264 16.5072C20.6331 16.4539 20.7929 16.5072 20.8991 16.6142L20.9522 16.7213C21.0058 16.7745 21.112 16.8278 21.2187 16.8278H21.4853V17.6824C21.4853 17.7356 21.4853 17.8427 21.5383 17.8959L21.858 18.2697C21.911 18.3768 21.9641 18.4839 21.911 18.5903L21.6982 19.1244C21.6445 19.2315 21.6982 19.3917 21.8043 19.4982L21.858 19.552C21.9641 19.6585 21.9641 19.7656 21.9641 19.8726L21.911 20.0323C21.858 20.1394 21.911 20.2996 22.0178 20.3529L22.177 20.4599C22.2837 20.5132 22.3368 20.6202 22.3368 20.7267C20.8991 22.6495 18.5561 23.878 15.9997 23.878C11.5798 23.878 8.01136 20.2996 8.01136 15.8666C8.01136 14.9049 8.17117 13.997 8.4908 13.1423L8.97025 14.3708C9.02332 14.4779 9.07699 14.5311 9.13006 14.5843L10.142 15.1184C10.3549 15.2255 10.6209 15.1184 10.6745 14.8517L10.8874 13.997C10.9405 13.8367 11.1003 13.7303 11.2601 13.7303H12.1653C12.219 13.7303 12.2721 13.7303 12.3252 13.6764L13.284 13.1423C13.3902 13.0891 13.4969 12.9288 13.4969 12.8218V12.8756C13.4969 12.7685 13.55 12.6083 13.6567 12.555L14.8279 11.7536C14.8816 11.7536 14.8816 11.7004 14.9347 11.7004L15.8399 11.433C16.0528 11.3798 16.1595 11.113 16.0528 10.8989C15.9997 10.7925 15.9997 10.6854 16.0528 10.579L16.3724 10.0449C16.4791 9.83074 16.3724 9.61722 16.2126 9.51077L14.9877 8.97607C14.9347 8.97607 14.8816 8.92285 14.8279 8.92285H14.1362C14.0294 8.92285 13.9764 8.92285 13.9227 8.97607L13.2304 9.51077C13.1242 9.564 13.0175 9.61723 12.9113 9.564L11.8457 9.24342C13.0706 8.44198 14.5089 8.01495 16.1064 8.01495C18.0767 8.01495 19.8871 8.76256 21.2718 9.9378H21.2187C21.0058 10.0449 20.9522 10.3116 21.0589 10.4719ZM7 15.9731C7 20.9408 11.0472 25 15.9997 25C20.9522 25 25 20.9408 25 15.9731C25 11.006 20.9522 7 15.9997 7C11.0472 7 7 11.006 7 15.9731Z" fill="white"/>
</svg>
