<svg width="32" height="33" viewBox="0 0 32 33" fill="none" xmlns="http://www.w3.org/2000/svg">
<rect y="0.5" width="32" height="32" rx="8" fill="url(#paint0_linear_2752_73)"/>
<path d="M17.1714 18.0755C17.1184 18.0223 17.0116 17.9685 16.9586 17.9685H16.426C16.3724 17.9685 16.3193 17.9685 16.2662 17.9152L15.8935 17.7017C15.8398 17.6485 15.7868 17.5947 15.7337 17.5414L15.627 17.2741C15.5739 17.1676 15.4671 17.0606 15.361 17.0606H15.1475C15.0414 17.0606 14.9877 17.0073 14.9346 16.9541L14.6687 16.5797C14.615 16.5265 14.5089 16.4732 14.4021 16.4732H14.1362C14.0825 16.4732 14.0294 16.4732 13.9763 16.42L13.603 16.2597C13.4438 16.2059 13.284 16.2597 13.1773 16.3662L12.6448 17.2741C12.6448 17.3279 12.5917 17.3279 12.538 17.3811L12.3251 17.5414C12.219 17.5947 12.1653 17.7017 12.1653 17.8082V18.3961C12.1653 18.5025 12.219 18.6096 12.2721 18.6628L12.6448 18.9834C12.6978 19.0366 12.7515 19.1437 12.7515 19.2508V19.411C12.7515 19.5175 12.8046 19.6246 12.9113 19.6778L13.3902 19.9451C13.4438 19.9984 13.4969 20.0516 13.55 20.1586L13.7629 21.4403V21.6006L13.603 22.0283C13.55 22.188 13.603 22.3482 13.7629 22.4021C13.8696 22.4553 13.9763 22.6156 13.9227 22.722L13.8165 23.1497C13.8165 23.2567 13.8165 23.3632 13.8696 23.4164L14.5619 24.1646C14.615 24.2179 14.7217 24.2711 14.7748 24.2711H14.9346C15.0944 24.2711 15.2543 24.1108 15.2543 23.9511V23.4164C15.2543 23.3632 15.2543 23.31 15.2012 23.2567L14.9346 22.8823C14.8285 22.722 14.8816 22.5085 15.0414 22.4021L15.361 22.2418C15.4141 22.2418 15.4671 22.188 15.4671 22.1347L16.1064 21.2801C16.1595 21.2268 16.1595 21.1736 16.1595 21.0665L16.1064 20.4254L16.426 20.5325C16.5322 20.5857 16.692 20.5325 16.7451 20.4254L16.9586 20.1586C17.0116 20.1054 17.0116 20.0516 17.0116 19.9984V19.2508C17.0116 19.1969 17.0116 19.1437 17.0647 19.0905L17.2782 18.6096C17.3313 18.5025 17.3313 18.3429 17.2245 18.2358L17.1714 18.0755Z" fill="white"/>
<path d="M21.0589 10.9719L21.1656 11.1322C21.2718 11.3457 21.2187 11.5592 21.0058 11.6663L20.846 11.7195C20.5795 11.8798 20.5795 12.2004 20.7929 12.3606L21.1656 12.5742L21.2187 12.6274L22.3905 13.1083C22.5503 13.1615 22.7101 13.1083 22.8163 13.0018C22.8693 12.8947 22.9761 12.8947 23.0828 12.8947C23.2426 13.1615 23.3488 13.4821 23.4555 13.8026L23.2426 13.6956C23.1359 13.6423 22.9761 13.6956 22.8693 13.8026L22.7101 14.0161C22.6034 14.1232 22.4966 14.1232 22.3905 14.1232L21.9641 14.0161C21.8043 13.9629 21.6982 13.8559 21.6982 13.6956C21.6982 13.4821 21.4853 13.3218 21.2718 13.3756L20.5264 13.5891H19.781C19.6212 13.5891 19.4614 13.6956 19.4614 13.8559L19.4083 14.1764C19.4083 14.2835 19.3546 14.3367 19.2485 14.3899L18.5561 14.8708C18.4494 14.924 18.3963 15.0843 18.3963 15.1914L18.5025 16.3666C18.5025 16.4731 18.5561 16.5269 18.6092 16.5801L19.3546 17.2213C19.4614 17.2745 19.5681 17.3278 19.6742 17.2745L20.5264 17.0072C20.6331 16.9539 20.7929 17.0072 20.8991 17.1142L20.9522 17.2213C21.0058 17.2745 21.112 17.3278 21.2187 17.3278H21.4853V18.1824C21.4853 18.2356 21.4853 18.3427 21.5383 18.3959L21.858 18.7697C21.911 18.8768 21.9641 18.9839 21.911 19.0903L21.6982 19.6244C21.6445 19.7315 21.6982 19.8917 21.8043 19.9982L21.858 20.052C21.9641 20.1585 21.9641 20.2656 21.9641 20.3726L21.911 20.5323C21.858 20.6394 21.911 20.7996 22.0178 20.8529L22.177 20.9599C22.2837 21.0132 22.3368 21.1202 22.3368 21.2267C20.8991 23.1495 18.5561 24.378 15.9997 24.378C11.5798 24.378 8.01136 20.7996 8.01136 16.3666C8.01136 15.4049 8.17117 14.497 8.4908 13.6423L8.97025 14.8708C9.02332 14.9779 9.07699 15.0311 9.13006 15.0843L10.142 15.6184C10.3549 15.7255 10.6209 15.6184 10.6745 15.3517L10.8874 14.497C10.9405 14.3367 11.1003 14.2303 11.2601 14.2303H12.1653C12.219 14.2303 12.2721 14.2303 12.3252 14.1764L13.284 13.6423C13.3902 13.5891 13.4969 13.4288 13.4969 13.3218V13.3756C13.4969 13.2685 13.55 13.1083 13.6567 13.055L14.8279 12.2536C14.8816 12.2536 14.8816 12.2004 14.9347 12.2004L15.8399 11.933C16.0528 11.8798 16.1595 11.613 16.0528 11.3989C15.9997 11.2925 15.9997 11.1854 16.0528 11.079L16.3724 10.5449C16.4791 10.3307 16.3724 10.1172 16.2126 10.0108L14.9877 9.47607C14.9347 9.47607 14.8816 9.42285 14.8279 9.42285H14.1362C14.0294 9.42285 13.9764 9.42285 13.9227 9.47607L13.2304 10.0108C13.1242 10.064 13.0175 10.1172 12.9113 10.064L11.8457 9.74342C13.0706 8.94198 14.5089 8.51495 16.1064 8.51495C18.0767 8.51495 19.8871 9.26256 21.2718 10.4378H21.2187C21.0058 10.5449 20.9522 10.8116 21.0589 10.9719ZM7 16.4731C7 21.4408 11.0472 25.5 15.9997 25.5C20.9522 25.5 25 21.4408 25 16.4731C25 11.506 20.9522 7.5 15.9997 7.5C11.0472 7.5 7 11.506 7 16.4731Z" fill="white"/>
<defs>
<linearGradient id="paint0_linear_2752_73" x1="0" y1="32.5" x2="32" y2="0.5" gradientUnits="userSpaceOnUse">
<stop stop-color="#673AB7"/>
<stop offset="1" stop-color="#AD6FC6"/>
</linearGradient>
</defs>
</svg>
