<svg width="32" height="32" viewBox="0 0 32 32" fill="none" xmlns="http://www.w3.org/2000/svg">
<rect width="32" height="32" rx="8" fill="url(#paint0_linear_2752_75)"/>
<path d="M10.0923 19.6524L15.6775 22.5725C15.8795 22.6791 16.1205 22.6791 16.3225 22.5725L21.9077 19.6524L23.202 20.3308C23.5998 20.5392 23.5991 21.1069 23.2013 21.3146L16.2586 24.9367C16.0969 25.0211 15.9038 25.0211 15.7421 24.9367L8.79874 21.3146C8.40088 21.1069 8.40019 20.5392 8.79804 20.3308L10.0923 19.6524ZM10.0923 14.8652L15.6775 17.7853C15.8795 17.8919 16.1205 17.8919 16.3225 17.7853L21.9077 14.8652L23.202 15.5436C23.5998 15.7513 23.5991 16.319 23.2013 16.5267L16.2586 20.1494C16.0969 20.2339 15.9038 20.2339 15.7421 20.1494L8.79874 16.5267C8.40088 16.319 8.40019 15.7513 8.79804 15.5436L10.0923 14.8652ZM16.0003 7L23.1992 10.7564C23.597 10.9641 23.597 11.5325 23.1992 11.7408L16.2586 15.3622C16.0969 15.4467 15.9038 15.4467 15.7421 15.3622L8.80082 11.7408C8.40297 11.5325 8.40297 10.9641 8.80082 10.7564L16.0003 7Z" fill="white"/>
<defs>
<linearGradient id="paint0_linear_2752_75" x1="1.90736e-06" y1="32" x2="31.9997" y2="-0.000276563" gradientUnits="userSpaceOnUse">
<stop stop-color="#006C86"/>
<stop offset="1" stop-color="#38EF7D"/>
</linearGradient>
</defs>
</svg>
