<svg width="32" height="32" viewBox="0 0 32 32" fill="none" xmlns="http://www.w3.org/2000/svg">
<rect width="32" height="32" rx="8" fill="url(#paint0_linear_2752_77)"/>
<mask id="mask0_2752_77" style="mask-type:luminance" maskUnits="userSpaceOnUse" x="5" y="6" width="20" height="20">
<path d="M24.5 6.88513H5.5V25.1149H24.5V6.88513Z" fill="white"/>
</mask>
<g mask="url(#mask0_2752_77)">
<path d="M9.69172 20.2558V24.9992C9.69172 24.9992 9.74065 25.0983 9.78958 25.0983H12.7252C12.7252 25.0983 12.8231 25.0487 12.8231 24.9992V18.5535C12.8231 18.5535 12.7415 18.4213 12.66 18.4708L9.72434 20.1732C9.72434 20.1732 9.67542 20.2227 9.67542 20.2558H9.69172Z" fill="white"/>
<path d="M15.2365 20.2559V25.0158C15.2365 25.0158 15.2855 25.1149 15.3344 25.1149H18.3026C18.3026 25.1149 18.4005 25.0653 18.4005 25.0158V18.2395C18.4005 18.2395 18.3026 18.1073 18.2374 18.1569L15.2691 20.1732C15.2691 20.1732 15.2202 20.2228 15.2202 20.2559H15.2365Z" fill="white"/>
<path d="M20.7167 14.7356V25.0157C20.7167 25.0157 20.7657 25.1149 20.8146 25.1149H23.9296C23.9296 25.1149 24.0275 25.0653 24.0275 25.0157V12.8185C24.0275 12.6367 23.8155 12.521 23.6524 12.6367L20.7494 14.6695C20.7494 14.6695 20.7004 14.7191 20.7004 14.7522L20.7167 14.7356Z" fill="white"/>
<path d="M14.9106 7.34796C12.2033 7.34796 10.0016 9.51305 10.0016 12.174C10.0016 12.7855 10.1157 13.3805 10.3278 13.9093L5.8591 16.8347C5.48399 17.0826 5.38614 17.5784 5.63077 17.9586C5.79386 18.1899 6.05481 18.3222 6.31575 18.3222C6.47884 18.3222 6.62562 18.2726 6.7724 18.1899L11.1758 15.3142C12.0728 16.3554 13.4102 17.0165 14.9106 17.0165C17.6179 17.0165 19.8196 14.8514 19.8196 12.1905C19.8196 9.52958 17.6342 7.34796 14.9106 7.34796ZM14.9106 15.3803C13.1003 15.3803 11.6325 13.9424 11.6325 12.174C11.6325 10.4055 13.1003 8.96765 14.9106 8.96765C16.7209 8.96765 18.1724 10.4055 18.1724 12.174C18.1724 13.9424 16.7046 15.3803 14.9106 15.3803Z" fill="white"/>
</g>
<defs>
<linearGradient id="paint0_linear_2752_77" x1="0" y1="32" x2="32" y2="0" gradientUnits="userSpaceOnUse">
<stop stop-color="#1A3F85"/>
<stop offset="1" stop-color="#258CCD"/>
</linearGradient>
</defs>
</svg>
