<svg width="32" height="32" viewBox="0 0 32 32" fill="none" xmlns="http://www.w3.org/2000/svg">
<path d="M18.2395 16.0856H13.7602C13.6447 16.085 13.531 16.0555 13.4304 16C13.1025 15.8216 12.9869 15.4202 13.1724 15.1037L15.4118 11.3595C15.4705 11.2643 15.5523 11.1853 15.6504 11.1286C15.9752 10.943 16.3949 11.0461 16.588 11.3595L18.8273 15.1037C18.8841 15.2008 18.9147 15.3105 18.916 15.4226C18.9185 15.7861 18.6162 16.0826 18.2395 16.0856ZM19.7992 8.08235C16.5524 6.05773 12.2192 6.95582 10.1211 10.0889C8.62631 12.3203 8.62631 15.1899 10.1211 17.4213L10.1173 17.4117L10.1517 17.4605C10.1948 17.5226 10.2398 17.5828 10.2841 17.6485L15.3512 24.673C15.601 25.0189 16.0939 25.1039 16.4524 24.8628C16.5292 24.8116 16.5961 24.7471 16.6498 24.673L21.705 17.654C21.7537 17.5883 21.8006 17.5244 21.8468 17.4665L21.878 17.4213C23.9768 14.2882 23.0455 10.107 19.7992 8.08235Z" fill="white"/>
</svg>
