<svg width="32" height="32" viewBox="0 0 32 32" fill="none" xmlns="http://www.w3.org/2000/svg">
<path d="M8.85973 20.1686H10.638V18.3878C10.638 18.0595 10.9034 17.7937 11.2312 17.7937C11.5583 17.7937 11.8237 18.0595 11.8237 18.3878V20.1686H13.602C13.9298 20.1686 14.1952 20.4344 14.1952 20.762C14.1952 21.0903 13.9298 21.3561 13.602 21.3561H11.8237V23.1369C11.8237 23.4645 11.5583 23.7303 11.2312 23.7303C10.9034 23.7303 10.638 23.4645 10.638 23.1369V21.3561H8.85973C8.53258 21.3561 8.26719 21.0903 8.26719 20.762C8.26719 20.4344 8.53258 20.1686 8.85973 20.1686ZM11.2312 25C13.5678 25 15.4624 23.1027 15.4624 20.762C15.4624 18.422 13.5678 16.5247 11.2312 16.5247C8.89389 16.5247 7 18.422 7 20.762C7 23.1027 8.89389 25 11.2312 25Z" fill="white"/>
<path d="M24.8913 15.2898L23.3587 12.953C23.2733 12.8162 23.2391 12.6629 23.222 12.4925C22.9494 9.42227 20.3776 7 17.2435 7C13.9221 7 11.2314 9.69528 11.2314 13.0208C11.2314 13.7635 11.3687 14.4971 11.6144 15.1924C14.5173 15.3904 16.8125 17.8048 16.8125 20.7626C16.8125 21.533 16.6562 22.2678 16.3744 22.9355L19.5768 23.2217C19.8836 23.2553 20.1391 22.9993 20.1391 22.6928V20.2363C20.1391 20.083 20.2758 19.9462 20.4288 19.9462H22.234C22.7964 19.9462 23.2391 19.5028 23.2391 18.9403V16.518C23.2391 16.4154 23.3245 16.3134 23.4434 16.3134H24.3289V16.3305C24.8571 16.3305 25.181 15.7332 24.8913 15.2898Z" fill="white"/>
</svg>
