<svg width="32" height="32" viewBox="0 0 32 32" fill="none" xmlns="http://www.w3.org/2000/svg">
<path fill-rule="evenodd" clip-rule="evenodd" d="M23.7618 8.23819C21.9126 6.38902 18.9145 6.38903 17.0653 8.2382L8.2382 17.0653C6.38903 18.9145 6.38903 21.9126 8.2382 23.7618C10.0874 25.6109 13.0855 25.6109 14.9346 23.7618L23.7618 14.9346C25.6109 13.0855 25.6109 10.0874 23.7618 8.23819ZM18.3063 9.43228C19.483 8.25554 21.3909 8.25554 22.5677 9.43228C23.7444 10.609 23.7444 12.5169 22.5677 13.6937L18.1307 18.1307L17.2673 17.2673L19.8048 12.1951L14.7326 14.7326L13.8693 13.8693L18.3063 9.43228ZM17.318 17.3181L12.043 19.957L14.6819 14.682L17.318 17.3181Z" fill="white"/>
</svg>
