<svg width="16" height="16" viewBox="0 0 16 16" fill="none" xmlns="http://www.w3.org/2000/svg">
<path fill-rule="evenodd" clip-rule="evenodd" d="M11.1829 4.16205L11.1816 4.16014C11.1102 4.05459 11.002 4.0001 10.895 4L10.8947 4L3.36937 4.00714L3.36842 4.00714C3.20179 4.00714 3 4.16081 3 4.42857V11.5714C3 11.8392 3.20179 11.9929 3.36842 11.9929H3.36937L10.8947 12C11.0018 12 11.1102 11.9455 11.1816 11.8399L11.1829 11.8379L13.791 8L11.1829 4.16205ZM15 8L12.01 12.4C11.7637 12.7643 11.3532 13 10.8947 13L3.36842 12.9929C2.61579 12.9929 2 12.3571 2 11.5714V4.42857C2 3.64286 2.61579 3.00714 3.36842 3.00714L10.8947 3C11.3532 3 11.7637 3.23571 12.01 3.6L15 8ZM7 7.5V5.5H8V7.5H9.35938H9.82617H9.95483H9.98849H9.9971H9.99927H9.99982H9.99995L10 8L9.99995 8.5H9.99982H9.99927H9.9971H9.98849H9.95483H9.82617H9.35938H8V10.5H7V8.5L5 8.5V7.5L7 7.5Z" fill="#0C0C0C"/>
</svg>
