<svg width="16" height="16" viewBox="0 0 16 16" fill="none" xmlns="http://www.w3.org/2000/svg">
<path fill-rule="evenodd" clip-rule="evenodd" d="M13.5 7.46776V4C13.5 3.01823 12.7171 2.26401 11.7591 1.78502C10.7713 1.29108 9.4415 1 8 1C6.5585 1 5.22874 1.29108 4.24086 1.78502C3.28288 2.26401 2.5 3.01823 2.5 4V11C2.5 12.0731 3.22229 12.9591 4.20722 13.5501C5.2021 14.147 6.54425 14.5 8 14.5C8.04839 14.5 8.09666 14.4996 8.1448 14.4988C7.87232 14.1942 7.64073 13.8522 7.45864 13.4815C6.37556 13.4071 5.42193 13.1127 4.72171 12.6926C3.897 12.1977 3.5 11.5838 3.5 11V9.53089C3.71257 9.72265 3.95101 9.89634 4.20722 10.0501C4.97738 10.5122 5.95565 10.8281 7.03362 10.9472C7.0753 10.607 7.15495 10.2785 7.26821 9.96606C6.26385 9.87187 5.3806 9.5879 4.72171 9.19257C3.897 8.69775 3.5 8.0838 3.5 7.5V6.03089C3.71257 6.22265 3.95101 6.39634 4.20722 6.55007C5.2021 7.147 6.54425 7.5 8 7.5C8.67196 7.5 9.31971 7.42479 9.92028 7.28509C10.1457 7.20055 10.3798 7.13358 10.6208 7.08585C11.0478 6.94078 11.4419 6.7606 11.7928 6.55007C12.049 6.39634 12.2874 6.22265 12.5 6.03089V7.11151C12.8506 7.19108 13.1857 7.31159 13.5 7.46776ZM3.5 4C3.5 3.60106 3.8364 3.10528 4.68807 2.67945C5.50984 2.26857 6.68008 2 8 2C9.31992 2 10.4902 2.26857 11.3119 2.67945C12.1636 3.10528 12.5 3.60106 12.5 4C12.5 4.5838 12.103 5.19775 11.2783 5.69257C10.4635 6.18143 9.30567 6.5 8 6.5C6.69433 6.5 5.53647 6.18143 4.72171 5.69257C3.897 5.19775 3.5 4.5838 3.5 4Z" fill="#0C0C0C"/>
<path fill-rule="evenodd" clip-rule="evenodd" d="M15 11.5C15 13.433 13.433 15 11.5 15C9.567 15 8 13.433 8 11.5C8 9.567 9.567 8 11.5 8C13.433 8 15 9.567 15 11.5ZM11.5 9.75C11.6381 9.75 11.75 9.86193 11.75 10V11.25H13C13.1381 11.25 13.25 11.3619 13.25 11.5C13.25 11.6381 13.1381 11.75 13 11.75H11.75V13C11.75 13.1381 11.6381 13.25 11.5 13.25C11.3619 13.25 11.25 13.1381 11.25 13V11.75H10C9.86193 11.75 9.75 11.6381 9.75 11.5C9.75 11.3619 9.86193 11.25 10 11.25H11.25V10C11.25 9.86193 11.3619 9.75 11.5 9.75Z" fill="#0C0C0C"/>
</svg>
