<svg width="16" height="16" viewBox="0 0 16 16" fill="none" xmlns="http://www.w3.org/2000/svg">
<path d="M2.34315 7.50001C2.067 7.50001 1.84315 7.72387 1.84315 8.00001C1.84315 8.27615 2.067 8.50001 2.34315 8.50001L7.49999 8.50001L7.49999 13.6569C7.49999 13.933 7.72385 14.1569 7.99999 14.1569C8.27614 14.1569 8.49999 13.933 8.5 13.6569L8.49999 8.50001L13.6569 8.50001C13.933 8.50001 14.1569 8.27615 14.1569 8.00001C14.1569 7.72387 13.933 7.50001 13.6569 7.50001L8.49999 7.50001L8.49999 2.34316C8.49999 2.06702 8.27614 1.84316 7.99999 1.84316C7.72385 1.84316 7.49999 2.06702 7.49999 2.34316L7.49999 7.50001L2.34315 7.50001Z" fill="#0C0C0C"/>
</svg>
