<svg width="16" height="16" viewBox="0 0 16 16" fill="none" xmlns="http://www.w3.org/2000/svg">
<path fill-rule="evenodd" clip-rule="evenodd" d="M5.5 4.5C5.5 3.11929 6.61929 2 8 2C9.38071 2 10.5 3.11929 10.5 4.5C10.5 5.88071 9.38071 7 8 7C6.61929 7 5.5 5.88071 5.5 4.5ZM8 1C6.067 1 4.5 2.567 4.5 4.5C4.5 5.68459 5.08849 6.73173 5.98907 7.365L4.17158 10.0912C3.95788 10.0318 3.73265 10 3.5 10C2.11929 10 1 11.1193 1 12.5C1 13.8807 2.11929 15 3.5 15C4.88071 15 6 13.8807 6 12.5C6 11.7124 5.63576 11.0098 5.06654 10.5516L6.88785 7.81961C7.23725 7.93661 7.61122 8 8 8C8.38878 8 8.76275 7.93661 9.11215 7.81961L10.9335 10.5516C10.3642 11.0098 10 11.7124 10 12.5C10 13.8807 11.1193 15 12.5 15C13.8807 15 15 13.8807 15 12.5C15 11.1193 13.8807 10 12.5 10C12.2673 10 12.0421 10.0318 11.8284 10.0912L10.0109 7.365C10.9115 6.73173 11.5 5.68459 11.5 4.5C11.5 2.567 9.933 1 8 1ZM3.5 11C2.67157 11 2 11.6716 2 12.5C2 13.3284 2.67157 14 3.5 14C4.32843 14 5 13.3284 5 12.5C5 11.6716 4.32843 11 3.5 11ZM12.5 11C11.6716 11 11 11.6716 11 12.5C11 13.3284 11.6716 14 12.5 14C13.3284 14 14 13.3284 14 12.5C14 11.6716 13.3284 11 12.5 11Z" fill="#0C0C0C"/>
</svg>
