<svg width="16" height="16" viewBox="0 0 16 16" fill="none" xmlns="http://www.w3.org/2000/svg">
<path d="M4 8C4 7.72386 3.77614 7.5 3.5 7.5C3.22386 7.5 3 7.72386 3 8H4ZM13 8C13 7.72386 12.7761 7.5 12.5 7.5C12.2239 7.5 12 7.72386 12 8H13ZM6.5 8C6.22386 8 6 8.22386 6 8.5C6 8.77614 6.22386 9 6.5 9V8ZM9.5 9C9.77614 9 10 8.77614 10 8.5C10 8.22386 9.77614 8 9.5 8V9ZM3.99813 13.5H12.0012V12.5H3.99813V13.5ZM4 12.5V8H3V12.5H4ZM13 12.5V8H12V12.5H13ZM12.0012 13.5C12.555 13.5 13 13.0507 13 12.5H12C12 12.5013 11.9998 12.5012 12.0001 12.5006C12.0002 12.5003 12.0002 12.5004 12 12.5006C11.9998 12.5008 11.9999 12.5006 12.0005 12.5003C12.0015 12.4999 12.0021 12.5 12.0012 12.5V13.5ZM3.99813 12.5C3.99724 12.5 3.99792 12.4999 3.99906 12.5004C3.99987 12.5008 4.00009 12.501 3.99998 12.5009C3.99986 12.5008 3.99989 12.5008 3.99999 12.501C4.00021 12.5015 4 12.5015 4 12.5H3C3 13.0498 3.4434 13.5 3.99813 13.5V12.5ZM2.5 3H13.5V2H2.5V3ZM13.5 3V5H14.5V3H13.5ZM13.5 5H2.5V6H13.5V5ZM2.5 5V3H1.5V5H2.5ZM2.5 5H2.5H1.5C1.5 5.55228 1.94772 6 2.5 6V5ZM13.5 5V6C14.0523 6 14.5 5.55228 14.5 5H13.5ZM13.5 3H14.5C14.5 2.44772 14.0523 2 13.5 2V3ZM2.5 2C1.94772 2 1.5 2.44772 1.5 3H2.5V3V2ZM6.5 9H9.5V8H6.5V9Z" fill="#0C0C0C"/>
</svg>
