<svg width="16" height="16" viewBox="0 0 16 16" fill="none" xmlns="http://www.w3.org/2000/svg">
<path d="M9.63945 10.3338C9.83076 10.5329 10.1473 10.5392 10.3464 10.3479C10.5455 10.1566 10.5519 9.84007 10.3606 9.64095L9.63945 10.3338ZM3.13945 7.84642C3.33077 8.04554 3.64729 8.05187 3.84642 7.86055C4.04554 7.66923 4.05187 7.35271 3.86055 7.15358L3.13945 7.84642ZM6.98161 2.98726L6.62755 3.34031L6.98161 2.98726ZM8.22334 8.08116L7.85444 8.41867L8.22334 8.08116ZM10.3606 9.64095C9.82099 9.07935 9.14674 8.34972 8.59224 7.74365L7.85444 8.41867C8.41006 9.02598 9.09106 9.763 9.63945 10.3338L10.3606 9.64095ZM5.75864 10.4273L8.6618 13.3533L9.37168 12.649L6.46851 9.72298L5.75864 10.4273ZM13.3622 8.67794L7.33567 2.63421L6.62755 3.34031L12.6541 9.38404L13.3622 8.67794ZM2.66555 7.35847C2.82562 7.52172 2.985 7.68567 3.13945 7.84642L3.86055 7.15358C3.70337 6.99 3.5416 6.82359 3.37958 6.65836L2.66555 7.35847ZM2.66201 2.63088C1.35444 3.93845 1.38301 6.05043 2.66555 7.35847L3.37958 6.65836C2.46886 5.72953 2.46152 4.24559 3.36912 3.33799L2.66201 2.63088ZM7.33567 2.63421C6.04653 1.3414 3.95299 1.33991 2.66201 2.63088L3.36912 3.33799C4.26917 2.43793 5.72878 2.43897 6.62755 3.34031L7.33567 2.63421ZM13.3505 13.3709C14.6516 12.079 14.6569 9.97629 13.3622 8.67794L12.6541 9.38404C13.5582 10.2907 13.5545 11.7591 12.6459 12.6612L13.3505 13.3709ZM8.6618 13.3533C9.95156 14.6532 12.051 14.6611 13.3505 13.3709L12.6459 12.6612C11.7384 13.5622 10.2723 13.5567 9.37168 12.649L8.6618 13.3533ZM5.73674 7.70533C5.00386 8.46814 5.01358 9.67639 5.75864 10.4273L6.46851 9.72298C6.10588 9.35749 6.10115 8.76942 6.45785 8.39815L5.73674 7.70533ZM8.59224 7.74365C7.83087 6.91145 6.52122 6.88883 5.73674 7.70533L6.45785 8.39815C6.83913 8.00131 7.48002 8.00942 7.85444 8.41867L8.59224 7.74365Z" fill="#0C0C0C"/>
</svg>
