<svg width="16" height="16" viewBox="0 0 16 16" fill="none" xmlns="http://www.w3.org/2000/svg">
<path d="M4.94645 7.54559C4.9307 8.04105 5.17832 8.26045 5.18444 8.39979C5.18153 8.42815 5.17186 8.4554 5.15626 8.47926C5.14066 8.50312 5.11957 8.5229 5.09476 8.53695L4.81476 8.73294C4.77853 8.75834 4.73581 8.77291 4.69161 8.77494C4.6822 8.7745 4.51245 8.81497 4.24362 8.21473C4.0796 8.41947 3.87091 8.58397 3.63352 8.69563C3.39613 8.80729 3.13635 8.86315 2.87404 8.85894C2.51793 8.87841 1.55282 8.65682 1.60247 7.62937C1.56769 6.792 2.34752 6.27183 3.15404 6.31579C3.30935 6.31623 3.62653 6.32389 4.18193 6.45295V6.11127C4.24077 5.53246 3.86037 5.08338 3.20173 5.15075C3.14923 5.15097 2.77736 5.13981 2.19899 5.3719C2.038 5.44584 2.01743 5.43359 1.96384 5.43359C1.80175 5.43359 1.86847 4.96372 1.89953 4.90422C2.0135 4.76422 2.68395 4.50282 3.34194 4.50654C3.7819 4.46763 4.21949 4.60341 4.56014 4.88453C4.69862 5.03943 4.80426 5.22078 4.87069 5.41763C4.93713 5.61449 4.96297 5.82277 4.94667 6.02989L4.94645 7.54559ZM3.05604 8.25411C3.76544 8.24383 4.06577 7.81727 4.13424 7.58759C4.18805 7.36775 4.17909 7.22862 4.17909 6.98822C3.96756 6.93747 3.66306 6.88213 3.31372 6.88169C2.98232 6.85675 2.37705 7.00485 2.40068 7.58737C2.37355 7.95464 2.64392 8.27423 3.05604 8.25411ZM6.79485 8.75832C6.62292 8.77407 6.54286 8.65201 6.51748 8.53148L5.42813 4.92982C5.40691 4.869 5.39291 4.80622 5.38613 4.74213C5.38211 4.71571 5.38875 4.68877 5.40458 4.66723C5.42041 4.6457 5.44414 4.63133 5.47056 4.62729C5.47581 4.62641 5.42397 4.62729 5.95727 4.62729C6.14933 4.60804 6.2119 4.75919 6.2318 4.85413L7.01316 7.93474L7.73853 4.85413C7.75012 4.78369 7.80284 4.61198 8.01852 4.63013H8.39389C8.44136 4.6262 8.63692 4.6192 8.67126 4.85697L9.40231 7.97695L10.2088 4.85697C10.2193 4.80929 10.2683 4.60826 10.4862 4.63013H10.9176C10.9362 4.62729 11.0521 4.61241 11.0324 4.81782C11.023 4.85829 11.107 4.58463 9.87852 8.53432C9.85337 8.65485 9.77309 8.77691 9.60115 8.76116H9.19232C8.95301 8.78632 8.91866 8.54985 8.91494 8.52601L8.18958 5.52634L7.47253 8.52295C7.46903 8.54679 7.43469 8.78325 7.19516 8.7581H6.79485V8.75832ZM12.7771 8.88147C12.6485 8.88169 12.0351 8.87491 11.5224 8.61263C11.4713 8.59101 11.4278 8.5547 11.3974 8.50832C11.367 8.46194 11.351 8.40757 11.3516 8.35211V8.11695C11.3516 7.93211 11.4872 7.96602 11.5447 7.98811C11.7643 8.07692 11.9052 8.1443 12.1749 8.19811C12.9766 8.36282 13.3292 8.1478 13.4157 8.10011C13.7033 7.92927 13.7261 7.53837 13.5305 7.33559C13.3012 7.14331 13.1919 7.13609 12.3683 6.87622C12.2668 6.848 11.4124 6.57851 11.4104 5.73087C11.3971 5.11313 11.9584 4.50195 12.9311 4.50698C13.2083 4.50676 13.9468 4.59732 14.1467 4.84866C14.1762 4.89438 14.1909 4.94819 14.1887 5.00266V5.22381C14.1887 5.32093 14.1533 5.3695 14.0822 5.3695C13.9135 5.35068 13.6143 5.12516 13.0068 5.13434C12.8561 5.12647 12.1342 5.15425 12.1666 5.68055C12.1572 6.0953 12.7487 6.25083 12.8163 6.26876C13.6138 6.50873 13.8805 6.54854 14.197 6.91582C14.5719 7.40253 14.3698 7.97236 14.2922 8.12855C13.8748 8.94863 12.7955 8.88191 12.7771 8.88147ZM13.6565 11.1752C12.1246 12.3066 9.90084 12.9088 8.00212 12.9088C5.44017 12.9257 2.96456 11.9837 1.06195 10.2679C0.919108 10.139 1.04511 9.96252 1.21879 10.0607C3.32935 11.268 5.71896 11.9024 8.15043 11.9008C9.96618 11.8911 11.7621 11.5227 13.4351 10.8169C13.6928 10.7076 13.9113 10.9876 13.6565 11.1752ZM14.295 10.447C14.099 10.195 12.9983 10.3294 12.5054 10.3882C12.3569 10.405 12.3318 10.2762 12.4663 10.181C13.3428 9.56484 14.7824 9.74136 14.9478 9.94852C15.1129 10.1557 14.9029 11.5981 14.0824 12.2871C13.9564 12.3937 13.8359 12.3374 13.8919 12.1975C14.0765 11.7326 14.491 10.6993 14.295 10.447Z" fill="#0C0C0C"/>
</svg>
