<svg width="24" height="24" viewBox="0 0 24 24" fill="none" xmlns="http://www.w3.org/2000/svg">
<path d="M8.94543 3.36332H14.37L8.73876 20.0481C8.68088 20.2196 8.5707 20.3685 8.42371 20.4741C8.27672 20.5796 8.10034 20.6364 7.91938 20.6364H3.69772C3.56062 20.6365 3.42548 20.6038 3.30349 20.5413C3.1815 20.4787 3.07616 20.388 2.99619 20.2766C2.91622 20.1652 2.86392 20.0364 2.84361 19.9008C2.82329 19.7652 2.83556 19.6268 2.87938 19.4969L8.12584 3.95165C8.1837 3.78013 8.2939 3.63108 8.44093 3.5255C8.58796 3.41992 8.76441 3.36333 8.94543 3.36332Z" fill="url(#paint0_linear_2407_4297)"/>
<path d="M16.8281 14.5544H8.22605C8.14608 14.5543 8.06793 14.5783 8.00179 14.6232C7.93565 14.6682 7.88459 14.732 7.85525 14.8064C7.82591 14.8808 7.81965 14.9623 7.8373 15.0403C7.85494 15.1183 7.89567 15.1892 7.95418 15.2437L13.4817 20.4029C13.6426 20.553 13.8545 20.6365 14.0746 20.6364H18.9454L16.8281 14.5544Z" fill="#0078D4"/>
<path d="M8.94543 3.36332C8.76244 3.36262 8.58402 3.42044 8.43623 3.52835C8.28844 3.63626 8.17902 3.7886 8.12397 3.96311L2.88584 19.4827C2.83907 19.6131 2.82438 19.7528 2.84303 19.8901C2.86168 20.0273 2.91311 20.1581 2.99297 20.2712C3.07284 20.3844 3.17879 20.4767 3.30186 20.5403C3.42492 20.6038 3.56149 20.6368 3.70001 20.6364H8.03064C8.19193 20.6076 8.34268 20.5365 8.46749 20.4304C8.5923 20.3242 8.6867 20.1868 8.74105 20.0323L9.78563 16.9537L13.5169 20.4339C13.6732 20.5633 13.8694 20.6348 14.0723 20.6364H18.925L16.7967 14.5544L10.5923 14.5558L14.3896 3.36332L8.94543 3.36332Z" fill="#0C0C0C"/>
<path d="M15.874 3.95082C15.8162 3.77958 15.7062 3.63077 15.5593 3.52538C15.4125 3.41998 15.2364 3.3633 15.0556 3.36332H9.01001C9.19073 3.36333 9.36689 3.42002 9.51369 3.52541C9.6605 3.63081 9.77054 3.77959 9.82834 3.95082L15.075 19.4967C15.1189 19.6266 15.1312 19.7651 15.1109 19.9007C15.0906 20.0363 15.0383 20.1652 14.9583 20.2766C14.8783 20.388 14.773 20.4788 14.651 20.5414C14.529 20.604 14.3938 20.6366 14.2567 20.6367H20.3025C20.4396 20.6366 20.5748 20.6039 20.6967 20.5413C20.8187 20.4787 20.924 20.3879 21.004 20.2765C21.0839 20.1651 21.1362 20.0363 21.1565 19.9007C21.1768 19.7651 21.1645 19.6266 21.1206 19.4967L15.874 3.95082Z" fill="#0C0C0C"/>
<defs>
<linearGradient id="paint0_linear_2407_4297" x1="15.6875" y1="4.64352" x2="11.9078" y2="22.3882" gradientUnits="userSpaceOnUse">
<stop stop-color="#114A8B"/>
<stop offset="1" stop-color="#0669BC"/>
</linearGradient>
</defs>
</svg>
