<svg width="16" height="16" viewBox="0 0 16 16" fill="none" xmlns="http://www.w3.org/2000/svg">
<path d="M3.5 3C3.5 2.17157 4.17157 1.5 5 1.5C5.82843 1.5 6.5 2.17157 6.5 3V4.5C6.5 5.32843 5.82843 6 5 6C4.17157 6 3.5 5.32843 3.5 4.5V3Z" stroke="#0C0C0C"/>
<path d="M9.5 11.5C9.5 10.6716 10.1716 10 11 10C11.8284 10 12.5 10.6716 12.5 11.5V13C12.5 13.8284 11.8284 14.5 11 14.5C10.1716 14.5 9.5 13.8284 9.5 13V11.5Z" stroke="#0C0C0C"/>
<path d="M3.5 8C3.5 7.17157 4.17157 6.5 5 6.5C5.82843 6.5 6.5 7.17157 6.5 8V13C6.5 13.8284 5.82843 14.5 5 14.5C4.17157 14.5 3.5 13.8284 3.5 13V8Z" stroke="#0C0C0C"/>
<path d="M9.5 3C9.5 2.17157 10.1716 1.5 11 1.5C11.8284 1.5 12.5 2.17157 12.5 3V8C12.5 8.82843 11.8284 9.5 11 9.5C10.1716 9.5 9.5 8.82843 9.5 8V3Z" stroke="#0C0C0C"/>
</svg>
