<svg width="17" height="16" viewBox="0 0 17 16" fill="none" xmlns="http://www.w3.org/2000/svg">
<path d="M14.2502 3.86563L9.83789 1.24447C9.31365 0.927747 8.65835 0.927747 8.13411 1.24447L3.72176 3.86563C3.19752 4.18235 2.86987 4.76119 2.86987 5.38371V10.626C2.86987 11.2485 3.19752 11.8274 3.72176 12.1441L8.13411 14.7653C8.39623 14.9182 8.69112 14.9946 8.986 14.9946C9.28089 14.9946 9.57577 14.9182 9.83789 14.7653L14.2502 12.1441C14.7745 11.8274 15.1021 11.2485 15.1021 10.626V5.38371C15.1021 4.76119 14.7854 4.18235 14.2502 3.86563Z" fill="white"/>
<path d="M14.249 3.86778L9.83667 1.24662C9.57455 1.09372 9.27967 1.01727 8.98478 1.01727C8.6899 1.01727 8.39501 1.09372 8.13289 1.24662L3.72054 3.86778C3.1963 4.1845 2.86865 4.76334 2.86865 5.38587V10.6282C2.86865 11.2507 3.1963 11.8295 3.72054 12.1463L8.13289 14.7674C8.39501 14.9203 8.6899 14.9968 8.98478 14.9968C9.27967 14.9968 9.57455 14.9203 9.83667 14.7674L14.249 12.1463C14.7733 11.8295 15.1009 11.2507 15.1009 10.6282V5.38587C15.1009 4.76334 14.7842 4.1845 14.249 3.86778ZM8.2858 14.4944L3.87345 11.8732C3.43658 11.622 3.17446 11.1415 3.17446 10.6282V5.38587C3.17446 4.87256 3.4475 4.39201 3.87345 4.14082L8.2858 1.51966C8.49331 1.3886 8.73359 1.32307 8.98478 1.32307C9.22506 1.32307 9.46534 1.3886 9.68377 1.51966L14.0961 4.14082C14.4565 4.35925 14.7077 4.73058 14.7733 5.14559C14.6313 4.82887 14.2927 4.75242 13.9105 4.97085L9.73838 7.55924C9.21414 7.86504 8.83188 8.20361 8.83188 8.83705V13.9811C8.83188 14.3524 8.98478 14.6036 9.21414 14.6691C9.13769 14.68 9.06124 14.691 8.98478 14.691C8.74451 14.691 8.50423 14.6145 8.2858 14.4944Z" fill="#283037"/>
<path d="M13.0928 11.1288L11.989 11.7845C11.9562 11.8064 11.9343 11.8173 11.9343 11.861V12.1452C11.9343 12.178 11.9562 12.1998 11.989 12.178L13.1037 11.5004C13.1365 11.4785 13.1365 11.4457 13.1365 11.4129V11.1616C13.1475 11.1288 13.1256 11.1179 13.0928 11.1288Z" fill="#4DA825"/>
<path d="M10.7545 8.71516C10.7873 8.69331 10.82 8.71516 10.82 8.76976V9.15202C10.9839 9.08649 11.1149 9.07557 11.246 9.09741C11.2678 9.10833 11.2897 9.1411 11.2788 9.18478L11.1914 9.52335C11.1805 9.54519 11.1695 9.57795 11.1586 9.58888C11.1477 9.5998 11.1477 9.5998 11.1368 9.5998C11.1258 9.61072 11.1149 9.61072 11.104 9.5998C11.0494 9.58888 10.9074 9.55611 10.6999 9.66533C10.4705 9.77454 10.3941 9.97113 10.3941 10.1131C10.3941 10.2879 10.4815 10.3425 10.7873 10.3425C11.1914 10.3534 11.3661 10.5281 11.377 10.9431C11.377 11.3472 11.1695 11.7841 10.8419 12.0462L10.8528 12.4175C10.8528 12.4612 10.82 12.5158 10.7873 12.5377L10.5688 12.6687C10.5361 12.6906 10.5033 12.6687 10.5033 12.6141V12.2428C10.3176 12.3192 10.1211 12.3411 9.98999 12.2865C9.96815 12.2756 9.95723 12.2428 9.96815 12.1991L10.0446 11.8605C10.0555 11.8387 10.0664 11.8059 10.0883 11.795C10.0992 11.7841 10.0992 11.7841 10.1101 11.7841C10.1211 11.7732 10.132 11.7732 10.1429 11.7841C10.274 11.8278 10.4487 11.8059 10.6125 11.7295C10.82 11.6203 10.962 11.4128 10.962 11.2053C10.962 11.0087 10.8528 10.9322 10.6016 10.9322C10.2849 10.9322 9.97907 10.8667 9.97907 10.3971C9.97907 10.0039 10.1757 9.5998 10.4924 9.3486V8.96635C10.4924 8.92267 10.5252 8.86806 10.5579 8.84621L10.7545 8.71516Z" fill="white"/>
</svg>
