<svg width="16" height="16" viewBox="0 0 16 16" fill="none" xmlns="http://www.w3.org/2000/svg">
<path fill-rule="evenodd" clip-rule="evenodd" d="M3.58211 11.8576C3.32091 12.179 2.84856 12.2279 2.52708 11.9667C2.2056 11.7055 2.15674 11.2331 2.41794 10.9117L5.03367 7.69231L2.41794 4.47294C2.15674 4.15146 2.2056 3.67911 2.52708 3.41791C2.84856 3.15671 3.32091 3.20558 3.58211 3.52705L6.58211 7.21936C6.806 7.49491 6.806 7.8897 6.58211 8.16525L3.58211 11.8576ZM12.4179 11.8576C12.6791 12.179 13.1515 12.2279 13.473 11.9667C13.7944 11.7055 13.8433 11.2331 13.5821 10.9117L10.9664 7.69231L13.5821 4.47294C13.8433 4.15146 13.7944 3.67911 13.473 3.41791C13.1515 3.15671 12.6791 3.20558 12.4179 3.52705L9.41794 7.21936C9.19405 7.49491 9.19405 7.8897 9.41794 8.16525L12.4179 11.8576Z" fill="#0C0C0C"/>
</svg>
