<svg width="16" height="16" viewBox="0 0 16 16" fill="none" xmlns="http://www.w3.org/2000/svg">
<path fill-rule="evenodd" clip-rule="evenodd" d="M6.00001 4V3.50002C6.00001 3.22387 6.22386 3.00002 6.50001 3.00002H9.50001C9.77615 3.00002 10 3.22387 10 3.50002V4H6.00001ZM5.00001 5V5.00002H6.00001V5H10V5.00002H11V5H11.5V12.5C11.5 13.3284 10.8284 14 10 14H6.00001C5.17158 14 4.50001 13.3284 4.50001 12.5V5.00001L5.00001 5ZM5.00001 4V3.50002C5.00001 2.67159 5.67158 2.00002 6.50001 2.00002H9.50001C10.3284 2.00002 11 2.67159 11 3.50002V4H13C13.2761 4 13.5 4.22386 13.5 4.5C13.5 4.77615 13.2761 5 13 5H12.5V12.5C12.5 13.8807 11.3807 15 10 15H6.00001C4.61929 15 3.50001 13.8807 3.50001 12.5V5.00001L3 5C2.72386 5 2.5 4.77615 2.5 4.5C2.5 4.22386 2.72386 4 3 4H5.00001Z" fill="#0C0C0C"/>
</svg>
