<svg width="16" height="16" viewBox="0 0 16 16" fill="none" xmlns="http://www.w3.org/2000/svg">
<path d="M1.45413 2.00004C1.3887 1.99923 1.32388 2.01209 1.26421 2.03772C1.20455 2.06335 1.15149 2.10113 1.10876 2.14839C1.06604 2.19566 1.03468 2.25127 1.01689 2.31133C0.999098 2.37138 0.995307 2.43442 1.00578 2.49602L2.91126 13.5147C2.93497 13.6495 3.00774 13.7721 3.1168 13.8608C3.22585 13.9496 3.3642 13.9988 3.50756 14H12.6404C12.7479 14.0013 12.8522 13.9657 12.9345 13.8998C13.0168 13.8339 13.0716 13.742 13.0887 13.6408L14.9942 2.5003C15.0047 2.4387 15.0009 2.37566 14.9831 2.3156C14.9653 2.25555 14.934 2.19994 14.8912 2.15267C14.8485 2.1054 14.7955 2.06763 14.7358 2.042C14.6761 2.01637 14.6113 2.00351 14.5459 2.00431L1.45413 2.00004ZM9.46834 9.96151H6.55408L5.76499 6.0278H10.1745L9.46834 9.96151Z" fill="#0C0C0C"/>
</svg>
