<svg width="16" height="16" viewBox="0 0 16 16" fill="none" xmlns="http://www.w3.org/2000/svg">
<path fill-rule="evenodd" clip-rule="evenodd" d="M2.02513 5.56066C0.658291 6.9275 0.658291 9.14357 2.02513 10.5104L5.56066 14.0459C6.9275 15.4128 9.14357 15.4128 10.5104 14.0459L14.0459 10.5104C15.4128 9.14357 15.4128 6.9275 14.0459 5.56066L10.5104 2.02513C9.14357 0.658291 6.9275 0.658291 5.56066 2.02513L2.02513 5.56066ZM7.18198 2.96011L3.30437 6.83772C2.64282 7.49927 2.64282 8.57186 3.30438 9.23342L7.18198 13.111C7.49696 13.426 8.03553 13.2029 8.03553 12.7575L8.03553 3.31367C8.03553 2.86821 7.49696 2.64513 7.18198 2.96011Z" fill="#0C0C0C"/>
</svg>
