<svg width="16" height="16" viewBox="0 0 16 16" fill="none" xmlns="http://www.w3.org/2000/svg">
<path fill-rule="evenodd" clip-rule="evenodd" d="M4 1.75C3.17157 1.75 2.5 2.42157 2.5 3.25C2.5 4.07843 3.17157 4.75 4 4.75C4.82843 4.75 5.5 4.07843 5.5 3.25C5.5 2.42157 4.82843 1.75 4 1.75ZM6.5 3.25C6.5 4.45948 5.64112 5.46836 4.5 5.69999L4.5 8.01774C4.90939 7.71483 5.41592 7.53571 5.96429 7.53571H10.6383C11.1142 7.53571 11.5 7.14992 11.5 6.67401V5.69999C10.3589 5.46836 9.5 4.45948 9.5 3.25C9.5 1.86929 10.6193 0.75 12 0.75C13.3807 0.75 14.5 1.86929 14.5 3.25C14.5 4.45948 13.6411 5.46836 12.5 5.69999V6.67401C12.5 7.7022 11.6665 8.53571 10.6383 8.53571H5.96429C5.15586 8.53571 4.50044 9.19086 4.5 9.99918C4.5 9.99946 4.5 9.99973 4.5 10L4.5 10.3C5.64112 10.5316 6.5 11.5405 6.5 12.75C6.5 14.1307 5.38071 15.25 4 15.25C2.61929 15.25 1.5 14.1307 1.5 12.75C1.5 11.5405 2.35888 10.5316 3.5 10.3L3.5 10C3.5 9.99965 3.5 9.99929 3.5 9.99894L3.5 5.69999C2.35888 5.46836 1.5 4.45948 1.5 3.25C1.5 1.86929 2.61929 0.75 4 0.75C5.38071 0.75 6.5 1.86929 6.5 3.25ZM12 1.75C11.1716 1.75 10.5 2.42157 10.5 3.25C10.5 4.07843 11.1716 4.75 12 4.75C12.8284 4.75 13.5 4.07843 13.5 3.25C13.5 2.42157 12.8284 1.75 12 1.75ZM2.5 12.75C2.5 11.9216 3.17157 11.25 4 11.25C4.82843 11.25 5.5 11.9216 5.5 12.75C5.5 13.5784 4.82843 14.25 4 14.25C3.17157 14.25 2.5 13.5784 2.5 12.75Z" fill="#0C0C0C"/>
</svg>
