<svg width="16" height="16" viewBox="0 0 16 16" fill="none" xmlns="http://www.w3.org/2000/svg">
<path fill-rule="evenodd" clip-rule="evenodd" d="M4.5 4V2.5C4.5 2.22386 4.72386 2 5 2C5.27614 2 5.5 2.22386 5.5 2.5V4H10.5V2.5C10.5 2.22386 10.7239 2 11 2C11.2761 2 11.5 2.22386 11.5 2.5V4H12C13.1046 4 14 4.89543 14 6V7.75V8.75V13C14 14.1046 13.1046 15 12 15H4C2.89543 15 2 14.1046 2 13V8.75V7.75V6C2 4.89543 2.89543 4 4 4H4.5ZM4 5H12C12.5523 5 13 5.44772 13 6V7.75H3V6C3 5.44772 3.44772 5 4 5ZM13 8.75V13C13 13.5523 12.5523 14 12 14H4C3.44772 14 3 13.5523 3 13V8.75H13Z" fill="#0C0C0C"/>
</svg>
