<svg width="16" height="16" viewBox="0 0 16 16" fill="none" xmlns="http://www.w3.org/2000/svg">
<path fill-rule="evenodd" clip-rule="evenodd" d="M4.5 3V1.5C4.5 1.22386 4.72386 1 5 1C5.27614 1 5.5 1.22386 5.5 1.5V3H10.5V1.5C10.5 1.22386 10.7239 1 11 1C11.2761 1 11.5 1.22386 11.5 1.5V3H12C13.1046 3 14 3.89543 14 5V6.75V7.75V12C14 13.1046 13.1046 14 12 14H4C2.89543 14 2 13.1046 2 12V7.75V6.75V5C2 3.89543 2.89543 3 4 3H4.5ZM4 4H12C12.5523 4 13 4.44772 13 5V6.75H3V5C3 4.44772 3.44772 4 4 4ZM13 7.75V12C13 12.5523 12.5523 13 12 13H4C3.44772 13 3 12.5523 3 12V7.75H13Z" fill="#0C0C0C"/>
</svg>
