<svg width="16" height="16" viewBox="0 0 16 16" fill="none" xmlns="http://www.w3.org/2000/svg">
<path fill-rule="evenodd" clip-rule="evenodd" d="M14 8C14 11.3137 11.3137 14 8 14C4.68629 14 2 11.3137 2 8C2 4.68629 4.68629 2 8 2C11.3137 2 14 4.68629 14 8ZM15 8C15 11.866 11.866 15 8 15C4.13401 15 1 11.866 1 8C1 4.13401 4.13401 1 8 1C11.866 1 15 4.13401 15 8ZM10.6517 9.59099L6.40901 5.34835C6.11612 5.05546 5.64124 5.05546 5.34835 5.34835C5.05546 5.64124 5.05546 6.11612 5.34835 6.40901L9.59099 10.6516C9.88388 10.9445 10.3588 10.9445 10.6516 10.6516C10.9445 10.3588 10.9445 9.88388 10.6517 9.59099Z" fill="#0C0C0C"/>
</svg>
