<svg width="16" height="16" viewBox="0 0 16 16" fill="none" xmlns="http://www.w3.org/2000/svg">
<path fill-rule="evenodd" clip-rule="evenodd" d="M7.14747 2.30293L4.79801 6.14294C4.53906 6.55978 4.84222 7.10294 5.33485 7.10294H10.0274C10.5201 7.10294 10.8232 6.55978 10.5643 6.14294L8.22115 2.30293C8.16532 2.21048 8.08656 2.13403 7.99251 2.08096C7.89846 2.02789 7.7923 2 7.68431 2C7.57632 2 7.47015 2.02789 7.3761 2.08096C7.28205 2.13403 7.2033 2.21048 7.14747 2.30293ZM11.1579 14.0503C12.7275 14.0503 14 12.7779 14 11.2082C14 9.63855 12.7275 8.36609 11.1579 8.36609C9.58824 8.36609 8.3158 9.63855 8.3158 11.2082C8.3158 12.7779 9.58824 14.0503 11.1579 14.0503ZM6.42102 13.7345H2.63157C2.28421 13.7345 2 13.4503 2 13.103V9.31347C2 8.9661 2.28421 8.68188 2.63157 8.68188H6.42102C6.76839 8.68188 7.0526 8.9661 7.0526 9.31347V13.103C7.0526 13.4503 6.76839 13.7345 6.42102 13.7345Z" fill="#0C0C0C"/>
</svg>
