<svg width="16" height="16" viewBox="0 0 16 16" fill="none" xmlns="http://www.w3.org/2000/svg">
<path d="M6.14417 11.3513L3.14645 8.35354C2.95118 8.15828 2.95118 7.8417 3.14645 7.64644C3.34171 7.45118 3.65829 7.45118 3.85355 7.64644L6.51387 10.3068L12.6609 4.6326C12.8638 4.4453 13.1801 4.45795 13.3674 4.66086C13.5547 4.86377 13.5421 5.1801 13.3391 5.3674L6.83914 11.3674C6.83765 11.3688 6.83614 11.3702 6.83463 11.3715C6.72453 11.4707 6.58209 11.5121 6.44512 11.497C6.39642 11.4916 6.34835 11.4792 6.30262 11.4595C6.24481 11.4347 6.19084 11.3986 6.14417 11.3513Z" fill="#0C0C0C"/>
</svg>
