<svg width="16" height="16" viewBox="0 0 16 16" fill="none" xmlns="http://www.w3.org/2000/svg">
<path fill-rule="evenodd" clip-rule="evenodd" d="M15 8C15 11.866 11.866 15 8 15C4.13401 15 1 11.866 1 8C1 4.13401 4.13401 1 8 1C11.866 1 15 4.13401 15 8ZM4.64645 7.64645C4.84171 7.45118 5.15829 7.45118 5.35355 7.64645L7 9.29289L10.1464 6.14645C10.3417 5.95118 10.6583 5.95118 10.8536 6.14645C11.0488 6.34171 11.0488 6.65829 10.8536 6.85355L7.35355 10.3536C7.15829 10.5488 6.84171 10.5488 6.64645 10.3536L4.64645 8.35355C4.45118 8.15829 4.45118 7.84171 4.64645 7.64645Z" fill="#0C0C0C"/>
</svg>
