<svg width="16" height="16" viewBox="0 0 16 16" fill="none" xmlns="http://www.w3.org/2000/svg">
<path fill-rule="evenodd" clip-rule="evenodd" d="M3.31662 3.11304C3.1029 2.93817 2.78788 2.96967 2.61302 3.1834C2.43816 3.39712 2.46966 3.71213 2.68338 3.88699L7.71041 8.00002L2.68338 12.113C2.46966 12.2879 2.43816 12.6029 2.61302 12.8166C2.78788 13.0304 3.1029 13.0619 3.31662 12.887L8.81662 8.38699C8.93269 8.29203 9 8.14998 9 8.00002C9 7.85005 8.93269 7.708 8.81662 7.61304L3.31662 3.11304ZM7.81662 3.11304C7.6029 2.93817 7.28788 2.96967 7.11302 3.1834C6.93816 3.39712 6.96966 3.71213 7.18338 3.88699L11.7374 7.61304C11.9819 7.81309 11.9819 8.18694 11.7374 8.38699L7.18338 12.113C6.96966 12.2879 6.93816 12.6029 7.11302 12.8166C7.28788 13.0304 7.6029 13.0619 7.81662 12.887L12.3707 9.16095C13.1042 8.56079 13.1042 7.43924 12.3707 6.83908L7.81662 3.11304Z" fill="#0C0C0C"/>
</svg>
