<svg width="16" height="16" viewBox="0 0 16 16" fill="none" xmlns="http://www.w3.org/2000/svg">
<path fill-rule="evenodd" clip-rule="evenodd" d="M12.1042 3.11313C12.3179 2.93826 12.6329 2.96977 12.8078 3.18349C12.9826 3.39721 12.9511 3.71222 12.7374 3.88709L7.71038 8.00011L12.7374 12.1131C12.9511 12.288 12.9826 12.603 12.8078 12.8167C12.6329 13.0304 12.3179 13.0619 12.1042 12.8871L6.60417 8.38709C6.4881 8.29212 6.42079 8.15007 6.42079 8.00011C6.42079 7.85014 6.4881 7.70809 6.60417 7.61313L12.1042 3.11313ZM7.60417 3.11313C7.8179 2.93826 8.13291 2.96977 8.30777 3.18349C8.48263 3.39721 8.45113 3.71222 8.23741 3.88709L3.68336 7.61313C3.43885 7.81318 3.43885 8.18703 3.68336 8.38709L8.23741 12.1131C8.45113 12.288 8.48263 12.603 8.30777 12.8167C8.13291 13.0304 7.8179 13.0619 7.60417 12.8871L3.05012 9.16104C2.3166 8.56089 2.3166 7.43933 3.05012 6.83917L7.60417 3.11313Z" fill="#0C0C0C"/>
</svg>
