<svg width="16" height="16" viewBox="0 0 16 16" fill="none" xmlns="http://www.w3.org/2000/svg">
<path fill-rule="evenodd" clip-rule="evenodd" d="M12.1041 3.11313C12.3179 2.93826 12.6329 2.96977 12.8077 3.18349C12.9826 3.39721 12.9511 3.71222 12.7374 3.88709L7.71035 8.00011L12.7374 12.1131C12.9511 12.288 12.9826 12.603 12.8077 12.8167C12.6329 13.0304 12.3179 13.0619 12.1041 12.8871L6.60414 8.38709C6.48807 8.29212 6.42076 8.15007 6.42076 8.00011C6.42076 7.85014 6.48807 7.70809 6.60414 7.61313L12.1041 3.11313ZM7.60414 3.11313C7.81786 2.93826 8.13288 2.96977 8.30774 3.18349C8.4826 3.39721 8.4511 3.71222 8.23738 3.88709L3.68333 7.61313C3.43882 7.81318 3.43882 8.18703 3.68333 8.38709L8.23738 12.1131C8.4511 12.288 8.4826 12.603 8.30774 12.8167C8.13288 13.0304 7.81786 13.0619 7.60414 12.8871L3.05009 9.16104C2.31657 8.56089 2.31657 7.43933 3.05009 6.83917L7.60414 3.11313Z" fill="#0C0C0C"/>
</svg>
