<svg width="16" height="16" viewBox="0 0 16 16" fill="none" xmlns="http://www.w3.org/2000/svg">
<path fill-rule="evenodd" clip-rule="evenodd" d="M3.31663 3.11302C3.10291 2.93816 2.7879 2.96966 2.61304 3.18338C2.43817 3.3971 2.46967 3.71211 2.6834 3.88698L7.71042 8L2.6834 12.113C2.46967 12.2879 2.43817 12.6029 2.61304 12.8166C2.7879 13.0303 3.10291 13.0618 3.31663 12.887L8.81663 8.38698C8.9327 8.29201 9.00002 8.14997 9.00002 8C9.00002 7.85003 8.9327 7.70799 8.81663 7.61302L3.31663 3.11302ZM7.81663 3.11302C7.60291 2.93816 7.2879 2.96966 7.11304 3.18338C6.93817 3.3971 6.96967 3.71211 7.1834 3.88698L11.7374 7.61302C11.982 7.81307 11.982 8.18693 11.7374 8.38698L7.1834 12.113C6.96967 12.2879 6.93817 12.6029 7.11304 12.8166C7.2879 13.0303 7.60291 13.0618 7.81663 12.887L12.3707 9.16094C13.1042 8.56078 13.1042 7.43922 12.3707 6.83906L7.81663 3.11302Z" fill="#0C0C0C"/>
</svg>
