<svg width="16" height="16" viewBox="0 0 16 16" fill="none" xmlns="http://www.w3.org/2000/svg">
<path fill-rule="evenodd" clip-rule="evenodd" d="M8 14C11.3137 14 14 11.3137 14 8C14 4.68629 11.3137 2 8 2C4.68629 2 2 4.68629 2 8C2 11.3137 4.68629 14 8 14ZM8 15C11.866 15 15 11.866 15 8C15 4.13401 11.866 1 8 1C4.13401 1 1 4.13401 1 8C1 11.866 4.13401 15 8 15ZM7.5 8.48911C7.49949 8.51328 7.50075 8.53736 7.5037 8.56117C7.51265 8.63449 7.53747 8.70292 7.57462 8.7629C7.62522 8.8446 7.6987 8.91064 7.78611 8.95207L9.77639 9.94721C10.0234 10.0707 10.3237 9.9706 10.4472 9.72361C10.5707 9.47662 10.4706 9.17628 10.2236 9.05279L8.5 8.19098V4.99999C8.5 4.72385 8.27614 4.49999 8 4.49999C7.72386 4.49999 7.5 4.72385 7.5 4.99999V8.48911Z" fill="#0C0C0C"/>
</svg>
