<svg width="16" height="16" viewBox="0 0 16 16" fill="none" xmlns="http://www.w3.org/2000/svg">
<path fill-rule="evenodd" clip-rule="evenodd" d="M14 8C14 11.3137 11.3137 14 8 14C4.68629 14 2 11.3137 2 8C2 4.68629 4.68629 2 8 2C11.3137 2 14 4.68629 14 8ZM15 8C15 11.866 11.866 15 8 15C4.13401 15 1 11.866 1 8C1 4.13401 4.13401 1 8 1C11.866 1 15 4.13401 15 8ZM5.83638 10.2066C5.64304 10.0094 5.64304 9.68977 5.83638 9.4926L7.29989 8.00006L5.83639 6.50752C5.64305 6.31035 5.64305 5.99068 5.83639 5.79351C6.02973 5.59634 6.34318 5.59634 6.53652 5.79351L8.00002 7.28604L9.46352 5.79351C9.65685 5.59634 9.97031 5.59634 10.1636 5.79351C10.357 5.99068 10.357 6.31035 10.1636 6.50752L8.70015 8.00006L10.1637 9.4926C10.357 9.68977 10.357 10.0094 10.1637 10.2066C9.97032 10.4038 9.65686 10.4038 9.46353 10.2066L8.00002 8.71407L6.53651 10.2066C6.34317 10.4038 6.02971 10.4038 5.83638 10.2066Z" fill="#0C0C0C"/>
</svg>
