<svg width="16" height="16" viewBox="0 0 16 16" fill="none" xmlns="http://www.w3.org/2000/svg">
<path d="M3.64645 11.6464C3.45118 11.8417 3.45118 12.1583 3.64645 12.3535C3.84171 12.5488 4.15829 12.5488 4.35355 12.3535L8 8.7071L11.6464 12.3535C11.8417 12.5488 12.1583 12.5488 12.3536 12.3535C12.5488 12.1583 12.5488 11.8417 12.3536 11.6464L8.7071 7.99999L12.3536 4.35354C12.5488 4.15828 12.5488 3.84169 12.3536 3.64643C12.1583 3.45117 11.8417 3.45117 11.6464 3.64643L8 7.29288L4.35355 3.64644C4.15829 3.45118 3.84171 3.45118 3.64645 3.64644C3.45118 3.8417 3.45118 4.15828 3.64645 4.35355L7.29289 7.99999L3.64645 11.6464Z" fill="#0C0C0C"/>
</svg>
