<svg width="16" height="16" viewBox="0 0 16 16" fill="none" xmlns="http://www.w3.org/2000/svg">
<path fill-rule="evenodd" clip-rule="evenodd" d="M8 15C11.866 15 15 11.866 15 8C15 4.13401 11.866 1 8 1C4.13401 1 1 4.13401 1 8C1 11.866 4.13401 15 8 15ZM5.83641 10.2066C5.64307 10.0094 5.64307 9.68977 5.83641 9.4926L7.29992 8.00006L5.83642 6.50752C5.64309 6.31035 5.64309 5.99068 5.83642 5.79351C6.02976 5.59634 6.34321 5.59634 6.53655 5.79351L8.00005 7.28604L9.46355 5.79351C9.65688 5.59634 9.97034 5.59634 10.1637 5.79351C10.357 5.99068 10.357 6.31035 10.1637 6.50752L8.70018 8.00006L10.1637 9.4926C10.357 9.68977 10.357 10.0094 10.1637 10.2066C9.97035 10.4038 9.65689 10.4038 9.46356 10.2066L8.00005 8.71407L6.53654 10.2066C6.3432 10.4038 6.02974 10.4038 5.83641 10.2066Z" fill="#0C0C0C"/>
</svg>
