<svg width="16" height="16" viewBox="0 0 16 16" fill="none" xmlns="http://www.w3.org/2000/svg">
<path fill-rule="evenodd" clip-rule="evenodd" d="M8.5 1.5C7.13102 1.5 5.99666 1.99644 5.20594 2.82676C4.50385 3.564 4.09481 4.54092 4.01461 5.60832C2.00312 6.05784 0.5 7.85305 0.5 10C0.5 12.4853 2.51472 14.5 5 14.5H7C7.27614 14.5 7.5 14.2761 7.5 14C7.5 13.7239 7.27614 13.5 7 13.5H5C3.067 13.5 1.5 11.933 1.5 10C1.5 8.21551 2.83593 6.74227 4.56199 6.52709L5.00201 6.47223L5.00013 6.0288L5 6V5.99896C5.00024 5.00909 5.33878 4.13732 5.9301 3.51639C6.51806 2.89899 7.3837 2.5 8.5 2.5C10.7661 2.5 12.5 4.12074 12.5 6V6.5V7H13H15C15.2761 7 15.5 6.77614 15.5 6.5C15.5 6.22386 15.2761 6 15 6H13.5C13.5 3.46098 11.2044 1.5 8.5 1.5ZM11.8237 9.89869C11.2855 9.36047 10.4105 9.36818 9.88188 9.9158C9.36624 10.4499 9.37372 11.2988 9.89869 11.8237L10.1151 12.0401C10.3104 12.2354 10.3104 12.552 10.1151 12.7472C9.91983 12.9425 9.60324 12.9425 9.40798 12.7472L9.19158 12.5308C8.28094 11.6202 8.26797 10.1478 9.16242 9.22126C10.0794 8.27134 11.5972 8.25796 12.5308 9.19158L12.7009 9.3616C12.8961 9.55686 12.8961 9.87344 12.7009 10.0687C12.5056 10.264 12.189 10.264 11.9937 10.0687L11.8237 9.89869ZM13.9748 12.0497C14.5486 12.6235 14.4723 13.5747 13.8143 14.0497L13.7728 14.0797C13.2311 14.4707 12.4858 14.4109 12.0135 13.9385L11.6246 13.5496C11.4293 13.3544 11.1127 13.3544 10.9175 13.5496C10.7222 13.7449 10.7222 14.0615 10.9175 14.2567L11.3064 14.6456C12.1257 15.465 13.4185 15.5687 14.3581 14.8905L14.3996 14.8605C15.557 14.025 15.6913 12.352 14.6819 11.3426C14.4866 11.1473 14.1701 11.1473 13.9748 11.3426C13.7795 11.5379 13.7795 11.8545 13.9748 12.0497ZM10.7478 10.8137C10.943 10.6184 11.2596 10.6184 11.4549 10.8137L13.012 12.3708C13.2073 12.5661 13.2073 12.8826 13.012 13.0779C12.8167 13.2732 12.5002 13.2732 12.3049 13.0779L10.7478 11.5208C10.5525 11.3255 10.5525 11.0089 10.7478 10.8137Z" fill="#0C0C0C"/>
</svg>
