<svg width="16" height="16" viewBox="0 0 16 16" fill="none" xmlns="http://www.w3.org/2000/svg">
<mask id="path-1-inside-1_3071_6055" fill="white">
<path fill-rule="evenodd" clip-rule="evenodd" d="M13 6C13 6.38097 12.9401 6.74951 12.8282 7.09856C14.3614 7.47057 15.5 8.85232 15.5 10.5C15.5 12.2632 14.1961 13.7219 12.5 13.9646V14H12H4.5C2.29086 14 0.5 12.2091 0.5 10C0.5 7.96015 2.02691 6.27692 4.00013 6.03093L4 6C4 3.79086 6.01472 2 8.5 2C10.9853 2 13 3.79086 13 6Z"/>
</mask>
<path d="M12.8282 7.09856L11.8759 6.79324L11.5477 7.81691L12.5924 8.07037L12.8282 7.09856ZM12.5 13.9646L12.3584 12.9746L11.5 13.0974V13.9646H12.5ZM12.5 14V15H13.5V14H12.5ZM4.00013 6.03093L4.12384 7.02325L5.0039 6.91354L5.00012 6.02667L4.00013 6.03093ZM4 6L2.99999 6L3.00001 6.00426L4 6ZM13.7804 7.40388C13.9233 6.95813 14 6.48667 14 6H12C12 6.27528 11.9568 6.54089 11.8759 6.79324L13.7804 7.40388ZM16.5 10.5C16.5 8.38023 15.0353 6.60504 13.0639 6.12675L12.5924 8.07037C13.6876 8.33609 14.5 9.32441 14.5 10.5H16.5ZM12.6416 14.9545C14.8233 14.6424 16.5 12.7679 16.5 10.5H14.5C14.5 11.7586 13.569 12.8015 12.3584 12.9746L12.6416 14.9545ZM11.5 13.9646V14H13.5V13.9646H11.5ZM12.5 13H12V15H12.5V13ZM12 13H4.5V15H12V13ZM-0.5 10C-0.5 12.7614 1.73858 15 4.5 15V13C2.84315 13 1.5 11.6569 1.5 10H-0.5ZM3.87642 5.03861C1.40888 5.34623 -0.5 7.44943 -0.5 10H1.5C1.5 8.47086 2.64495 7.20761 4.12384 7.02325L3.87642 5.03861ZM3.00001 6.00426L3.00014 6.03519L5.00012 6.02667L4.99999 5.99574L3.00001 6.00426ZM8.5 1C5.57641 1 3 3.1311 3 6H5C5 4.45062 6.45302 3 8.5 3V1ZM14 6C14 3.1311 11.4236 1 8.5 1V3C10.547 3 12 4.45062 12 6H14Z" fill="#0C0C0C" mask="url(#path-1-inside-1_3071_6055)"/>
</svg>
