<svg width="16" height="16" viewBox="0 0 16 16" fill="none" xmlns="http://www.w3.org/2000/svg">
<path fill-rule="evenodd" clip-rule="evenodd" d="M8.5 1.5C7.13102 1.5 5.99666 1.99644 5.20594 2.82676C4.50385 3.564 4.09481 4.54092 4.01461 5.60832C2.00312 6.05784 0.5 7.85305 0.5 10C0.5 12.4853 2.51472 14.5 5 14.5H7C7.27614 14.5 7.5 14.2761 7.5 14C7.5 13.7239 7.27614 13.5 7 13.5H5C3.067 13.5 1.5 11.933 1.5 10C1.5 8.21551 2.83593 6.74227 4.56199 6.52709L5.00201 6.47223L5.00013 6.0288L5 6V5.99896C5.00024 5.00909 5.33878 4.13732 5.9301 3.51639C6.51806 2.89899 7.3837 2.5 8.5 2.5C10.7661 2.5 12.5 4.12074 12.5 6V6.5V7H13H15C15.2761 7 15.5 6.77614 15.5 6.5C15.5 6.22386 15.2761 6 15 6H13.5C13.5 3.46098 11.2044 1.5 8.5 1.5ZM13 9.5C13 9.22386 12.7761 9 12.5 9C12.2239 9 12 9.22386 12 9.5V13.7929L10.3536 12.1464C10.1583 11.9512 9.84171 11.9512 9.64645 12.1464C9.45118 12.3417 9.45118 12.6583 9.64645 12.8536L12.1464 15.3536L12.5 15.7071L12.8536 15.3536L15.3536 12.8536C15.5488 12.6583 15.5488 12.3417 15.3536 12.1464C15.1583 11.9512 14.8417 11.9512 14.6464 12.1464L13 13.7929V9.5Z" fill="#0C0C0C"/>
</svg>
