<svg width="16" height="16" viewBox="0 0 16 16" fill="none" xmlns="http://www.w3.org/2000/svg">
<path fill-rule="evenodd" clip-rule="evenodd" d="M5 1C2.79086 1 1 2.79086 1 5V11C1 13.2091 2.79086 15 5 15H11C13.2091 15 15 13.2091 15 11V5C15 2.79086 13.2091 1 11 1H5ZM9.48076 4.63736C9.55662 4.37184 9.40288 4.0951 9.13736 4.01924C8.87184 3.94338 8.5951 4.09712 8.51924 4.36264L6.51924 11.3626C6.44338 11.6282 6.59712 11.9049 6.86264 11.9808C7.12816 12.0566 7.4049 11.9029 7.48076 11.6374L9.48076 4.63736ZM5.85355 5.64645C6.04882 5.84171 6.04882 6.15829 5.85355 6.35355L4.56066 7.64645C4.3654 7.84171 4.3654 8.15829 4.56066 8.35355L5.85355 9.64645C6.04882 9.84171 6.04882 10.1583 5.85355 10.3536C5.65829 10.5488 5.34171 10.5488 5.14645 10.3536L3.85355 9.06066C3.26777 8.47487 3.26777 7.52513 3.85355 6.93934L5.14645 5.64645C5.34171 5.45118 5.65829 5.45118 5.85355 5.64645ZM10.1464 6.35355C9.95118 6.15829 9.95118 5.84171 10.1464 5.64645C10.3417 5.45118 10.6583 5.45118 10.8536 5.64645L12.1464 6.93934C12.7322 7.52513 12.7322 8.47487 12.1464 9.06066L10.8536 10.3536C10.6583 10.5488 10.3417 10.5488 10.1464 10.3536C9.95118 10.1583 9.95118 9.84171 10.1464 9.64645L11.4393 8.35355C11.6346 8.15829 11.6346 7.84171 11.4393 7.64645L10.1464 6.35355Z" fill="#0C0C0C"/>
</svg>
