<svg width="16" height="16" viewBox="0 0 16 16" fill="none" xmlns="http://www.w3.org/2000/svg">
<path fill-rule="evenodd" clip-rule="evenodd" d="M4.8947 5.19306C4.72516 4.97508 4.41103 4.93582 4.19305 5.10535L1.70793 6.816C0.935814 7.41654 0.935817 8.58352 1.70793 9.18405L4.19305 10.8947C4.41103 11.0642 4.72516 11.025 4.8947 10.807C5.06423 10.589 5.02497 10.2749 4.80699 10.1054L2.32188 8.3947C2.0645 8.19452 2.0645 7.80553 2.32187 7.60535L4.80699 5.8947C5.02497 5.72517 5.06423 5.41103 4.8947 5.19306Z" fill="#0C0C0C"/>
<path fill-rule="evenodd" clip-rule="evenodd" d="M11.2342 10.807C11.4037 11.0249 11.7179 11.0642 11.9359 10.8947L14.421 9.18401C15.1931 8.58347 15.1931 7.41649 14.421 6.81595L11.9359 5.1053C11.7179 4.93577 11.4037 4.97504 11.2342 5.19301C11.0647 5.41098 11.1039 5.72512 11.3219 5.89466L13.807 7.6053C14.0644 7.80548 14.0644 8.19448 13.807 8.39466L11.3219 10.1053C11.1039 10.2748 11.0647 10.589 11.2342 10.807Z" fill="#0C0C0C"/>
<path fill-rule="evenodd" clip-rule="evenodd" d="M9.63156 2.01762C9.89797 2.09028 10.055 2.36515 9.98238 2.63156L6.98238 13.6316C6.90972 13.898 6.63485 14.055 6.36844 13.9824C6.10203 13.9097 5.94496 13.6349 6.01762 13.3684L9.01762 2.36844C9.09028 2.10203 9.36515 1.94496 9.63156 2.01762Z" fill="#0C0C0C"/>
</svg>
