<svg width="16" height="16" viewBox="0 0 16 16" fill="none" xmlns="http://www.w3.org/2000/svg">
<path fill-rule="evenodd" clip-rule="evenodd" d="M6.60355 3.14645C6.40829 2.95118 6.09171 2.95118 5.89645 3.14645L1.39645 7.64645C1.20118 7.84171 1.20118 8.15829 1.39645 8.35355L5.89645 12.8536C6.09171 13.0488 6.40829 13.0488 6.60355 12.8536C6.79882 12.6583 6.79882 12.3417 6.60355 12.1464L2.95711 8.5H10.25C10.5261 8.5 10.75 8.27614 10.75 8C10.75 7.72386 10.5261 7.5 10.25 7.5H2.95711L6.60355 3.85355C6.79882 3.65829 6.79882 3.34171 6.60355 3.14645ZM14 3.5C14 3.22386 13.7761 3 13.5 3C13.2239 3 13 3.22386 13 3.5V12.5C13 12.7761 13.2239 13 13.5 13C13.7761 13 14 12.7761 14 12.5V3.5Z" fill="#0C0C0C"/>
</svg>
