<svg width="16" height="16" viewBox="0 0 16 16" fill="none" xmlns="http://www.w3.org/2000/svg">
<path fill-rule="evenodd" clip-rule="evenodd" d="M9.5 3L6.5 3L6.5 13H9.5L9.5 3ZM10.5 3L10.5 13H13C13.2761 13 13.5 12.7761 13.5 12.5V3.5C13.5 3.22386 13.2761 3 13 3L10.5 3ZM10.5 14H9.5H6.5H5.5H3C2.17157 14 1.5 13.3284 1.5 12.5V3.5C1.5 2.67157 2.17157 2 3 2H13C13.8284 2 14.5 2.67157 14.5 3.5V12.5C14.5 13.3284 13.8284 14 13 14H10.5ZM3 3H5.5L5.5 13H3C2.72386 13 2.5 12.7761 2.5 12.5V3.5C2.5 3.22386 2.72386 3 3 3Z" fill="#0C0C0C"/>
</svg>
