<svg width="16" height="16" viewBox="0 0 16 16" fill="none" xmlns="http://www.w3.org/2000/svg">
<path fill-rule="evenodd" clip-rule="evenodd" d="M7.45961 4L4.5 11.5404H5.71275L6.31598 9.92549H9.67774L10.2873 11.5404H11.5L8.54039 4H7.45961ZM8 5.43896L9.27558 8.8447H6.71813L8 5.43896ZM1.5 11.0386C1.5 11.3147 1.27614 11.5386 1 11.5386C0.723858 11.5386 0.5 11.3147 0.5 11.0386C0.5 10.7625 0.723858 10.5386 1 10.5386C1.27614 10.5386 1.5 10.7625 1.5 11.0386ZM3 11.5386C3.27614 11.5386 3.5 11.3147 3.5 11.0386C3.5 10.7625 3.27614 10.5386 3 10.5386C2.72386 10.5386 2.5 10.7625 2.5 11.0386C2.5 11.3147 2.72386 11.5386 3 11.5386ZM15.5 11.0386C15.5 11.3147 15.2761 11.5386 15 11.5386C14.7239 11.5386 14.5 11.3147 14.5 11.0386C14.5 10.7625 14.7239 10.5386 15 10.5386C15.2761 10.5386 15.5 10.7625 15.5 11.0386ZM13 11.5386C13.2761 11.5386 13.5 11.3147 13.5 11.0386C13.5 10.7625 13.2761 10.5386 13 10.5386C12.7239 10.5386 12.5 10.7625 12.5 11.0386C12.5 11.3147 12.7239 11.5386 13 11.5386Z" fill="#0C0C0C"/>
</svg>
