<svg width="16" height="16" viewBox="0 0 16 16" fill="none" xmlns="http://www.w3.org/2000/svg">
<path fill-rule="evenodd" clip-rule="evenodd" d="M7.25 1.25C6.42157 1.25 5.75 1.92157 5.75 2.75V4.75H3.75C2.92157 4.75 2.25 5.42157 2.25 6.25L2.25 13.25C2.25 14.0784 2.92157 14.75 3.75 14.75H9.25C10.0784 14.75 10.75 14.0784 10.75 13.25V10.75H12.2502C13.0788 10.75 13.75 10.0783 13.75 9.25V2.75C13.75 1.92157 13.0784 1.25 12.25 1.25H7.25ZM10.75 9.75H12.2502C12.5262 9.75 12.75 9.5263 12.75 9.25V2.75C12.75 2.47386 12.5261 2.25 12.25 2.25H7.25C6.97386 2.25 6.75 2.47386 6.75 2.75V4.75H9.25C10.0784 4.75 10.75 5.42157 10.75 6.25V9.75ZM3.25 6.25C3.25 5.97386 3.47386 5.75 3.75 5.75H9.25C9.52614 5.75 9.75 5.97386 9.75 6.25V13.25C9.75 13.5261 9.52614 13.75 9.25 13.75H3.75C3.47386 13.75 3.25 13.5261 3.25 13.25L3.25 6.25Z" fill="#0C0C0C"/>
</svg>
