<svg width="16" height="16" viewBox="0 0 16 16" fill="none" xmlns="http://www.w3.org/2000/svg">
<path d="M10 6H6V10H10V6Z" fill="#0C0C0C"/>
<path fill-rule="evenodd" clip-rule="evenodd" d="M9.93311 3H11.5C12.3284 3 13 3.67157 13 4.5V6H14.25C14.5261 6 14.75 6.22386 14.75 6.5C14.75 6.77614 14.5261 7 14.25 7H13V9H14.25C14.5261 9 14.75 9.22386 14.75 9.5C14.75 9.77614 14.5261 10 14.25 10H13V11.5C13 12.3284 12.3284 13 11.5 13H10V14.25C10 14.5261 9.77614 14.75 9.5 14.75C9.22386 14.75 9 14.5261 9 14.25V13H7V14.25C7 14.5261 6.77614 14.75 6.5 14.75C6.22386 14.75 6 14.5261 6 14.25V13H4.5C3.67157 13 3 12.3284 3 11.5V9.93311C2.92646 9.97565 2.84107 10 2.75 10H1.5C1.22386 10 1 9.77614 1 9.5C1 9.22386 1.22386 9 1.5 9H2.75C2.84107 9 2.92646 9.02435 3 9.06689V6.93311C2.92646 6.97565 2.84107 7 2.75 7H1.5C1.22386 7 1 6.77614 1 6.5C1 6.22386 1.22386 6 1.5 6H2.75C2.84107 6 2.92646 6.02435 3 6.06689V4.5C3 3.67157 3.67157 3 4.5 3H6V1.5C6 1.22386 6.22386 1 6.5 1C6.77614 1 7 1.22386 7 1.5V3H9.06689C9.02435 2.92646 9 2.84107 9 2.75V1.5C9 1.22386 9.22386 1 9.5 1C9.77614 1 10 1.22386 10 1.5V2.75C10 2.84107 9.97565 2.92646 9.93311 3ZM12 11.5C12 11.7761 11.7761 12 11.5 12H4.5C4.22386 12 4 11.7761 4 11.5V4.5C4 4.22386 4.22386 4 4.5 4H11.5C11.7761 4 12 4.22386 12 4.5V11.5Z" fill="#0C0C0C"/>
</svg>
