<svg width="16" height="16" viewBox="0 0 16 16" fill="none" xmlns="http://www.w3.org/2000/svg">
<path d="M8 2.64868L8.41939 2.37644C8.32718 2.2344 8.16935 2.14868 8 2.14868C7.83065 2.14868 7.67282 2.2344 7.58061 2.37644L8 2.64868ZM5.5 6.5L5.37873 6.98507C5.58591 7.03687 5.80311 6.95136 5.91939 6.77224L5.5 6.5ZM1.5 5.5L1.62127 5.01493C1.45473 4.97329 1.27848 5.02 1.15442 5.13865C1.03036 5.2573 0.975837 5.43129 1.01 5.59952L1.5 5.5ZM3 12.8856L2.51 12.9851C2.5635 13.2485 2.8157 13.4225 3.08096 13.379L3 12.8856ZM13 12.8856L12.919 13.379C13.1843 13.4225 13.4365 13.2485 13.49 12.9851L13 12.8856ZM14.5 5.5L14.99 5.59952C15.0242 5.43129 14.9696 5.2573 14.8456 5.13865C14.7215 5.02 14.5453 4.97329 14.3787 5.01493L14.5 5.5ZM10.5 6.5L10.0806 6.77224C10.1969 6.95136 10.4141 7.03687 10.6213 6.98507L10.5 6.5ZM7.58061 2.37644L5.08061 6.22776L5.91939 6.77224L8.41939 2.92092L7.58061 2.37644ZM5.62127 6.01493L1.62127 5.01493L1.37873 5.98507L5.37873 6.98507L5.62127 6.01493ZM1.01 5.59952L2.51 12.9851L3.49 12.7861L1.99 5.40048L1.01 5.59952ZM13.49 12.9851L14.99 5.59952L14.01 5.40048L12.51 12.7861L13.49 12.9851ZM14.3787 5.01493L10.3787 6.01493L10.6213 6.98507L14.6213 5.98507L14.3787 5.01493ZM10.9194 6.22776L8.41939 2.37644L7.58061 2.92092L10.0806 6.77224L10.9194 6.22776ZM3 12.8856C3.08096 13.379 3.08094 13.379 3.08094 13.379C3.08096 13.379 3.08097 13.379 3.081 13.379C3.08106 13.379 3.08116 13.379 3.08131 13.3789C3.08162 13.3789 3.0821 13.3788 3.08277 13.3787C3.08411 13.3785 3.08617 13.3781 3.08895 13.3777C3.0945 13.3768 3.10289 13.3754 3.11401 13.3736C3.13623 13.3701 3.16931 13.3648 3.21226 13.3581C3.29814 13.3446 3.42341 13.3253 3.57998 13.3021C3.89325 13.2556 4.33121 13.1937 4.82942 13.1318C5.83176 13.0072 7.05623 12.8856 8 12.8856V11.8856C6.99115 11.8856 5.71562 12.014 4.70611 12.1394C4.19841 12.2025 3.75248 12.2656 3.43334 12.3129C3.27371 12.3365 3.14565 12.3563 3.05726 12.3701C3.01306 12.3771 2.97877 12.3825 2.95539 12.3863C2.94371 12.3882 2.93475 12.3896 2.92865 12.3906C2.9256 12.3911 2.92327 12.3915 2.92166 12.3918C2.92086 12.3919 2.92024 12.392 2.9198 12.3921C2.91958 12.3921 2.91941 12.3921 2.91928 12.3921C2.91922 12.3922 2.91916 12.3922 2.91913 12.3922C2.91908 12.3922 2.91904 12.3922 3 12.8856ZM8 12.8856C8.94377 12.8856 10.1682 13.0072 11.1706 13.1318C11.6688 13.1937 12.1067 13.2556 12.42 13.3021C12.5766 13.3253 12.7019 13.3446 12.7877 13.3581C12.8307 13.3648 12.8638 13.3701 12.886 13.3736C12.8971 13.3754 12.9055 13.3768 12.911 13.3777C12.9138 13.3781 12.9159 13.3785 12.9172 13.3787C12.9179 13.3788 12.9184 13.3789 12.9187 13.3789C12.9188 13.379 12.9189 13.379 12.919 13.379C12.919 13.379 12.919 13.379 12.9191 13.379C12.9191 13.379 12.919 13.379 13 12.8856C13.081 12.3922 13.0809 12.3922 13.0809 12.3922C13.0808 12.3922 13.0808 12.3922 13.0807 12.3921C13.0806 12.3921 13.0804 12.3921 13.0802 12.3921C13.0798 12.392 13.0791 12.3919 13.0783 12.3918C13.0767 12.3915 13.0744 12.3911 13.0713 12.3906C13.0652 12.3896 13.0563 12.3882 13.0446 12.3863C13.0212 12.3825 12.9869 12.3771 12.9427 12.3701C12.8544 12.3563 12.7263 12.3365 12.5667 12.3129C12.2475 12.2656 11.8016 12.2025 11.2939 12.1394C10.2844 12.014 9.00885 11.8856 8 11.8856V12.8856Z" fill="#0C0C0C"/>
</svg>
