<svg width="16" height="16" viewBox="0 0 16 16" fill="none" xmlns="http://www.w3.org/2000/svg">
<path fill-rule="evenodd" clip-rule="evenodd" d="M5.5 3H3.5C3.22386 3 3 3.22386 3 3.5V5.5C3 5.77614 3.22386 6 3.5 6H5.5C5.77614 6 6 5.77614 6 5.5V3.5C6 3.22386 5.77614 3 5.5 3ZM3.5 2C2.67157 2 2 2.67157 2 3.5V5.5C2 6.32843 2.67157 7 3.5 7H5.5C6.32843 7 7 6.32843 7 5.5V3.5C7 2.67157 6.32843 2 5.5 2H3.5ZM5.5 10H3.5C3.22386 10 3 10.2239 3 10.5V12.5C3 12.7761 3.22386 13 3.5 13H5.5C5.77614 13 6 12.7761 6 12.5V10.5C6 10.2239 5.77614 10 5.5 10ZM3.5 9C2.67157 9 2 9.67157 2 10.5V12.5C2 13.3284 2.67157 14 3.5 14H5.5C6.32843 14 7 13.3284 7 12.5V10.5C7 9.67157 6.32843 9 5.5 9H3.5ZM10.5 3H12.5C12.7761 3 13 3.22386 13 3.5V5.5C13 5.77614 12.7761 6 12.5 6H10.5C10.2239 6 10 5.77614 10 5.5V3.5C10 3.22386 10.2239 3 10.5 3ZM9 3.5C9 2.67157 9.67157 2 10.5 2H12.5C13.3284 2 14 2.67157 14 3.5V5.5C14 6.32843 13.3284 7 12.5 7H10.5C9.67157 7 9 6.32843 9 5.5V3.5ZM11.5 9C11.7761 9 12 9.22386 12 9.5V11H13.5C13.7761 11 14 11.2239 14 11.5C14 11.7761 13.7761 12 13.5 12H12V13.5C12 13.7761 11.7761 14 11.5 14C11.2239 14 11 13.7761 11 13.5V12H9.5C9.22386 12 9 11.7761 9 11.5C9 11.2239 9.22386 11 9.5 11H11V9.5C11 9.22386 11.2239 9 11.5 9Z" fill="#0C0C0C"/>
</svg>
