<svg width="16" height="16" viewBox="0 0 16 16" fill="none" xmlns="http://www.w3.org/2000/svg">
<path fill-rule="evenodd" clip-rule="evenodd" d="M4.68807 2.67945C3.8364 3.10528 3.5 3.60106 3.5 4C3.5 4.5838 3.897 5.19775 4.72171 5.69257C5.53647 6.18143 6.69433 6.5 8 6.5C9.30567 6.5 10.4635 6.18143 11.2783 5.69257C12.103 5.19775 12.5 4.5838 12.5 4C12.5 3.60106 12.1636 3.10528 11.3119 2.67945C10.4902 2.26857 9.31992 2 8 2C6.68008 2 5.50984 2.26857 4.68807 2.67945ZM12.5 6.03089C12.2874 6.22265 12.049 6.39634 11.7928 6.55007C10.7979 7.147 9.45575 7.5 8 7.5C6.54425 7.5 5.2021 7.147 4.20722 6.55007C3.95101 6.39634 3.71257 6.22265 3.5 6.03089V7.5C3.5 8.0838 3.897 8.69775 4.72171 9.19257C5.53647 9.68143 6.69433 10 8 10C9.30567 10 10.4635 9.68143 11.2783 9.19257C12.103 8.69775 12.5 8.0838 12.5 7.5V6.03089ZM12.5 9.53089C12.2874 9.72265 12.049 9.89634 11.7928 10.0501C10.7979 10.647 9.45575 11 8 11C6.54425 11 5.2021 10.647 4.20722 10.0501C3.95101 9.89634 3.71257 9.72265 3.5 9.53089V11C3.5 11.5838 3.897 12.1977 4.72171 12.6926C5.53647 13.1814 6.69433 13.5 8 13.5C9.30567 13.5 10.4635 13.1814 11.2783 12.6926C12.103 12.1977 12.5 11.5838 12.5 11V9.53089ZM13.5 11C13.5 12.0731 12.7777 12.9591 11.7928 13.5501C10.7979 14.147 9.45575 14.5 8 14.5C6.54425 14.5 5.2021 14.147 4.20722 13.5501C3.22229 12.9591 2.5 12.0731 2.5 11V7.5V4C2.5 3.01823 3.28288 2.26401 4.24086 1.78502C5.22874 1.29108 6.5585 1 8 1C9.4415 1 10.7713 1.29108 11.7591 1.78502C12.7171 2.26401 13.5 3.01823 13.5 4V7.5V11Z" fill="#0C0C0C"/>
</svg>
