<svg width="16" height="16" viewBox="0 0 16 16" fill="none" xmlns="http://www.w3.org/2000/svg">
<path fill-rule="evenodd" clip-rule="evenodd" d="M4.91729 5.0839C4.91729 3.36078 6.34305 1.95874 8.09621 1.95874C9.85993 1.95874 11.2751 3.37148 11.2751 5.0946C11.2751 6.81772 9.84936 8.21976 8.09621 8.21976C7.12458 8.21976 6.25856 7.79166 5.6777 7.1174L2.82618 8.97965C2.73113 9.03316 2.63608 9.06527 2.53047 9.06527C2.36149 9.06527 2.19251 8.97965 2.0869 8.82981C1.92848 8.58365 1.99185 8.26258 2.23475 8.10204L5.12852 6.20767C4.99122 5.86519 4.91729 5.4799 4.91729 5.0839ZM5.97341 5.0839C5.97341 6.22908 6.92392 7.16021 8.09621 7.16021C9.25794 7.16021 10.2084 6.22908 10.2084 5.0839C10.2084 3.93872 9.2685 3.0076 8.09621 3.0076C6.92392 3.0076 5.97341 3.93872 5.97341 5.0839ZM11.856 6.74283V13.3999C11.856 13.3999 11.8877 13.4641 11.9194 13.4641H13.9366C13.9366 13.4641 14 13.432 14 13.3999V5.50133C14 5.3836 13.8627 5.30868 13.7571 5.3836L11.8772 6.70002C11.8772 6.70002 11.8455 6.73213 11.8455 6.75354L11.856 6.74283ZM8.30723 13.3999V10.3175H8.29667C8.29667 10.2961 8.32835 10.264 8.32835 10.264L10.2505 8.95827C10.2927 8.92616 10.3561 9.01179 10.3561 9.01179V13.3999C10.3561 13.432 10.2927 13.4641 10.2927 13.4641H8.3706C8.33891 13.4641 8.30723 13.3999 8.30723 13.3999ZM4.7166 13.3892V10.3175H4.70604C4.70604 10.2961 4.73772 10.264 4.73772 10.264L6.63874 9.16166C6.69154 9.12956 6.74435 9.21518 6.74435 9.21518V13.3892C6.74435 13.4213 6.68098 13.4534 6.68098 13.4534H4.77997C4.74828 13.4534 4.7166 13.3892 4.7166 13.3892Z" fill="#0C0C0C"/>
</svg>
