<svg width="16" height="16" viewBox="0 0 16 16" fill="none" xmlns="http://www.w3.org/2000/svg">
<path fill-rule="evenodd" clip-rule="evenodd" d="M6.00001 3.99999V3.5C6.00001 3.22386 6.22386 3 6.50001 3H9.50001C9.77615 3 10 3.22386 10 3.5V3.99999H6.00001ZM5.00001 4.99999V5H6.00001V4.99999H10V5H11V4.99999H11.5V12.5C11.5 13.3284 10.8284 14 10 14H6.00001C5.17158 14 4.50001 13.3284 4.50001 12.5V4.99999L5.00001 4.99999ZM5.00001 3.99999V3.5C5.00001 2.67157 5.67158 2 6.50001 2H9.50001C10.3284 2 11 2.67157 11 3.5V3.99999H13C13.2761 3.99999 13.5 4.22385 13.5 4.49999C13.5 4.77613 13.2761 4.99999 13 4.99999H12.5V12.5C12.5 13.8807 11.3807 15 10 15H6.00001C4.61929 15 3.50001 13.8807 3.50001 12.5V4.99999L3 4.99999C2.72386 4.99999 2.5 4.77613 2.5 4.49999C2.5 4.22385 2.72386 3.99999 3 3.99999H5.00001Z" fill="#0C0C0C"/>
</svg>
