<svg width="16" height="16" viewBox="0 0 16 16" fill="none" xmlns="http://www.w3.org/2000/svg">
<path d="M15.0728 4.81873C14.8775 4.62346 14.5609 4.62346 14.3657 4.81873C14.3363 4.84806 14.3074 4.8764 14.2788 4.90377C14.255 4.85463 14.2228 4.80858 14.182 4.76781L12.0607 2.64649C11.8654 2.45123 11.5488 2.45123 11.3536 2.64649C11.1583 2.84175 11.1583 3.15834 11.3536 3.3536L13.4627 5.46278C13.319 5.51848 13.1708 5.55387 13.0109 5.57285C12.4771 5.63621 11.7591 5.52427 10.5853 5.19718C10.5414 5.18496 10.4948 5.17175 10.4455 5.15782C9.94912 5.01739 9.19005 4.80265 8.39158 4.76736C7.50467 4.72816 6.49564 4.90621 5.69973 5.70213C4.90382 6.49804 4.72576 7.50707 4.76496 8.39398C4.80025 9.19244 5.01499 9.95151 5.15541 10.4479L5.15592 10.4497C5.16967 10.4983 5.18271 10.5444 5.19478 10.5877C5.52187 11.7615 5.63381 12.4795 5.57045 13.0133C5.51207 13.5052 5.29839 13.886 4.81633 14.3681C4.62106 14.5633 4.62106 14.8799 4.81633 15.0752C5.01159 15.2704 5.32817 15.2704 5.52343 15.0752C6.10241 14.4962 6.4699 13.9196 6.56348 13.1312C6.65209 12.3846 6.4868 11.4989 6.15809 10.3193L6.11918 10.1807C5.97694 9.67562 5.79385 9.02551 5.76398 8.34983C5.73171 7.61977 5.88245 6.93362 6.40683 6.40923C6.93122 5.88485 7.61737 5.73411 8.34743 5.76638C9.02311 5.79625 9.67321 5.97934 10.1783 6.12158L10.3169 6.16048C11.4965 6.48919 12.3822 6.65449 13.1288 6.56588C13.9172 6.4723 14.4938 6.10481 15.0728 5.52583C15.268 5.33057 15.268 5.01399 15.0728 4.81873Z" fill="#0C0C0C"/>
<path d="M11.1837 1.63675C11.379 1.44148 11.379 1.1249 11.1837 0.929638C10.9884 0.734376 10.6719 0.734376 10.4766 0.929638C9.89761 1.50861 9.53012 2.08518 9.43654 2.87367C9.39965 3.18449 9.40676 3.51941 9.45136 3.88962C9.85462 3.96324 10.2164 4.05706 10.4997 4.13562C10.4143 3.66066 10.3934 3.29612 10.4296 2.99152C10.488 2.49957 10.7016 2.11881 11.1837 1.63675Z" fill="#0C0C0C"/>
<path d="M11.223 7.41707C10.8898 7.34795 10.5455 7.26163 10.1893 7.16424C10.2122 7.32511 10.2287 7.48928 10.236 7.65499C10.2646 8.30026 10.1501 8.91122 9.76108 9.40651L7.82494 7.47038C7.62968 7.27511 7.31309 7.27511 7.11783 7.47038C6.92257 7.66564 6.92257 7.98222 7.11783 8.17748L8.96699 10.0266C8.56724 10.205 8.11887 10.259 7.65259 10.2384C7.48689 10.2311 7.32271 10.2146 7.16184 10.1917C7.25923 10.5479 7.34555 10.8921 7.41467 11.2254C7.47892 11.2305 7.54355 11.2346 7.60844 11.2375C8.49535 11.2767 9.50438 11.0986 10.3003 10.3027C11.0962 9.50678 11.2743 8.49775 11.2351 7.61084C11.2322 7.54595 11.2281 7.48132 11.223 7.41707Z" fill="#0C0C0C"/>
<path d="M4.13322 10.5021C4.05466 10.2188 3.96084 9.85702 3.88722 9.45376C3.51702 9.40916 3.18209 9.40204 2.87127 9.43894C2.08278 9.53252 1.50621 9.90001 0.927239 10.479C0.731977 10.6742 0.731977 10.9908 0.927239 11.1861C1.1225 11.3814 1.43908 11.3814 1.63435 11.1861C1.66257 11.1579 1.69044 11.1306 1.71801 11.1042C1.73738 11.1956 1.78256 11.2826 1.85356 11.3536L3.97488 13.4749C4.17014 13.6702 4.48672 13.6702 4.68199 13.4749C4.87725 13.2797 4.87725 12.9631 4.68199 12.7678L2.56067 10.6465C2.53136 10.6172 2.49931 10.5923 2.46536 10.5718C2.63167 10.4987 2.80239 10.4541 2.98912 10.432C3.29373 10.3958 3.65826 10.4167 4.13322 10.5021Z" fill="#0C0C0C"/>
</svg>
