<svg width="16" height="16" viewBox="0 0 16 16" fill="none" xmlns="http://www.w3.org/2000/svg">
<path d="M15.0728 4.81872C14.8775 4.62346 14.5609 4.62346 14.3656 4.81872C14.3363 4.84805 14.3074 4.87639 14.2787 4.90377C14.255 4.85463 14.2227 4.80858 14.182 4.76781L12.0606 2.64649C11.8654 2.45123 11.5488 2.45123 11.3535 2.64649C11.1583 2.84175 11.1583 3.15833 11.3535 3.3536L13.4627 5.46278C13.319 5.51847 13.1708 5.55387 13.0109 5.57285C12.477 5.63621 11.7591 5.52426 10.5853 5.19718C10.5414 5.18495 10.4947 5.17175 10.4455 5.15781C9.94909 5.01739 9.19002 4.80264 8.39155 4.76735C7.50464 4.72815 6.49561 4.90621 5.6997 5.70212C4.90378 6.49803 4.72573 7.50706 4.76493 8.39398C4.80022 9.19244 5.01496 9.95151 5.15538 10.4479L5.15589 10.4497C5.16964 10.4983 5.18268 10.5444 5.19475 10.5877C5.52184 11.7615 5.63378 12.4795 5.57042 13.0133C5.51204 13.5052 5.29836 13.886 4.8163 14.3681C4.62103 14.5633 4.62103 14.8799 4.8163 15.0752C5.01156 15.2704 5.32814 15.2704 5.5234 15.0752C6.10238 14.4962 6.46987 13.9196 6.56345 13.1311C6.65206 12.3846 6.48676 11.4989 6.15805 10.3193L6.11915 10.1807C5.97691 9.67561 5.79382 9.0255 5.76395 8.34982C5.73168 7.61977 5.88242 6.93362 6.4068 6.40923C6.93119 5.88484 7.61734 5.73411 8.3474 5.76638C9.02308 5.79624 9.67318 5.97933 10.1782 6.12157L10.3169 6.16048C11.4965 6.48919 12.3821 6.65449 13.1287 6.56588C13.9172 6.4723 14.4938 6.1048 15.0728 5.52583C15.268 5.33057 15.268 5.01398 15.0728 4.81872Z" fill="#0C0C0C"/>
<path d="M11.1837 1.63674C11.3789 1.44148 11.3789 1.1249 11.1837 0.929634C10.9884 0.734372 10.6718 0.734372 10.4766 0.929634C9.89758 1.50861 9.53009 2.08518 9.43651 2.87366C9.39962 3.18449 9.40673 3.51941 9.45133 3.88961C9.85459 3.96323 10.2163 4.05706 10.4997 4.13562C10.4143 3.66066 10.3934 3.29612 10.4295 2.99152C10.4879 2.49957 10.7016 2.11881 11.1837 1.63674Z" fill="#0C0C0C"/>
<path d="M11.223 7.41706C10.8897 7.34795 10.5455 7.26162 10.1893 7.16424C10.2121 7.32511 10.2287 7.48928 10.236 7.65499C10.2645 8.30026 10.1501 8.91122 9.76105 9.40651L7.82491 7.47037C7.62965 7.27511 7.31306 7.27511 7.1178 7.47037C6.92254 7.66563 6.92254 7.98222 7.1178 8.17748L8.96696 10.0266C8.56721 10.205 8.11884 10.259 7.65256 10.2384C7.48686 10.2311 7.32268 10.2146 7.16181 10.1917C7.2592 10.5479 7.34552 10.8921 7.41464 11.2254C7.47889 11.2305 7.54352 11.2346 7.60841 11.2375C8.49532 11.2767 9.50435 11.0986 10.3003 10.3027C11.0962 9.50678 11.2742 8.49775 11.235 7.61083C11.2322 7.54594 11.2281 7.48131 11.223 7.41706Z" fill="#0C0C0C"/>
<path d="M4.13319 10.5021C4.05463 10.2188 3.96081 9.85702 3.88719 9.45376C3.51699 9.40916 3.18206 9.40204 2.87124 9.43893C2.08275 9.53251 1.50618 9.90001 0.927208 10.479C0.731946 10.6742 0.731946 10.9908 0.927208 11.1861C1.12247 11.3814 1.43905 11.3814 1.63432 11.1861C1.66254 11.1579 1.69041 11.1306 1.71798 11.1042C1.73735 11.1956 1.78253 11.2826 1.85353 11.3536L3.97485 13.4749C4.17011 13.6702 4.48669 13.6702 4.68196 13.4749C4.87722 13.2797 4.87722 12.9631 4.68196 12.7678L2.56064 10.6465C2.53133 10.6172 2.49928 10.5923 2.46533 10.5718C2.63164 10.4987 2.80236 10.4541 2.98909 10.432C3.29369 10.3958 3.65823 10.4167 4.13319 10.5021Z" fill="#0C0C0C"/>
</svg>
