<svg width="16" height="16" viewBox="0 0 16 16" fill="none" xmlns="http://www.w3.org/2000/svg">
<path d="M12.1243 5.50195C11.8446 5.95317 11.7533 6.31301 11.7818 6.91273C11.7989 7.25543 11.8389 7.49532 11.9017 7.62098L12.0044 7.80375L11.8446 7.86658C11.4508 8.01508 10.8857 8.03222 6.34262 8.03222H1.55407L1.51983 8.18072C1.46276 8.40348 1.53695 9.43158 1.63969 9.85995C1.79379 10.5054 2.19331 11.2365 2.6499 11.722C3.27202 12.3731 3.93979 12.7272 4.91005 12.9214C5.46368 13.0299 6.90195 13.0242 7.63251 12.9157C10.121 12.5387 11.993 11.2079 13.0546 9.05461L13.2715 8.62052L13.6482 8.58625C14.1675 8.54056 14.5157 8.40919 14.8182 8.14074C15.0921 7.90085 15.4517 7.3354 15.406 7.21545C15.3889 7.17547 15.2405 7.06695 15.075 6.97556C14.8068 6.83277 14.6983 6.80992 14.1618 6.78708L13.5511 6.76423L13.4826 6.53005C13.4484 6.40439 13.3571 6.2102 13.2829 6.09596C13.0888 5.79325 12.4724 5.2335 12.3354 5.2335C12.3126 5.2335 12.2213 5.35345 12.1243 5.50195Z" fill="#0C0C0C"/>
<path d="M4.29367 6.26156V4.89076H5.77761V6.26156H4.29367Z" fill="#0C0C0C"/>
<path d="M7.66106 4.66237V3.34869H9.145V4.66237H7.66106Z" fill="#0C0C0C"/>
<path d="M5.94883 6.26156H7.43276V4.89076H5.94883V6.26156Z" fill="#0C0C0C"/>
<path d="M7.66106 6.26156V4.89076H9.145V6.26156H7.66106Z" fill="#0C0C0C"/>
<path d="M2.58142 7.80374V6.43294H4.06536V7.80374H2.58142Z" fill="#0C0C0C"/>
<path d="M4.29367 7.80374H5.77761V6.43294H4.29367V7.80374Z" fill="#0C0C0C"/>
<path d="M5.94883 7.80374V6.43294H7.43276V7.80374H5.94883Z" fill="#0C0C0C"/>
<path d="M7.66106 7.80374H9.145V6.43294H7.66106V7.80374Z" fill="#0C0C0C"/>
<path d="M9.37325 7.80374V6.43294H10.8572V7.80374H9.37325Z" fill="#0C0C0C"/>
</svg>
