<svg width="16" height="16" viewBox="0 0 16 16" fill="none" xmlns="http://www.w3.org/2000/svg">
<path d="M12.1243 5.50196C11.8446 5.95318 11.7533 6.31301 11.7818 6.91274C11.7989 7.25544 11.8389 7.49533 11.9017 7.62099L12.0044 7.80376L11.8446 7.86659C11.4508 8.01509 10.8857 8.03223 6.34262 8.03223H1.55407L1.51983 8.18073C1.46276 8.40349 1.53695 9.43159 1.63969 9.85996C1.79379 10.5054 2.19331 11.2365 2.6499 11.722C3.27202 12.3731 3.93979 12.7272 4.91005 12.9214C5.46368 13.0299 6.90195 13.0242 7.63251 12.9157C10.121 12.5387 11.993 11.2079 13.0546 9.05462L13.2715 8.62053L13.6482 8.58626C14.1675 8.54057 14.5157 8.4092 14.8182 8.14075C15.0921 7.90086 15.4517 7.3354 15.406 7.21546C15.3889 7.17548 15.2405 7.06696 15.075 6.97557C14.8068 6.83278 14.6983 6.80993 14.1618 6.78708L13.5511 6.76424L13.4826 6.53006C13.4484 6.4044 13.3571 6.2102 13.2829 6.09597C13.0888 5.79325 12.4724 5.23351 12.3354 5.23351C12.3126 5.23351 12.2213 5.35345 12.1243 5.50196Z" fill="#0C0C0C"/>
<path d="M4.29367 6.26157V4.89077H5.77761V6.26157H4.29367Z" fill="#0C0C0C"/>
<path d="M7.66106 4.66238V3.34869H9.145V4.66238H7.66106Z" fill="#0C0C0C"/>
<path d="M5.94883 6.26157H7.43276V4.89077H5.94883V6.26157Z" fill="#0C0C0C"/>
<path d="M7.66106 6.26157V4.89077H9.145V6.26157H7.66106Z" fill="#0C0C0C"/>
<path d="M2.58142 7.80374V6.43294H4.06536V7.80374H2.58142Z" fill="#0C0C0C"/>
<path d="M4.29367 7.80374H5.77761V6.43294H4.29367V7.80374Z" fill="#0C0C0C"/>
<path d="M5.94883 7.80374V6.43294H7.43276V7.80374H5.94883Z" fill="#0C0C0C"/>
<path d="M7.66106 7.80374H9.145V6.43294H7.66106V7.80374Z" fill="#0C0C0C"/>
<path d="M9.37325 7.80374V6.43294H10.8572V7.80374H9.37325Z" fill="#0C0C0C"/>
</svg>
