<svg width="16" height="16" viewBox="0 0 16 16" fill="none" xmlns="http://www.w3.org/2000/svg">
<path fill-rule="evenodd" clip-rule="evenodd" d="M4 2.34277C3.72386 2.34277 3.5 2.56663 3.5 2.84277V12.8428C3.5 13.1189 3.72386 13.3428 4 13.3428H12C12.2761 13.3428 12.5 13.1189 12.5 12.8428V2.84277C12.5 2.56663 12.2761 2.34277 12 2.34277H4ZM2.5 2.84277C2.5 2.01435 3.17157 1.34277 4 1.34277H12C12.8284 1.34277 13.5 2.01435 13.5 2.84277V12.8428C13.5 13.6712 12.8284 14.3428 12 14.3428H4C3.17157 14.3428 2.5 13.6712 2.5 12.8428V2.84277Z" fill="#0C0C0C"/>
<path fill-rule="evenodd" clip-rule="evenodd" d="M5.5 7.5C5.5 7.22386 5.72386 7 6 7H10C10.2761 7 10.5 7.22386 10.5 7.5C10.5 7.77614 10.2761 8 10 8H6C5.72386 8 5.5 7.77614 5.5 7.5Z" fill="#0C0C0C"/>
<path fill-rule="evenodd" clip-rule="evenodd" d="M5.5 4.5C5.5 4.22386 5.72386 4 6 4H10C10.2761 4 10.5 4.22386 10.5 4.5C10.5 4.77614 10.2761 5 10 5H6C5.72386 5 5.5 4.77614 5.5 4.5Z" fill="#0C0C0C"/>
<path fill-rule="evenodd" clip-rule="evenodd" d="M5.5 10.5C5.5 10.2239 5.72386 10 6 10H8C8.27614 10 8.5 10.2239 8.5 10.5C8.5 10.7761 8.27614 11 8 11H6C5.72386 11 5.5 10.7761 5.5 10.5Z" fill="#0C0C0C"/>
</svg>
