<svg width="16" height="16" viewBox="0 0 16 16" fill="none" xmlns="http://www.w3.org/2000/svg">
<path d="M2.5 10C2.77614 10 3 10.2239 3 10.5V12.5H13V10.5C13 10.2239 13.2239 10 13.5 10C13.7761 10 14 10.2239 14 10.5V12.5C14 13.049 13.558 13.5 13.0025 13.5H2.99957C2.44673 13.5 2 13.0517 2 12.5V10.5C2 10.2239 2.22386 10 2.5 10Z" fill="#0C0C0C"/>
<path d="M4.64645 6.64645C4.45118 6.84171 4.45118 7.1583 4.64645 7.35356L7.64645 10.3536C7.74021 10.4473 7.86739 10.5 8 10.5C8.13261 10.5 8.25979 10.4473 8.35355 10.3536L11.3536 7.35355C11.5488 7.15829 11.5488 6.84171 11.3536 6.64645C11.1583 6.45118 10.8417 6.45118 10.6464 6.64645L8.5 8.7929V3C8.5 2.72386 8.27614 2.5 8 2.5C7.72386 2.5 7.5 2.72386 7.5 3V8.7929L5.35355 6.64645C5.15829 6.45119 4.84171 6.45119 4.64645 6.64645Z" fill="#0C0C0C"/>
</svg>
