<svg width="16" height="16" viewBox="0 0 16 16" fill="none" xmlns="http://www.w3.org/2000/svg">
<path fill-rule="evenodd" clip-rule="evenodd" d="M7.25 1.25C6.42158 1.25 5.75 1.92157 5.75 2.75V8.75C5.75 9.57843 6.42158 10.25 7.25 10.25H13.25C14.0784 10.25 14.75 9.57843 14.75 8.75V2.75C14.75 1.92157 14.0784 1.25 13.25 1.25H7.25ZM6.75 2.75C6.75 2.47386 6.97386 2.25 7.25 2.25H13.25C13.5261 2.25 13.75 2.47386 13.75 2.75V8.75C13.75 9.02614 13.5261 9.25 13.25 9.25H7.25C6.97386 9.25 6.75 9.02614 6.75 8.75V2.75Z" fill="#0C0C0C"/>
<path d="M7.5 15.0001C8.32843 15.0001 9 14.3285 9 13.5001V12.4454C9 12.1693 8.77614 11.9454 8.5 11.9454C8.22386 11.9454 8 12.1693 8 12.4454V13.5001C8 13.7762 7.77614 14.0001 7.5 14.0001H2.5C2.22386 14.0001 2 13.7762 2 13.5001V8.00006C2 7.72388 2.22384 7.50006 2.49994 7.50006H3.5C3.77614 7.50006 4 7.2762 4 7.00006C4 6.72392 3.77614 6.50006 3.5 6.50006H2.49994C1.67148 6.50006 1 7.17167 1 8.00006V13.5001C1 14.3285 1.67157 15.0001 2.5 15.0001H7.5Z" fill="#0C0C0C"/>
</svg>
