<svg width="16" height="16" viewBox="0 0 16 16" fill="none" xmlns="http://www.w3.org/2000/svg">
<path fill-rule="evenodd" clip-rule="evenodd" d="M6.25 2.25C5.42158 2.25 4.75 2.92157 4.75 3.75V9.75C4.75 10.5784 5.42158 11.25 6.25 11.25H12.25C13.0784 11.25 13.75 10.5784 13.75 9.75V3.75C13.75 2.92157 13.0784 2.25 12.25 2.25H6.25ZM5.75 3.75C5.75 3.47386 5.97386 3.25 6.25 3.25H12.25C12.5261 3.25 12.75 3.47386 12.75 3.75V9.75C12.75 10.0261 12.5261 10.25 12.25 10.25H6.25C5.97386 10.25 5.75 10.0261 5.75 9.75V3.75Z" fill="#0C0C0C"/>
<path d="M9.5 14.0001C10.3284 14.0001 11 13.3285 11 12.5001V11.4454C11 11.1693 10.7761 10.9454 10.5 10.9454C10.2239 10.9454 10 11.1693 10 11.4454V12.5001C10 12.7762 9.77614 13.0001 9.5 13.0001H3.5C3.22386 13.0001 3 12.7762 3 12.5001V7.00006C3 6.72388 3.22384 6.50006 3.49994 6.50006H4.5C4.77614 6.50006 5 6.2762 5 6.00006C5 5.72392 4.77614 5.50006 4.5 5.50006H3.49994C2.67148 5.50006 2 6.17167 2 7.00006V12.5001C2 13.3285 2.67157 14.0001 3.5 14.0001H9.5Z" fill="#0C0C0C"/>
</svg>
