<svg width="16" height="16" viewBox="0 0 16 16" fill="none" xmlns="http://www.w3.org/2000/svg">
<path fill-rule="evenodd" clip-rule="evenodd" d="M11.5607 2.85356C10.9749 2.26777 10.0251 2.26777 9.43934 2.85355L2.14645 10.1464C2.05268 10.2402 2 10.3674 2 10.5V13.5C2 13.7761 2.22386 14 2.5 14H5.5C5.63261 14 5.75979 13.9473 5.85355 13.8536L13.1464 6.56066C13.7322 5.97487 13.7322 5.02513 13.1464 4.43934L11.5607 2.85356ZM10.1464 3.56066C10.3417 3.3654 10.6583 3.3654 10.8536 3.56066L12.4393 5.14645C12.6346 5.34171 12.6346 5.65829 12.4393 5.85355L11 7.29289L8.70711 5L10.1464 3.56066ZM8 5.70711L3 10.7071V13H5.29289L10.2929 8L8 5.70711Z" fill="#0C0C0C"/>
</svg>
