<svg width="16" height="16" viewBox="0 0 16 16" fill="none" xmlns="http://www.w3.org/2000/svg">
<path fill-rule="evenodd" clip-rule="evenodd" d="M7.46154 12.1204L10.6488 4H11.8127L15 12.1204H13.694L13.0376 10.3813H9.41721L8.76757 12.1204H7.46154ZM12.6045 9.21737L11.2308 5.54965L9.8503 9.21737H12.6045ZM5.84615 12.1185C6.14354 12.1185 6.38462 11.8774 6.38462 11.58C6.38462 11.2826 6.14354 11.0416 5.84615 11.0416C5.54877 11.0416 5.30769 11.2826 5.30769 11.58C5.30769 11.8774 5.54877 12.1185 5.84615 12.1185ZM4.23077 11.58C4.23077 11.8774 3.98969 12.1185 3.69231 12.1185C3.39492 12.1185 3.15385 11.8774 3.15385 11.58C3.15385 11.2826 3.39492 11.0416 3.69231 11.0416C3.98969 11.0416 4.23077 11.2826 4.23077 11.58ZM1.53846 12.1185C1.83585 12.1185 2.07692 11.8774 2.07692 11.58C2.07692 11.2826 1.83585 11.0416 1.53846 11.0416C1.24108 11.0416 1 11.2826 1 11.58C1 11.8774 1.24108 12.1185 1.53846 12.1185Z" fill="#0C0C0C"/>
</svg>
