<svg width="16" height="16" viewBox="0 0 16 16" fill="none" xmlns="http://www.w3.org/2000/svg">
<path d="M13.1429 6.28305H2.85714C2.62981 6.28305 2.4118 6.19274 2.25105 6.032C2.09031 5.87125 2 5.65323 2 5.42591C2 5.19858 2.09031 4.98056 2.25105 4.81982C2.4118 4.65907 2.62981 4.56876 2.85714 4.56876H13.1429C13.3702 4.56876 13.5882 4.65907 13.7489 4.81982C13.9097 4.98056 14 5.19858 14 5.42591C14 5.65323 13.9097 5.87125 13.7489 6.032C13.5882 6.19274 13.3702 6.28305 13.1429 6.28305ZM13.1429 11.4259H2.85714C2.62981 11.4259 2.4118 11.3356 2.25105 11.1749C2.09031 11.0141 2 10.7961 2 10.5688C2 10.3414 2.09031 10.1234 2.25105 9.96267C2.4118 9.80193 2.62981 9.71162 2.85714 9.71162H13.1429C13.3702 9.71162 13.5882 9.80193 13.7489 9.96267C13.9097 10.1234 14 10.3414 14 10.5688C14 10.7961 13.9097 11.0141 13.7489 11.1749C13.5882 11.3356 13.3702 11.4259 13.1429 11.4259Z" fill="#0C0C0C"/>
</svg>
