<svg width="16" height="16" viewBox="0 0 16 16" fill="none" xmlns="http://www.w3.org/2000/svg">
<path d="M12.9995 8.50025C13.2756 8.50053 13.4997 8.27691 13.5 8.00077L13.5052 2.99536C13.5053 2.86258 13.4526 2.73519 13.3588 2.64129C13.2649 2.5474 13.1375 2.49471 13.0047 2.49484L7.99948 2.49998C7.72334 2.50027 7.49971 2.72435 7.5 3.0005C7.50028 3.27664 7.72437 3.50027 8.00051 3.49998L11.7968 3.49608L6.64644 8.64649C6.64472 8.64822 6.64301 8.64995 6.64131 8.6517L3.50132 11.7917L3.50526 7.99517C3.50555 7.71903 3.28193 7.49494 3.00578 7.49465C2.72964 7.49436 2.50555 7.71799 2.50527 7.99413L2.50006 12.9995C2.49992 13.1323 2.55261 13.2597 2.64651 13.3536C2.7404 13.4475 2.86779 13.5002 3.00057 13.5001L8.00577 13.4949C8.28192 13.4946 8.50555 13.2705 8.50526 12.9944C8.50498 12.7183 8.28089 12.4946 8.00475 12.4949L4.20844 12.4988L7.35882 9.3484C7.36055 9.34667 7.36226 9.34494 7.36396 9.34319L12.5039 4.20321L12.5 7.99973C12.4997 8.27587 12.7233 8.49996 12.9995 8.50025Z" fill="#0C0C0C"/>
</svg>
