<svg width="16" height="16" viewBox="0 0 16 16" fill="none" xmlns="http://www.w3.org/2000/svg">
<path d="M12.9995 8.50023C13.2757 8.50052 13.4998 8.27689 13.5001 8.00075L13.5053 2.99535C13.5054 2.86256 13.4527 2.73517 13.3588 2.64128C13.2649 2.54738 13.1375 2.49469 13.0047 2.49483L7.99954 2.49997C7.7234 2.50025 7.49977 2.72434 7.50006 3.00048C7.50034 3.27662 7.72443 3.50025 8.00057 3.49997L11.7969 3.49607L6.6465 8.64647C6.64478 8.6482 6.64307 8.64994 6.64137 8.65168L3.50138 11.7917L3.50533 7.99515C3.50561 7.71901 3.28199 7.49492 3.00585 7.49464C2.7297 7.49435 2.50561 7.71797 2.50533 7.99412L2.50012 12.9995C2.49998 13.1323 2.55267 13.2597 2.64657 13.3536C2.74046 13.4475 2.86785 13.5002 3.00064 13.5L8.00584 13.4949C8.28198 13.4946 8.50561 13.2705 8.50532 12.9944C8.50504 12.7182 8.28095 12.4946 8.00481 12.4949L4.2085 12.4988L7.35888 9.34839C7.36061 9.34666 7.36232 9.34492 7.36402 9.34317L12.504 4.20319L12.5001 7.99971C12.4998 8.27585 12.7234 8.49994 12.9995 8.50023Z" fill="#0C0C0C"/>
</svg>
