<svg width="16" height="16" viewBox="0 0 16 16" fill="none" xmlns="http://www.w3.org/2000/svg">
<path d="M12.8146 11.4003C14.1125 10.4197 14.8888 9.2406 15.2302 8.6396C15.4569 8.24042 15.4569 7.75958 15.2302 7.3604C14.5826 6.22031 12.3699 3 8.00004 3C6.84981 3 5.84904 3.22311 4.98693 3.57267L5.76688 4.35263C6.42638 4.13328 7.16903 4 8.00004 4C11.8108 4 13.7634 6.80277 14.3607 7.85429C14.4134 7.94719 14.4134 8.05281 14.3607 8.14571C14.0355 8.7181 13.3088 9.80942 12.0994 10.6851L12.8146 11.4003Z" fill="#0C0C0C"/>
<path fill-rule="evenodd" clip-rule="evenodd" d="M13.5 13.5L2.00004 2C1.87208 2 1.74412 2.04881 1.64648 2.14645C1.45122 2.34171 1.45122 2.65829 1.64648 2.85355L3.30441 4.51147C1.93479 5.50867 1.12157 6.74127 0.769901 7.3604C0.543171 7.75958 0.543171 8.24042 0.769901 8.6396C1.41747 9.77969 3.63014 13 8.00004 13C9.21585 13 10.2647 12.7507 11.1593 12.3663L12.6465 13.8536C12.8417 14.0488 13.1583 14.0488 13.3536 13.8536C13.4512 13.7559 13.5 13.628 13.5 13.5ZM1.63943 7.85429C1.97526 7.26302 2.73964 6.11804 4.02193 5.229L5.29975 6.50682C5.10839 6.86897 5.00004 7.28177 5.00004 7.71987C5.00004 9.15588 6.16416 10.32 7.60017 10.32C8.03827 10.32 8.45106 10.2116 8.81322 10.0203L10.3871 11.5941C9.68981 11.845 8.89632 12 8.00004 12C4.18929 12 2.23669 9.19723 1.63943 8.14571C1.58666 8.05281 1.58666 7.94719 1.63943 7.85429Z" fill="#0C0C0C"/>
</svg>
