<svg width="16" height="16" viewBox="0 0 16 16" fill="none" xmlns="http://www.w3.org/2000/svg">
<path fill-rule="evenodd" clip-rule="evenodd" d="M8.00004 5.5C6.61933 5.5 5.50004 6.61929 5.50004 8C5.50004 9.38071 6.61933 10.5 8.00004 10.5C9.38075 10.5 10.5 9.38071 10.5 8C10.5 6.61929 9.38075 5.5 8.00004 5.5ZM6.50004 8C6.50004 7.17157 7.17161 6.5 8.00004 6.5C8.82847 6.5 9.50004 7.17157 9.50004 8C9.50004 8.82843 8.82847 9.5 8.00004 9.5C7.17161 9.5 6.50004 8.82843 6.50004 8Z" fill="#0C0C0C"/>
<path fill-rule="evenodd" clip-rule="evenodd" d="M8.00004 3C3.63014 3 1.41747 6.22031 0.769901 7.3604C0.543171 7.75958 0.543171 8.24042 0.769901 8.6396C1.41747 9.77969 3.63014 13 8.00004 13C12.3699 13 14.5826 9.77969 15.2302 8.6396C15.4569 8.24042 15.4569 7.75958 15.2302 7.3604C14.5826 6.22031 12.3699 3 8.00004 3ZM1.63943 7.85429C2.23668 6.80278 4.18929 4 8.00004 4C11.8108 4 13.7634 6.80277 14.3607 7.85429C14.4134 7.94719 14.4134 8.05281 14.3607 8.14571C13.7634 9.19723 11.8108 12 8.00004 12C4.18929 12 2.23669 9.19723 1.63943 8.14571C1.58666 8.05281 1.58666 7.94719 1.63943 7.85429Z" fill="#0C0C0C"/>
</svg>
