<svg width="16" height="16" viewBox="0 0 16 16" fill="none" xmlns="http://www.w3.org/2000/svg">
<path fill-rule="evenodd" clip-rule="evenodd" d="M4.5 1C3.67157 1 3 1.67157 3 2.5L2.99999 6.5C2.99999 6.77614 3.22385 7 3.49999 7C3.77613 7 3.99999 6.77614 3.99999 6.5L4 2.5C4 2.22386 4.22385 2 4.5 2H7.5V5.5C7.5 6.32843 8.17157 7 9 7H12.5L12.5 13.5C12.5 13.7761 12.2761 14 12 14H4C3.72385 14 3.5 14.2239 3.5 14.5C3.5 14.7761 3.72385 15 4 15H12C12.8284 15 13.5 14.3284 13.5 13.5V5.91421C13.5 5.51639 13.342 5.13486 13.0607 4.85355L9.64644 1.43934C9.36514 1.15804 8.98361 1 8.58578 1H4.5ZM12.5 6L12.5 5.91421C12.5 5.78161 12.4473 5.65443 12.3535 5.56066L8.93934 2.14645C8.84557 2.05268 8.71839 2 8.58578 2H8.5V5.5C8.5 5.77614 8.72386 6 9 6H12.5ZM3.9 8.7C4.06569 8.92091 4.02091 9.23431 3.8 9.4L2.33333 10.5L3.8 11.6C4.02091 11.7657 4.06569 12.0791 3.9 12.3C3.73431 12.5209 3.42091 12.5657 3.2 12.4L1.2 10.9C1.0741 10.8056 1 10.6574 1 10.5C1 10.3426 1.0741 10.1944 1.2 10.1L3.2 8.6C3.42091 8.43431 3.73431 8.47909 3.9 8.7ZM5.7 9.4C5.47909 9.23431 5.43431 8.92091 5.6 8.7C5.76569 8.47909 6.07909 8.43431 6.3 8.6L8.3 10.1C8.4259 10.1944 8.5 10.3426 8.5 10.5C8.5 10.6574 8.4259 10.8056 8.3 10.9L6.3 12.4C6.07909 12.5657 5.76569 12.5209 5.6 12.3C5.43431 12.0791 5.47909 11.7657 5.7 11.6L7.16667 10.5L5.7 9.4Z" fill="#0C0C0C"/>
</svg>
