<svg width="16" height="16" viewBox="0 0 16 16" fill="none" xmlns="http://www.w3.org/2000/svg">
<path fill-rule="evenodd" clip-rule="evenodd" d="M4.50001 2C4.22386 2 4.00001 2.22386 4.00001 2.5L4 13.5C4 13.7761 4.22386 14 4.5 14H7.25C7.52615 14 7.75 14.2239 7.75 14.5C7.75 14.7761 7.52615 15 7.25 15H4.5C3.67157 15 3 14.3284 3 13.5L3.00001 2.5C3.00001 1.67157 3.67158 1 4.50001 1H8.58579C8.98362 1 9.36515 1.15804 9.64645 1.43934L13.0607 4.85355C13.342 5.13486 13.5 5.51639 13.5 5.91421V8C13.5 8.27614 13.2761 8.5 13 8.5C12.7239 8.5 12.5 8.27614 12.5 8L12.5 7H9.00001C8.17158 7 7.50001 6.32843 7.50001 5.5V2H4.50001ZM12.5 5.91421L12.5 6H9.00001C8.72387 6 8.50001 5.77614 8.50001 5.5V2H8.58579C8.7184 2 8.84558 2.05268 8.93935 2.14645L12.3536 5.56066C12.4473 5.65443 12.5 5.78161 12.5 5.91421ZM12.0857 10.4685C12.3444 10.1451 12.292 9.67311 11.9685 9.41435C11.6451 9.15559 11.1731 9.20803 10.9143 9.53148L9.04432 11.869C8.59908 12.4256 8.99533 13.25 9.70806 13.25H11.9395L10.9143 14.5315C10.6556 14.8549 10.708 15.3269 11.0315 15.5857C11.3549 15.8444 11.8269 15.792 12.0857 15.4685L13.9557 13.131C14.4009 12.5744 14.0047 11.75 13.2919 11.75H11.0605L12.0857 10.4685Z" fill="#0C0C0C"/>
</svg>
