<svg width="16" height="16" viewBox="0 0 16 16" fill="none" xmlns="http://www.w3.org/2000/svg">
<path fill-rule="evenodd" clip-rule="evenodd" d="M4.00001 2.5C4.00001 2.22386 4.22386 2 4.50001 2H7.50001V5.5C7.50001 6.32843 8.17158 7 9.00001 7H12.5L12.5 13.5C12.5 13.7761 12.2761 14 12 14H4.5C4.22386 14 4 13.7761 4 13.5L4.00001 2.5ZM12.5 6L12.5 5.91421C12.5 5.78161 12.4473 5.65443 12.3536 5.56066L8.93935 2.14645C8.84558 2.05268 8.7184 2 8.58579 2H8.50001V5.5C8.50001 5.77614 8.72387 6 9.00001 6H12.5ZM4.50001 1C3.67158 1 3.00001 1.67157 3.00001 2.5L3 13.5C3 14.3284 3.67157 15 4.5 15H12C12.8284 15 13.5 14.3284 13.5 13.5V5.91421C13.5 5.51639 13.342 5.13486 13.0607 4.85355L9.64645 1.43934C9.36515 1.15804 8.98362 1 8.58579 1H4.50001Z" fill="#0C0C0C"/>
</svg>
