<svg width="16" height="16" viewBox="0 0 16 16" fill="none" xmlns="http://www.w3.org/2000/svg">
<path fill-rule="evenodd" clip-rule="evenodd" d="M4.00001 2.5C4.00001 2.22386 4.22386 2 4.50001 2H7.50001V5.5C7.50001 6.32843 8.17158 7 9.00001 7H12.5L12.5 8C12.5 8.27614 12.7239 8.5 13 8.5C13.2761 8.5 13.5 8.27614 13.5 8V5.91421C13.5 5.51639 13.342 5.13486 13.0607 4.85355L9.64645 1.43934C9.36515 1.15804 8.98362 1 8.58579 1H4.50001C3.67158 1 3.00001 1.67157 3.00001 2.5L3 13.5C3 14.3284 3.67157 15 4.5 15H8.25C8.52615 15 8.75 14.7761 8.75 14.5C8.75 14.2239 8.52615 14 8.25 14H4.5C4.22386 14 4 13.7761 4 13.5L4.00001 2.5ZM12.5 6L12.5 5.91421C12.5 5.78161 12.4473 5.65443 12.3536 5.56066L8.93935 2.14645C8.84558 2.05268 8.7184 2 8.58579 2H8.50001V5.5C8.50001 5.77614 8.72387 6 9.00001 6H12.5ZM11.5 9C11.7761 9 12 9.22386 12 9.5V11.5H14C14.2761 11.5 14.5 11.7239 14.5 12C14.5 12.2761 14.2761 12.5 14 12.5H12V14.5C12 14.7761 11.7761 15 11.5 15C11.2239 15 11 14.7761 11 14.5V12.5H9C8.72386 12.5 8.5 12.2761 8.5 12C8.5 11.7239 8.72386 11.5 9 11.5H11V9.5C11 9.22386 11.2239 9 11.5 9Z" fill="black"/>
</svg>
