<svg width="16" height="16" viewBox="0 0 16 16" fill="none" xmlns="http://www.w3.org/2000/svg">
<path fill-rule="evenodd" clip-rule="evenodd" d="M12 14.5H4.5C3.94772 14.5 3.5 14.0523 3.5 13.5L3.50001 2.5C3.50001 1.94771 3.94772 1.5 4.50001 1.5H8.58579C8.85101 1.5 9.10536 1.60536 9.2929 1.79289L12.7071 5.20711C12.8947 5.39464 13 5.649 13 5.91421V13.5C13 14.0523 12.5523 14.5 12 14.5ZM8 3.20711C8 2.76165 8.53857 2.53857 8.85355 2.85355L11.6464 5.64645C11.9614 5.96143 11.7383 6.5 11.2929 6.5H8.5C8.22386 6.5 8 6.27614 8 6V3.20711ZM8.58565 8.46852C8.84441 8.14507 8.79197 7.67311 8.46852 7.41435C8.14507 7.15559 7.67311 7.20803 7.41435 7.53148L5.54432 9.86901C5.09908 10.4256 5.49533 11.25 6.20806 11.25H8.43953L7.41435 12.5315C7.15559 12.8549 7.20803 13.3269 7.53148 13.5857C7.85493 13.8444 8.32689 13.792 8.58565 13.4685L10.4557 11.131C10.9009 10.5744 10.5047 9.75 9.79194 9.75H7.56047L8.58565 8.46852Z" fill="#0C0C0C"/>
</svg>
