<svg width="16" height="16" viewBox="0 0 16 16" fill="none" xmlns="http://www.w3.org/2000/svg">
<path fill-rule="evenodd" clip-rule="evenodd" d="M6.17847 1.92859C5.35005 1.92859 4.67847 2.60016 4.67847 3.42859L4.67847 4H4.17858C3.3896 4 2.75001 4.63959 2.75001 5.42857L2.75 13.5714C2.75 14.3604 3.38959 15 4.17857 15H10.3214C11.1104 15 11.75 14.3604 11.75 13.5714V13.0714H12.3213C13.1498 13.0714 13.8213 12.3999 13.8213 11.5714V6.27137C13.8213 5.87355 13.6633 5.49202 13.382 5.21071L10.5392 2.36793C10.2579 2.08662 9.87637 1.92859 9.47854 1.92859H6.17847ZM11.75 12.0714H12.3213C12.5975 12.0714 12.8213 11.8476 12.8213 11.5714V6.27137C12.8213 6.13876 12.7686 6.01159 12.6749 5.91782L9.8321 3.07504C9.73833 2.98127 9.61115 2.92859 9.47854 2.92859H6.17847C5.90233 2.92859 5.67847 3.15245 5.67847 3.42859L5.67847 4H7.47865C7.85753 4 8.22089 4.15051 8.4888 4.41842L11.3316 7.2612C11.5995 7.52911 11.75 7.89247 11.75 8.27135V12.0714ZM4.17858 4.85714C3.86298 4.85714 3.60715 5.11298 3.60715 5.42857L3.60714 13.5714C3.60714 13.887 3.86298 14.1428 4.17857 14.1428H10.3214C10.637 14.1428 10.8929 13.887 10.8929 13.5714V9.14286H8.03575C7.24677 9.14286 6.60718 8.50327 6.60718 7.71429V4.85714H4.17858ZM10.8929 8.27135V8.28572H8.03575C7.72016 8.28572 7.46432 8.02988 7.46432 7.71429V4.85714H7.47865C7.6302 4.85714 7.77554 4.91735 7.88271 5.02451L10.7255 7.86729C10.8327 7.97446 10.8929 8.1198 10.8929 8.27135Z" fill="#0C0C0C"/>
</svg>
