<svg width="16" height="16" viewBox="0 0 16 16" fill="none" xmlns="http://www.w3.org/2000/svg">
<path fill-rule="evenodd" clip-rule="evenodd" d="M3.99999 2.5C3.99999 2.22386 4.22385 2 4.49999 2H7.5V5.5C7.5 6.32843 8.17157 7 9 7H12.5L12.5 13.5C12.5 13.7761 12.2761 14 12 14H4.49999C4.22384 14 3.99998 13.7761 3.99998 13.5L3.99999 2.5ZM12.5 6L12.5 5.91421C12.5 5.78161 12.4473 5.65443 12.3535 5.56066L8.93933 2.14645C8.84556 2.05268 8.71839 2 8.58578 2H8.5V5.5C8.5 5.77614 8.72385 6 9 6H12.5ZM4.49999 1C3.67156 1 2.99999 1.67157 2.99999 2.5L2.99998 13.5C2.99998 14.3284 3.67156 15 4.49999 15H12C12.8284 15 13.5 14.3284 13.5 13.5V5.91421C13.5 5.51639 13.342 5.13486 13.0607 4.85355L9.64644 1.43934C9.36513 1.15804 8.9836 1 8.58578 1H4.49999Z" fill="#0C0C0C"/>
</svg>
