<svg width="16" height="16" viewBox="0 0 16 16" fill="none" xmlns="http://www.w3.org/2000/svg">
<path fill-rule="evenodd" clip-rule="evenodd" d="M12 14.5H4.5C3.94772 14.5 3.5 14.0523 3.5 13.5L3.50001 2.5C3.50001 1.94771 3.94772 1.5 4.50001 1.5H8.58579C8.85101 1.5 9.10536 1.60536 9.2929 1.79289L12.7071 5.20711C12.8947 5.39464 13 5.649 13 5.91421V13.5C13 14.0523 12.5523 14.5 12 14.5ZM8 3.20711C8 2.76165 8.53857 2.53857 8.85355 2.85355L11.6464 5.64645C11.9614 5.96143 11.7383 6.5 11.2929 6.5H8.5C8.22386 6.5 8 6.27614 8 6V3.20711ZM6.83926 9.46142C6.0781 9.46142 5.46485 10.0856 5.47826 10.8466C5.49134 11.5889 6.09683 12.1838 6.83926 12.1838L7.14529 12.1838C7.42143 12.1838 7.64529 12.4077 7.64529 12.6838C7.64529 12.96 7.42143 13.1838 7.14529 13.1838H6.83926C5.55141 13.1838 4.5011 12.1519 4.47841 10.8642C4.45515 9.5441 5.51892 8.46142 6.83926 8.46142L7.07969 8.46142C7.35583 8.46142 7.57969 8.68528 7.57969 8.96142C7.57969 9.23756 7.35583 9.46142 7.07969 9.46142H6.83926ZM7.22544 10.3692C6.94929 10.3692 6.72544 10.5931 6.72544 10.8692C6.72544 11.1454 6.94929 11.3692 7.22544 11.3692H9.42754C9.70368 11.3692 9.92754 11.1454 9.92754 10.8692C9.92754 10.5931 9.70368 10.3692 9.42754 10.3692L7.22544 10.3692ZM11.167 10.8466C11.1804 10.0856 10.5672 9.46142 9.80604 9.46142H9.5656C9.28946 9.46142 9.0656 9.23757 9.0656 8.96142C9.0656 8.68528 9.28946 8.46142 9.5656 8.46142H9.80604C11.1264 8.46142 12.1901 9.5441 12.1669 10.8642C12.1442 12.1519 11.0939 13.1838 9.80604 13.1838L9.5 13.1838C9.22386 13.1838 9 12.96 9 12.6838C9 12.4077 9.22386 12.1838 9.5 12.1838H9.80604C10.5485 12.1838 11.154 11.5889 11.167 10.8466Z" fill="#0C0C0C"/>
</svg>
