<svg width="16" height="16" viewBox="0 0 16 16" fill="none" xmlns="http://www.w3.org/2000/svg">
<path fill-rule="evenodd" clip-rule="evenodd" d="M3 2.5C2.72386 2.5 2.5 2.72386 2.5 3V6.5C2.5 6.77614 2.72386 7 3 7H3.5C3.77614 7 4 7.22386 4 7.5C4 7.77614 3.77614 8 3.5 8H3C2.17157 8 1.5 7.32843 1.5 6.5V3C1.5 2.17157 2.17157 1.5 3 1.5H13C13.8284 1.5 14.5 2.17157 14.5 3V6.5C14.5 7.32843 13.8284 8 13 8H12.5C12.2239 8 12 7.77614 12 7.5C12 7.22386 12.2239 7 12.5 7H13C13.2761 7 13.5 6.77614 13.5 6.5V3C13.5 2.72386 13.2761 2.5 13 2.5H3ZM8.37222 3.84883C8.73185 4.05434 8.85679 4.51248 8.65127 4.87212L7.29242 7.25H9.79322C10.4612 7.25 10.88 7.97163 10.5486 8.55162L8.65129 11.8721C8.44579 12.2317 7.98765 12.3567 7.62801 12.1512C7.26836 11.9457 7.14341 11.4876 7.34891 11.1279L8.70765 8.75H6.20679C5.53877 8.75 5.11999 8.02833 5.45142 7.44834L7.34892 4.12788C7.55444 3.76825 8.01258 3.64331 8.37222 3.84883ZM2.5 13C2.5 13.2761 2.72386 13.5 3 13.5H13C13.2761 13.5 13.5 13.2761 13.5 13V10.5C13.5 10.2239 13.7239 10 14 10C14.2761 10 14.5 10.2239 14.5 10.5V13C14.5 13.8284 13.8284 14.5 13 14.5H3C2.17157 14.5 1.5 13.8284 1.5 13V10.5C1.5 10.2239 1.72386 10 2 10C2.27614 10 2.5 10.2239 2.5 10.5V13Z" fill="black"/>
</svg>
