<svg width="16" height="16" viewBox="0 0 16 16" fill="none" xmlns="http://www.w3.org/2000/svg">
<path fill-rule="evenodd" clip-rule="evenodd" d="M4.5 14.5H12C12.5523 14.5 13 14.0523 13 13.5V5.91421C13 5.649 12.8947 5.39464 12.7071 5.20711L9.2929 1.79289C9.10536 1.60536 8.85101 1.5 8.58579 1.5H4.50001C3.94772 1.5 3.50001 1.94771 3.50001 2.5L3.5 13.5C3.5 14.0523 3.94772 14.5 4.5 14.5ZM8.85355 2.85355C8.53857 2.53857 8 2.76165 8 3.20711V6C8 6.27614 8.22386 6.5 8.5 6.5H11.2929C11.7383 6.5 11.9614 5.96143 11.6464 5.64645L8.85355 2.85355Z" fill="#0C0C0C"/>
</svg>
