<svg width="16" height="15" viewBox="0 0 16 15" fill="none" xmlns="http://www.w3.org/2000/svg">
<path d="M9.5 8.00001L9.12371 7.67076C9.04396 7.76191 9 7.8789 9 8.00001H9.5ZM6.5 8H7C7 7.87889 6.95604 7.76189 6.87629 7.67075L6.5 8ZM12.7526 4.28277L13.1289 4.61202L12.7526 4.28277ZM7.5 13.5H8.5V12.5H7.5V13.5ZM10 12L10 8.00001H9L9 12H10ZM12 1.5H4V2.5H12V1.5ZM6 8V12H7V8H6ZM2.5 3V3.62428H3.5V3H2.5ZM2.87114 4.61203L6.12371 8.32925L6.87629 7.67075L3.62371 3.95353L2.87114 4.61203ZM9.87629 8.32926L13.1289 4.61202L12.3763 3.95352L9.12371 7.67076L9.87629 8.32926ZM13.5 3.62427V3H12.5V3.62427H13.5ZM13.1289 4.61202C13.3681 4.33858 13.5 3.9876 13.5 3.62427H12.5C12.5 3.74538 12.456 3.86237 12.3763 3.95352L13.1289 4.61202ZM4 1.5C3.17157 1.5 2.5 2.17157 2.5 3H3.5C3.5 2.72386 3.72386 2.5 4 2.5V1.5ZM12 2.5C12.2761 2.5 12.5 2.72386 12.5 3H13.5C13.5 2.17157 12.8284 1.5 12 1.5V2.5ZM2.5 3.62428C2.5 3.98761 2.63188 4.3386 2.87114 4.61203L3.62371 3.95353C3.54396 3.86238 3.5 3.74539 3.5 3.62428H2.5ZM8.5 13.5C9.32843 13.5 10 12.8284 10 12H9C9 12.2761 8.77614 12.5 8.5 12.5V13.5ZM7.5 12.5C7.22386 12.5 7 12.2761 7 12H6C6 12.8284 6.67157 13.5 7.5 13.5V12.5Z" fill="#0C0C0C"/>
</svg>
