<svg width="16" height="16" viewBox="0 0 16 16" fill="none" xmlns="http://www.w3.org/2000/svg">
<path fill-rule="evenodd" clip-rule="evenodd" d="M4 1.5C3.44772 1.5 3 1.94772 3 2.5V6.5V9.5V14.5C3 14.7761 3.22386 15 3.5 15C3.77614 15 4 14.7761 4 14.5L4 10.5H12.5134C13.4717 10.5 13.8812 9.28235 13.1177 8.70325L9.55358 6L13.1177 3.29675C13.8812 2.71765 13.4717 1.5 12.5134 1.5H4ZM4 9.5L12.5134 9.5L8.94928 6.79675C8.42169 6.39659 8.42169 5.60341 8.94928 5.20325L12.5134 2.5H4L4 6.5L4 9.5Z" fill="#0C0C0C"/>
</svg>
