<svg width="16" height="16" viewBox="0 0 16 16" fill="none" xmlns="http://www.w3.org/2000/svg">
<path fill-rule="evenodd" clip-rule="evenodd" d="M13 4.39995L9.01494 4.39995C8.29929 4.39424 7.68003 3.89838 7.51877 3.2C7.35657 2.49756 6.73104 2 6.01011 2H3C1.89543 2 1 2.89543 1 4V9.79998L1.00001 9.80595L1.00001 10.9999C1.00001 12.1045 1.89544 12.9999 3.00001 12.9999H13C14.1046 12.9999 15 12.1045 15 10.9999V6.39995C15 5.29538 14.1046 4.39995 13 4.39995ZM6.33926 7.49011C5.5781 7.49011 4.96485 8.11426 4.97826 8.8753C4.99134 9.61761 5.59683 10.2125 6.33926 10.2125L6.64529 10.2125C6.92143 10.2125 7.14529 10.4364 7.14529 10.7125C7.14529 10.9887 6.92143 11.2125 6.64529 11.2125H6.33926C5.05141 11.2125 4.0011 10.1806 3.97841 8.89292C3.95515 7.57279 5.01892 6.49011 6.33926 6.49011L6.57969 6.49011C6.85583 6.49011 7.07969 6.71397 7.07969 6.99011C7.07969 7.26625 6.85583 7.49011 6.57969 7.49011H6.33926ZM6.72544 8.39791C6.44929 8.39791 6.22544 8.62177 6.22544 8.89791C6.22544 9.17406 6.44929 9.39791 6.72544 9.39791H8.92754C9.20368 9.39791 9.42754 9.17406 9.42754 8.89791C9.42754 8.62177 9.20368 8.39791 8.92754 8.39791L6.72544 8.39791ZM10.667 8.8753C10.6804 8.11426 10.0672 7.49011 9.30604 7.49011H9.0656C8.78946 7.49011 8.5656 7.26625 8.5656 6.99011C8.5656 6.71397 8.78946 6.49011 9.0656 6.49011H9.30604C10.6264 6.49011 11.6901 7.57279 11.6669 8.89292C11.6442 10.1806 10.5939 11.2125 9.30604 11.2125L9 11.2125C8.72386 11.2125 8.5 10.9887 8.5 10.7125C8.5 10.4364 8.72386 10.2125 9 10.2125H9.30604C10.0485 10.2125 10.654 9.61761 10.667 8.8753Z" fill="#0C0C0C"/>
</svg>
