<svg width="16" height="16" viewBox="0 0 16 16" fill="none" xmlns="http://www.w3.org/2000/svg">
<path d="M9.00696 5.39995L13 5.39995C13.5523 5.39995 14 5.84766 14 6.39995C14 7 15 7 15 6.39995C15.0001 5.29989 14.1046 4.39995 13 4.39995L9.01494 4.39995C8.29929 4.39424 7.68003 3.89838 7.51877 3.2C7.35657 2.49756 6.73104 2 6.01011 2H3C1.89543 2 1 2.89543 1 4V9.79998L1.00001 9.80595L1.00001 10.9999C1.00001 12.1045 1.89544 12.9999 3.00001 12.9999H7.25603C8 13 8 12 7.25603 11.9999H3.00001C2.44772 11.9999 2.00001 11.5522 2.00001 10.9999L2.00001 9.80595L2 9.80303L2 9.79998L2 4C2 3.44771 2.44771 3 3 3H6.01011C6.26543 3 6.48696 3.17621 6.54441 3.42498C6.80982 4.57444 7.82901 5.39055 9.00696 5.39995Z" fill="#0C0C0C"/>
<path d="M11.9859 8.69305C11.4477 8.15483 10.5727 8.16254 10.044 8.71016C9.52839 9.2443 9.53587 10.0931 10.0608 10.6181L10.2772 10.8345C10.4725 11.0298 10.4725 11.3463 10.2772 11.5416C10.082 11.7369 9.7654 11.7369 9.57014 11.5416L9.35374 11.3252C8.4431 10.4146 8.43012 8.94217 9.32458 8.01562C10.2416 7.06569 11.7594 7.05232 12.693 7.98594L12.863 8.15595C13.0583 8.35122 13.0583 8.6678 12.863 8.86306C12.6677 9.05832 12.3512 9.05832 12.1559 8.86306L11.9859 8.69305Z" fill="#0C0C0C"/>
<path d="M14.137 10.8441C14.7108 11.4179 14.6345 12.3691 13.9765 12.8441L13.9349 12.8741C13.3933 13.2651 12.648 13.2052 12.1756 12.7329L11.7867 12.344C11.5915 12.1487 11.2749 12.1487 11.0796 12.344C10.8844 12.5392 10.8844 12.8558 11.0796 13.0511L11.4685 13.44C12.2879 14.2594 13.5807 14.3631 14.5202 13.6849L14.5618 13.6549C15.7192 12.8194 15.8534 11.1463 14.8441 10.137C14.6488 9.9417 14.3322 9.9417 14.137 10.137C13.9417 10.3322 13.9417 10.6488 14.137 10.8441Z" fill="#0C0C0C"/>
<path d="M11.617 9.60803C11.4218 9.41277 11.1052 9.41277 10.9099 9.60803C10.7147 9.8033 10.7147 10.1199 10.9099 10.3151L12.4671 11.8723C12.6623 12.0675 12.9789 12.0675 13.1742 11.8723C13.3694 11.677 13.3694 11.3604 13.1742 11.1652L11.617 9.60803Z" fill="#0C0C0C"/>
</svg>
