<svg width="17" height="16" viewBox="0 0 17 16" fill="none" xmlns="http://www.w3.org/2000/svg">
<path fill-rule="evenodd" clip-rule="evenodd" d="M9.01494 4.39995L13 4.39995C14.1046 4.39995 15 5.29538 15 6.39995V7H4.85919C4.28692 7 3.76452 7.32562 3.51249 7.8394L1.30307 12.3435C1.11102 11.8758 1.00001 11.3888 1.00001 10.9999L1.00001 9.80595L1 9.79998V4C1 2.89543 1.89543 2 3 2H6.01011C6.73104 2 7.35657 2.49756 7.51877 3.2C7.68003 3.89838 8.29929 4.39424 9.01494 4.39995ZM5.53343 8C5.16327 8 4.82338 8.20448 4.64996 8.5315L2.52875 12.5315C2.17556 13.1975 2.65833 14 3.41221 14H12.9666C13.3367 14 13.6766 13.7955 13.85 13.4685L15.9712 9.4685C16.3244 8.80248 15.8417 8 15.0878 8H5.53343Z" fill="#0C0C0C"/>
</svg>
