<svg width="16" height="16" viewBox="0 0 16 16" fill="none" xmlns="http://www.w3.org/2000/svg">
<path fill-rule="evenodd" clip-rule="evenodd" d="M15 10.5C15 12.433 13.433 14 11.5 14C9.567 14 8 12.433 8 10.5C8 8.567 9.567 7 11.5 7C13.433 7 15 8.567 15 10.5ZM11.5 8.74994C11.6381 8.74994 11.75 8.86187 11.75 8.99994V10.25H13C13.1381 10.25 13.25 10.3619 13.25 10.5C13.25 10.6381 13.1381 10.75 13 10.75H11.75V11.9999C11.75 12.138 11.6381 12.2499 11.5 12.2499C11.3619 12.2499 11.25 12.138 11.25 11.9999V10.75H10C9.86193 10.75 9.75 10.6381 9.75 10.5C9.75 10.3619 9.86193 10.25 10 10.25H11.25V8.99994C11.25 8.86187 11.3619 8.74994 11.5 8.74994Z" fill="#0C0C0C"/>
<path d="M9.00696 4.39995L13 4.39995C13.5523 4.39995 14 4.84766 14 5.39995V6.75781C14.3777 7.0106 14.7149 7.31904 15 7.67139V5.39995C15 4.29538 14.1046 3.39995 13 3.39995L9.01494 3.39995C8.29929 3.39424 7.68003 2.89838 7.51877 2.2C7.35657 1.49756 6.73104 1 6.01011 1H3C1.89543 1 1 1.89543 1 3V9.79998L1.00001 9.80595L1.00001 10.9999C1.00001 12.1045 1.89544 12.9999 3.00001 12.9999H7.75773C7.55123 12.6914 7.38187 12.356 7.25603 11.9999H3.00001C2.44772 11.9999 2.00001 11.5522 2.00001 10.9999L2.00001 9.80595L2 9.80303L2 9.79998L2 3C2 2.44771 2.44771 2 3 2H6.01011C6.26543 2 6.48696 2.17621 6.54441 2.42498C6.80982 3.57444 7.82901 4.39055 9.00696 4.39995Z" fill="#0C0C0C"/>
</svg>
