<svg width="16" height="16" viewBox="0 0 16 16" fill="none" xmlns="http://www.w3.org/2000/svg">
<path fill-rule="evenodd" clip-rule="evenodd" d="M14 8.07646V6.39995C14 5.29538 13.1046 4.39995 12 4.39995L9.01494 4.39995C8.29929 4.39424 7.68003 3.89838 7.51877 3.2C7.35657 2.49756 6.73104 2 6.01011 2H3C1.89543 2 1 2.89543 1 4V10.8L1.00001 10.8058L1.00001 11.9999C1.00001 12.8029 1.47316 13.4953 2.15586 13.8136C2.31745 13.93 2.51702 14 2.73852 14H12.323C12.9363 14 13.4879 13.6266 13.7157 13.0571L13.7533 12.9631C13.831 12.8218 13.8922 12.6702 13.9342 12.5107L14.9157 10.0571C15.2472 9.22827 14.7864 8.33826 14 8.07646ZM9.00697 5.39991C7.82902 5.39053 6.80982 4.57444 6.54441 3.42498C6.48696 3.17621 6.26543 3 6.01011 3H3C2.44771 3 2 3.44771 2 4V10.8L2 10.803L2.00001 10.8058L2.00001 11.9999C2.00001 12.0447 2.00295 12.0888 2.00866 12.1321L3.28432 8.94291C3.51211 8.37343 4.06368 8 4.67703 8H13V6.39995C13 5.84766 12.5523 5.39995 12 5.39995L9.01494 5.39995L9.00697 5.39991ZM2.73852 13H12.323C12.5274 13 12.7113 12.8755 12.7872 12.6857L13.9872 9.6857C14.1186 9.35726 13.8767 9 13.523 9H4.67703C4.47258 9 4.28873 9.12448 4.21279 9.3143L2.73852 13Z" fill="#0C0C0C"/>
</svg>
