<svg width="16" height="16" viewBox="0 0 16 16" fill="none" xmlns="http://www.w3.org/2000/svg">
<path fill-rule="evenodd" clip-rule="evenodd" d="M13 4.39995L9.00696 4.39995C7.82901 4.39055 6.80982 3.57444 6.54441 2.42498C6.48696 2.17621 6.26543 2 6.01011 2H3C2.44771 2 2 2.44771 2 3L2 9.79998L2 9.80303L2.00001 9.80595L2.00001 10.9999C2.00001 11.5522 2.44772 11.9999 3.00001 11.9999H7.25603C8 12 8 13 7.25603 12.9999H3.00001C1.89544 12.9999 1.00001 12.1045 1.00001 10.9999L1.00001 9.80595L1 9.79998V3C1 1.89543 1.89543 1 3 1H6.01011C6.73104 1 7.35657 1.49756 7.51877 2.2C7.68003 2.89838 8.29929 3.39424 9.01494 3.39995L13 3.39995C14.1046 3.39995 15.0001 4.29989 15 5.39995C15 6 14 6 14 5.39995C14 4.84766 13.5523 4.39995 13 4.39995ZM13.5413 8.1699C13.3181 7.93559 12.9563 7.93559 12.7332 8.1699C12.51 8.40422 12.51 8.78411 12.7332 9.01843L14.049 10.4H9.57143C9.25584 10.4 9 10.6686 9 11C9 11.3314 9.25584 11.6 9.57143 11.6H14.0487L12.7277 12.9871C12.5045 13.2214 12.5045 13.6013 12.7277 13.8356C12.9509 14.0699 13.3127 14.0699 13.5358 13.8356L15.761 11.4881C15.9057 11.3792 16 11.2012 16 11C16 10.8312 15.9336 10.6787 15.8268 10.5697L15.8267 10.5696L13.5413 8.1699Z" fill="#0C0C0C"/>
</svg>
