<svg width="16" height="16" viewBox="0 0 16 16" fill="none" xmlns="http://www.w3.org/2000/svg">
<path fill-rule="evenodd" clip-rule="evenodd" d="M13 5.39995L9.00696 5.39995C7.82901 5.39055 6.80982 4.57444 6.54441 3.42498C6.48696 3.17621 6.26543 3 6.01011 3H3C2.44771 3 2 3.44771 2 4L2 9.79998L2 9.80303L2.00001 9.80595L2.00001 10.9999C2.00001 11.5522 2.44772 11.9999 3.00001 11.9999H6.25603C7 12 7 13 6.25603 12.9999H3.00001C1.89544 12.9999 1.00001 12.1045 1.00001 10.9999L1.00001 9.80595L1 9.79998V4C1 2.89543 1.89543 2 3 2H6.01011C6.73104 2 7.35657 2.49756 7.51877 3.2C7.68003 3.89838 8.29929 4.39424 9.01494 4.39995L13 4.39995C14.1046 4.39995 15.0001 5.29989 15 6.39995C15 7 14 7 14 6.39995C14 5.84766 13.5523 5.39995 13 5.39995ZM12.5857 9.46852C12.8444 9.14507 12.792 8.67311 12.4685 8.41435C12.1451 8.15559 11.6731 8.20803 11.4143 8.53148L9.54432 10.869C9.09908 11.4256 9.49533 12.25 10.2081 12.25H12.4395L11.4143 13.5315C11.1556 13.8549 11.208 14.3269 11.5315 14.5857C11.8549 14.8444 12.3269 14.792 12.5857 14.4685L14.4557 12.131C14.9009 11.5744 14.5047 10.75 13.7919 10.75H11.5605L12.5857 9.46852Z" fill="#0C0C0C"/>
</svg>
