<svg width="16" height="16" viewBox="0 0 16 16" fill="none" xmlns="http://www.w3.org/2000/svg">
<path fill-rule="evenodd" clip-rule="evenodd" d="M13 5.39995L9.00696 5.39995C7.82901 5.39055 6.80982 4.57444 6.54441 3.42498C6.48696 3.17621 6.26543 3 6.01011 3H3C2.44771 3 2 3.44771 2 4L2 9.79998L2 9.80303L2.00001 9.80595L2.00001 10.9999C2.00001 11.5522 2.44772 11.9999 3.00001 11.9999H6.25603C7 12 7 13 6.25603 12.9999H3.00001C1.89544 12.9999 1.00001 12.1045 1.00001 10.9999L1.00001 9.80595L1 9.79998V4C1 2.89543 1.89543 2 3 2H6.01011C6.73104 2 7.35657 2.49756 7.51877 3.2C7.68003 3.89838 8.29929 4.39424 9.01494 4.39995L13 4.39995C14.1046 4.39995 15.0001 5.29989 15 6.39995C15 7 14 7 14 6.39995C14 5.84766 13.5523 5.39995 13 5.39995ZM13 9.5C13 9.22386 12.7761 9 12.5 9C12.2239 9 12 9.22386 12 9.5V13.7929L10.3536 12.1464C10.1583 11.9512 9.84171 11.9512 9.64645 12.1464C9.45118 12.3417 9.45118 12.6583 9.64645 12.8536L12.1464 15.3536L12.5 15.7071L12.8536 15.3536L15.3536 12.8536C15.5488 12.6583 15.5488 12.3417 15.3536 12.1464C15.1583 11.9512 14.8417 11.9512 14.6464 12.1464L13 13.7929V9.5Z" fill="black"/>
</svg>
