<svg width="16" height="16" viewBox="0 0 16 16" fill="none" xmlns="http://www.w3.org/2000/svg">
<mask id="path-1-inside-1_1176_2821" fill="white">
<path fill-rule="evenodd" clip-rule="evenodd" d="M9.01494 4.39995L13 4.39995C14.1046 4.39995 15 5.29538 15 6.39995V11.9999C15 13.1045 14.1046 13.9999 13 13.9999L3.00001 13.9999C1.89544 13.9999 1.00001 13.1045 1.00001 11.9999L1.00001 10.8059C1 10.804 1 10.802 1 10.8L1 4C1 2.89543 1.89543 2 3 2H6.01011C6.73104 2 7.35657 2.49755 7.51877 3.2C7.68003 3.89838 8.29929 4.39424 9.01494 4.39995Z"/>
</mask>
<path d="M9.01494 4.39995L9.00696 5.39995H9.01494V4.39995ZM13 4.39995V5.39995V4.39995ZM13 13.9999V14.9999V13.9999ZM3.00001 13.9999V12.9999V13.9999ZM1.00001 11.9999H2.00001H1.00001ZM1.00001 10.8059H2.00001L2 10.803L1.00001 10.8059ZM1 10.8H0H1ZM1 4H2.98023e-07H1ZM7.51877 3.2L6.54441 3.42498V3.42498L7.51877 3.2ZM9.01494 5.39995L13 5.39995V3.39995L9.01494 3.39995V5.39995ZM13 5.39995C13.5523 5.39995 14 5.84766 14 6.39995H16C16 4.74309 14.6569 3.39995 13 3.39995V5.39995ZM14 6.39995V11.9999H16V6.39995H14ZM14 11.9999C14 12.5522 13.5523 12.9999 13 12.9999V14.9999C14.6569 14.9999 16 13.6568 16 11.9999H14ZM13 12.9999L3.00001 12.9999L3.00001 14.9999L13 14.9999V12.9999ZM3.00001 12.9999C2.44772 12.9999 2.00001 12.5522 2.00001 11.9999H8.64267e-06C8.58307e-06 13.6568 1.34316 14.9999 3.00001 14.9999V12.9999ZM2.00001 11.9999V10.8059H8.70228e-06L8.64267e-06 11.9999H2.00001ZM2 10.803C2 10.802 2 10.801 2 10.8H0C0 10.8029 4.35114e-06 10.8059 1.29938e-05 10.8089L2 10.803ZM2 10.8L2 4H2.98023e-07L0 10.8H2ZM2 4C2 3.44771 2.44771 3 3 3V1C1.34315 1 3.57628e-07 2.34314 2.98023e-07 4H2ZM3 3H6.01011V1H3V3ZM6.01011 3C6.26543 3 6.48696 3.17621 6.54441 3.42498L8.49313 2.97501C8.22618 1.8189 7.19665 1 6.01011 1V3ZM6.54441 3.42498C6.80982 4.57444 7.82901 5.39052 9.00696 5.39991L9.02291 3.39998C8.76956 3.39796 8.55024 3.22233 8.49313 2.97501L6.54441 3.42498Z" fill="#0C0C0C" mask="url(#path-1-inside-1_1176_2821)"/>
</svg>
