<svg width="16" height="16" viewBox="0 0 16 16" fill="none" xmlns="http://www.w3.org/2000/svg">
<path fill-rule="evenodd" clip-rule="evenodd" d="M15 11.5C15 13.433 13.433 15 11.5 15C9.567 15 8 13.433 8 11.5C8 9.567 9.567 8 11.5 8C13.433 8 15 9.567 15 11.5ZM11.5 9.74994C11.6381 9.74994 11.75 9.86187 11.75 9.99994V11.25H13C13.1381 11.25 13.25 11.3619 13.25 11.5C13.25 11.6381 13.1381 11.75 13 11.75H11.75V12.9999C11.75 13.138 11.6381 13.2499 11.5 13.2499C11.3619 13.2499 11.25 13.138 11.25 12.9999V11.75H10C9.86193 11.75 9.75 11.6381 9.75 11.5C9.75 11.3619 9.86193 11.25 10 11.25H11.25V9.99994C11.25 9.86187 11.3619 9.74994 11.5 9.74994Z" fill="#0C0C0C"/>
<path d="M9.00696 5.39995L13 5.39995C13.5523 5.39995 14 5.84766 14 6.39995V7.75781C14.3777 8.0106 14.7149 8.31904 15 8.67139V6.39995C15 5.29538 14.1046 4.39995 13 4.39995L9.01494 4.39995C8.29929 4.39424 7.68003 3.89838 7.51877 3.2C7.35657 2.49756 6.73104 2 6.01011 2H3C1.89543 2 1 2.89543 1 4V10.8L1.00001 10.8059L1.00001 11.9999C1.00001 13.1045 1.89544 13.9999 3.00001 13.9999H7.75773C7.55123 13.6914 7.38187 13.356 7.25603 12.9999H3.00001C2.44772 12.9999 2.00001 12.5522 2.00001 11.9999L2.00001 10.8059L2 10.803L2 10.8L2 4C2 3.44771 2.44771 3 3 3H6.01011C6.26543 3 6.48696 3.17621 6.54441 3.42498C6.80982 4.57444 7.82901 5.39055 9.00696 5.39995Z" fill="#0C0C0C"/>
</svg>
