<svg width="16" height="16" viewBox="0 0 16 16" fill="none" xmlns="http://www.w3.org/2000/svg">
<path fill-rule="evenodd" clip-rule="evenodd" d="M13 4.39995L9.01494 4.39995C8.29929 4.39424 7.68003 3.89838 7.51877 3.2C7.35657 2.49756 6.73104 2 6.01011 2H3C1.89543 2 1 2.89543 1 4V9.79998L1.00001 9.80595L1.00001 10.9999C1.00001 12.1045 1.89544 12.9999 3.00001 12.9999H13C14.1046 12.9999 15 12.1045 15 10.9999V6.39995C15 5.29538 14.1046 4.39995 13 4.39995ZM8.58565 6.46852C8.84441 6.14507 8.79197 5.67311 8.46852 5.41435C8.14507 5.15559 7.67311 5.20803 7.41435 5.53148L5.54432 7.86901C5.09908 8.42556 5.49533 9.25 6.20806 9.25H8.43953L7.41435 10.5315C7.15559 10.8549 7.20803 11.3269 7.53148 11.5857C7.85493 11.8444 8.32689 11.792 8.58565 11.4685L10.4557 9.13099C10.9009 8.57444 10.5047 7.75 9.79194 7.75H7.56047L8.58565 6.46852Z" fill="#0C0C0C"/>
</svg>
