<svg width="16" height="16" viewBox="0 0 16 16" fill="none" xmlns="http://www.w3.org/2000/svg">
<path d="M7.9994 1.5C4.41052 1.5 1.5 4.48377 1.5 8.1647C1.5 11.1092 3.36227 13.6069 5.94519 14.4882C6.2704 14.5496 6.38892 14.3438 6.38892 14.167C6.38892 14.0087 6.38333 13.5897 6.38014 13.0337C4.57213 13.4363 4.19066 12.1402 4.19066 12.1402C3.89498 11.3702 3.46881 11.1652 3.46881 11.1652C2.87865 10.752 3.51351 10.7602 3.51351 10.7602C4.16592 10.8073 4.50909 11.4471 4.50909 11.4471C5.08888 12.4655 6.03059 12.1713 6.40089 12.0007C6.45994 11.5703 6.62794 11.2765 6.81348 11.11C5.37019 10.9419 3.85268 10.3699 3.85268 7.81612C3.85268 7.08869 4.10607 6.49341 4.52185 6.02782C4.45482 5.85926 4.23176 5.18134 4.5857 4.26407C4.5857 4.26407 5.13117 4.08487 6.37295 4.94732C6.89129 4.79921 7.44754 4.72557 8.0002 4.7227C8.55246 4.72557 9.10831 4.79921 9.62744 4.94732C10.8684 4.08487 11.4131 4.26407 11.4131 4.26407C11.7678 5.18134 11.5448 5.85926 11.4781 6.02782C11.8947 6.49341 12.1461 7.08869 12.1461 7.81612C12.1461 10.3764 10.6262 10.9398 9.17854 11.1047C9.41157 11.3105 9.61946 11.7172 9.61946 12.3386C9.61946 13.2297 9.61148 13.9485 9.61148 14.167C9.61148 14.3454 9.7288 14.5528 10.0584 14.4878C12.6393 13.6045 14.5 11.1084 14.5 8.1647C14.5 4.48377 11.5895 1.5 7.9994 1.5" fill="#0C0C0C"/>
</svg>
