<svg width="16" height="16" viewBox="0 0 16 16" fill="none" xmlns="http://www.w3.org/2000/svg">
<path fill-rule="evenodd" clip-rule="evenodd" d="M8 14.5C11.5899 14.5 14.5 11.5899 14.5 8C14.5 4.41015 11.5899 1.5 8 1.5C4.41015 1.5 1.5 4.41015 1.5 8C1.5 11.5899 4.41015 14.5 8 14.5ZM10.6876 3.83047C10.7183 3.7423 10.8062 3.68305 10.9048 3.68407C10.9975 3.68518 11.0802 3.73966 11.1129 3.82136L12.4632 7.21112C12.4634 7.21319 12.464 7.21521 12.465 7.21705L13.1384 8.90621C13.1737 8.9954 13.142 9.09561 13.0603 9.15196L8.11099 12.5392L8.10919 12.5417C8.10771 12.5427 8.10626 12.5435 8.10481 12.5444C8.10277 12.5456 8.10073 12.5468 8.09862 12.5483C8.09772 12.5483 8.09682 12.5491 8.09591 12.5491C8.09501 12.55 8.09411 12.5508 8.09254 12.5515C8.08792 12.5542 8.0832 12.5567 8.07836 12.5591L8.07318 12.5614C8.07229 12.5623 8.07138 12.5623 8.07048 12.5623C8.06992 12.5628 8.06971 12.563 8.06946 12.5631C8.06971 12.5631 8.06932 12.5631 8.06946 12.5631C8.0621 12.5667 8.05387 12.5698 8.04595 12.5722H8.04325C8.04235 12.5731 8.04145 12.5731 8.03988 12.5731C8.03692 12.574 8.03391 12.5749 8.03088 12.5756C8.03056 12.5758 8.03019 12.5759 8.0298 12.576C8.02824 12.5765 8.02624 12.5766 8.0248 12.5773C8.023 12.5773 8.0221 12.578 8.02142 12.578C8.02048 12.578 8.01983 12.578 8.01922 12.578C8.01853 12.5781 8.01789 12.5783 8.01692 12.5788H8.01512C8.01152 12.5796 8.00905 12.5796 8.00545 12.5796C8.00006 12.5808 7.99468 12.5812 7.98902 12.5816C7.98639 12.5817 7.9837 12.5819 7.98091 12.5822C7.97641 12.5822 7.9718 12.582 7.96719 12.5818C7.96257 12.5816 7.95796 12.5813 7.95346 12.5813L7.9359 12.5788C7.93163 12.578 7.92735 12.5773 7.92285 12.5756C7.92015 12.5756 7.91835 12.5748 7.91655 12.5748C7.91205 12.5731 7.90867 12.5722 7.9053 12.5714C7.9044 12.5705 7.9044 12.5705 7.9035 12.5705L7.88842 12.5657C7.8855 12.5648 7.88258 12.5627 7.87979 12.5616C7.87762 12.5606 7.87553 12.5597 7.87357 12.5591L7.86996 12.5566C7.86839 12.5566 7.86749 12.5557 7.86659 12.5549C7.86569 12.5549 7.86479 12.554 7.86479 12.554C7.86501 12.5542 7.86434 12.554 7.86479 12.554C7.86456 12.5538 7.86344 12.5532 7.86299 12.5532C7.85939 12.5517 7.85691 12.5491 7.85354 12.5474L7.84453 12.5426C7.84453 12.5417 7.84453 12.5417 7.84363 12.5417L7.84273 12.54L2.89343 9.15175C2.81128 9.09595 2.77885 8.99536 2.81421 8.906L3.48936 7.21112C3.48973 7.21086 3.48995 7.21056 3.49014 7.2103C3.49041 7.20993 3.49063 7.20963 3.49116 7.20963L4.83989 3.82136C4.87395 3.73728 4.96037 3.68236 5.05594 3.68407C5.1515 3.68648 5.2352 3.74503 5.26523 3.83047L6.38441 7.07383H9.56842L10.6876 3.83047Z" fill="#0C0C0C"/>
</svg>
