<svg width="16" height="16" viewBox="0 0 16 16" fill="none" xmlns="http://www.w3.org/2000/svg">
<path d="M8.91112 9.2254C8.86984 9.184 8.78682 9.14213 8.74554 9.14213H8.33136C8.28962 9.14213 8.24834 9.14213 8.20706 9.10073L7.91718 8.93466C7.87544 8.89327 7.83416 8.8514 7.79288 8.81L7.70986 8.60206C7.66858 8.51926 7.58556 8.43599 7.503 8.43599H7.33696C7.2544 8.43599 7.21266 8.39459 7.17138 8.35319L6.96453 8.06199C6.92278 8.02059 6.84022 7.97919 6.7572 7.97919H6.55035C6.5086 7.97919 6.46732 7.97919 6.42605 7.93779L6.1357 7.81312C6.01187 7.77125 5.88757 7.81312 5.80454 7.89592L5.39036 8.60206C5.39036 8.64393 5.34909 8.64393 5.30734 8.68533L5.14176 8.81C5.05921 8.8514 5.01746 8.93467 5.01746 9.01746V9.47474C5.01746 9.55753 5.05921 9.6408 5.10049 9.6822L5.39036 9.93154C5.43164 9.97294 5.47339 10.0562 5.47339 10.1395V10.2641C5.47339 10.3469 5.51466 10.4302 5.59769 10.4716L5.97012 10.6795C6.01187 10.7209 6.05314 10.7623 6.09442 10.8456L6.26 11.8425V11.9672L6.1357 12.2998C6.09442 12.424 6.1357 12.5486 6.26 12.5905C6.34302 12.6319 6.42605 12.7566 6.3843 12.8394L6.30174 13.172C6.30174 13.2552 6.30174 13.338 6.34302 13.3794L6.8815 13.9614C6.92278 14.0028 7.0058 14.0442 7.04708 14.0442H7.17138C7.29568 14.0442 7.41998 13.9195 7.41998 13.7953V13.3794C7.41998 13.338 7.41998 13.2966 7.3787 13.2552L7.17138 12.964C7.08883 12.8394 7.1301 12.6733 7.2544 12.5905L7.503 12.4658C7.54428 12.4658 7.58556 12.424 7.58556 12.3826L8.08276 11.7178C8.12404 11.6764 8.12404 11.635 8.12404 11.5518L8.08276 11.0531L8.33136 11.1364C8.41392 11.1778 8.53822 11.1364 8.57949 11.0531L8.74554 10.8456C8.78682 10.8042 8.78682 10.7623 8.78682 10.7209V10.1395C8.78682 10.0976 8.78682 10.0562 8.8281 10.0148L8.99414 9.6408C9.03542 9.55753 9.03542 9.43334 8.9524 9.35007L8.91112 9.2254Z" fill="#0C0C0C"/>
<path d="M11.9347 3.70036L12.0177 3.82503C12.1003 3.9911 12.059 4.15716 11.8934 4.24043L11.7691 4.28183C11.5618 4.4065 11.5618 4.65584 11.7278 4.7805L12.0177 4.94657L12.059 4.98797L12.9704 5.36197C13.0947 5.40337 13.219 5.36198 13.3015 5.27918C13.3428 5.19591 13.4258 5.19591 13.5089 5.19591C13.6332 5.40337 13.7157 5.65271 13.7987 5.90205L13.6332 5.81878C13.5501 5.77738 13.4258 5.81878 13.3428 5.90205L13.219 6.06811C13.136 6.15138 13.0529 6.15138 12.9704 6.15138L12.6388 6.06811C12.5145 6.02671 12.4319 5.94345 12.4319 5.81878C12.4319 5.65271 12.2663 5.52804 12.1003 5.56991L11.5205 5.73598H10.9408C10.8165 5.73598 10.6922 5.81878 10.6922 5.94345L10.6509 6.19278C10.6509 6.27605 10.6091 6.31745 10.5266 6.35885L9.98811 6.73285C9.90508 6.77425 9.8638 6.89892 9.8638 6.98219L9.94636 7.89627C9.94636 7.97907 9.98811 8.02094 10.0294 8.06234L10.6091 8.56101C10.6922 8.60241 10.7752 8.64381 10.8577 8.60241L11.5205 8.39447C11.6035 8.35307 11.7278 8.39447 11.8104 8.47774L11.8517 8.56101C11.8934 8.60241 11.976 8.64381 12.059 8.64381H12.2663V9.30855C12.2663 9.34995 12.2663 9.43321 12.3076 9.47461L12.5562 9.76535C12.5975 9.84862 12.6388 9.93189 12.5975 10.0147L12.4319 10.4301C12.3902 10.5134 12.4319 10.638 12.5145 10.7208L12.5562 10.7627C12.6388 10.8455 12.6388 10.9288 12.6388 11.012L12.5975 11.1362C12.5562 11.2195 12.5975 11.3442 12.6805 11.3856L12.8043 11.4688C12.8874 11.5102 12.9286 11.5935 12.9286 11.6763C11.8104 13.1718 9.98811 14.1273 7.99977 14.1273C4.56203 14.1273 1.78661 11.3442 1.78661 7.89627C1.78661 7.14826 1.91091 6.44212 2.15951 5.77738L2.53242 6.73285C2.57369 6.81612 2.61544 6.85752 2.65672 6.89892L3.4438 7.31433C3.60937 7.3976 3.81623 7.31433 3.85798 7.10686L4.02355 6.44212C4.06483 6.31745 4.18913 6.23465 4.31343 6.23465H5.01749C5.05924 6.23465 5.10051 6.23465 5.14179 6.19278L5.88759 5.77738C5.97015 5.73598 6.05317 5.61131 6.05317 5.52804V5.56991C6.05317 5.48664 6.09445 5.36198 6.17747 5.32058L7.08838 4.69723C7.13013 4.69723 7.13013 4.65584 7.17141 4.65584L7.87546 4.4479C8.04104 4.4065 8.12407 4.19903 8.04104 4.03249C7.99977 3.9497 7.99977 3.86643 8.04104 3.78363L8.28964 3.36823C8.37267 3.20169 8.28964 3.03562 8.16534 2.95282L7.21268 2.53695C7.17141 2.53695 7.13013 2.49555 7.08838 2.49555H6.55037C6.46735 2.49555 6.42607 2.49555 6.38433 2.53695L5.84585 2.95282C5.76329 2.99422 5.68027 3.03562 5.59772 2.99422L4.76889 2.74488C5.72155 2.12154 6.84025 1.78941 8.08279 1.78941C9.6152 1.78941 11.0233 2.37088 12.1003 3.28496H12.059C11.8934 3.36823 11.8517 3.57569 11.9347 3.70036ZM1 7.97907C1 11.8428 4.14785 15 7.99977 15C11.8517 15 15 11.8428 15 7.97907C15 4.11576 11.8517 1 7.99977 1C4.14785 1 1 4.11576 1 7.97907Z" fill="#0C0C0C"/>
</svg>
