<svg width="16" height="16" viewBox="0 0 16 16" fill="none" xmlns="http://www.w3.org/2000/svg">
<path fill-rule="evenodd" clip-rule="evenodd" d="M9.92774 5.29791H9.89261C8.64264 4.2862 6.82051 4.42469 5.73779 5.61363C5.72721 5.61149 5.715 5.61531 5.70198 5.62317C6.64034 5.80656 7.49041 6.32654 8.08219 7.0997L6.31874 8.86316C6.16616 8.52631 5.89621 8.25636 5.55937 8.10379C4.79413 7.75814 3.89391 8.09792 3.54827 8.86316C3.20262 9.62839 3.5424 10.5286 4.30764 10.8743L4.30591 10.876C4.50226 10.9655 4.71539 11.0113 4.93084 11.0113H7.97125V11.0319L7.97538 11.0277H11.0158C11.8549 11.0277 12.5357 10.3476 12.5357 9.50781C12.5357 8.66863 11.8555 7.9879 11.0158 7.9879V7.6845C11.0331 6.7646 10.6326 5.88707 9.92774 5.29791ZM2.54779 12.6341L2.54357 12.651C3.23076 13.1697 4.06936 13.4485 4.93084 13.445H7.95841L7.97538 13.4619H11.0158C12.7586 13.4754 14.305 12.3458 14.8225 10.6815C15.339 9.01663 14.7052 7.20916 13.2616 6.23266C12.9816 5.20276 12.4077 4.27672 11.609 3.56841L11.5847 3.59275L11.588 3.56438C9.32338 1.56561 5.8663 1.78098 3.86753 4.04559C3.31179 4.67468 2.90863 5.4229 2.68915 6.23274C2.7175 6.22108 2.74649 6.21148 2.77591 6.20393C2.05724 6.67848 1.49545 7.38591 1.20736 8.24169C0.668643 9.842 1.2056 11.6084 2.54418 12.6377L2.54779 12.6341Z" fill="#0C0C0C"/>
</svg>
