<svg width="16" height="16" viewBox="0 0 16 16" fill="none" xmlns="http://www.w3.org/2000/svg">
<path fill-rule="evenodd" clip-rule="evenodd" d="M9.92768 5.29791H9.89255C8.64258 4.2862 6.82045 4.42469 5.73773 5.61363C5.72715 5.61149 5.71493 5.61531 5.70192 5.62317C6.64028 5.80656 7.49035 6.32654 8.08213 7.0997L6.31868 8.86316C6.1661 8.52631 5.89615 8.25636 5.55931 8.10379C4.79407 7.75814 3.89385 8.09792 3.5482 8.86316C3.20256 9.62839 3.54234 10.5286 4.30758 10.8743L4.30585 10.876C4.5022 10.9655 4.71533 11.0113 4.93078 11.0113H7.97119V11.0319L7.97532 11.0277H11.0157C11.8549 11.0277 12.5356 10.3476 12.5356 9.50781C12.5356 8.66863 11.8555 7.9879 11.0157 7.9879V7.6845C11.0331 6.7646 10.6325 5.88707 9.92768 5.29791ZM2.54773 12.6341L2.54351 12.651C3.2307 13.1697 4.06929 13.4485 4.93078 13.445H7.95835L7.97532 13.4619H11.0157C12.7586 13.4754 14.3049 12.3458 14.8225 10.6815C15.3389 9.01663 14.7051 7.20916 13.2615 6.23266C12.9816 5.20276 12.4077 4.27672 11.609 3.56841L11.5846 3.59275L11.5879 3.56438C9.32332 1.56561 5.86624 1.78098 3.86747 4.04559C3.31173 4.67468 2.90857 5.4229 2.68909 6.23274C2.71744 6.22108 2.74643 6.21148 2.77584 6.20393C2.05718 6.67848 1.49539 7.38591 1.2073 8.24169C0.668582 9.842 1.20554 11.6084 2.54412 12.6377L2.54773 12.6341Z" fill="#0C0C0C"/>
</svg>
