<svg width="16" height="16" viewBox="0 0 16 16" fill="none" xmlns="http://www.w3.org/2000/svg">
<path fill-rule="evenodd" clip-rule="evenodd" d="M11.5241 10.6991L11.4604 10.5635L10.0674 7.92271C10.0202 7.83433 10.0261 7.78172 10.0884 7.7066L12.2922 5.11836C12.3179 5.08806 12.3412 5.05566 12.3511 5.00179L11.7076 5.17013L9.03522 5.88032C8.95231 5.90262 8.91465 5.87821 8.87319 5.80961L7.3556 3.28114C7.3293 3.23737 7.30089 3.19697 7.24513 3.15804L7.12266 3.83287L6.69908 6.217L6.65531 6.47456C6.64815 6.55873 6.60607 6.58693 6.532 6.61028L3.38592 7.60454C3.33963 7.61927 3.29502 7.63779 3.24557 7.68282L5.83381 8.71054L5.83313 8.71107L6.29043 8.91035L5.78057 12.9716L8.56744 9.88251L9.03732 10.0144L9.03782 10.016L11.5222 10.7012L11.5241 10.6991ZM4.41848 10.1369L4.01273 9.84445C3.99471 9.84122 3.97724 9.83509 3.96102 9.82622L2.03647 8.96852C1.7486 8.84227 1.48936 8.66909 1.28777 8.42247C0.831779 7.86484 0.921631 7.22999 1.52934 6.84428C1.72819 6.71739 1.95398 6.62228 2.17913 6.54884L5.26944 5.5672C5.35361 5.54027 5.3957 5.50155 5.4119 5.40791L5.83275 3.02379C5.84646 2.94779 5.85902 2.87136 5.8716 2.79487C5.92927 2.44397 5.98715 2.09182 6.15681 1.77428C6.23614 1.62698 6.33146 1.478 6.44446 1.35259C6.85374 0.898069 7.42504 0.880814 7.85768 1.31345C8.00371 1.45948 8.13123 1.63182 8.23792 1.80858L9.64819 4.15188C9.70332 4.24447 9.7534 4.26341 9.85525 4.23605L13.3096 3.31838C13.547 3.25568 13.7873 3.23274 14.0307 3.2763C14.561 3.37562 14.7931 3.78132 14.6136 4.29181C14.532 4.52328 14.391 4.72255 14.2348 4.90878L11.824 7.74258C11.7581 7.8196 11.7567 7.87515 11.8023 7.96142L13.2378 10.6831C13.3523 10.9002 13.4398 11.1256 13.442 11.3749C13.4476 11.9423 13.0329 12.4065 12.4692 12.4889C12.1535 12.5352 11.8602 12.4679 11.5643 12.3766L9.39694 11.7173C9.3579 11.7056 9.3329 11.6918 9.31651 11.668L8.86393 11.5085L6.91792 13.6094C6.91792 13.6094 6.83954 13.6905 6.71709 13.8C5.82869 14.6922 5.31013 14.933 5.02659 14.9731C5.16062 14.9997 5.24362 15.0168 5.01717 14.9744C4.80429 15.0017 4.72802 14.9145 4.72802 14.9145C4.72802 14.9145 4.74441 14.9177 4.77079 14.9229C4.01418 14.6059 4.41827 10.1372 4.41827 10.1372L4.41851 10.1372C4.41849 10.137 4.41848 10.1369 4.41848 10.1369Z" fill="#0C0C0C"/>
</svg>
