<svg width="16" height="16" viewBox="0 0 16 16" fill="none" xmlns="http://www.w3.org/2000/svg">
<path fill-rule="evenodd" clip-rule="evenodd" d="M8 14C11.3137 14 14 11.3137 14 8C14 4.68629 11.3137 2 8 2C4.68629 2 2 4.68629 2 8C2 11.3137 4.68629 14 8 14ZM8 15C11.866 15 15 11.866 15 8C15 4.13401 11.866 1 8 1C4.13401 1 1 4.13401 1 8C1 11.866 4.13401 15 8 15ZM9 11.5C9 12.0523 8.55228 12.5 8 12.5C7.44772 12.5 7 12.0523 7 11.5C7 10.9477 7.44772 10.5 8 10.5C8.55228 10.5 9 10.9477 9 11.5ZM8 4C7.12821 4 6.53429 4.29737 6.17207 4.75015C5.82728 5.18114 5.75 5.68169 5.75 6C5.75 6.27614 5.97386 6.5 6.25 6.5C6.52614 6.5 6.75 6.27614 6.75 6C6.75 5.81831 6.79772 5.56886 6.95293 5.37485C7.09071 5.20262 7.37179 5 8 5C8.51197 5 8.79025 5.13541 8.96291 5.28683C9.22136 5.51348 9.37936 5.8789 9.39146 6.27119C9.40354 6.66311 9.26881 7.01958 9.02472 7.24215C8.86067 7.39176 8.66659 7.48554 8.45214 7.56227C8.36988 7.59171 8.29336 7.6158 8.21204 7.6414L8.21203 7.64141L8.12401 7.66927C8.01923 7.7028 7.89138 7.7453 7.77639 7.80279C7.607 7.88748 7.5 8.06061 7.5 8.25V9C7.5 9.27614 7.72386 9.5 8 9.5C8.27614 9.5 8.5 9.27614 8.5 9V8.59918C8.5849 8.57246 8.68711 8.54029 8.78906 8.50381C9.06206 8.40612 9.39558 8.25732 9.69852 7.98107C10.2001 7.52372 10.4102 6.8625 10.391 6.24038C10.3718 5.61864 10.1225 4.97366 9.62225 4.53498C9.23377 4.19431 8.70611 4 8 4Z" fill="#0C0C0C"/>
</svg>
