<svg width="16" height="16" viewBox="0 0 16 16" fill="none" xmlns="http://www.w3.org/2000/svg">
<path d="M12.8146 11.4003C14.1125 10.4197 14.8888 9.2406 15.2302 8.6396C15.4569 8.24042 15.4569 7.75958 15.2302 7.3604C14.5826 6.22031 12.3699 3 8.00001 3C6.84978 3 5.84901 3.22311 4.9869 3.57267L5.76685 4.35263C6.42635 4.13328 7.169 4 8.00001 4C11.8108 4 13.7634 6.80277 14.3606 7.85429C14.4134 7.94719 14.4134 8.05281 14.3606 8.14571C14.0355 8.7181 13.3088 9.80942 12.0993 10.6851L12.8146 11.4003Z" fill="#0C0C0C"/>
<path fill-rule="evenodd" clip-rule="evenodd" d="M13.5 13.5L2.00001 2C1.87205 2 1.74409 2.04881 1.64645 2.14645C1.45119 2.34171 1.45119 2.65829 1.64645 2.85355L3.30438 4.51147C1.93476 5.50867 1.12154 6.74127 0.769871 7.3604C0.54314 7.75958 0.543141 8.24042 0.769871 8.6396C1.41744 9.77969 3.63011 13 8.00001 13C9.21582 13 10.2646 12.7507 11.1592 12.3663L12.6465 13.8536C12.8417 14.0488 13.1583 14.0488 13.3536 13.8536C13.4512 13.7559 13.5 13.628 13.5 13.5ZM1.6394 7.85429C1.97523 7.26302 2.73961 6.11804 4.0219 5.229L5.29972 6.50682C5.10836 6.86897 5.00001 7.28177 5.00001 7.71987C5.00001 9.15588 6.16412 10.32 7.60014 10.32C8.03824 10.32 8.45103 10.2116 8.81319 10.0203L10.387 11.5941C9.68978 11.845 8.89629 12 8.00001 12C4.18926 12 2.23665 9.19723 1.6394 8.14571C1.58663 8.05281 1.58663 7.94719 1.6394 7.85429Z" fill="#0C0C0C"/>
</svg>
