<svg width="16" height="16" viewBox="0 0 16 16" fill="none" xmlns="http://www.w3.org/2000/svg">
<path d="M3.91795 3.75192L4.34522 3.49223C4.34159 3.48626 4.33784 3.48038 4.33397 3.47457L3.91795 3.75192ZM6.5 8L6.92727 8.2597C7.02424 8.10015 7.02424 7.89985 6.92727 7.7403L6.5 8ZM9.5 8L9.07273 7.7403C8.97576 7.89985 8.97576 8.10015 9.07273 8.2597L9.5 8ZM12.0821 3.75192L11.666 3.47458C11.6622 3.48038 11.6584 3.48626 11.6548 3.49223L12.0821 3.75192ZM3.91795 12.2481L4.33397 12.5254C4.33784 12.5196 4.34159 12.5137 4.34522 12.5078L3.91795 12.2481ZM12.0821 12.2481L11.6548 12.5078C11.6584 12.5137 11.6622 12.5196 11.666 12.5254L12.0821 12.2481ZM11.25 1.25H4.75V2.25H11.25V1.25ZM3.25 2.75V3.19722H4.25V2.75H3.25ZM3.49068 4.01162L6.07273 8.2597L6.92727 7.7403L4.34522 3.49223L3.49068 4.01162ZM9.92727 8.2597L12.5093 4.01162L11.6548 3.49223L9.07273 7.7403L9.92727 8.2597ZM12.75 3.19722V2.75H11.75V3.19722H12.75ZM12.4981 4.02927C12.6623 3.78287 12.75 3.49336 12.75 3.19722H11.75C11.75 3.29594 11.7208 3.39244 11.666 3.47458L12.4981 4.02927ZM3.25 3.19722C3.25 3.49336 3.33766 3.78287 3.50192 4.02927L4.33397 3.47457C4.27922 3.39244 4.25 3.29594 4.25 3.19722H3.25ZM4.75 1.25C3.92157 1.25 3.25 1.92157 3.25 2.75H4.25C4.25 2.47386 4.47386 2.25 4.75 2.25V1.25ZM11.25 2.25C11.5261 2.25 11.75 2.47386 11.75 2.75H12.75C12.75 1.92157 12.0784 1.25 11.25 1.25V2.25ZM11.25 13.75H4.75V14.75H11.25V13.75ZM4.25 13.25V12.8028H3.25V13.25H4.25ZM4.34522 12.5078L6.92727 8.2597L6.07273 7.7403L3.49068 11.9884L4.34522 12.5078ZM9.07273 8.2597L11.6548 12.5078L12.5093 11.9884L9.92727 7.7403L9.07273 8.2597ZM11.75 12.8028V13.25H12.75V12.8028H11.75ZM11.666 12.5254C11.7208 12.6076 11.75 12.7041 11.75 12.8028H12.75C12.75 12.5066 12.6623 12.2171 12.4981 11.9707L11.666 12.5254ZM4.25 12.8028C4.25 12.7041 4.27922 12.6076 4.33397 12.5254L3.50192 11.9707C3.33766 12.2171 3.25 12.5066 3.25 12.8028H4.25ZM4.75 13.75C4.47386 13.75 4.25 13.5261 4.25 13.25H3.25C3.25 14.0784 3.92157 14.75 4.75 14.75V13.75ZM11.25 14.75C12.0784 14.75 12.75 14.0784 12.75 13.25H11.75C11.75 13.5261 11.5261 13.75 11.25 13.75V14.75Z" fill="#0C0C0C"/>
</svg>
