<svg width="16" height="16" viewBox="0 0 16 16" fill="none" xmlns="http://www.w3.org/2000/svg">
<path fill-rule="evenodd" clip-rule="evenodd" d="M8 14C11.3137 14 14 11.3137 14 8C14 4.68629 11.3137 2 8 2C4.68629 2 2 4.68629 2 8C2 11.3137 4.68629 14 8 14ZM8 15C11.866 15 15 11.866 15 8C15 4.13401 11.866 1 8 1C4.13401 1 1 4.13401 1 8C1 11.866 4.13401 15 8 15ZM8 7C8.27614 7 8.5 7.22386 8.5 7.5V11H9C9.27614 11 9.5 11.2239 9.5 11.5C9.5 11.7761 9.27614 12 9 12H7C6.72386 12 6.5 11.7761 6.5 11.5C6.5 11.2239 6.72386 11 7 11H7.5V8H7C6.72386 8 6.5 7.77614 6.5 7.5C6.5 7.22386 6.72386 7 7 7H8ZM8 6C8.55228 6 9 5.55228 9 5C9 4.44772 8.55228 4 8 4C7.44772 4 7 4.44772 7 5C7 5.55228 7.44772 6 8 6Z" fill="#0C0C0C"/>
</svg>
