<svg width="16" height="16" viewBox="0 0 16 16" fill="none" xmlns="http://www.w3.org/2000/svg">
<path d="M12.4081 12.4971C12.6591 12.1173 12.8077 11.663 12.8077 11.1731C12.8077 9.84568 11.7317 8.76923 10.4038 8.76923C9.07588 8.76923 7.99994 9.84568 7.99994 11.1731C7.99994 12.5005 9.07588 13.5769 10.4038 13.5769C10.8937 13.5769 11.348 13.4284 11.7283 13.1769L13.0894 14.5385L13.7692 13.8587L12.4081 12.4971ZM10.4038 12.6154C9.60859 12.6154 8.96147 11.9682 8.96147 11.1731C8.96147 10.3779 9.60859 9.73075 10.4038 9.73075C11.199 9.73075 11.8461 10.3779 11.8461 11.1731C11.8461 11.9682 11.199 12.6154 10.4038 12.6154ZM8.05284 13.5769H4.63456L5.88408 12.1346H7.18025C7.34608 12.6885 7.64945 13.1827 8.05284 13.5769ZM7.03842 11.1731H2.23071V3H12.8077V8.82212C12.5317 8.5404 12.2062 8.30866 11.8461 8.13702V3.96154H3.19225V10.2115H7.18025C7.08887 10.5163 7.03842 10.839 7.03842 11.1731ZM5.11533 9.25002H4.15379V6.36539H5.11533V9.25002ZM6.55764 9.25002H5.5961V4.92308H6.55764V9.25002ZM7.99994 9.25002H7.03842V7.32692H7.99994V9.25002Z" fill="#0C0C0C"/>
</svg>
