<svg width="16" height="16" viewBox="0 0 16 16" fill="none" xmlns="http://www.w3.org/2000/svg">
<path fill-rule="evenodd" clip-rule="evenodd" d="M12.8152 2.79624C12.8221 2.96066 12.7807 3.1235 12.696 3.2646C12.6115 3.405 12.4874 3.51724 12.3392 3.58715C12.1913 3.6566 12.0259 3.68022 11.8645 3.65497C11.7028 3.62976 11.5522 3.55691 11.4321 3.44573C11.3115 3.33387 11.2266 3.1889 11.188 3.02898C11.1494 2.86907 11.1588 2.70132 11.2151 2.54675C11.2708 2.39248 11.3708 2.25811 11.5027 2.16053C11.6342 2.06342 11.7917 2.00778 11.9551 2.00073C12.0634 1.99616 12.1716 2.0131 12.2734 2.05057C12.3752 2.08805 12.4686 2.14531 12.5481 2.21905C12.7096 2.36859 12.8059 2.57634 12.8152 2.79624ZM8.00167 10.5866C5.80338 10.5866 3.88368 9.78114 2.88648 8.58858C3.25625 9.65635 3.948 10.5832 4.86645 11.2415C5.78105 11.8967 6.87787 12.2492 8.00298 12.2494C9.12803 12.249 10.2247 11.8965 11.1394 11.2415C12.0577 10.5832 12.7492 9.65635 13.1185 8.58858C12.1196 9.78114 10.1999 10.5866 8.00167 10.5866ZM8.0008 5.8309C10.1991 5.8309 12.1191 6.63669 13.116 7.8287C12.7462 6.76097 12.0545 5.83417 11.136 5.17594C10.2215 4.52068 9.12493 4.16805 7.99992 4.16747C6.87492 4.16805 5.7783 4.52068 4.86382 5.17594C3.94526 5.83399 3.25354 6.76086 2.88407 7.8287C3.88291 6.63888 5.80251 5.8309 8.0008 5.8309ZM4.98348 13.4048C4.99249 13.6121 4.94034 13.8174 4.83352 13.9953C4.72738 14.1723 4.57092 14.3137 4.38411 14.4014C4.19729 14.4892 3.98858 14.5193 3.78458 14.4879C3.58059 14.4564 3.3908 14.3643 3.23988 14.2235C3.08832 14.0824 2.98149 13.9 2.93263 13.6988C2.8844 13.4968 2.8963 13.2852 2.96687 13.0899C3.03765 12.8952 3.16427 12.7258 3.33088 12.6028C3.52493 12.4602 3.76262 12.3897 4.00304 12.4034C4.24346 12.4172 4.47158 12.5143 4.64813 12.6781C4.85128 12.8668 4.97178 13.1277 4.98348 13.4048ZM3.13728 4.06128C3.01645 4.06654 2.89682 4.03545 2.79383 3.97203C2.69015 3.90847 2.60762 3.81563 2.55665 3.70522C2.50569 3.5948 2.48858 3.47176 2.50748 3.35163C2.52563 3.23119 2.5792 3.11887 2.66137 3.02897C2.74282 2.93946 2.84898 2.87612 2.96643 2.84696C3.0838 2.81764 3.20731 2.82466 3.3206 2.86709C3.4343 2.90897 3.53283 2.98399 3.60345 3.08245C3.68686 3.19766 3.72805 3.33807 3.7201 3.48008C3.71215 3.62209 3.65555 3.75703 3.55981 3.86221C3.50594 3.92167 3.44082 3.96987 3.36823 4.00403C3.29564 4.0382 3.21743 4.05766 3.13728 4.06128Z" fill="#0C0C0C"/>
</svg>
