<svg width="16" height="16" viewBox="0 0 16 16" fill="none" xmlns="http://www.w3.org/2000/svg">
<path fill-rule="evenodd" clip-rule="evenodd" d="M7.5 3.20708L10.6464 6.35353C10.8417 6.5488 11.1583 6.5488 11.3536 6.35353C11.5488 6.15827 11.5488 5.84169 11.3536 5.64643L7.35355 1.64642C7.25979 1.55265 7.13261 1.49997 7 1.49997C6.86739 1.49997 6.74021 1.55265 6.64645 1.64642L2.64645 5.64642C2.45118 5.84169 2.45118 6.15827 2.64645 6.35353C2.84171 6.54879 3.15829 6.54879 3.35355 6.35353L6.5 3.20708V12C6.5 12.8284 7.17157 13.5 8 13.5L12.5 13.5C12.7761 13.5 13 13.2761 13 13C13 12.7239 12.7761 12.5 12.5 12.5L8 12.5C7.72386 12.5 7.5 12.2761 7.5 12V3.20708Z" fill="#0C0C0C"/>
</svg>
