<svg width="16" height="16" viewBox="0 0 16 16" fill="none" xmlns="http://www.w3.org/2000/svg">
<path fill-rule="evenodd" clip-rule="evenodd" d="M6 4.5C6 3.39543 6.89543 2.5 8 2.5C9.10457 2.5 10 3.39543 10 4.5C10 5.60457 9.10457 6.5 8 6.5C6.89543 6.5 6 5.60457 6 4.5ZM8 1.5C6.34315 1.5 5 2.84315 5 4.5C5 5.28834 5.30408 6.00566 5.80134 6.54107C5.72404 6.57444 5.65414 6.62782 5.6 6.7L4.23937 8.51418C4.16088 8.50482 4.081 8.5 4 8.5C2.89543 8.5 2 9.39543 2 10.5C2 11.6046 2.89543 12.5 4 12.5C5.10457 12.5 6 11.6046 6 10.5C6 9.8457 5.68581 9.26479 5.20007 8.89991L6.4 7.3C6.44734 7.23688 6.4775 7.16621 6.49128 7.09359C6.9345 7.35197 7.44997 7.5 8 7.5C8.38218 7.5 8.74767 7.42853 9.08383 7.29824L10.3595 10.2747C9.55226 10.6893 9 11.5301 9 12.5C9 13.8807 10.1193 15 11.5 15C12.8807 15 14 13.8807 14 12.5C14 11.1193 12.8807 10 11.5 10C11.4436 10 11.3876 10.0019 11.3321 10.0056L9.95957 6.80304C9.9563 6.79541 9.95286 6.78789 9.94926 6.78051C10.5924 6.23028 11 5.41274 11 4.5C11 2.84315 9.65685 1.5 8 1.5ZM4 9.5C3.44772 9.5 3 9.94771 3 10.5C3 11.0523 3.44772 11.5 4 11.5C4.55228 11.5 5 11.0523 5 10.5C5 9.94771 4.55228 9.5 4 9.5ZM11.5 11C10.6716 11 10 11.6716 10 12.5C10 13.3284 10.6716 14 11.5 14C12.3284 14 13 13.3284 13 12.5C13 11.6716 12.3284 11 11.5 11Z" fill="#0C0C0C"/>
</svg>
