<svg width="16" height="16" viewBox="0 0 16 16" fill="none" xmlns="http://www.w3.org/2000/svg">
<g clip-path="url(#clip0_1704_4229)">
<path fill-rule="evenodd" clip-rule="evenodd" d="M10.9142 10.5415C11.5452 10.5407 12.1506 10.792 12.5962 11.2397V11.2376C13.3384 11.9814 13.5061 13.1248 13.0088 14.051C12.5115 14.9773 11.4668 15.4673 10.4383 15.2567C9.40973 15.0461 8.64067 14.1848 8.54592 13.1373C8.45117 12.0898 9.05312 11.104 10.0271 10.7116L9.17824 6.71817C9.10052 6.72363 9.02278 6.7291 8.94506 6.7291C8.33792 6.72951 7.74444 6.54851 7.24051 6.20925L5.10845 8.62267C5.59737 9.33394 5.47933 10.299 4.83346 10.8709C4.18759 11.4428 3.21719 11.4417 2.57269 10.8682C1.92819 10.2947 1.81246 9.3294 2.30308 8.61931C2.79369 7.90922 3.73621 7.67785 4.4989 8.08029L6.633 5.66413C5.75659 4.64875 5.64237 3.17988 6.35126 2.04077C7.06015 0.901653 8.42686 0.35787 9.72263 0.69938C11.0184 1.04089 11.9411 2.18808 11.9988 3.52922C12.0564 4.87036 11.2356 6.09279 9.97393 6.54466L10.8248 10.5463C10.8362 10.5458 10.8475 10.545 10.8589 10.5442C10.8774 10.5428 10.8959 10.5415 10.9142 10.5415ZM3.21627 10.3272C3.56835 10.5623 4.0372 10.5153 4.33581 10.215V10.2143C4.50172 10.0488 4.59475 9.82382 4.59422 9.58927C4.5947 9.16536 4.29606 8.80021 3.8811 8.71735C3.46614 8.6345 3.05059 8.85704 2.88882 9.24875C2.72706 9.64046 2.86419 10.0921 3.21627 10.3272ZM7.64617 4.96532C7.02667 4.34495 6.931 3.37247 7.41769 2.64287C7.90438 1.91327 8.83781 1.62986 9.64688 1.96604C10.4559 2.30223 10.9152 3.16432 10.7436 4.02487C10.5721 4.88541 9.81752 5.50461 8.94163 5.50361C8.45545 5.50441 7.98908 5.31062 7.64617 4.96532ZM9.90509 11.9139C9.3478 12.4723 9.3478 13.3775 9.90509 13.9359C10.4624 14.4942 11.3659 14.4942 11.9232 13.9359C12.1931 13.6689 12.3449 13.3048 12.3449 12.9249C12.3449 12.545 12.1931 12.1809 11.9232 11.9139C11.3659 11.3556 10.4624 11.3556 9.90509 11.9139Z" fill="black"/>
</g>
<defs>
<clipPath id="clip0_1704_4229">
<rect width="11.413" height="15" fill="white" transform="translate(2 0.5)"/>
</clipPath>
</defs>
</svg>
