<svg width="16" height="16" viewBox="0 0 16 16" fill="none" xmlns="http://www.w3.org/2000/svg">
<path fill-rule="evenodd" clip-rule="evenodd" d="M7.64647 4.11093C6.67016 3.13462 5.08725 3.13462 4.11094 4.11093C3.13463 5.08724 3.13463 6.67015 4.11094 7.64646L4.81804 8.35357C5.01331 8.54883 5.01331 8.86541 4.81804 9.06067C4.62278 9.25594 4.3062 9.25594 4.11094 9.06067L3.40383 8.35357C2.037 6.98673 2.037 4.77065 3.40383 3.40382C4.77067 2.03698 6.98674 2.03698 8.35358 3.40382L9.06068 4.11093C9.25595 4.30619 9.25595 4.62277 9.06068 4.81803C8.86542 5.01329 8.54884 5.01329 8.35358 4.81803L7.64647 4.11093ZM11.8891 8.35358C12.8654 9.32989 12.8654 10.9128 11.8891 11.8891C10.9128 12.8654 9.32987 12.8654 8.35356 11.8891L7.64645 11.182C7.45119 10.9867 7.13461 10.9867 6.93934 11.182C6.74408 11.3773 6.74408 11.6938 6.93934 11.8891L7.64645 12.5962C9.01328 13.9631 11.2294 13.9631 12.5962 12.5962C13.963 11.2294 13.963 9.0133 12.5962 7.64647L11.8891 6.93936C11.6938 6.7441 11.3772 6.7441 11.182 6.93936C10.9867 7.13462 10.9867 7.45121 11.182 7.64647L11.8891 8.35358ZM6.71066 6.05547C6.5154 5.86021 6.19882 5.86021 6.00356 6.05547C5.8083 6.25074 5.8083 6.56732 6.00356 6.76258L9.53909 10.2981C9.73435 10.4934 10.0509 10.4934 10.2462 10.2981C10.4415 10.1029 10.4415 9.78627 10.2462 9.59101L6.71066 6.05547Z" fill="#0C0C0C"/>
</svg>
