<svg width="16" height="16" viewBox="0 0 16 16" fill="none" xmlns="http://www.w3.org/2000/svg">
<path fill-rule="evenodd" clip-rule="evenodd" d="M13.3536 3.06065C13.5489 2.86538 13.5489 2.5488 13.3536 2.35354C13.1583 2.15828 12.8418 2.15828 12.6465 2.35354L7.82764 7.1724L6.71067 6.05543C6.51541 5.86017 6.19882 5.86017 6.00356 6.05543C5.8083 6.25069 5.8083 6.56727 6.00356 6.76254L7.12053 7.8795L2.3536 12.6464C2.15834 12.8417 2.15834 13.1583 2.3536 13.3535C2.54886 13.5488 2.86544 13.5488 3.06071 13.3535L13.3536 3.06065ZM9.5391 10.2981L8.32764 9.08661L9.03474 8.3795L10.2462 9.59096C10.4415 9.78622 10.4415 10.1028 10.2462 10.2981C10.0509 10.4933 9.73436 10.4933 9.5391 10.2981ZM7.64648 4.11088C6.67017 3.13457 5.08725 3.13457 4.11094 4.11088C3.13463 5.08719 3.13463 6.6701 4.11094 7.64641L4.81805 8.35352C5.01331 8.54878 5.01331 8.86537 4.81805 9.06063C4.62279 9.25589 4.3062 9.25589 4.11094 9.06063L3.40384 8.35352C2.037 6.98669 2.037 4.77061 3.40384 3.40377C4.77067 2.03694 6.98675 2.03694 8.35358 3.40377L9.06069 4.11088C9.25595 4.30614 9.25595 4.62273 9.06069 4.81799C8.86543 5.01325 8.54884 5.01325 8.35358 4.81799L7.64648 4.11088ZM11.8891 8.35353C12.8654 9.32984 12.8654 10.9128 11.8891 11.8891C10.9128 12.8654 9.32987 12.8654 8.35356 11.8891L7.64645 11.182C7.45119 10.9867 7.13461 10.9867 6.93935 11.182C6.74409 11.3772 6.74409 11.6938 6.93935 11.8891L7.64645 12.5962C9.01329 13.963 11.2294 13.963 12.5962 12.5962C13.963 11.2293 13.963 9.01326 12.5962 7.64642L11.8891 6.93932C11.6938 6.74406 11.3773 6.74406 11.182 6.93932C10.9867 7.13458 10.9867 7.45116 11.182 7.64642L11.8891 8.35353Z" fill="#0C0C0C"/>
</svg>
