<svg width="16" height="16" viewBox="0 0 16 16" fill="none" xmlns="http://www.w3.org/2000/svg">
<path fill-rule="evenodd" clip-rule="evenodd" d="M7.64643 4.11093C6.67012 3.13462 5.08721 3.13462 4.1109 4.11093C3.13458 5.08724 3.13458 6.67015 4.1109 7.64646L4.818 8.35357C5.01326 8.54883 5.01326 8.86541 4.818 9.06067C4.62274 9.25594 4.30616 9.25594 4.1109 9.06067L3.40379 8.35357C2.03695 6.98673 2.03695 4.77065 3.40379 3.40382C4.77062 2.03698 6.9867 2.03698 8.35354 3.40382L9.06064 4.11093C9.2559 4.30619 9.2559 4.62277 9.06064 4.81803C8.86538 5.01329 8.5488 5.01329 8.35354 4.81803L7.64643 4.11093ZM11.889 8.35358C12.8654 9.32989 12.8654 10.9128 11.889 11.8891C10.9127 12.8654 9.32983 12.8654 8.35351 11.8891L7.64641 11.182C7.45115 10.9867 7.13456 10.9867 6.9393 11.182C6.74404 11.3773 6.74404 11.6938 6.9393 11.8891L7.64641 12.5962C9.01324 13.9631 11.2293 13.9631 12.5962 12.5962C13.963 11.2294 13.963 9.0133 12.5962 7.64647L11.889 6.93936C11.6938 6.7441 11.3772 6.7441 11.1819 6.93936C10.9867 7.13462 10.9867 7.45121 11.1819 7.64647L11.889 8.35358ZM6.71062 6.05547C6.51536 5.86021 6.19878 5.86021 6.00352 6.05547C5.80825 6.25074 5.80825 6.56732 6.00352 6.76258L9.53905 10.2981C9.73431 10.4934 10.0509 10.4934 10.2462 10.2981C10.4414 10.1029 10.4414 9.78627 10.2462 9.59101L6.71062 6.05547Z" fill="#0C0C0C"/>
</svg>
