<svg width="16" height="16" viewBox="0 0 16 16" fill="none" xmlns="http://www.w3.org/2000/svg">
<path fill-rule="evenodd" clip-rule="evenodd" d="M3.5 5.5C4.05228 5.5 4.5 5.05228 4.5 4.5C4.5 3.94772 4.05228 3.5 3.5 3.5C2.94772 3.5 2.5 3.94772 2.5 4.5C2.5 5.05228 2.94772 5.5 3.5 5.5ZM7 4C6.72386 4 6.5 4.22386 6.5 4.5C6.5 4.77614 6.72386 5 7 5H13C13.2761 5 13.5 4.77614 13.5 4.5C13.5 4.22386 13.2761 4 13 4H7ZM7 7.5C6.72386 7.5 6.5 7.72386 6.5 8C6.5 8.27614 6.72386 8.5 7 8.5H13C13.2761 8.5 13.5 8.27614 13.5 8C13.5 7.72386 13.2761 7.5 13 7.5H7ZM6.5 11.5C6.5 11.2239 6.72386 11 7 11H13C13.2761 11 13.5 11.2239 13.5 11.5C13.5 11.7761 13.2761 12 13 12H7C6.72386 12 6.5 11.7761 6.5 11.5ZM4.5 11.5C4.5 12.0523 4.05228 12.5 3.5 12.5C2.94772 12.5 2.5 12.0523 2.5 11.5C2.5 10.9477 2.94772 10.5 3.5 10.5C4.05228 10.5 4.5 10.9477 4.5 11.5ZM3.5 9C4.05228 9 4.5 8.55228 4.5 8C4.5 7.44772 4.05228 7 3.5 7C2.94772 7 2.5 7.44772 2.5 8C2.5 8.55228 2.94772 9 3.5 9Z" fill="#0C0C0C"/>
</svg>
