<svg width="16" height="16" viewBox="0 0 16 16" fill="none" xmlns="http://www.w3.org/2000/svg">
<path fill-rule="evenodd" clip-rule="evenodd" d="M3.33333 2.5C3.11232 2.5 2.90036 2.5878 2.74408 2.74408C2.5878 2.90036 2.5 3.11232 2.5 3.33333V12.6667C2.5 12.8877 2.5878 13.0996 2.74408 13.2559C2.90036 13.4122 3.11232 13.5 3.33333 13.5H6C6.27614 13.5 6.5 13.7239 6.5 14C6.5 14.2761 6.27614 14.5 6 14.5H3.33333C2.8471 14.5 2.38079 14.3068 2.03697 13.963C1.69315 13.6192 1.5 13.1529 1.5 12.6667V3.33333C1.5 2.8471 1.69315 2.38079 2.03697 2.03697C2.38079 1.69315 2.8471 1.5 3.33333 1.5H6C6.27614 1.5 6.5 1.72386 6.5 2C6.5 2.27614 6.27614 2.5 6 2.5H3.33333ZM10.3222 4.13793C10.5221 3.94749 10.8386 3.95521 11.0291 4.15517L14.3624 7.65517C14.5463 7.84828 14.5463 8.15172 14.3624 8.34483L11.0291 11.8448C10.8386 12.0448 10.5221 12.0525 10.3222 11.8621C10.1222 11.6716 10.1145 11.3551 10.3049 11.1552L12.8337 8.5H6C5.72386 8.5 5.5 8.27614 5.5 8C5.5 7.72386 5.72386 7.5 6 7.5H12.8337L10.3049 4.84483C10.1145 4.64486 10.1222 4.32837 10.3222 4.13793Z" fill="#0C0C0C"/>
</svg>
