<svg width="16" height="16" viewBox="0 0 16 16" fill="none" xmlns="http://www.w3.org/2000/svg">
<path fill-rule="evenodd" clip-rule="evenodd" d="M10.7905 10.454C11.0412 10.5697 11.3383 10.4603 11.454 10.2095C11.5697 9.9588 11.4603 9.66174 11.2095 9.54602L5.69315 7L11.2095 4.45398C11.4603 4.33826 11.5697 4.0412 11.454 3.79047C11.3383 3.53974 11.0412 3.4303 10.7905 3.54602L4.29047 6.54602C4.1134 6.62775 4 6.80497 4 7C4 7.19502 4.1134 7.37225 4.29047 7.45398L10.7905 10.454ZM4.5 12C4.22386 12 4 12.2239 4 12.5C4 12.7761 4.22386 13 4.5 13H11C11.2761 13 11.5 12.7761 11.5 12.5C11.5 12.2239 11.2761 12 11 12H4.5Z" fill="#0C0C0C"/>
</svg>
