<svg width="16" height="16" viewBox="0 0 16 16" fill="none" xmlns="http://www.w3.org/2000/svg">
<path d="M11.5572 6.13034L11.6566 6.12968L12.9993 6.12085L13.1 6.12019V6.22085C13.1 6.68465 13.0277 7.12274 12.8825 7.53442C12.7433 7.94588 12.54 8.31021 12.2725 8.6264L11.5572 6.13034ZM11.5572 6.13034V6.22968C11.5572 6.58292 11.4946 6.89222 11.372 7.15974L11.3713 7.16133C11.2542 7.42886 11.0888 7.63437 10.8759 7.78174L10.8759 7.78173L10.8749 7.78244C10.67 7.92805 10.4258 8.00247 10.1378 8.00247C9.86688 8.00247 9.61645 7.93646 9.38476 7.80433L11.5572 6.13034Z" fill="#0C0C0C" stroke="#0C0C0C" stroke-width="0.2"/>
</svg>
