<svg width="16" height="16" viewBox="0 0 16 16" fill="none" xmlns="http://www.w3.org/2000/svg">
<path d="M12.1961 8.56184L12.2725 8.62643C12.54 8.31024 12.7432 7.9459 12.8825 7.53442C13.0277 7.12274 13.1 6.68465 13.1 6.22085V6.12019L12.9993 6.12085L11.6566 6.12968L11.5572 6.13034V6.22968C11.5572 6.58292 11.4946 6.89222 11.372 7.15974L11.3713 7.16133C11.2542 7.42886 11.0888 7.63437 10.8759 7.78174L10.8759 7.78173L10.8749 7.78244C10.67 7.92805 10.4258 8.00247 10.1378 8.00247C9.86688 8.00247 9.61645 7.93646 9.38476 7.80433C9.15107 7.66167 8.87404 7.44565 8.55313 7.15392L8.55314 7.15392L8.55237 7.15323C8.11807 6.76653 7.69364 6.46126 7.27899 6.23888C6.86201 6.01205 6.38589 5.9 5.85336 5.9C5.42181 5.9 5.02161 5.98516 4.65416 6.15657C4.29349 6.32168 3.98164 6.55723 3.71923 6.86236C3.4574 7.16682 3.25418 7.52222 3.10904 7.92741L3.10903 7.92741L3.1086 7.92866C2.96921 8.3347 2.9 8.77275 2.9 9.24205V9.3433L3.00124 9.34204L4.4235 9.32437L4.52226 9.32315V9.22438C4.52226 8.86343 4.57668 8.55962 4.68187 8.31008C4.79302 8.06035 4.94634 7.87327 5.14028 7.74398L5.14029 7.744L5.14185 7.74291C5.3345 7.60913 5.56996 7.53993 5.85336 7.53993C6.12948 7.53993 6.38546 7.61145 6.62317 7.75518C6.86898 7.90381 7.14039 8.11419 7.43753 8.38802L7.43751 8.38805L7.43959 8.38986C7.90269 8.79359 8.33305 9.10194 8.73053 9.31273L8.73108 9.31302C9.14198 9.52766 9.61176 9.63357 10.1378 9.63357C10.57 9.63357 10.9681 9.5452 11.3303 9.36713L11.3309 9.36683C11.6964 9.1841 12.0105 8.93711 12.2726 8.6263L12.1961 8.56184ZM12.1961 8.56184C11.9429 8.86219 11.6396 9.10071 11.2862 9.27739L12.9988 6.32086C12.9892 6.73723 12.9189 7.13086 12.788 7.50177C12.6525 7.90224 12.4552 8.25559 12.1961 8.56184Z" fill="#0C0C0C" stroke="#0C0C0C" stroke-width="0.2"/>
</svg>
