<svg width="16" height="16" viewBox="0 0 16 16" fill="none" xmlns="http://www.w3.org/2000/svg">
<path fill-rule="evenodd" clip-rule="evenodd" d="M4.81442 10.681C4.43833 10.8545 3.99273 10.6904 3.81915 10.3143C3.64557 9.9382 3.80974 9.49261 4.18583 9.31903L9.21039 7L4.18583 4.68097C3.80974 4.50739 3.64557 4.06179 3.81915 3.6857C3.99273 3.30961 4.43833 3.14545 4.81442 3.31903L11.3144 6.31903C11.58 6.44162 11.7501 6.70746 11.7501 7C11.7501 7.29254 11.58 7.55838 11.3144 7.68097L4.81442 10.681ZM11.0001 11.75C11.4143 11.75 11.7501 12.0858 11.7501 12.5C11.7501 12.9142 11.4143 13.25 11.0001 13.25H4.50012C4.08591 13.25 3.75012 12.9142 3.75012 12.5C3.75012 12.0858 4.08591 11.75 4.50012 11.75H11.0001Z" fill="#0C0C0C"/>
</svg>
