<svg width="16" height="16" viewBox="0 0 16 16" fill="none" xmlns="http://www.w3.org/2000/svg">
<path fill-rule="evenodd" clip-rule="evenodd" d="M2.5 4.5C2.5 4.22386 2.72386 4 3 4H13C13.2761 4 13.5 4.22386 13.5 4.5C13.5 4.77614 13.2761 5 13 5H3C2.72386 5 2.5 4.77614 2.5 4.5ZM2.5 8C2.5 7.72386 2.72386 7.5 3 7.5H13C13.2761 7.5 13.5 7.72386 13.5 8C13.5 8.27614 13.2761 8.5 13 8.5H3C2.72386 8.5 2.5 8.27614 2.5 8ZM3 11C2.72386 11 2.5 11.2239 2.5 11.5C2.5 11.7761 2.72386 12 3 12H13C13.2761 12 13.5 11.7761 13.5 11.5C13.5 11.2239 13.2761 11 13 11H3Z" fill="#0C0C0C"/>
</svg>
