<svg width="16" height="16" viewBox="0 0 16 16" fill="none" xmlns="http://www.w3.org/2000/svg">
<path d="M10.3465 4.36053C10.5455 4.16914 10.5518 3.85262 10.3604 3.65356L8.36299 1.5761C8.2688 1.47813 8.13879 1.42273 8.00288 1.42264C7.86698 1.42255 7.7369 1.47778 7.64258 1.57563L5.63997 3.65309C5.44832 3.8519 5.45413 4.16843 5.65294 4.36007C5.85175 4.55172 6.16828 4.54592 6.35993 4.3471L7.50256 3.16177L7.50256 9.41538C7.50256 9.41786 7.50258 9.42033 7.50261 9.4228L7.50261 12.8353L6.35948 11.6526C6.16758 11.454 5.85104 11.4486 5.65248 11.6405C5.45391 11.8324 5.44852 12.1489 5.64042 12.3475L7.64308 14.4196C7.73737 14.5172 7.86727 14.5723 8.00295 14.5722C8.13863 14.5721 8.26844 14.5169 8.36261 14.4192L10.3599 12.347C10.5516 12.1482 10.5458 11.8317 10.3469 11.64C10.1481 11.4484 9.8316 11.4542 9.63996 11.653L8.50261 12.833L8.50261 9.40799C8.50261 9.4055 8.50259 9.40302 8.50256 9.40055V3.1641L9.63952 4.34663C9.83091 4.5457 10.1474 4.55191 10.3465 4.36053Z" fill="#0C0C0C"/>
<path d="M4.35949 10.3474C4.16759 10.546 3.85105 10.5514 3.65248 10.3595L1.58039 8.357C1.48283 8.26271 1.42777 8.13283 1.42786 7.99715C1.42794 7.86147 1.48316 7.73165 1.58084 7.63749L3.65293 5.63996C3.85173 5.44831 4.16826 5.45411 4.35992 5.65291C4.55157 5.85172 4.54577 6.16825 4.34696 6.3599L3.16697 7.49744H9.42049C9.42314 7.49744 9.42578 7.49746 9.42841 7.4975H12.836L11.6534 6.36032C11.4543 6.16891 11.4481 5.85239 11.6395 5.65334C11.8309 5.4543 12.1475 5.4481 12.3465 5.6395L14.4239 7.63709C14.5218 7.73129 14.5772 7.8613 14.5773 7.9972C14.5774 8.1331 14.5222 8.26317 14.4243 8.35749L12.3469 10.3599C12.1481 10.5515 11.8316 10.5457 11.64 10.3469C11.4483 10.1481 11.4541 9.83156 11.6529 9.63992L12.8381 8.4975H9.41311C9.41047 8.4975 9.40783 8.49748 9.40519 8.49744H3.16472L4.34741 9.64039C4.54598 9.83229 4.55139 10.1488 4.35949 10.3474Z" fill="#0C0C0C"/>
</svg>
