<svg width="16" height="16" viewBox="0 0 16 16" fill="none" xmlns="http://www.w3.org/2000/svg">
<path d="M10.3465 4.36053C10.5456 4.16914 10.5518 3.85262 10.3604 3.65356L8.36305 1.5761C8.26886 1.47813 8.13885 1.42273 8.00295 1.42264C7.86704 1.42255 7.73696 1.47778 7.64264 1.57563L5.64003 3.65309C5.44838 3.8519 5.45419 4.16843 5.653 4.36007C5.85181 4.55172 6.16834 4.54592 6.35999 4.3471L7.50262 3.16177L7.50262 9.41538C7.50262 9.41786 7.50264 9.42033 7.50267 9.4228L7.50267 12.8353L6.35954 11.6526C6.16764 11.454 5.8511 11.4486 5.65254 11.6405C5.45398 11.8324 5.44858 12.1489 5.64048 12.3475L7.64314 14.4196C7.73744 14.5172 7.86733 14.5723 8.00301 14.5722C8.13869 14.5721 8.2685 14.5169 8.36267 14.4192L10.36 12.347C10.5516 12.1482 10.5458 11.8317 10.347 11.64C10.1482 11.4484 9.83166 11.4542 9.64002 11.653L8.50267 12.833L8.50267 9.40799C8.50267 9.4055 8.50266 9.40302 8.50262 9.40055V3.1641L9.63958 4.34663C9.83097 4.5457 10.1475 4.55191 10.3465 4.36053Z" fill="#0C0C0C"/>
<path d="M4.35955 10.3474C4.16765 10.546 3.85112 10.5514 3.65255 10.3595L1.58046 8.357C1.48289 8.26271 1.42783 8.13283 1.42792 7.99715C1.428 7.86147 1.48322 7.73165 1.5809 7.63749L3.65299 5.63996C3.8518 5.44831 4.16833 5.45411 4.35998 5.65291C4.55163 5.85172 4.54583 6.16825 4.34703 6.3599L3.16703 7.49744H9.42056C9.4232 7.49744 9.42584 7.49746 9.42847 7.4975H12.836L11.6534 6.36032C11.4544 6.16891 11.4482 5.85239 11.6396 5.65334C11.831 5.4543 12.1475 5.4481 12.3466 5.6395L14.4239 7.63709C14.5219 7.73129 14.5773 7.8613 14.5774 7.9972C14.5775 8.1331 14.5222 8.26317 14.4244 8.35749L12.347 10.3599C12.1482 10.5515 11.8317 10.5457 11.64 10.3469C11.4484 10.1481 11.4542 9.83156 11.653 9.63992L12.8382 8.4975H9.41317C9.41053 8.4975 9.40789 8.49748 9.40526 8.49744H3.16478L4.34747 9.64039C4.54604 9.83229 4.55145 10.1488 4.35955 10.3474Z" fill="#0C0C0C"/>
</svg>
