<svg width="16" height="16" viewBox="0 0 16 16" fill="none" xmlns="http://www.w3.org/2000/svg">
<path d="M7.70683 2.02714C7.14527 2.13318 6.70421 2.35974 6.29208 2.75741C5.93779 3.09724 5.68473 3.52865 5.55699 4.00827C5.49915 4.22036 5.49192 4.28543 5.49192 4.66623C5.49192 5.04462 5.49915 5.1121 5.55458 5.32179C5.81488 6.28343 6.53068 7.00888 7.47546 7.26435C7.68514 7.32219 7.7478 7.32701 8.1527 7.32701C8.5576 7.32701 8.62027 7.32219 8.83236 7.26435C9.77472 7.00888 10.4905 6.28343 10.7508 5.32179C10.8063 5.1121 10.8135 5.04462 10.8135 4.66623C10.8135 4.28543 10.8063 4.22036 10.7484 4.00827C10.6207 3.52865 10.3724 3.10688 10.0157 2.75982C9.6277 2.38143 9.21798 2.16211 8.69739 2.04883C8.44915 1.9934 7.94302 1.98376 7.70683 2.02714Z" fill="#0C0C0C"/>
<path d="M7.38146 7.77529C7.15731 7.79939 6.86569 7.85483 6.6536 7.91267L6.51863 7.94882L6.37402 8.31516C6.07034 9.08158 5.83656 9.93236 5.68472 10.8386L5.66785 10.9277L5.82692 11C6.04624 11.1037 6.22941 11.2844 6.34028 11.5086C6.42704 11.6845 6.42945 11.6966 6.42945 11.9545C6.42945 12.2051 6.42463 12.2316 6.35233 12.3859C6.24628 12.61 6.06552 12.7932 5.84138 12.9041C5.66544 12.9908 5.65339 12.9932 5.3931 12.9932C5.1328 12.9932 5.12075 12.9908 4.94481 12.9041C4.72067 12.7932 4.53991 12.61 4.43387 12.3859C4.36156 12.2316 4.35674 12.2051 4.35674 11.9569C4.35674 11.7086 4.36156 11.6821 4.43387 11.5279C4.5375 11.3085 4.71826 11.123 4.93035 11.0169C5.02194 10.9711 5.11111 10.9326 5.12557 10.9326C5.14244 10.9326 5.1786 10.7735 5.21957 10.5325C5.30874 10.0071 5.51119 9.20209 5.68954 8.67186C5.76908 8.43808 5.83174 8.24045 5.82692 8.23563C5.81246 8.22358 5.55458 8.37542 5.29669 8.54895C4.81949 8.87431 4.43628 9.25993 4.10127 9.76124C3.6578 10.4192 3.41438 11.1302 3.35654 11.9352C3.32521 12.3883 3.32521 14.0272 3.35895 14.1453C3.37582 14.2079 3.40956 14.2513 3.46017 14.2826C3.53489 14.3308 3.62406 14.3308 8.1527 14.3308C12.6813 14.3308 12.7705 14.3308 12.8452 14.2826C12.8958 14.2513 12.9296 14.2079 12.9464 14.1453C12.9802 14.0248 12.9802 12.3184 12.9489 11.9063C12.8187 10.3156 11.9173 8.96831 10.4929 8.23563C10.3556 8.16573 10.2423 8.11271 10.235 8.11753C10.2302 8.12476 10.2471 8.23081 10.276 8.35613C10.358 8.72729 10.4182 9.19245 10.4182 9.45033V9.69135L10.6785 9.95646C11.2931 10.5879 11.6136 11.176 11.6426 11.7279C11.6618 12.1256 11.5534 12.4076 11.2786 12.6558C11.1147 12.8052 10.8737 12.933 10.7267 12.9498C10.5966 12.9643 10.505 12.8992 10.464 12.7643C10.4206 12.6221 10.4833 12.5329 10.7026 12.4244C10.799 12.3762 10.9123 12.3063 10.9509 12.2678C11.3341 11.9038 11.1051 11.1591 10.3676 10.3686C10.2736 10.2674 10.1652 10.1613 10.1266 10.1348L10.0543 10.0842L9.81087 10.2216C9.36499 10.4746 8.94804 10.8265 8.748 11.1181C8.56724 11.3808 8.51422 11.6797 8.61303 11.8966C8.64195 11.9617 8.72872 12.0701 8.83476 12.1666C9.00106 12.3232 9.00829 12.3353 9.00829 12.4413C9.00829 12.5353 8.99624 12.5618 8.92876 12.6221C8.81307 12.7257 8.69739 12.7185 8.54555 12.598C8.16475 12.2967 7.9864 11.8918 8.05388 11.4821C8.11172 11.135 8.25874 10.8603 8.56242 10.5397C8.88056 10.2023 9.30233 9.89621 9.75061 9.67689L9.91209 9.59735V9.45756C9.91209 9.19727 9.75543 8.27178 9.66385 7.99944C9.63011 7.89821 9.62529 7.8958 9.21315 7.82109C8.98419 7.7777 8.8203 7.76806 8.26115 7.76324C7.88999 7.75842 7.49473 7.76324 7.38146 7.77529Z" fill="#0C0C0C"/>
</svg>
