<svg width="16" height="16" viewBox="0 0 16 16" fill="none" xmlns="http://www.w3.org/2000/svg">
<path fill-rule="evenodd" clip-rule="evenodd" d="M9.8955 5.32915C9.8955 7.87043 6.08358 7.87043 6.08358 5.32915C6.08358 2.78787 9.8955 2.78787 9.8955 5.32915ZM5.76587 6.59979C5.76587 8.71752 2.58927 8.71752 2.58927 6.59979C2.58927 4.48206 5.76587 4.48206 5.76587 6.59979ZM4.17766 8.94923C1.89135 8.94923 1.00106 10.9509 1.00106 10.9509V12H7.35425V12H8.62492V12H14.9781V10.9509C14.9781 10.9509 14.0878 8.94923 11.8015 8.94923C11.3012 8.94923 10.8677 9.0451 10.4958 9.19487C9.8988 8.74729 9.0769 8.37827 7.98957 8.37827C6.90225 8.37827 6.08035 8.74729 5.48338 9.19486C5.11146 9.04509 4.67798 8.94923 4.17766 8.94923ZM13.3897 6.59979C13.3897 8.71752 10.2131 8.71752 10.2131 6.59979C10.2131 4.48206 13.3897 4.48206 13.3897 6.59979Z" fill="#0C0C0C"/>
</svg>
