<svg width="16" height="16" viewBox="0 0 16 16" fill="none" xmlns="http://www.w3.org/2000/svg">
<path fill-rule="evenodd" clip-rule="evenodd" d="M14.1864 1.53198H11.3596V4.35874H14.1864V1.53198ZM7.82619 4.76253C6.26501 4.76253 4.99943 6.02811 4.99943 7.58929H7.82619V4.76253ZM4.64601 7.99316C3.08484 7.99316 1.81926 9.25875 1.81926 10.8199H4.64601V7.99316ZM8.17944 4.76253H11.0062V7.58929H8.17944V4.76253ZM8.17944 7.94263H11.0062C11.0062 9.5038 9.74062 10.7694 8.17944 10.7694V7.94263ZM14.1864 4.71208H11.3596V7.53883C12.9208 7.53883 14.1864 6.27325 14.1864 4.71208ZM4.99943 7.94263H7.82619V10.7694H4.99943V7.94263ZM4.64601 11.1733H1.81926V14H4.64601V11.1733ZM3.98979 2.3901C3.22314 2.3901 2.60165 3.01159 2.60165 3.77824V7.5136H1.84448V3.77824C1.84448 2.59342 2.80497 1.63293 3.98979 1.63293H10.9305V2.3901H3.98979ZM13.3787 11.8547C13.3787 12.6213 12.7572 13.2428 11.9905 13.2428H5.04982V14H11.9905C13.1753 14 14.1358 13.0395 14.1358 11.8547V7.61456H13.3787V11.8547Z" fill="#0C0C0C"/>
</svg>
