<svg width="16" height="16" viewBox="0 0 16 16" fill="none" xmlns="http://www.w3.org/2000/svg">
<g clip-path="url(#clip0_1656_9313)">
<path fill-rule="evenodd" clip-rule="evenodd" d="M8 15.3333C12.0501 15.3333 15.3333 12.0501 15.3333 8.00001C15.3333 3.94992 12.0501 0.666672 8 0.666672C3.94991 0.666672 0.666664 3.94992 0.666664 8.00001C0.666664 12.0501 3.94991 15.3333 8 15.3333ZM12.1183 5.12526C11.6513 5.12421 11.2347 5.39173 11.0796 5.79218C10.9246 6.19263 11.065 6.63844 11.4297 6.90358L9.9822 7.91206L8.57205 6.20763C9.01084 5.98922 9.23185 5.52883 9.10961 5.08781C8.98738 4.64679 8.55278 4.3366 8.05256 4.33332C7.55233 4.33005 7.11287 4.63453 6.98367 5.0739C6.85447 5.51328 7.06817 5.97652 7.50346 6.20064L5.99447 7.91106L4.64582 6.91257C5.0521 6.62065 5.1789 6.11038 4.95011 5.68802C4.72132 5.26566 4.19912 5.04598 3.69693 5.16085C3.19474 5.27571 2.84903 5.69389 2.86731 6.1644C2.88558 6.63491 3.26287 7.02989 3.77271 7.11226L4.30097 9.62249V10.6509C4.30097 10.8164 4.44848 10.9505 4.63044 10.9505L11.4582 10.9435C11.6402 10.9435 11.7877 10.8094 11.7877 10.6439V9.61849L12.316 7.10727C12.8787 7.01773 13.272 6.55086 13.2204 6.03355C13.1688 5.51624 12.6896 5.1213 12.1183 5.12526ZM8.04378 4.92559C8.2864 4.92559 8.48308 5.1044 8.48308 5.32499C8.48308 5.54557 8.2864 5.72438 8.04378 5.72438C7.80116 5.72438 7.60448 5.54557 7.60448 5.32499C7.60689 5.10596 7.80287 4.92957 8.04378 4.92958V4.92559ZM6.29756 8.52115C6.24332 8.58302 6.16436 8.62286 6.07791 8.63198C5.99095 8.64003 5.90403 8.61632 5.8363 8.56608L4.55025 7.61352L4.90059 9.281H11.187L11.5472 7.57358L10.1195 8.57207C10.0497 8.62058 9.96149 8.64175 9.87446 8.63088C9.78744 8.62001 9.7088 8.57799 9.656 8.51416L8.03499 6.55511L6.29756 8.52115ZM3.52779 6.12476C3.52779 5.90418 3.72447 5.72536 3.96709 5.72536C4.2097 5.72536 4.40638 5.90418 4.40638 6.12476C4.40638 6.34534 4.2097 6.52416 3.96709 6.52416C3.72447 6.52416 3.52779 6.34534 3.52779 6.12476ZM4.9555 9.88011V10.3504L11.1276 10.3444V9.88011H4.9555ZM12.1183 6.52613C11.8757 6.52613 11.679 6.34731 11.679 6.12673C11.679 5.90615 11.8757 5.72733 12.1183 5.72733C12.3609 5.72733 12.5576 5.90615 12.5576 6.12673C12.5576 6.34731 12.3609 6.52613 12.1183 6.52613Z" fill="url(#paint0_linear_1656_9313)"/>
</g>
<defs>
<linearGradient id="paint0_linear_1656_9313" x1="-2.01563" y1="3.79254" x2="4.23611" y2="18.4592" gradientUnits="userSpaceOnUse">
<stop stop-color="#027BEE"/>
<stop offset="1" stop-color="#00BCFF"/>
</linearGradient>
<clipPath id="clip0_1656_9313">
<rect width="16" height="16" fill="white"/>
</clipPath>
</defs>
</svg>
