<svg width="16" height="16" viewBox="0 0 16 16" fill="none" xmlns="http://www.w3.org/2000/svg">
<path fill-rule="evenodd" clip-rule="evenodd" d="M1.85063 9.18224L2.39577 8.86246C3.05447 8.47607 3.05447 7.52376 2.39577 7.13737L1.85063 6.81759C1.37889 6.54086 1.21697 5.93649 1.48717 5.46099L2.56586 3.56271C2.84137 3.07785 3.46025 2.91205 3.94126 3.19421L4.42703 3.47917C5.09367 3.87022 5.93301 3.38949 5.93301 2.61662V2C5.93301 1.44772 6.38072 1 6.933 1H9.06676C9.61905 1 10.0668 1.44772 10.0668 2V2.61669C10.0668 3.38956 10.9061 3.87029 11.5727 3.47924L12.0585 3.19429C12.5395 2.91212 13.1584 3.07793 13.4339 3.56279L14.5126 5.46106C14.7828 5.93657 14.6209 6.54094 14.1491 6.81766L13.6041 7.13737C12.9454 7.52376 12.9454 8.47607 13.6041 8.86246L14.1491 9.18217C14.6209 9.45889 14.7828 10.0633 14.5126 10.5388L13.4339 12.437C13.1584 12.9219 12.5395 13.0877 12.0585 12.8055L11.5727 12.5206C10.9061 12.1295 10.0668 12.6103 10.0668 13.3831V14C10.0668 14.5523 9.61905 15 9.06676 15H6.93301C6.38072 15 5.93301 14.5523 5.93301 14V13.3832C5.93301 12.6103 5.09367 12.1296 4.42703 12.5207L3.94126 12.8056C3.46025 13.0878 2.84137 12.922 2.56586 12.4371L1.48717 10.5388C1.21697 10.0633 1.37889 9.45897 1.85063 9.18224ZM10 8C10 9.10457 9.10457 10 8 10C6.89543 10 6 9.10457 6 8C6 6.89543 6.89543 6 8 6C9.10457 6 10 6.89543 10 8Z" fill="#0C0C0C"/>
</svg>
