<svg width="16" height="16" viewBox="0 0 16 16" fill="none" xmlns="http://www.w3.org/2000/svg">
<path d="M8 1.33333C11.6933 1.33333 14.6667 4.30666 14.6667 7.99999C14.6667 11.6933 11.6933 14.6667 8 14.6667C4.30667 14.6667 1.33334 11.6933 1.33334 7.99999C1.33334 4.30666 4.30667 1.33333 8 1.33333ZM7.75358 10.5165C7.03581 10.5165 7.03581 10.5165 7.03581 11.2538C7.03581 11.6103 7.03581 11.6103 7.22136 11.808C7.4069 12.0058 7.4069 12.0058 7.75358 12.0058C8.10026 12.0058 8.10026 12.0058 8.28825 11.8032C8.47624 11.6005 8.47624 11.6005 8.47624 11.2538C8.47624 10.9023 8.47624 10.9023 8.29069 10.7094C8.10515 10.5165 8.10515 10.5165 7.75358 10.5165ZM8.05632 4.62298C7.01064 4.62298 7.01064 4.62298 6.08563 5.09312L5.93229 5.17474L6.34245 6.03411C6.71843 5.84857 6.71843 5.84857 7.11393 5.71673C7.50944 5.5849 7.50944 5.5849 7.97331 5.5849C8.486 5.5849 8.486 5.5849 8.75944 5.80462C9.03288 6.02435 9.03288 6.02435 9.03288 6.4345C9.03288 6.78607 9.03288 6.78607 8.86442 7.03997C8.69597 7.29388 8.69597 7.29388 8.11491 7.75286C7.62663 8.13372 7.62663 8.13372 7.43132 8.49017C7.26042 8.80206 7.26042 8.80206 7.23906 9.25227L7.23601 9.38372V9.69622H8.19304V9.4765C8.19304 9.08099 8.19304 9.08099 8.34684 8.84661C8.50065 8.61224 8.50065 8.61224 8.95475 8.25579C9.48698 7.84075 9.48698 7.84075 9.70427 7.58197C9.92155 7.32318 9.92155 7.32318 10.029 7.03753C10.1364 6.75189 10.1364 6.75189 10.1364 6.38568C10.1364 5.56048 10.1364 5.56048 9.57487 5.09173C9.01335 4.62298 9.01335 4.62298 8.05632 4.62298Z" fill="#0C0C0C"/>
</svg>
