<svg width="16" height="16" viewBox="0 0 16 16" fill="none" xmlns="http://www.w3.org/2000/svg">
<path fill-rule="evenodd" clip-rule="evenodd" d="M7.73999 6.89738C11.0537 6.89738 13.74 5.57869 13.74 3.95201C13.74 2.32534 11.0537 1.00665 7.73999 1.00665C4.42628 1.00665 1.73999 2.32534 1.73999 3.95201C1.73999 5.57869 4.42628 6.89738 7.73999 6.89738ZM13.74 7.66944V6.21106C13.74 6.06808 13.5868 5.98229 13.4847 6.06808C12.2336 7.18332 9.9868 7.75523 7.73999 7.75523C5.51871 7.75523 3.27191 7.18332 1.99531 6.06808C1.89318 5.98229 1.73999 6.06808 1.73999 6.21106V7.69804C1.73999 9.27868 4.35192 10.5807 7.61148 10.6141C8.22462 9.295 9.56148 8.38037 11.112 8.38037C11.8563 8.38037 12.5514 8.59117 13.1409 8.95632C13.5248 8.56778 13.74 8.13124 13.74 7.66944ZM7.30988 11.58C5.23275 11.511 3.18952 10.9432 1.99531 9.89995C1.89318 9.81416 1.73999 9.89995 1.73999 10.0429V11.5299C1.73999 13.1313 4.42084 14.4467 7.73999 14.4467C7.8092 14.4467 7.87814 14.4461 7.94678 14.445C7.51007 13.8197 7.25391 13.059 7.25391 12.2384C7.25391 12.0139 7.27308 11.7939 7.30988 11.58ZM13.74 11.0391V11.0391C13.907 11.4044 14 11.8105 14 12.2384C14 13.8334 12.707 15.1265 11.1119 15.1265C9.51691 15.1265 8.22388 13.8334 8.22388 12.2384C8.22388 10.6434 9.51691 9.35034 11.1119 9.35034C12.1155 9.35034 12.9996 9.86224 13.5172 10.6392C13.5543 10.6948 13.5895 10.7519 13.6227 10.8102C13.6651 10.8845 13.7042 10.9608 13.74 11.0391ZM11.3417 10.4385C11.2094 10.3063 10.995 10.3063 10.8628 10.4385C10.7306 10.5708 10.7306 10.7852 10.8628 10.9174L11.8574 11.912H9.56126C9.37425 11.912 9.22266 12.0636 9.22266 12.2506C9.22266 12.4376 9.37425 12.5892 9.56126 12.5892H11.8331L10.8628 13.5595C10.7306 13.6917 10.7306 13.9061 10.8628 14.0384C10.995 14.1706 11.2094 14.1706 11.3417 14.0384L12.9022 12.4779C13.0344 12.3456 13.0344 12.1313 12.9022 11.999L11.3417 10.4385Z" fill="#0C0C0C"/>
</svg>
