<svg width="16" height="16" viewBox="0 0 16 16" fill="none" xmlns="http://www.w3.org/2000/svg">
<path d="M14.5338 7.96691L8.57195 1.58524C8.32004 1.24936 7.81623 1.24936 7.56432 1.58524L1.51852 8.13485C1.09867 8.63867 1.43455 9.47837 2.1063 9.47837H3.44981V14.0127C3.44981 14.1807 3.61775 14.5165 3.95363 14.5165H6.13684C6.38875 14.5165 6.64065 14.2646 6.64065 14.0127V11.5776C6.64065 11.3257 6.80859 11.1578 7.0605 11.1578H9.41164C9.57958 11.1578 9.74752 11.3257 9.74752 11.5776V14.0127C9.74752 14.2646 9.91546 14.5165 10.2513 14.5165H12.2666C12.7704 14.5165 12.8544 14.2646 12.8544 14.0127V9.47837H13.946C14.7017 9.47837 15.0376 8.5547 14.5338 7.96691Z" fill="#0C0C0C"/>
</svg>
