<svg width="16" height="16" viewBox="0 0 16 16" fill="none" xmlns="http://www.w3.org/2000/svg">
<path fill-rule="evenodd" clip-rule="evenodd" d="M8.072 7.12507C10.349 7.12507 12.2465 8.77555 12.5501 10.8566C13.4609 11.1436 14.144 11.933 14.144 12.8659C14.144 14.0858 13.1573 15.0187 11.867 15.0187C10.5767 15.0187 9.59 14.0858 9.59 12.8659C9.59 11.933 10.1972 11.1436 11.0321 10.8566C10.8044 9.56491 9.5141 8.56027 8.072 8.56027H5.036V10.8566C5.9468 11.1436 6.554 11.933 6.554 12.8659C6.554 14.0858 5.5673 15.0187 4.277 15.0187C2.9867 15.0187 2 14.0858 2 12.8659C2 11.933 2.6072 11.1436 3.518 10.8566V4.82875C2.6072 4.54171 2 3.75235 2 2.81947C2 1.59955 2.9867 0.666672 4.277 0.666672C5.5673 0.666672 6.554 1.59955 6.554 2.81947C6.554 3.75235 5.9468 4.54171 5.036 4.82875V7.12507H8.072ZM5.03598 2.81943C5.03598 2.38887 4.73239 2.10183 4.27698 2.10183C3.82158 2.10183 3.51798 2.38887 3.51798 2.81943C3.51798 3.24999 3.82158 3.53703 4.27698 3.53703C4.73239 3.53703 5.03598 3.24999 5.03598 2.81943ZM4.27698 13.5835C3.82158 13.5835 3.51798 13.2964 3.51798 12.8659C3.51798 12.4353 3.82158 12.1483 4.27698 12.1483C4.73239 12.1483 5.03598 12.4353 5.03598 12.8659C5.03598 13.2964 4.73239 13.5835 4.27698 13.5835ZM11.108 12.8659C11.108 13.2964 11.4116 13.5835 11.867 13.5835C12.3224 13.5835 12.626 13.2964 12.626 12.8659C12.626 12.4353 12.3224 12.1483 11.867 12.1483C11.4116 12.1483 11.108 12.4353 11.108 12.8659Z" fill="#0C0C0C"/>
</svg>
