<svg width="16" height="16" viewBox="0 0 16 16" fill="none" xmlns="http://www.w3.org/2000/svg">
<path fill-rule="evenodd" clip-rule="evenodd" d="M7.73999 6.89739C11.0537 6.89739 13.74 5.57871 13.74 3.95203C13.74 2.32535 11.0537 1.00667 7.73999 1.00667C4.42628 1.00667 1.73999 2.32535 1.73999 3.95203C1.73999 5.57871 4.42628 6.89739 7.73999 6.89739ZM13.74 7.58367V6.21108C13.74 6.0681 13.5868 5.98231 13.4847 6.0681C12.2336 7.18333 9.9868 7.75525 7.73999 7.75525C5.51871 7.75525 3.27191 7.18333 1.99531 6.0681C1.89318 5.98231 1.73999 6.0681 1.73999 6.21108V7.58367V7.69805C1.73999 9.29942 4.42084 10.6148 7.73999 10.6148C11.0591 10.6148 13.74 9.29942 13.74 7.66946V7.58367ZM13.74 11.4155V10.0429C13.74 9.89997 13.5868 9.81418 13.4847 9.89997C12.2336 11.0152 9.9868 11.5871 7.73999 11.5871C5.51871 11.5871 3.27191 11.0152 1.99531 9.89997C1.89318 9.81418 1.73999 9.89997 1.73999 10.0429V11.4155V11.5299C1.73999 13.1313 4.42084 14.4467 7.73999 14.4467C11.0591 14.4467 13.74 13.1313 13.74 11.5013V11.4155Z" fill="#0C0C0C"/>
</svg>
