<svg width="16" height="16" viewBox="0 0 16 16" fill="none" xmlns="http://www.w3.org/2000/svg">
<path fill-rule="evenodd" clip-rule="evenodd" d="M14.0476 2.19379C14.0755 1.71988 13.6852 1.30521 13.2392 1.33482C10.117 1.48292 7.32928 2.78617 5.26637 4.91877C3.76101 4.47448 1.50297 4.59296 0.666656 6.84403C1.36358 7.05137 2.1999 7.43642 3.03621 8.02881L2.95258 8.20652C2.78531 8.53234 2.86894 8.91739 3.09196 9.15434L3.8826 9.99439C3.08186 10.6301 2.53431 11.4127 2.35228 12.2824C2.24653 12.7289 2.81054 13.1049 3.4803 13.0344C4.45053 12.9442 5.34854 12.7191 6.13736 12.3901L6.6881 12.9752C6.939 13.2418 7.3014 13.3011 7.58017 13.1233L7.74743 13.0345C8.30497 13.9231 8.66737 14.8116 8.86251 15.5521C11.009 14.5747 11.0927 12.2644 10.6745 10.6649C12.6817 8.4731 13.9083 5.51116 14.0476 2.19379ZM11.0429 4.33792C10.3803 3.67742 9.34314 3.67742 8.68051 4.33792C8.04669 4.96971 8.01788 6.03226 8.68051 6.69277C9.34314 7.35327 10.3803 7.35327 11.0429 6.69277C11.7055 6.03226 11.7055 4.99843 11.0429 4.33792Z" fill="#0C0C0C"/>
</svg>
