<svg width="16" height="16" viewBox="0 0 16 16" fill="none" xmlns="http://www.w3.org/2000/svg">
<path d="M13.6613 1.3346C13.7502 1.18284 13.792 1.00804 13.7813 0.832452C13.7756 0.717191 13.7472 0.604189 13.6977 0.499946C13.6482 0.395704 13.5785 0.302276 13.4928 0.225037C13.4071 0.147797 13.3069 0.0882687 13.1981 0.0498758C13.0892 0.0114827 12.9739 -0.00501799 12.8587 0.00132264C12.6829 0.0089152 12.5134 0.0686514 12.3717 0.172921C12.23 0.277192 12.1226 0.421277 12.0631 0.586819C12.0036 0.752361 11.9947 0.931871 12.0376 1.10248C12.0805 1.27308 12.1732 1.42706 12.3039 1.5448C12.4346 1.66254 12.5974 1.73871 12.7715 1.76361C12.9457 1.7885 13.1233 1.761 13.2817 1.6846C13.4402 1.60819 13.5723 1.48636 13.6613 1.3346Z" fill="#0C0C0C"/>
<path d="M10.447 5.99971V6.54857H10.9488V6.80993H10.447V7.83969C10.447 8.07492 10.515 8.21082 10.7084 8.21082C10.7771 8.21195 10.8456 8.20404 10.9122 8.1873L10.9279 8.44866C10.828 8.48328 10.7226 8.49922 10.6169 8.49571C10.5469 8.50009 10.4768 8.48928 10.4114 8.46401C10.346 8.43875 10.2868 8.39963 10.2379 8.34935C10.1315 8.20695 10.0829 8.02952 10.102 7.85276V6.80731H9.80407V6.54595H10.1072V6.08073L10.447 5.99971Z" fill="#0C0C0C"/>
<path fill-rule="evenodd" clip-rule="evenodd" d="M5.64717 6.54978C5.66285 6.73012 5.66285 6.92875 5.66285 7.17182V9.24441H6.00785V8.19897C6.07251 8.29589 6.1611 8.37448 6.26503 8.42714C6.36897 8.47979 6.48474 8.50473 6.60113 8.49953C7.0559 8.49953 7.4767 8.15976 7.4767 7.475C7.4767 6.89477 7.12647 6.50535 6.66125 6.50535C6.52421 6.49946 6.38814 6.53087 6.26755 6.59623C6.14696 6.66159 6.04636 6.75845 5.97648 6.87648L5.9608 6.54978H5.64717ZM6.02353 7.82261C6.01404 7.77614 6.00879 7.7289 6.00785 7.68147V7.35477C6.01436 7.20859 6.07396 7.06981 6.17548 6.96443C6.27701 6.85906 6.41348 6.79433 6.55932 6.78239C6.92784 6.78239 7.1317 7.10909 7.1317 7.49068C7.1317 7.92715 6.91477 8.22772 6.54625 8.22772C6.42647 8.22796 6.31003 8.18825 6.21536 8.11488C6.12069 8.04151 6.05318 7.93866 6.02353 7.82261Z" fill="#0C0C0C"/>
<path d="M2.25643 8.8575C2.35052 8.74773 2.38711 8.59875 2.38711 8.14137V6.534H2.73733V8.26421C2.75361 8.40365 2.74163 8.54494 2.70211 8.67965C2.6626 8.81437 2.59636 8.93974 2.50734 9.04829C2.34189 9.191 2.1299 9.26817 1.91143 9.26522L1.87484 9.00386C2.01576 9.00394 2.15171 8.9518 2.25643 8.8575Z" fill="#0C0C0C"/>
<path d="M5.01466 8.45794C4.99898 8.30635 4.99898 8.13124 4.99898 7.93522L5.00682 7.92476V6.53693H4.6566V7.70783C4.6573 7.7729 4.645 7.83745 4.62042 7.89769C4.59585 7.95794 4.55948 8.01268 4.51348 8.05868C4.46747 8.10469 4.41273 8.14105 4.35248 8.16563C4.29224 8.19021 4.22769 8.20251 4.16263 8.20181C3.84638 8.20181 3.73399 7.95874 3.73399 7.59545V6.55H3.38377V7.66601C3.38377 8.33771 3.74445 8.50237 4.04762 8.50237C4.17544 8.50447 4.30154 8.47269 4.41309 8.41026C4.52465 8.34782 4.61768 8.25697 4.68273 8.14692L4.70364 8.45794H5.01466Z" fill="#0C0C0C"/>
<path d="M8.52149 7.6745L8.10069 6.54804L8.09547 6.54281H7.71388L8.42478 8.30177C8.43739 8.33083 8.44533 8.3617 8.4483 8.39325C8.44354 8.42256 8.43382 8.45084 8.41955 8.47688C8.35291 8.62726 8.25172 8.75979 8.12422 8.8637C8.03398 8.9392 7.9302 8.99685 7.81842 9.03358L7.90467 9.32631C8.06454 9.28959 8.21219 9.21216 8.3333 9.10154C8.57376 8.89767 8.73319 8.56052 8.99455 7.90711L9.51727 6.54804H9.14875L8.76717 7.66666C8.73795 7.75106 8.71176 7.8395 8.68734 7.92195C8.67245 7.97222 8.65818 8.02038 8.64433 8.06393C8.61296 7.95155 8.56592 7.79996 8.52149 7.6745Z" fill="#0C0C0C"/>
<path fill-rule="evenodd" clip-rule="evenodd" d="M11.6298 7.82532C11.6003 7.74515 11.5879 7.65975 11.5932 7.57457H12.9374C12.9407 7.5206 12.9407 7.46648 12.9374 7.41252C12.9374 7.0623 12.7806 6.51344 12.1533 6.51344C11.594 6.51344 11.2516 6.96821 11.2516 7.5432C11.2407 7.6709 11.2576 7.79943 11.3011 7.91999C11.3446 8.04054 11.4137 8.15026 11.5035 8.24163C11.5934 8.33299 11.702 8.40383 11.8218 8.44929C11.9416 8.49476 12.0699 8.51376 12.1977 8.50501C12.4171 8.51103 12.6352 8.47097 12.8381 8.3874L12.778 8.12604C12.6126 8.19552 12.4345 8.22937 12.2552 8.22536C12.1666 8.23245 12.0775 8.22021 11.994 8.18949C11.9106 8.15877 11.8348 8.1103 11.7719 8.04742C11.709 7.98454 11.6606 7.90876 11.6298 7.82532ZM12.6185 7.30277C12.6286 7.23289 12.6236 7.16167 12.6038 7.09389C12.5841 7.02612 12.55 6.96337 12.5039 6.90987C12.4579 6.85637 12.4009 6.81337 12.3368 6.78376C12.2727 6.75415 12.203 6.73863 12.1324 6.73823C11.9888 6.74863 11.8542 6.81228 11.7551 6.91671C11.656 7.02114 11.5995 7.15882 11.5966 7.30277H12.6185Z" fill="#0C0C0C"/>
<path d="M13.4688 7.14235C13.4688 6.91758 13.4688 6.72418 13.4531 6.54645H13.7667V6.9202H13.7824C13.8153 6.80484 13.8833 6.7026 13.977 6.62766C14.0707 6.55273 14.1854 6.50881 14.3051 6.50202C14.3381 6.49769 14.3715 6.49769 14.4045 6.50202V6.82872C14.3645 6.8241 14.3242 6.8241 14.2842 6.82872C14.1656 6.83332 14.0527 6.88094 13.9666 6.96271C13.8805 7.04448 13.8271 7.15478 13.8164 7.27304C13.8066 7.32651 13.8014 7.38072 13.8007 7.43508V8.45177H13.4557V7.14497L13.4688 7.14235Z" fill="#0C0C0C"/>
<path d="M8.14723 12.0181C5.55978 12.0181 3.28566 11.0895 2.1098 9.71813C2.56604 10.9518 3.38927 12.0161 4.46868 12.7678C5.54809 13.5195 6.8319 13.9225 8.14723 13.9225C9.46259 13.9225 10.7464 13.5195 11.8258 12.7678C12.9052 12.0161 13.7284 10.9518 14.1847 9.71813C13.0117 11.0895 10.7462 12.0181 8.14723 12.0181Z" fill="#0C0C0C"/>
<path d="M14.1847 5.24328C13.0088 3.87193 10.7347 2.94331 8.14723 2.94331C5.54828 2.94331 3.28566 3.86905 2.1098 5.24328C2.56604 4.00959 3.38927 2.94527 4.46868 2.19359C5.54809 1.44191 6.8319 1.03895 8.14723 1.03895C9.46259 1.03895 10.7464 1.44191 11.8258 2.19359C12.9052 2.94527 13.7284 4.00959 14.1847 5.24328Z" fill="#0C0C0C"/>
<path d="M4.44309 14.4262C4.45688 14.6474 4.40453 14.8676 4.2927 15.0589C4.18086 15.2502 4.01461 15.4039 3.81512 15.5004C3.61563 15.5968 3.39194 15.6318 3.17255 15.6006C2.95315 15.5695 2.74798 15.4738 2.58318 15.3257C2.41838 15.1775 2.30141 14.9837 2.24717 14.7688C2.19294 14.554 2.20389 14.3279 2.27863 14.1193C2.35337 13.9106 2.48852 13.729 2.66686 13.5975C2.8452 13.466 3.05865 13.3905 3.28003 13.3808C3.42505 13.373 3.57018 13.3939 3.70712 13.4422C3.84407 13.4906 3.97014 13.5654 4.07815 13.6625C4.18615 13.7596 4.27398 13.877 4.33659 14.0081C4.39921 14.1391 4.4354 14.2812 4.44309 14.4262Z" fill="#0C0C0C"/>
<path d="M1.63489 1.64733C1.74233 1.71465 1.86728 1.74871 1.99403 1.74521C2.16527 1.7384 2.32692 1.66431 2.44387 1.53904C2.56082 1.41378 2.62364 1.24743 2.61869 1.07612C2.61348 0.949435 2.57094 0.827112 2.4964 0.724539C2.42186 0.621966 2.31866 0.543723 2.19977 0.499648C2.08088 0.455574 1.95161 0.447636 1.82823 0.476834C1.70484 0.506031 1.59284 0.571061 1.50631 0.663743C1.41978 0.756424 1.36259 0.872624 1.34192 0.997724C1.32126 1.12282 1.33805 1.25124 1.39017 1.36683C1.4423 1.48241 1.52744 1.58 1.63489 1.64733Z" fill="#0C0C0C"/>
</svg>
