<svg width="16" height="16" viewBox="0 0 16 16" fill="none" xmlns="http://www.w3.org/2000/svg">
<path d="M8.0013 1.33502C8.49595 1.33502 8.97182 1.71728 9.37927 2.41118C9.78492 3.102 10.1126 4.08582 10.3154 5.25066C10.3231 5.29507 10.2888 5.33606 10.2432 5.33606H5.75938C5.71383 5.33606 5.67946 5.29507 5.68719 5.25066C5.89003 4.08582 6.21769 3.102 6.62333 2.41118C7.03079 1.71728 7.50666 1.33502 8.0013 1.33502Z" fill="#0C0C0C"/>
<path d="M5.53566 9.60906C5.48631 9.09216 5.4584 8.55654 5.4584 8.00002C5.4584 7.44351 5.48631 6.90789 5.53566 6.39099C5.53923 6.35365 5.57075 6.32493 5.6088 6.32493H10.3911C10.4291 6.32493 10.4607 6.35365 10.4642 6.39099C10.5136 6.90789 10.5415 7.44351 10.5415 8.00002C10.5415 8.55654 10.5136 9.09216 10.4642 9.60906C10.4607 9.6464 10.4291 9.67511 10.3911 9.67511H5.6088C5.57075 9.67511 5.53923 9.6464 5.53566 9.60906Z" fill="#0C0C0C"/>
<path d="M10.2727 1.73669C11.9592 2.3472 13.3269 3.61789 14.0669 5.23624C14.088 5.28231 14.0544 5.33606 14.0008 5.33606H11.3899C11.3535 5.33606 11.3222 5.30945 11.3163 5.27294C11.1006 3.94557 10.7229 2.74068 10.1874 1.85429C10.1685 1.82289 10.1732 1.7873 10.1926 1.7616C10.2116 1.73648 10.2408 1.72515 10.2727 1.73669Z" fill="#0C0C0C"/>
<path d="M1.93539 5.23633C2.67321 3.6182 4.04258 2.34755 5.72704 1.73692C5.75893 1.72536 5.78814 1.73668 5.80713 1.7618C5.82656 1.7875 5.8313 1.8231 5.81233 1.85451C5.27702 2.74084 4.89959 3.94557 4.68618 5.27281C4.6803 5.30938 4.64892 5.33606 4.61253 5.33606H2.00151C1.94795 5.33606 1.91439 5.28239 1.93539 5.23633Z" fill="#0C0C0C"/>
<path d="M11.5317 6.32493H14.3899C14.4237 6.32493 14.4527 6.34762 14.4606 6.37943C14.59 6.9001 14.6636 7.43951 14.6636 8.00002C14.6636 8.56074 14.59 9.10026 14.4582 9.62095C14.4502 9.65259 14.4214 9.67511 14.3877 9.67511H11.5317C11.488 9.67511 11.4535 9.63734 11.4575 9.59325C11.5058 9.06926 11.5331 8.53473 11.5331 8.00002C11.5331 7.46531 11.5058 6.93078 11.4575 6.4068C11.4535 6.36271 11.488 6.32493 11.5317 6.32493Z" fill="#0C0C0C"/>
<path d="M4.54507 6.4068C4.4968 6.93078 4.46953 7.46531 4.46953 8.00002C4.46953 8.53495 4.49682 9.06963 4.54304 9.59365C4.54691 9.63757 4.51243 9.67511 4.46891 9.67511H1.61266C1.57888 9.67511 1.54993 9.65243 1.54199 9.62059C1.41222 9.09976 1.3363 8.56037 1.3363 8.00002C1.3363 7.43967 1.41222 6.90029 1.54199 6.37946C1.54993 6.34762 1.57888 6.32493 1.61266 6.32493H4.47092C4.51456 6.32493 4.54913 6.36271 4.54507 6.4068Z" fill="#0C0C0C"/>
<path d="M8.0013 14.665C7.50666 14.665 7.03079 14.2828 6.62333 13.5889C6.21769 12.898 5.89003 11.9142 5.68719 10.7494C5.67946 10.705 5.71383 10.664 5.75938 10.664H10.2432C10.2888 10.664 10.3231 10.705 10.3154 10.7494C10.1126 11.9142 9.78492 12.898 9.37927 13.5889C8.97182 14.2828 8.49595 14.665 8.0013 14.665Z" fill="#0C0C0C"/>
<path d="M14.0696 10.7638C13.3295 12.3819 11.96 13.6525 10.2756 14.2631C10.2437 14.2747 10.2145 14.2634 10.1955 14.2382C10.1761 14.2125 10.1713 14.1769 10.1903 14.1455C10.7256 13.2592 11.1033 12.0544 11.319 10.7271C11.3249 10.6906 11.3562 10.664 11.3926 10.664H14.0035C14.0571 10.664 14.0907 10.7177 14.0696 10.7638Z" fill="#0C0C0C"/>
<path d="M5.72991 14.2634C4.04341 13.6528 2.67576 12.3822 1.93569 10.7638C1.91462 10.7177 1.94819 10.664 2.00178 10.664H4.61273C4.64907 10.664 4.68042 10.6906 4.68635 10.7271C4.90199 12.0545 5.27974 13.2594 5.81517 14.1458C5.83414 14.1772 5.8294 14.2127 5.80998 14.2384C5.791 14.2636 5.7618 14.2749 5.72991 14.2634Z" fill="#0C0C0C"/>
</svg>
