<svg width="16" height="16" viewBox="0 0 16 16" fill="none" xmlns="http://www.w3.org/2000/svg">
<path fill-rule="evenodd" clip-rule="evenodd" d="M7.99995 13C8.23233 13 12.4444 9.34348 12.4444 5.77777C12.4444 3.32317 10.4545 1.33333 7.99995 1.33333C5.54535 1.33333 3.55551 3.32317 3.55551 5.77777C3.55551 9.34348 7.76757 13 7.99995 13ZM7.99995 7.44444C8.92043 7.44444 9.66662 6.69825 9.66662 5.77777C9.66662 4.8573 8.92043 4.11111 7.99995 4.11111C7.07948 4.11111 6.33328 4.8573 6.33328 5.77777C6.33328 6.69825 7.07948 7.44444 7.99995 7.44444Z" fill="#0C0C0C"/>
<path d="M9.14796 12.7787C10.5532 12.8524 11.8888 13.048 11.8888 13.2778C11.8888 13.5706 9.71817 13.8081 7.99995 13.8081C6.28173 13.8081 4.11106 13.5706 4.11106 13.2778C4.11106 13.048 5.44673 12.8524 6.85194 12.7787C6.7549 12.6839 6.65402 12.5828 6.55024 12.4759C3.87495 12.5942 1.88884 13.0327 1.88884 13.5555C1.88884 14.1692 4.62488 14.6667 7.99995 14.6667C11.375 14.6667 14.1111 14.1692 14.1111 13.5555C14.1111 13.0327 12.1249 12.5942 9.44967 12.4759C9.34588 12.5828 9.245 12.6839 9.14796 12.7787Z" fill="#0C0C0C"/>
</svg>
