<svg width="16" height="16" viewBox="0 0 16 16" fill="none" xmlns="http://www.w3.org/2000/svg">
<g clip-path="url(#clip0_1656_9314)">
<path fill-rule="evenodd" clip-rule="evenodd" d="M15.3333 8.00001C15.3333 12.0501 12.0501 15.3333 8.00001 15.3333C3.94992 15.3333 0.666672 12.0501 0.666672 8.00001C0.666672 3.94992 3.94992 0.666672 8.00001 0.666672C12.0501 0.666672 15.3333 3.94992 15.3333 8.00001ZM7.98194 7.23493C8.90998 7.23493 9.66928 6.53265 9.66928 5.6743V4.89399C9.66928 4.03564 8.90998 3.33336 7.98194 3.33336C7.05391 3.33336 6.2946 4.03564 6.2946 4.89399V5.6743C6.2946 6.53265 7.05391 7.23493 7.98194 7.23493ZM11.9736 10.2441C11.9736 11.5169 10.1886 12.5487 7.98674 12.5487C5.78488 12.5487 3.99992 11.5169 3.99992 10.2441C3.99992 8.97126 5.78488 7.93944 7.98674 7.93944C10.1886 7.93944 11.9736 8.97126 11.9736 10.2441Z" fill="url(#paint0_linear_1656_9314)"/>
</g>
<defs>
<linearGradient id="paint0_linear_1656_9314" x1="-2.01562" y1="3.79254" x2="4.23612" y2="18.4592" gradientUnits="userSpaceOnUse">
<stop stop-color="#027BEE"/>
<stop offset="1" stop-color="#00BCFF"/>
</linearGradient>
<clipPath id="clip0_1656_9314">
<rect width="16" height="16" fill="white"/>
</clipPath>
</defs>
</svg>
