<svg width="16" height="16" viewBox="0 0 16 16" fill="none" xmlns="http://www.w3.org/2000/svg">
<path fill-rule="evenodd" clip-rule="evenodd" d="M7.92996 1.85332C8.26743 1.85332 8.54101 1.58768 8.54101 1.25999C8.54101 0.932296 8.26743 0.666651 7.92996 0.666651C7.59248 0.666651 7.3189 0.932296 7.3189 1.25999C7.3189 1.58768 7.59248 1.85332 7.92996 1.85332ZM10.9199 10.0206C10.7379 10.2558 10.545 10.5052 10.3819 10.7687C10.364 10.7857 10.3461 10.8707 10.3461 11.1087C10.3282 11.2447 10.2029 11.3467 10.0597 11.3467H5.83611C5.67504 11.3467 5.56766 11.2447 5.54976 11.1087C5.53186 10.8537 5.49607 10.7857 5.47817 10.7516C5.28131 10.4626 5.08444 10.1906 4.88758 9.93563L4.88213 9.92839C4.25777 9.09808 3.67055 8.31714 3.6527 7.13057C3.63481 5.09052 5.28131 3.30548 7.41102 3.06747C8.6459 2.93147 9.86288 3.30548 10.7756 4.0705C11.6884 4.85251 12.2074 5.95754 12.2074 7.11357C12.2074 8.278 11.6248 9.06806 11.0129 9.89786L10.9725 9.95263L10.9199 10.0206ZM6.06413 11.94H9.79578C10.113 11.94 10.3742 12.208 10.3742 12.5333C10.3742 12.8587 10.113 13.1267 9.79578 13.1267H6.06413C5.74694 13.1267 5.48573 12.8587 5.48573 12.5333C5.48573 12.208 5.74694 11.94 6.06413 11.94ZM10.3742 14.3134C10.3742 13.988 10.113 13.72 9.79578 13.72H6.06413C5.74694 13.72 5.48573 13.988 5.48573 14.3134C5.48573 14.6387 5.74694 14.9067 6.06413 14.9067H9.79578C10.113 14.9067 10.3742 14.6579 10.3742 14.3134ZM1.81936 7.78667C2.15684 7.78667 2.43042 7.52102 2.43042 7.19334C2.43042 6.86565 2.15684 6.6 1.81936 6.6C1.48188 6.6 1.2083 6.86565 1.2083 7.19334C1.2083 7.52102 1.48188 7.78667 1.81936 7.78667ZM14.6515 7.19334C14.6515 7.52102 14.3779 7.78667 14.0405 7.78667C13.703 7.78667 13.4294 7.52102 13.4294 7.19334C13.4294 6.86565 13.703 6.6 14.0405 6.6C14.3779 6.6 14.6515 6.86565 14.6515 7.19334ZM4.10147 10.8977C4.32509 11.1213 4.30538 11.5036 4.05742 11.7516C3.80947 11.9995 3.42718 12.0192 3.20355 11.7956C2.97992 11.572 2.99964 11.1897 3.24759 10.9417C3.49554 10.6938 3.87784 10.6741 4.10147 10.8977ZM12.6123 3.44492C12.8602 3.19697 12.8799 2.81468 12.6563 2.59105C12.4327 2.36742 12.0504 2.38714 11.8024 2.63509C11.5545 2.88305 11.5348 3.26534 11.7584 3.48897C11.982 3.71259 12.3643 3.69288 12.6123 3.44492ZM12.6563 10.8977C12.8799 11.1213 12.8602 11.5036 12.6123 11.7516C12.3643 11.9995 11.982 12.0192 11.7584 11.7956C11.5348 11.572 11.5545 11.1897 11.8024 10.9417C12.0504 10.6938 12.4327 10.6741 12.6563 10.8977ZM4.05742 3.44492C4.30537 3.19697 4.32509 2.81468 4.10146 2.59105C3.87783 2.36742 3.49554 2.38714 3.24759 2.63509C2.99964 2.88305 2.97992 3.26534 3.20355 3.48897C3.42718 3.71259 3.80947 3.69288 4.05742 3.44492Z" fill="#0C0C0C"/>
</svg>
