<svg width="16" height="16" viewBox="0 0 16 16" fill="none" xmlns="http://www.w3.org/2000/svg">
<g clip-path="url(#clip0_1656_9305)">
<path d="M7.86667 0.666672C8.81983 0.666672 9.72973 0.851885 10.5623 1.18828L10.5596 1.22495C10.547 1.33886 10.5217 1.46542 10.5217 1.56667V1.56667H8.76667V2.46667H10.0267L9.90459 2.60141C9.61113 2.91456 9.26167 3.2148 8.94667 3.41167V3.41167L9.44167 4.17667L9.59546 4.06803C10.6195 3.32669 11.2523 2.4971 11.4211 1.60351C13.598 2.84156 15.0667 5.1826 15.0667 7.86667C15.0667 10.5502 13.5985 12.8909 11.4216 14.1293C11.1848 12.8459 10.007 11.7168 8.04667 10.8367C7.01167 10.3867 6.20167 9.80167 5.70667 9.21667V9.21667H8.31667V8.31667H5.21167L5.18971 8.23099C5.16667 8.11147 5.16667 7.97467 5.16667 7.86667C5.16667 7.73167 5.21167 7.55167 5.21167 7.41667V7.41667H6.96667V6.51667H5.70667L5.8443 6.36527C6.12453 6.06851 6.4331 5.80953 6.74167 5.61667V5.61667L6.24667 4.85167C4.94167 5.70667 4.26667 6.78667 4.26667 7.86667C4.26667 9.35167 5.48167 10.6567 7.68667 11.6467C8.72167 12.0967 9.53167 12.6817 10.0267 13.2667V13.2667H7.41667V14.1667H10.5217L10.5436 14.2524C10.5667 14.3719 10.5667 14.5087 10.5667 14.6167L10.5665 14.5434C9.73279 14.8808 8.82143 15.0667 7.86667 15.0667C6.91352 15.0667 6.00362 14.8815 5.17101 14.5451L5.1737 14.5084C5.18636 14.3945 5.21167 14.2679 5.21167 14.1667V14.1667H6.96667V13.2667H5.70667L5.84679 13.1153C6.13647 12.8185 6.4781 12.5595 6.78667 12.3667V12.3667L6.29167 11.6017C5.14486 12.328 4.48515 13.2167 4.31255 14.1298C2.13537 12.8918 0.666672 10.5507 0.666672 7.86667C0.666672 5.18309 2.13483 2.84242 4.31174 1.60405C4.54853 2.88743 5.72637 4.01653 7.68667 4.89667C8.72167 5.34667 9.53167 5.93167 10.0267 6.51667V6.51667H7.41667V7.41667H10.5217L10.5436 7.50235C10.5667 7.62187 10.5667 7.75867 10.5667 7.86667C10.5667 8.00167 10.5217 8.18167 10.5217 8.31667V8.31667H8.76667V9.21667H10.0267L9.90459 9.35141C9.61113 9.66456 9.26167 9.9648 8.94667 10.1617V10.1617L9.44167 10.9267L9.60043 10.823C10.8446 9.9852 11.4667 8.94667 11.4667 7.86667C11.4667 6.38167 10.2517 5.07667 8.04667 4.08667C7.01167 3.63667 6.20167 3.05167 5.70667 2.46667V2.46667H8.31667V1.56667H5.21167L5.20464 1.45839C5.19198 1.34448 5.16667 1.21792 5.16667 1.11667L5.17101 1.18828C6.00362 0.851885 6.91352 0.666672 7.86667 0.666672Z" fill="#0C0C0C"/>
</g>
<defs>
<clipPath id="clip0_1656_9305">
<rect width="16" height="16" fill="white"/>
</clipPath>
</defs>
</svg>
