<svg width="17" height="16" viewBox="0 0 17 16" fill="none" xmlns="http://www.w3.org/2000/svg">
<path d="M2.47815 3.89714C4.52955 4.03338 6.17327 5.68126 6.30223 7.73474H8.69787C8.56475 4.35682 5.85451 1.64138 2.47815 1.50098V3.89714Z" fill="#0DC09D"/>
<path d="M6.31575 8.28127C6.17951 10.3327 4.53163 11.9764 2.47815 12.1053V14.501C5.85607 14.3679 8.57151 11.6576 8.71191 8.28127H6.31575Z" fill="#0DC09D"/>
<path d="M11.6405 7.7207C11.7768 5.6693 13.4246 4.02558 15.4781 3.89662V1.50098C12.1002 1.6341 9.38475 4.34434 9.24435 7.7207H11.6405Z" fill="#0DC09D"/>
<path d="M15.4781 12.1048C13.4267 11.9686 11.7831 10.3207 11.6541 8.26721H9.25844C9.39156 11.6451 12.1018 14.3606 15.4781 14.501V12.1048Z" fill="#0DC09D"/>
</svg>
