<svg width="16" height="16" viewBox="0 0 16 16" fill="none" xmlns="http://www.w3.org/2000/svg">
<path fill-rule="evenodd" clip-rule="evenodd" d="M4.76674 13.9205C4.61606 14.0973 4.42441 14.2281 4.22041 14.2909C3.97444 14.3666 3.73068 14.3373 3.54274 14.2094C3.3548 14.0816 3.23808 13.8656 3.21825 13.609C3.19843 13.3524 3.27712 13.0762 3.43703 12.8412L4.40014 11.4259H2.85714C2.62981 11.4259 2.4118 11.3356 2.25105 11.1749C2.09031 11.0141 2 10.7961 2 10.5688C2 10.3414 2.09031 10.1234 2.25105 9.96267C2.4118 9.80192 2.62981 9.71162 2.85714 9.71162H5.5667L7.89982 6.28305H2.85714C2.62981 6.28305 2.4118 6.19274 2.25105 6.03199C2.09031 5.87125 2 5.65323 2 5.4259C2 5.19858 2.09031 4.98056 2.25105 4.81981C2.4118 4.65907 2.62981 4.56876 2.85714 4.56876H9.06638L10.6721 2.20911C10.832 1.97413 11.06 1.79957 11.306 1.72385C11.552 1.64812 11.7957 1.67743 11.9837 1.80532C12.1716 1.93321 12.2883 2.14922 12.3082 2.40581C12.328 2.6624 12.2493 2.93857 12.0894 3.17355L12.0468 3.23612C12.0078 3.28431 11.9701 3.33495 11.9343 3.38755L4.76674 13.9205ZM12.3397 4.56876L11.1732 6.28305H13.1429C13.3702 6.28305 13.5882 6.19274 13.7489 6.03199C13.9097 5.87125 14 5.65323 14 5.4259C14 5.19858 13.9097 4.98056 13.7489 4.81981C13.5882 4.65907 13.3702 4.56876 13.1429 4.56876H12.3397ZM8.84007 9.71162H13.1429C13.3702 9.71162 13.5882 9.80192 13.7489 9.96267C13.9097 10.1234 14 10.3414 14 10.5688C14 10.7961 13.9097 11.0141 13.7489 11.1749C13.5882 11.3356 13.3702 11.4259 13.1429 11.4259H7.67351L8.84007 9.71162Z" fill="#0C0C0C"/>
</svg>
