<svg width="16" height="16" viewBox="0 0 16 16" fill="none" xmlns="http://www.w3.org/2000/svg">
<path fill-rule="evenodd" clip-rule="evenodd" d="M13.1429 8C13.1429 10.8403 10.8403 13.1429 8 13.1429C6.81155 13.1429 5.71725 12.7397 4.84638 12.0628L5.02602 11.8831L11.8831 5.02601L12.0628 4.84638C12.7397 5.71725 13.1429 6.81155 13.1429 8ZM3.93724 11.1536L4.11688 10.974L10.974 4.11687L11.1536 3.93724C10.2828 3.26027 9.18846 2.85714 8 2.85714C5.15968 2.85714 2.85714 5.15968 2.85714 8C2.85714 9.18846 3.26027 10.2828 3.93724 11.1536ZM14 8C14 11.3137 11.3137 14 8 14C4.68629 14 2 11.3137 2 8C2 4.68629 4.68629 2 8 2C11.3137 2 14 4.68629 14 8Z" fill="#0C0C0C"/>
</svg>
