<svg width="16" height="16" viewBox="0 0 16 16" fill="none" xmlns="http://www.w3.org/2000/svg">
<path fill-rule="evenodd" clip-rule="evenodd" d="M13.1304 10.0652C13.1304 11.7581 11.7581 13.1304 10.0652 13.1304C8.37234 13.1304 7 11.7581 7 10.0652C7 8.37235 8.37234 7 10.0652 7C11.7581 7 13.1304 8.37235 13.1304 10.0652ZM12.5646 13.2716C11.8751 13.8098 11.0076 14.1304 10.0652 14.1304C7.82006 14.1304 6 12.3104 6 10.0652C6 7.82006 7.82006 6 10.0652 6C12.3104 6 14.1304 7.82006 14.1304 10.0652C14.1304 11.0076 13.8098 11.875 13.2717 12.5645L14.8536 14.1464C15.0488 14.3416 15.0488 14.6582 14.8536 14.8535C14.6583 15.0487 14.3417 15.0487 14.1464 14.8535L12.5646 13.2716Z" fill="#0C0C0C"/>
<path fill-rule="evenodd" clip-rule="evenodd" d="M4 13.5C3.68201 13.5 3.5 13.2734 3.5 13.0833V2.91667C3.5 2.72661 3.68201 2.5 4 2.5H12C12.318 2.5 12.5 2.72661 12.5 2.91667V5C12.5 5.27614 12.7239 5.5 13 5.5C13.2761 5.5 13.5 5.27614 13.5 5V2.91667C13.5 2.0942 12.7866 1.5 12 1.5H4C3.21342 1.5 2.5 2.0942 2.5 2.91667V13.0833C2.5 13.9058 3.21342 14.5 4 14.5H5.5C5.77614 14.5 6 14.2761 6 14C6 13.7239 5.77614 13.5 5.5 13.5H4Z" fill="#0C0C0C"/>
</svg>
