<svg width="16" height="16" viewBox="0 0 16 16" fill="none" xmlns="http://www.w3.org/2000/svg">
<path d="M6.3024 2.5C6.57854 2.5 6.8024 2.27614 6.8024 2C6.8024 1.72386 6.57854 1.5 6.3024 1.5V2.5ZM13 13.1141L12.5 13.1141V13.1141H13ZM13.5 10.1343C13.5 9.85811 13.2761 9.63426 13 9.63426C12.7239 9.63426 12.5 9.85811 12.5 10.1343L13.5 10.1343ZM6 10H5.5C5.5 10.2761 5.72386 10.5 6 10.5V10ZM6 7.5L5.64645 7.14645C5.55268 7.24022 5.5 7.36739 5.5 7.5H6ZM11.2929 2.20711L10.9393 1.85355V1.85355L11.2929 2.20711ZM12.7071 2.20711L13.0607 1.85355L13.0607 1.85355L12.7071 2.20711ZM13.7929 3.2929L13.4393 3.64645V3.64645L13.7929 3.2929ZM13.7929 4.70711L13.4393 4.35355L13.4393 4.35355L13.7929 4.70711ZM8.5 10V10.5C8.63261 10.5 8.75978 10.4473 8.85355 10.3536L8.5 10ZM3.5 13.1141V2.88592H2.5V13.1141H3.5ZM4 13.5C3.66521 13.5 3.5 13.272 3.5 13.1141H2.5C2.5 13.9347 3.23022 14.5 4 14.5V13.5ZM3.5 2.88592C3.5 2.72799 3.66521 2.5 4 2.5V1.5C3.23022 1.5 2.5 2.06529 2.5 2.88592H3.5ZM4 2.5H6.3024V1.5H4V2.5ZM12.5 13.1141C12.5 13.272 12.3348 13.5 12 13.5V14.5C12.7698 14.5 13.5 13.9347 13.5 13.1141H12.5ZM13.5 13.1141L13.5 10.1343L12.5 10.1343L12.5 13.1141L13.5 13.1141ZM6.5 10V7.5H5.5V10H6.5ZM6.35355 7.85355L10.3536 3.85355L9.64645 3.14645L5.64645 7.14645L6.35355 7.85355ZM10.3536 3.85355L11.6464 2.56066L10.9393 1.85355L9.64645 3.14645L10.3536 3.85355ZM12.3536 2.56066L13.4393 3.64645L14.1464 2.93934L13.0607 1.85355L12.3536 2.56066ZM13.4393 4.35355L12.1464 5.64645L12.8536 6.35355L14.1464 5.06066L13.4393 4.35355ZM12.1464 5.64645L8.14645 9.64645L8.85355 10.3536L12.8536 6.35355L12.1464 5.64645ZM8.5 9.5H6V10.5H8.5V9.5ZM9.64645 3.85355L12.1464 6.35355L12.8536 5.64645L10.3536 3.14645L9.64645 3.85355ZM13.4393 3.64645C13.6346 3.84171 13.6346 4.15829 13.4393 4.35355L14.1464 5.06066C14.7322 4.47488 14.7322 3.52513 14.1464 2.93934L13.4393 3.64645ZM11.6464 2.56066C11.8417 2.3654 12.1583 2.3654 12.3536 2.56066L13.0607 1.85355C12.4749 1.26777 11.5251 1.26777 10.9393 1.85355L11.6464 2.56066ZM12 13.5H4V14.5H12V13.5Z" fill="#0C0C0C"/>
</svg>
