<svg width="16" height="16" viewBox="0 0 16 16" fill="none" xmlns="http://www.w3.org/2000/svg">
<path d="M12.5 7.99973C12.4997 8.27587 12.7233 8.49996 12.9995 8.50024C13.2756 8.50053 13.4997 8.27691 13.5 8.00076L12.5 7.99973ZM13.0052 2.99484L13.5052 2.99536L13.5057 2.49433L13.0047 2.49484L13.0052 2.99484ZM7.99948 2.49998C7.72334 2.50027 7.49971 2.72435 7.5 3.0005C7.50028 3.27664 7.72437 3.50027 8.00051 3.49998L7.99948 2.49998ZM4.5 3.5C4.77614 3.5 5 3.27614 5 3C5 2.72386 4.77614 2.5 4.5 2.5V3.5ZM13.5 11.5C13.5 11.2239 13.2761 11 13 11C12.7239 11 12.5 11.2239 12.5 11.5H13.5ZM6.64645 8.64645C6.45118 8.84171 6.45118 9.15829 6.64645 9.35355C6.84171 9.54882 7.15829 9.54882 7.35355 9.35355L6.64645 8.64645ZM12.8536 3.85355C13.0488 3.65829 13.0488 3.34171 12.8536 3.14645C12.6583 2.95119 12.3417 2.95119 12.1464 3.14645L12.8536 3.85355ZM13.5 8.00076L13.5052 2.99536L12.5052 2.99432L12.5 7.99973L13.5 8.00076ZM13.0047 2.49484L7.99948 2.49998L8.00051 3.49998L13.0057 3.49484L13.0047 2.49484ZM4.5 2.5H3.5V3.5H4.5V2.5ZM2 4V12.5H3V4H2ZM3.5 14H12V13H3.5V14ZM13.5 12.5V11.5H12.5V12.5H13.5ZM12 14C12.8284 14 13.5 13.3284 13.5 12.5H12.5C12.5 12.7761 12.2761 13 12 13V14ZM2 12.5C2 13.3284 2.67157 14 3.5 14V13C3.22386 13 3 12.7761 3 12.5H2ZM3.5 2.5C2.67157 2.5 2 3.17157 2 4H3C3 3.72386 3.22386 3.5 3.5 3.5V2.5ZM7.35355 9.35355L12.8536 3.85355L12.1464 3.14645L6.64645 8.64645L7.35355 9.35355Z" fill="#0C0C0C"/>
</svg>
