<svg width="16" height="16" viewBox="0 0 16 16" fill="none" xmlns="http://www.w3.org/2000/svg">
<path fill-rule="evenodd" clip-rule="evenodd" d="M4 1C2.34315 1 1 2.34315 1 4V12C1 13.6569 2.34315 15 4 15H12C13.6569 15 15 13.6569 15 12V4C15 2.34315 13.6569 1 12 1H4ZM12 5.7144V4C12 3.44773 10.2091 3 8 3C5.79093 3 4 3.44773 4 4V5.7144C4 6.26639 5.79093 6.71439 8 6.71439C10.2091 6.71439 12 6.26639 12 5.7144ZM8 7.37146C6.188 7.37146 4.65733 7.07039 4.1656 6.65706C4.05787 6.74773 4 6.84346 4 6.94293V8.65706C4 9.20932 5.79093 9.65706 8 9.65706C10.2091 9.65706 12 9.20932 12 8.65706V6.94293C12 6.84373 11.9421 6.74773 11.8344 6.65706C11.3427 7.07013 9.812 7.37146 8 7.37146ZM4.1656 9.66692C4.65733 10.08 6.188 10.3813 8 10.3813C9.812 10.3813 11.3427 10.0797 11.8344 9.66666C11.9421 9.75732 12 9.85306 12 9.95226V11.6667C12 12.2189 10.2091 12.6667 8 12.6667C5.79093 12.6667 4 12.2189 4 11.6667V9.95252C4 9.85359 4.05787 9.75759 4.1656 9.66692Z" fill="#0C0C0C"/>
</svg>
