<svg width="16" height="16" viewBox="0 0 16 16" fill="none" xmlns="http://www.w3.org/2000/svg">
<path fill-rule="evenodd" clip-rule="evenodd" d="M15 8C15 11.866 11.866 15 8 15C4.13401 15 1 11.866 1 8C1 4.13401 4.13401 1 8 1C11.866 1 15 4.13401 15 8ZM6.5 5.25C6.91421 5.25 7.25 5.58579 7.25 6V10C7.25 10.4142 6.91421 10.75 6.5 10.75C6.08579 10.75 5.75 10.4142 5.75 10V6C5.75 5.58579 6.08579 5.25 6.5 5.25ZM10.25 6C10.25 5.58579 9.91421 5.25 9.5 5.25C9.08579 5.25 8.75 5.58579 8.75 6V10C8.75 10.4142 9.08579 10.75 9.5 10.75C9.91421 10.75 10.25 10.4142 10.25 10V6Z" fill="#0C0C0C"/>
</svg>
