<svg width="16" height="16" viewBox="0 0 16 16" fill="none" xmlns="http://www.w3.org/2000/svg">
<path fill-rule="evenodd" clip-rule="evenodd" d="M8.59801 1.43524C8.93041 0.859638 9.66643 0.662366 10.2421 0.994726L13.8981 3.10549C14.4737 3.43782 14.671 4.17391 14.3386 4.74963C14.3386 4.74964 14.3386 4.74961 14.3386 4.74963L10.7189 11.0192L12.1139 11.8246C12.353 11.9626 12.435 12.2684 12.2969 12.5076C12.1588 12.7467 11.853 12.8286 11.6139 12.6906L7.78162 10.478L5.21727 14.9196C5.0792 15.1588 4.7734 15.2407 4.53426 15.1026C4.29511 14.9646 4.21317 14.6588 4.35124 14.4196L6.91559 9.97804L3.08333 7.76544C2.84419 7.62737 2.76225 7.32157 2.90032 7.08243C3.0384 6.84328 3.34419 6.76135 3.58334 6.89942L4.9783 7.70482L8.59801 1.43524ZM5.84432 8.20482L7.8486 9.36202L9.85286 10.5192L13.4726 4.24962C13.5288 4.1523 13.4955 4.02776 13.3981 3.97152L9.74215 1.86076C9.74214 1.86076 9.74215 1.86077 9.74215 1.86076C9.64479 1.80457 9.5203 1.83787 9.46402 1.93528C9.46401 1.93529 9.46402 1.93526 9.46402 1.93528L5.84432 8.20482Z" fill="#0C0C0C"/>
</svg>
