<svg width="16" height="16" viewBox="0 0 16 16" fill="none" xmlns="http://www.w3.org/2000/svg">
<path fill-rule="evenodd" clip-rule="evenodd" d="M12.5 2C11.6716 2 11 2.67157 11 3.5C11 4.32843 11.6716 5 12.5 5C13.3284 5 14 4.32843 14 3.5C14 2.67157 13.3284 2 12.5 2ZM13 5.94999C14.1411 5.71836 15 4.70948 15 3.5C15 2.11929 13.8807 1 12.5 1C11.1193 1 10 2.11929 10 3.5C10 4.70948 10.8589 5.71836 12 5.94999V10.25C12 11.2165 11.2165 12 10.25 12C9.2835 12 8.5 11.2165 8.5 10.25V5.8005C8.5 4.30549 7.30566 3.08435 5.81103 3.05117C4.26873 3.01694 3 4.25782 3 5.8005V10.05C1.85888 10.2816 1 11.2905 1 12.5C1 13.8807 2.11929 15 3.5 15C4.88071 15 6 13.8807 6 12.5C6 11.2905 5.14112 10.2816 4 10.05V5.8005C4 4.8188 4.80738 4.02914 5.78883 4.05093C6.73997 4.07204 7.5 4.84913 7.5 5.8005V10.25C7.5 11.7688 8.73122 13 10.25 13C11.7688 13 13 11.7688 13 10.25V5.94999ZM3.5 11C2.67157 11 2 11.6716 2 12.5C2 13.3284 2.67157 14 3.5 14C4.32843 14 5 13.3284 5 12.5C5 11.6716 4.32843 11 3.5 11Z" fill="#0C0C0C"/>
</svg>
