<svg width="16" height="16" viewBox="0 0 16 16" fill="none" xmlns="http://www.w3.org/2000/svg">
<path fill-rule="evenodd" clip-rule="evenodd" d="M14 8C14 11.3137 11.3137 14 8 14C4.68629 14 2 11.3137 2 8C2 4.68629 4.68629 2 8 2C11.3137 2 14 4.68629 14 8ZM15 8C15 11.866 11.866 15 8 15C4.13401 15 1 11.866 1 8C1 4.13401 4.13401 1 8 1C11.866 1 15 4.13401 15 8ZM6.72361 5.36179L11.1056 7.55278C11.4741 7.73705 11.4741 8.26295 11.1056 8.44721L6.72361 10.6382C6.39116 10.8044 6 10.5627 6 10.191V5.809C6 5.43731 6.39116 5.19556 6.72361 5.36179Z" fill="#0C0C0C"/>
</svg>
