<svg width="16" height="16" viewBox="0 0 16 16" fill="none" xmlns="http://www.w3.org/2000/svg">
<path d="M2.34315 7.49995C2.067 7.49995 1.84315 7.7238 1.84315 7.99995C1.84315 8.27609 2.067 8.49995 2.34315 8.49995L7.49999 8.49995L7.49999 13.6568C7.49999 13.9329 7.72385 14.1568 7.99999 14.1568C8.27614 14.1568 8.49999 13.9329 8.5 13.6568L8.49999 8.49995L13.6569 8.49995C13.933 8.49995 14.1569 8.27609 14.1569 7.99995C14.1569 7.72381 13.933 7.49995 13.6569 7.49995L8.49999 7.49995L8.49999 2.3431C8.49999 2.06696 8.27614 1.8431 7.99999 1.8431C7.72385 1.8431 7.49999 2.06696 7.49999 2.3431L7.49999 7.49995L2.34315 7.49995Z" fill="#0C0C0C"/>
</svg>
