<svg width="16" height="16" viewBox="0 0 16 16" fill="none" xmlns="http://www.w3.org/2000/svg">
<path d="M4.11765 10.1176C5.28719 10.1176 6.23529 10.9867 6.23529 12.0588C6.23529 13.1309 5.28719 14 4.11765 14C2.9481 14 2 13.1309 2 12.0588C2 10.9867 2.9481 10.1176 4.11765 10.1176Z" fill="#0C0C0C"/>
<path d="M8 3C9.16954 3 10.1176 3.86909 10.1176 4.94118C10.1176 6.01326 9.16954 6.88235 8 6.88235C6.83046 6.88235 5.88235 6.01326 5.88235 4.94118C5.88235 3.86909 6.83046 3 8 3Z" fill="#0C0C0C"/>
<path d="M11.8824 10.1176C13.0519 10.1176 14 10.9867 14 12.0588C14 13.1309 13.0519 14 11.8824 14C10.7128 14 9.76471 13.1309 9.76471 12.0588C9.76471 10.9867 10.7128 10.1176 11.8824 10.1176Z" fill="#0C0C0C"/>
</svg>
