<svg width="16" height="16" viewBox="0 0 16 16" fill="none" xmlns="http://www.w3.org/2000/svg">
<path fill-rule="evenodd" clip-rule="evenodd" d="M4.5 5H2.75C2.47386 5 2.25 5.22386 2.25 5.5V10.5C2.25 10.7761 2.47386 11 2.75 11H4.5H8H11.5H13.25C13.5261 11 13.75 10.7761 13.75 10.5V5.5C13.75 5.22386 13.5261 5 13.25 5H11.5H8H4.5ZM11 4H8.5V2.5C8.5 2.22386 8.27614 2 8 2C7.72386 2 7.5 2.22386 7.5 2.5V4H5V2.5C5 2.22386 4.77614 2 4.5 2C4.22386 2 4 2.22386 4 2.5V4H2.75C1.92157 4 1.25 4.67157 1.25 5.5V10.5C1.25 11.3284 1.92157 12 2.75 12H4L4 13.5C4 13.7761 4.22386 14 4.5 14C4.77614 14 5 13.7761 5 13.5L5 12H7.5V13.5C7.5 13.7761 7.72386 14 8 14C8.27614 14 8.5 13.7761 8.5 13.5V12H11V13.5C11 13.7761 11.2239 14 11.5 14C11.7761 14 12 13.7761 12 13.5V12H13.25C14.0784 12 14.75 11.3284 14.75 10.5V5.5C14.75 4.67157 14.0784 4 13.25 4H12V2.5C12 2.22386 11.7761 2 11.5 2C11.2239 2 11 2.22386 11 2.5V4Z" fill="#0C0C0C"/>
</svg>
