<svg width="16" height="16" viewBox="0 0 16 16" fill="none" xmlns="http://www.w3.org/2000/svg">
<path fill-rule="evenodd" clip-rule="evenodd" d="M3.80135 6.32534C4.90859 4.10033 7.60991 3.19421 9.83491 4.30145C10.1883 4.47731 10.6447 4.80587 11.0778 5.18821C11.3898 5.46361 11.6693 5.74888 11.8763 6.00005L9.99995 6.00005C9.72381 6.00005 9.49995 6.22391 9.49995 6.50005C9.49995 6.77619 9.72381 7.00005 9.99995 7.00005H13C13.1326 7.00005 13.2597 6.94737 13.3535 6.85361C13.4473 6.75984 13.5 6.63266 13.5 6.50005V3.50005C13.5 3.22391 13.2761 3.00005 13 3.00005C12.7238 3.00005 12.5 3.22391 12.5 3.50005V5.19121C12.2743 4.93681 12.011 4.67807 11.7396 4.43851C11.2727 4.02634 10.7424 3.63606 10.2804 3.40618C7.56098 2.05288 4.25937 3.16037 2.90607 5.87982C1.55278 8.59927 2.66026 11.9009 5.37971 13.2542C8.12525 14.6205 11.1077 13.4153 12.4476 10.7228C12.5706 10.4755 12.4699 10.1754 12.2227 10.0524C11.9755 9.92933 11.6753 10.03 11.5523 10.2772C10.4317 12.5292 8.02415 13.4532 5.82523 12.3589C3.60023 11.2517 2.6941 8.55034 3.80135 6.32534Z" fill="#0C0C0C"/>
</svg>
