<svg width="16" height="16" viewBox="0 0 16 16" fill="none" xmlns="http://www.w3.org/2000/svg">
<path fill-rule="evenodd" clip-rule="evenodd" d="M3.80141 6.32535C4.90865 4.10035 7.60997 3.19423 9.83497 4.30147C10.1884 4.47733 10.6448 4.80588 11.0779 5.18823C11.3899 5.46363 11.6694 5.74889 11.8763 6.00007L10 6.00007C9.72387 6.00007 9.50001 6.22392 9.50001 6.50007C9.50001 6.77621 9.72387 7.00007 10 7.00007H13C13.1326 7.00007 13.2598 6.94739 13.3536 6.85362C13.4473 6.75985 13.5 6.63268 13.5 6.50007V3.50007C13.5 3.22392 13.2762 3.00007 13 3.00007C12.7239 3.00007 12.5 3.22392 12.5 3.50007L12.5 5.19122C12.2744 4.93682 12.0111 4.67809 11.7397 4.43853C11.2727 4.02635 10.7424 3.63608 10.2805 3.4062C7.56104 2.0529 4.25943 3.16039 2.90613 5.87983C1.55284 8.59928 2.66032 11.9009 5.37977 13.2542C8.12531 14.6205 11.1077 13.4153 12.4476 10.7228C12.5707 10.4755 12.47 10.1754 12.2228 10.0524C11.9755 9.92935 11.6754 10.03 11.5524 10.2773C10.4317 12.5292 8.02421 13.4532 5.82529 12.3589C3.60029 11.2517 2.69416 8.55036 3.80141 6.32535Z" fill="#0C0C0C"/>
</svg>
