<svg width="16" height="16" viewBox="0 0 16 16" fill="none" xmlns="http://www.w3.org/2000/svg">
<path fill-rule="evenodd" clip-rule="evenodd" d="M10.0993 4.06557C7.87432 2.95833 5.173 3.86445 4.06576 6.08945C3.94273 6.33668 3.64259 6.43736 3.39537 6.31433C3.14814 6.1913 3.04746 5.89116 3.17049 5.64393C4.52379 2.92448 7.8254 1.817 10.5448 3.17029C11.0014 3.39749 11.5873 3.80947 12.1105 4.24421C12.4267 4.50691 12.7406 4.79496 13 5.07443V3.50001C13 3.22386 13.2239 3.00001 13.5 3.00001C13.7761 3.00001 14 3.22386 14 3.50001L14 6.50001C14 6.63262 13.9473 6.75979 13.8536 6.85356C13.7598 6.94733 13.6326 7.00001 13.5 7.00001H10.5C10.2239 7.00001 10 6.77615 10 6.50001C10 6.22386 10.2239 6.00001 10.5 6.00001H12.479C12.26 5.72204 11.8946 5.36496 11.4714 5.01333C10.9767 4.60226 10.4581 4.24412 10.0993 4.06557ZM5.90068 11.9344C8.12568 13.0417 10.827 12.1356 11.9342 9.91056C12.0573 9.66334 12.3574 9.56266 12.6046 9.68569C12.8519 9.80871 12.9525 10.1089 12.8295 10.3561C11.4762 13.0755 8.17461 14.183 5.45516 12.8297C4.9864 12.5964 4.39415 12.142 3.87529 11.6769C3.56173 11.3959 3.25401 11.092 3 10.8057L3 12.5C3 12.7761 2.77614 13 2.5 13C2.22386 13 2 12.7761 2 12.5V9.49995C2 9.36734 2.05268 9.24017 2.14645 9.1464C2.24021 9.05263 2.36739 8.99995 2.5 8.99995L5.5 8.99995C5.77614 8.99995 6 9.22381 6 9.49995C6 9.7761 5.77614 9.99995 5.5 9.99995L3.62574 9.99995C3.85287 10.2731 4.17904 10.6063 4.54277 10.9323C5.04183 11.3796 5.5541 11.762 5.90068 11.9344Z" fill="#0C0C0C"/>
</svg>
