<svg width="16" height="16" viewBox="0 0 16 16" fill="none" xmlns="http://www.w3.org/2000/svg">
<path fill-rule="evenodd" clip-rule="evenodd" d="M13.6189 1.87185C13.8514 1.89767 14.0348 2.08115 14.0607 2.31357L14.1488 3.10713C14.3333 4.76772 13.753 6.42215 12.5716 7.60359L11.6189 8.55628L11.7557 8.87551C12.3194 10.191 12.0255 11.7171 11.0135 12.7291L9.62132 14.1213C9.504 14.2386 9.33613 14.2901 9.17321 14.2587C9.01029 14.2274 8.87355 14.1172 8.80819 13.9647L7.74753 11.4899C7.73041 11.4499 7.71883 11.4086 7.71259 11.3669L4.43938 8.0937L2.05305 7.07098C1.90055 7.00563 1.7904 6.86888 1.75903 6.70596C1.72765 6.54305 1.77914 6.37518 1.89645 6.25786L3.28868 4.86563C4.30066 3.85365 5.82682 3.55974 7.14227 4.1235L7.43914 4.25073L8.32892 3.36095C9.51036 2.17951 11.1648 1.59917 12.8254 1.78368L13.6189 1.87185ZM13.1109 2.82156L12.7149 2.77756C11.3563 2.6266 10.0027 3.10142 9.03602 4.06806L5.43199 7.67209L8.26041 10.5005L11.8644 6.89648C12.8311 5.92985 13.3059 4.57623 13.1549 3.21756L13.1109 2.82156ZM11.4424 5.90435C11.0519 6.29488 10.4187 6.29488 10.0282 5.90435C9.63766 5.51383 9.63766 4.88066 10.0282 4.49014C10.4187 4.09961 11.0519 4.09961 11.4424 4.49014C11.8329 4.88066 11.8329 5.51383 11.4424 5.90435ZM2.95711 12.9754C3.11557 13.1339 4.8462 13.2077 5.43199 12.6219C6.01777 12.0361 6.01777 11.0863 5.43199 10.5006C4.8462 9.91476 3.89645 9.91476 3.31067 10.5006C2.72488 11.0863 2.79866 12.817 2.95711 12.9754ZM6.67664 5.01321C5.75373 4.65093 4.70031 4.86821 3.99578 5.57274L3.12577 6.44275L4.6107 7.07915L6.67664 5.01321ZM10.866 9.34114L8.80003 11.4071L9.43642 12.892L10.3064 12.022C11.011 11.3175 11.2283 10.264 10.866 9.34114Z" fill="#0C0C0C"/>
</svg>
