<svg width="16" height="16" viewBox="0 0 16 16" fill="none" xmlns="http://www.w3.org/2000/svg">
<path fill-rule="evenodd" clip-rule="evenodd" d="M12.9497 3.05025C15.6834 5.78392 15.6834 10.2161 12.9497 12.9497C10.2161 15.6834 5.78392 15.6834 3.05025 12.9497C0.316582 10.2161 0.316583 5.78392 3.05025 3.05025C5.78392 0.316582 10.2161 0.316583 12.9497 3.05025ZM11.1548 10.234H10.3956L8.76874 7.83888C9.60252 7.59711 10.1403 7.0277 10.1403 6.13066C10.1403 4.97152 9.17094 4.49701 8.12703 4.49701C7.85815 4.49701 7.58644 4.52865 7.31473 4.56028C7.04302 4.59192 6.77131 4.62355 6.50242 4.62355C6.14541 4.62355 5.86071 4.57158 5.53308 4.49701V5.05512L6.39848 5.16132V10.234H5.53308V10.8237H8.05247V10.234H7.05149V7.94508H8.07506L9.99568 10.8237H11.1548V10.234ZM7.60056 7.38697L7.05149 7.37567V5.16132C7.43109 5.11839 7.79036 5.08676 8.13833 5.08676C8.87494 5.08676 9.45565 5.40309 9.45565 6.20523C9.45565 6.89213 8.94047 7.40731 7.60056 7.38697Z" fill="#0C0C0C"/>
</svg>
