<svg width="16" height="16" viewBox="0 0 16 16" fill="none" xmlns="http://www.w3.org/2000/svg">
<path d="M9.95503 4.51032C9.35776 4.17571 8.68461 4 8 4L8 8L4.761 10.3471C5.16271 10.9015 5.69998 11.3434 6.32139 11.6307C6.9428 11.918 7.62755 12.041 8.3101 11.988C8.99265 11.9349 9.65015 11.7075 10.2197 11.3276C10.7892 10.9477 11.2517 10.428 11.5629 9.81819C11.8741 9.20839 12.0235 8.52893 11.997 7.84483C11.9704 7.16074 11.7687 6.49491 11.4112 5.91107C11.0537 5.32723 10.5523 4.84493 9.95503 4.51032Z" fill="#0C0C0C"/>
<path fill-rule="evenodd" clip-rule="evenodd" d="M15 8C15 11.866 11.866 15 8 15C4.13401 15 1 11.866 1 8C1 4.13401 4.13401 1 8 1C11.866 1 15 4.13401 15 8ZM14 8C14 11.3137 11.3137 14 8 14C4.68629 14 2 11.3137 2 8C2 4.68629 4.68629 2 8 2C11.3137 2 14 4.68629 14 8Z" fill="#0C0C0C"/>
</svg>
