<svg width="16" height="16" viewBox="0 0 16 16" fill="none" xmlns="http://www.w3.org/2000/svg">
<path d="M8 10C9.10457 10 10 9.10457 10 8C10 6.89543 9.10457 6 8 6C6.89543 6 6 6.89543 6 8C6 9.10457 6.89543 10 8 10Z" fill="#0C0C0C"/>
<path fill-rule="evenodd" clip-rule="evenodd" d="M2.39589 8.86246L1.85075 9.18224C1.37901 9.45897 1.21709 10.0633 1.48729 10.5388L2.56598 12.4371C2.84149 12.922 3.46037 13.0878 3.94138 12.8056L4.42715 12.5207C5.0938 12.1296 5.93313 12.6103 5.93313 13.3832V14C5.93313 14.5523 6.38084 15 6.93313 15H9.06688C9.61917 15 10.0669 14.5523 10.0669 14V13.3831C10.0669 12.6103 10.9062 12.1295 11.5729 12.5206L12.0586 12.8055C12.5396 13.0877 13.1585 12.9219 13.434 12.437L14.5127 10.5388C14.7829 10.0633 14.621 9.45889 14.1492 9.18217L13.6042 8.86246C12.9455 8.47607 12.9455 7.52376 13.6042 7.13737L14.1492 6.81766C14.621 6.54094 14.7829 5.93657 14.5127 5.46106L13.434 3.56279C13.1585 3.07793 12.5396 2.91212 12.0586 3.19429L11.5729 3.47924C10.9062 3.87029 10.0669 3.38956 10.0669 2.61669V2C10.0669 1.44772 9.61917 1 9.06688 1H6.93313C6.38084 1 5.93313 1.44772 5.93313 2V2.61662C5.93313 3.38949 5.0938 3.87022 4.42715 3.47917L3.94138 3.19421C3.46037 2.91205 2.84149 3.07785 2.56598 3.56271L1.48729 5.46099C1.21709 5.93649 1.37901 6.54086 1.85075 6.81759L2.39589 7.13737C3.0546 7.52376 3.0546 8.47607 2.39589 8.86246ZM3.43541 11.9431L2.35673 10.0448L2.90187 9.72501C4.21927 8.95222 4.21927 7.04761 2.90187 6.27482L2.35673 5.95504L3.43541 4.05676L3.92118 4.34171C5.25447 5.12382 6.93313 4.16237 6.93313 2.61662L6.93313 2L9.06688 2V2.61669C9.06688 4.16244 10.7455 5.12389 12.0788 4.34178L12.5646 4.05684L13.6433 5.95511L13.0983 6.27482C11.7809 7.04761 11.7809 8.95222 13.0983 9.72501L13.6433 10.0447L12.5646 11.943L12.0788 11.658C10.7455 10.8759 9.06688 11.8374 9.06688 13.3831V14H6.93313V13.3832C6.93313 11.8375 5.25447 10.876 3.92118 11.6581L3.43541 11.9431Z" fill="#0C0C0C"/>
</svg>
