<svg width="16" height="16" viewBox="0 0 16 16" fill="none" xmlns="http://www.w3.org/2000/svg">
<path fill-rule="evenodd" clip-rule="evenodd" d="M12 2C11.1716 2 10.5 2.67157 10.5 3.5C10.5 4.32843 11.1716 5 12 5C12.8284 5 13.5 4.32843 13.5 3.5C13.5 2.67157 12.8284 2 12 2ZM9.5 3.5C9.5 2.11929 10.6193 1 12 1C13.3807 1 14.5 2.11929 14.5 3.5C14.5 4.88071 13.3807 6 12 6C11.205 6 10.4967 5.62891 10.0388 5.05049L6.12711 7.22363C6.20687 7.46802 6.25 7.72897 6.25 8C6.25 8.27102 6.20687 8.53197 6.12711 8.77636L10.0388 10.9495C10.4967 10.3711 11.205 10 12 10C13.3807 10 14.5 11.1193 14.5 12.5C14.5 13.8807 13.3807 15 12 15C10.6193 15 9.5 13.8807 9.5 12.5C9.5 12.2725 9.53039 12.0521 9.58732 11.8427L5.63225 9.64539C5.174 10.1692 4.50063 10.5 3.75 10.5C2.36929 10.5 1.25 9.38071 1.25 8C1.25 6.61929 2.36929 5.5 3.75 5.5C4.50063 5.5 5.17399 5.83081 5.63224 6.3546L9.58732 4.15733C9.53038 3.94788 9.5 3.72749 9.5 3.5ZM3.75 6.5C2.92157 6.5 2.25 7.17157 2.25 8C2.25 8.82843 2.92157 9.5 3.75 9.5C4.57843 9.5 5.25 8.82843 5.25 8C5.25 7.17157 4.57843 6.5 3.75 6.5ZM10.5 12.5C10.5 11.6716 11.1716 11 12 11C12.8284 11 13.5 11.6716 13.5 12.5C13.5 13.3284 12.8284 14 12 14C11.1716 14 10.5 13.3284 10.5 12.5Z" fill="#0C0C0C"/>
</svg>
