<svg width="16" height="16" viewBox="0 0 16 16" fill="none" xmlns="http://www.w3.org/2000/svg">
<path fill-rule="evenodd" clip-rule="evenodd" d="M8.00001 5.5C6.6193 5.5 5.50001 6.61929 5.50001 8C5.50001 9.38071 6.6193 10.5 8.00001 10.5C9.38072 10.5 10.5 9.38071 10.5 8C10.5 6.61929 9.38072 5.5 8.00001 5.5ZM6.50001 8C6.50001 7.17157 7.17158 6.5 8.00001 6.5C8.82844 6.5 9.50001 7.17157 9.50001 8C9.50001 8.82843 8.82844 9.5 8.00001 9.5C7.17158 9.5 6.50001 8.82843 6.50001 8Z" fill="#0C0C0C"/>
<path fill-rule="evenodd" clip-rule="evenodd" d="M8.00001 3C3.63011 3 1.41744 6.22031 0.769871 7.3604C0.54314 7.75958 0.543141 8.24042 0.769871 8.6396C1.41744 9.77969 3.63011 13 8.00001 13C12.3699 13 14.5826 9.77969 15.2302 8.6396C15.4569 8.24042 15.4569 7.75958 15.2302 7.3604C14.5826 6.22031 12.3699 3 8.00001 3ZM1.6394 7.85429C2.23665 6.80278 4.18926 4 8.00001 4C11.8108 4 13.7634 6.80277 14.3606 7.85429C14.4134 7.94719 14.4134 8.05281 14.3606 8.14571C13.7634 9.19723 11.8108 12 8.00001 12C4.18926 12 2.23665 9.19723 1.6394 8.14571C1.58663 8.05281 1.58663 7.94719 1.6394 7.85429Z" fill="#0C0C0C"/>
</svg>
