<svg width="16" height="16" viewBox="0 0 16 16" fill="none" xmlns="http://www.w3.org/2000/svg">
<path fill-rule="evenodd" clip-rule="evenodd" d="M3.875 2C3.04657 2 2.375 2.67157 2.375 3.5V5.5C2.375 5.77614 2.59886 6 2.875 6C3.15114 6 3.375 5.77614 3.375 5.5V3.5C3.375 3.22386 3.59886 3 3.875 3H6C6.27614 3 6.5 2.77614 6.5 2.5C6.5 2.22386 6.27614 2 6 2H3.875ZM9.875 2C9.59886 2 9.375 2.22386 9.375 2.5C9.375 2.77614 9.59886 3 9.875 3H12C12.2761 3 12.5 3.22386 12.5 3.5V5.5C12.5 5.77614 12.7239 6 13 6C13.2761 6 13.5 5.77614 13.5 5.5V3.5C13.5 2.67157 12.8284 2 12 2H9.875ZM3.375 10.5C3.375 10.2239 3.15114 10 2.875 10C2.59886 10 2.375 10.2239 2.375 10.5V12.5C2.375 13.3284 3.04657 14 3.875 14H6C6.27614 14 6.5 13.7761 6.5 13.5C6.5 13.2239 6.27614 13 6 13H3.875C3.59886 13 3.375 12.7761 3.375 12.5V10.5ZM13.5 10.5C13.5 10.2239 13.2761 10 13 10C12.7239 10 12.5 10.2239 12.5 10.5V12.5C12.5 12.7761 12.2761 13 12 13H9.875C9.59886 13 9.375 13.2239 9.375 13.5C9.375 13.7761 9.59886 14 9.875 14H12C12.8284 14 13.5 13.3284 13.5 12.5V10.5ZM8 10C9.10457 10 10 9.10457 10 8C10 6.89543 9.10457 6 8 6C6.89543 6 6 6.89543 6 8C6 9.10457 6.89543 10 8 10Z" fill="#0C0C0C"/>
</svg>
