<svg width="16" height="16" viewBox="0 0 16 16" fill="none" xmlns="http://www.w3.org/2000/svg">
<path fill-rule="evenodd" clip-rule="evenodd" d="M7.85355 5.60355C8.04882 5.40829 8.04882 5.09171 7.85355 4.89645L5.35355 2.39645C5.15829 2.20118 4.84171 2.20118 4.64645 2.39645L2.14645 4.89645C1.95118 5.09171 1.95118 5.40829 2.14645 5.60355C2.34171 5.79882 2.65829 5.79882 2.85355 5.60355L4.5 3.95711V11.25C4.5 11.5261 4.72386 11.75 5 11.75C5.27614 11.75 5.5 11.5261 5.5 11.25V3.95711L7.14645 5.60355C7.34171 5.79882 7.65829 5.79882 7.85355 5.60355ZM8.14645 10.1464C7.95118 10.3417 7.95118 10.6583 8.14645 10.8536L10.6464 13.3536C10.8417 13.5488 11.1583 13.5488 11.3536 13.3536L13.8536 10.8536C14.0488 10.6583 14.0488 10.3417 13.8536 10.1464C13.6583 9.95119 13.3417 9.95119 13.1464 10.1464L11.5 11.7929V4.5C11.5 4.22386 11.2761 4 11 4C10.7239 4 10.5 4.22386 10.5 4.5V11.7929L8.85355 10.1464C8.65829 9.95119 8.34171 9.95119 8.14645 10.1464Z" fill="#0C0C0C"/>
</svg>
