<svg width="16" height="16" viewBox="0 0 16 16" fill="none" xmlns="http://www.w3.org/2000/svg">
<path d="M7.76592 2.62422C7.84702 2.40793 8.15297 2.40793 8.23408 2.62422L9.4461 5.85626C9.47916 5.94444 9.55898 6.00655 9.65257 6.01695L13.483 6.44256C13.6914 6.46571 13.7804 6.71958 13.6322 6.86781L11.097 9.40296C11.0366 9.4634 11.0112 9.55053 11.0298 9.63397L11.8723 13.4256C11.9202 13.6409 11.6861 13.8081 11.4979 13.6931L8.13038 11.6347C8.05034 11.5858 7.94965 11.5858 7.86961 11.6347L4.50208 13.6931C4.3139 13.8081 4.07981 13.6409 4.12765 13.4256L4.97023 9.63397C4.98877 9.55053 4.9634 9.4634 4.90296 9.40296L2.36781 6.86781C2.21958 6.71958 2.30863 6.46571 2.51697 6.44256L6.34743 6.01695C6.44102 6.00655 6.52084 5.94444 6.5539 5.85626L7.76592 2.62422Z" fill="#0C0C0C" stroke="#0C0C0C" stroke-width="1.5"/>
</svg>
