<svg width="16" height="16" viewBox="0 0 16 16" fill="none" xmlns="http://www.w3.org/2000/svg">
<path fill-rule="evenodd" clip-rule="evenodd" d="M1 12.1204L4.18727 4H5.35119L8.53846 12.1204H7.23243L6.57603 10.3813H2.95567L2.30603 12.1204H1ZM6.14294 9.21737L4.76923 5.54965L3.38876 9.21737H6.14294ZM14.4615 12.1185C14.7589 12.1185 15 11.8774 15 11.58C15 11.2826 14.7589 11.0416 14.4615 11.0416C14.1642 11.0416 13.9231 11.2826 13.9231 11.58C13.9231 11.8774 14.1642 12.1185 14.4615 12.1185ZM12.8462 11.58C12.8462 11.8774 12.6051 12.1185 12.3077 12.1185C12.0103 12.1185 11.7692 11.8774 11.7692 11.58C11.7692 11.2826 12.0103 11.0416 12.3077 11.0416C12.6051 11.0416 12.8462 11.2826 12.8462 11.58ZM10.1538 12.1185C10.4512 12.1185 10.6923 11.8774 10.6923 11.58C10.6923 11.2826 10.4512 11.0416 10.1538 11.0416C9.85646 11.0416 9.61539 11.2826 9.61539 11.58C9.61539 11.8774 9.85646 12.1185 10.1538 12.1185Z" fill="#0C0C0C"/>
</svg>
