<svg width="16" height="16" viewBox="0 0 16 16" fill="none" xmlns="http://www.w3.org/2000/svg">
<path fill-rule="evenodd" clip-rule="evenodd" d="M2.5 2L13.5 2V3L2.5 3V2Z" fill="#0C0C0C"/>
<path fill-rule="evenodd" clip-rule="evenodd" d="M5 12.5C5 12.2239 5.22386 12 5.5 12H10.5C10.7761 12 11 12.2239 11 12.5C11 12.7761 10.7761 13 10.5 13H5.5C5.22386 13 5 12.7761 5 12.5Z" fill="#0C0C0C"/>
<path fill-rule="evenodd" clip-rule="evenodd" d="M8 2C8.41421 2 8.75 2.33579 8.75 2.75L8.75 12.25C8.75 12.6642 8.41421 13 8 13C7.58579 13 7.25 12.6642 7.25 12.25L7.25 2.75C7.25 2.33579 7.58579 2 8 2Z" fill="#0C0C0C"/>
<path fill-rule="evenodd" clip-rule="evenodd" d="M2.5 2C2.77614 2 3 2.22386 3 2.5L3 5.5C3 5.77614 2.77614 6 2.5 6C2.22386 6 2 5.77614 2 5.5L2 2.5C2 2.22386 2.22386 2 2.5 2Z" fill="#0C0C0C"/>
<path fill-rule="evenodd" clip-rule="evenodd" d="M13.5 2C13.7761 2 14 2.22386 14 2.5V5.5C14 5.77614 13.7761 6 13.5 6C13.2239 6 13 5.77614 13 5.5V2.5C13 2.22386 13.2239 2 13.5 2Z" fill="#0C0C0C"/>
</svg>
