<svg width="16" height="16" viewBox="0 0 16 16" fill="none" xmlns="http://www.w3.org/2000/svg">
<path fill-rule="evenodd" clip-rule="evenodd" d="M8.5 3L13 3C13.2761 3 13.5 3.22386 13.5 3.5V5.61538H8.5V3ZM7.5 3H3C2.72386 3 2.5 3.22386 2.5 3.5V5.61538H7.5V3ZM7.5 6.69231H2.5V9.30769H6.29365C6.17025 9.65083 6.0833 10.0114 6.03749 10.3846H2.5V12.5C2.5 12.7761 2.72386 13 3 13H6.41604C6.57202 13.357 6.76849 13.6923 6.99963 14H3C2.17157 14 1.5 13.3284 1.5 12.5V10.3846V10.3077V9.38462V9.30769V6.69231V6.61538V5.69231V5.61538V3.5C1.5 2.67157 2.17157 2 3 2H13C13.8284 2 14.5 2.67157 14.5 3.5V5.61538V5.69231V6.61538V6.69231V7.42928C13.5981 6.54516 12.3627 6 11 6C9.63727 6 8.40188 6.54516 7.5 7.42928V6.69231ZM15.6748 15.6749C15.3827 15.9669 14.9092 15.9669 14.6172 15.6749L13.1063 14.164C12.8293 14.3277 12.5397 14.4568 12.2375 14.5515C11.9354 14.6462 11.6206 14.6933 11.2932 14.6928C10.3489 14.6928 9.54644 14.3624 8.88568 13.7017C8.22492 13.0409 7.8943 12.2381 7.8938 11.2933C7.8933 10.3485 8.22392 9.54602 8.88568 8.88578C9.54745 8.22553 10.35 7.8949 11.2932 7.89389C12.2365 7.89289 13.0393 8.22351 13.7016 8.88578C14.3638 9.54804 14.6942 10.3506 14.6927 11.2933C14.6927 11.6207 14.6456 11.9355 14.5514 12.2376C14.4573 12.5398 14.3281 12.8294 14.1639 13.1064L15.6748 14.6172C15.9668 14.9093 15.9668 15.3828 15.6748 15.6749ZM13.7516 11.2775C13.7516 12.6317 12.6538 13.7296 11.2995 13.7296C9.94532 13.7296 8.8475 12.6317 8.8475 11.2775C8.8475 9.92329 9.94532 8.82547 11.2995 8.82547C12.6538 8.82547 13.7516 9.92329 13.7516 11.2775Z" fill="#0C0C0C"/>
</svg>
