<svg width="16" height="16" viewBox="0 0 16 16" fill="none" xmlns="http://www.w3.org/2000/svg">
<path fill-rule="evenodd" clip-rule="evenodd" d="M8.5 3L13 3C13.2761 3 13.5 3.22386 13.5 3.5V5.61538H8.5V3ZM7.5 3H3C2.72386 3 2.5 3.22386 2.5 3.5V5.61538H7.5V3ZM7.5 6.69231H2.5V9.30769H7.5L7.5 6.69231ZM7.5 10.3846H2.5V12.5C2.5 12.7761 2.72386 13 3 13H7.5V10.3846ZM8.5 13V10.3846H13.5V12.5C13.5 12.7761 13.2761 13 13 13H8.5ZM8.5 14H7.5H3C2.17157 14 1.5 13.3284 1.5 12.5V10.3846V10.3077V9.38462V9.30769V6.69231V6.61538V5.69231V5.61538V3.5C1.5 2.67157 2.17157 2 3 2H13C13.8284 2 14.5 2.67157 14.5 3.5V5.61538V5.69231V6.61538V6.69231V9.30769V9.38462V10.3077V10.3846V12.5C14.5 13.3284 13.8284 14 13 14H8.5ZM8.5 9.30769L8.5 6.69231H13.5V9.30769H8.5Z" fill="#0C0C0C"/>
</svg>
