<svg width="16" height="16" viewBox="0 0 16 16" fill="none" xmlns="http://www.w3.org/2000/svg">
<path fill-rule="evenodd" clip-rule="evenodd" d="M4.5 1.5C5.88071 1.5 7 2.61929 7 4V12C7 13.3807 5.88071 14.5 4.5 14.5H2C1.72386 14.5 1.5 14.2761 1.5 14C1.5 13.7239 1.72386 13.5 2 13.5H4.5C5.32843 13.5 6 12.8284 6 12V4C6 3.17157 5.32843 2.5 4.5 2.5H2C1.72386 2.5 1.5 2.27614 1.5 2C1.5 1.72386 1.72386 1.5 2 1.5H4.5ZM11.5 1.5C10.1193 1.5 9 2.61929 9 4V12C9 13.3807 10.1193 14.5 11.5 14.5H14C14.2761 14.5 14.5 14.2761 14.5 14C14.5 13.7239 14.2761 13.5 14 13.5H11.5C10.6716 13.5 10 12.8284 10 12V4C10 3.17157 10.6716 2.5 11.5 2.5H14C14.2761 2.5 14.5 2.27614 14.5 2C14.5 1.72386 14.2761 1.5 14 1.5H11.5ZM4.35363 5.14645C4.15837 4.95118 3.84178 4.95118 3.64652 5.14645L1.14652 7.64645L0.792969 8L1.14652 8.35355L3.64652 10.8536C3.84178 11.0488 4.15837 11.0488 4.35363 10.8536C4.54889 10.6583 4.54889 10.3417 4.35363 10.1464L2.20718 8L4.35363 5.85355C4.54889 5.65829 4.54889 5.34171 4.35363 5.14645ZM12.3536 5.14645C12.1583 4.95118 11.8417 4.95118 11.6464 5.14645C11.4512 5.34171 11.4512 5.65829 11.6464 5.85355L13.7929 8L11.6464 10.1464C11.4512 10.3417 11.4512 10.6583 11.6464 10.8536C11.8417 11.0488 12.1583 11.0488 12.3536 10.8536L14.8536 8.35355L15.2071 8L14.8536 7.64645L12.3536 5.14645Z" fill="#0C0C0C"/>
</svg>
