<svg width="16" height="16" viewBox="0 0 16 16" fill="none" xmlns="http://www.w3.org/2000/svg">
<path fill-rule="evenodd" clip-rule="evenodd" d="M1 4C1 2.61929 2.11929 1.5 3.5 1.5H6C6.27614 1.5 6.5 1.72386 6.5 2C6.5 2.27614 6.27614 2.5 6 2.5H3.5C2.67157 2.5 2 3.17157 2 4V12C2 12.8284 2.67157 13.5 3.5 13.5H6C6.27614 13.5 6.5 13.7239 6.5 14C6.5 14.2761 6.27614 14.5 6 14.5H3.5C2.11929 14.5 1 13.3807 1 12V4ZM8 2.5C7.72386 2.5 7.5 2.72386 7.5 3L7.5 13C7.5 13.2761 7.72386 13.5 8 13.5C8.27614 13.5 8.5 13.2761 8.5 13L8.5 3C8.5 2.72386 8.27614 2.5 8 2.5ZM12.5 1.5C13.8807 1.5 15 2.61929 15 4V12C15 13.3807 13.8807 14.5 12.5 14.5H10C9.72386 14.5 9.5 14.2761 9.5 14C9.5 13.7239 9.72386 13.5 10 13.5H12.5C13.3284 13.5 14 12.8284 14 12V4C14 3.17157 13.3284 2.5 12.5 2.5H10C9.72386 2.5 9.5 2.27614 9.5 2C9.5 1.72386 9.72386 1.5 10 1.5H12.5ZM3.85355 5.14645L6.35355 7.64645L6.70711 8L6.35355 8.35355L3.85355 10.8536C3.65829 11.0488 3.34171 11.0488 3.14645 10.8536C2.95118 10.6583 2.95118 10.3417 3.14645 10.1464L5.29289 8L3.14645 5.85355C2.95118 5.65829 2.95118 5.34171 3.14645 5.14645C3.34171 4.95118 3.65829 4.95118 3.85355 5.14645ZM9.64645 7.64645L12.1464 5.14645C12.3417 4.95118 12.6583 4.95118 12.8536 5.14645C13.0488 5.34171 13.0488 5.65829 12.8536 5.85355L10.7071 8L12.8536 10.1464C13.0488 10.3417 13.0488 10.6583 12.8536 10.8536C12.6583 11.0488 12.3417 11.0488 12.1464 10.8536L9.64645 8.35355L9.29289 8L9.64645 7.64645Z" fill="#0C0C0C"/>
</svg>
