<svg width="16" height="16" viewBox="0 0 16 16" fill="none" xmlns="http://www.w3.org/2000/svg">
<path fill-rule="evenodd" clip-rule="evenodd" d="M2 10V6H10V8.10002C10.3231 8.03443 10.6575 8 11 8V3C11 1.89543 10.1046 1 9 1H3C1.89543 1 1 1.89543 1 3V13C1 14.1046 1.89543 15 3 15H6.41604C6.14845 14.3875 6 13.7111 6 13C6 11.8744 6.37194 10.8357 6.99963 10H2ZM12.9749 10.0251C13.1701 10.2204 13.1701 10.537 12.9749 10.7322L11.2071 12.5L12.9749 14.2678C13.1701 14.463 13.1701 14.7796 12.9749 14.9749C12.7796 15.1702 12.463 15.1702 12.2677 14.9749L10.5 13.2071L8.73222 14.9749C8.53695 15.1701 8.22037 15.1701 8.02511 14.9749C7.82985 14.7796 7.82985 14.463 8.02511 14.2677L9.79286 12.5L8.02511 10.7323C7.82985 10.537 7.82985 10.2204 8.02511 10.0251C8.22037 9.82988 8.53695 9.82988 8.73222 10.0251L10.5 11.7929L12.2677 10.0251C12.463 9.82985 12.7796 9.82985 12.9749 10.0251Z" fill="black"/>
</svg>
