<svg width="16" height="16" viewBox="0 0 16 16" fill="none" xmlns="http://www.w3.org/2000/svg">
<path fill-rule="evenodd" clip-rule="evenodd" d="M13 3H10V6H13V3ZM10 2C9.44772 2 9 2.44772 9 3V6C9 6.55228 9.44772 7 10 7H13C13.5523 7 14 6.55228 14 6V3C14 2.44772 13.5523 2 13 2H10ZM6.35355 2.64645C6.15829 2.45118 5.84171 2.45118 5.64645 2.64645C5.45118 2.84171 5.45118 3.15829 5.64645 3.35355L6.29289 4H4C3.17157 4 2.5 4.67157 2.5 5.5V7.5C2.5 7.77614 2.72386 8 3 8C3.27614 8 3.5 7.77614 3.5 7.5V5.5C3.5 5.22386 3.72386 5 4 5H6.29289L5.64645 5.64645C5.45118 5.84171 5.45118 6.15829 5.64645 6.35355C5.84171 6.54882 6.15829 6.54882 6.35355 6.35355L7.85355 4.85355L8.20711 4.5L7.85355 4.14645L6.35355 2.64645ZM8.14645 11.8536L9.64645 13.3536C9.84171 13.5488 10.1583 13.5488 10.3536 13.3536C10.5488 13.1583 10.5488 12.8417 10.3536 12.6464L9.70711 12H12C12.8284 12 13.5 11.3284 13.5 10.5V8.5C13.5 8.22386 13.2761 8 13 8C12.7239 8 12.5 8.22386 12.5 8.5V10.5C12.5 10.7761 12.2761 11 12 11H9.70711L10.3536 10.3536C10.5488 10.1583 10.5488 9.84171 10.3536 9.64645C10.1583 9.45118 9.84171 9.45118 9.64645 9.64645L8.14645 11.1464L7.79289 11.5L8.14645 11.8536ZM3 10H6V13H3L3 10ZM2 10C2 9.44772 2.44772 9 3 9H6C6.55228 9 7 9.44772 7 10V13C7 13.5523 6.55228 14 6 14H3C2.44772 14 2 13.5523 2 13V10Z" fill="#0C0C0C"/>
</svg>
