<svg width="16" height="16" viewBox="0 0 16 16" fill="none" xmlns="http://www.w3.org/2000/svg">
<path fill-rule="evenodd" clip-rule="evenodd" d="M12.0275 6.32529C10.9203 4.10029 8.21895 3.19416 5.99395 4.30141C5.65295 4.4711 5.24542 4.79024 4.85483 5.17124C4.5725 5.44664 4.31529 5.73838 4.1148 6.00001L5.8289 6.00001C6.10505 6.00001 6.3289 6.22386 6.3289 6.50001C6.3289 6.77615 6.10505 7.00001 5.8289 7.00001H2.8289C2.6963 7.00001 2.56912 6.94733 2.47535 6.85356C2.38158 6.75979 2.3289 6.63261 2.3289 6.50001V3.50001C2.3289 3.22386 2.55276 3.00001 2.8289 3.00001C3.10505 3.00001 3.3289 3.22386 3.3289 3.50001V5.38154C3.56177 5.07878 3.84896 4.75545 4.15656 4.4554C4.58049 4.04188 5.07408 3.64219 5.54843 3.40613C8.26788 2.05284 11.5695 3.16032 12.9228 5.87977C14.2761 8.59922 13.1686 11.9008 10.4491 13.2541C7.70361 14.6204 4.72118 13.4152 3.38128 10.7227C3.25825 10.4755 3.35893 10.1753 3.60616 10.0523C3.85338 9.92929 4.15353 10.03 4.27655 10.2772C5.39719 12.5291 7.80471 13.4531 10.0036 12.3589C12.2286 11.2516 13.1348 8.5503 12.0275 6.32529Z" fill="#0C0C0C"/>
</svg>
