<svg width="16" height="16" viewBox="0 0 16 16" fill="none" xmlns="http://www.w3.org/2000/svg">
<path fill-rule="evenodd" clip-rule="evenodd" d="M12.0275 6.32529C10.9202 4.10029 8.21889 3.19416 5.99389 4.30141C5.65289 4.4711 5.24536 4.79024 4.85477 5.17124C4.57244 5.44664 4.31523 5.73838 4.11474 6.00001L5.82884 6.00001C6.10499 6.00001 6.32884 6.22386 6.32884 6.50001C6.32884 6.77615 6.10499 7.00001 5.82884 7.00001H2.82884C2.69624 7.00001 2.56906 6.94733 2.47529 6.85356C2.38152 6.75979 2.32884 6.63261 2.32884 6.50001V3.50001C2.32884 3.22386 2.5527 3.00001 2.82884 3.00001C3.10499 3.00001 3.32884 3.22386 3.32884 3.50001L3.32884 5.38154C3.56171 5.07878 3.8489 4.75545 4.1565 4.4554C4.58043 4.04188 5.07402 3.64219 5.54837 3.40613C8.26782 2.05284 11.5694 3.16032 12.9227 5.87977C14.276 8.59922 13.1685 11.9008 10.4491 13.2541C7.70355 14.6204 4.72112 13.4152 3.38122 10.7227C3.25819 10.4755 3.35887 10.1753 3.6061 10.0523C3.85332 9.92929 4.15346 10.03 4.27649 10.2772C5.39713 12.5291 7.80465 13.4531 10.0036 12.3589C12.2286 11.2516 13.1347 8.5503 12.0275 6.32529Z" fill="#0C0C0C"/>
</svg>
