<svg width="16" height="16" viewBox="0 0 16 16" fill="none" xmlns="http://www.w3.org/2000/svg">
<path fill-rule="evenodd" clip-rule="evenodd" d="M7.93124 1C6.03622 1 4.5 2.53622 4.5 4.43125V6.5H3.5C2.94772 6.5 2.5 6.94772 2.5 7.5V14C2.5 14.5523 2.94771 15 3.5 15H12.5C13.0523 15 13.5 14.5523 13.5 14V7.5C13.5 6.94772 13.0523 6.5 12.5 6.5H5.5V4.43125C5.5 3.08851 6.58851 2 7.93124 2C8.74414 2 9.50325 2.40626 9.95416 3.08263L10.084 3.27735C10.2372 3.50711 10.5476 3.5692 10.7774 3.41603C11.0071 3.26285 11.0692 2.95241 10.916 2.72265L10.7862 2.52793C10.1498 1.57336 9.07849 1 7.93124 1ZM5 7.5H3.5L3.5 14H12.5V7.5H5Z" fill="#0C0C0C"/>
</svg>
