<svg width="16" height="16" viewBox="0 0 16 16" fill="none" xmlns="http://www.w3.org/2000/svg">
<path d="M2.5 10C2.77614 10 3 10.2239 3 10.5V12.5H13V10.5C13 10.2239 13.2239 10 13.5 10C13.7761 10 14 10.2239 14 10.5V12.5C14 13.049 13.558 13.5 13.0025 13.5H2.99957C2.44673 13.5 2 13.0517 2 12.5V10.5C2 10.2239 2.22386 10 2.5 10Z" fill="#0C0C0C"/>
<path d="M11.3536 6.35356C11.5488 6.15829 11.5488 5.84171 11.3536 5.64645L8.35355 2.64645C8.25979 2.55268 8.13261 2.5 8 2.5C7.86739 2.5 7.74021 2.55268 7.64645 2.64645L4.64645 5.64645C4.45118 5.84172 4.45118 6.1583 4.64645 6.35356C4.84171 6.54882 5.15829 6.54882 5.35355 6.35356L7.5 4.20711L7.5 10C7.5 10.2761 7.72386 10.5 8 10.5C8.27614 10.5 8.5 10.2761 8.5 10L8.5 4.20711L10.6464 6.35356C10.8417 6.54882 11.1583 6.54882 11.3536 6.35356Z" fill="#0C0C0C"/>
</svg>
