<svg width="16" height="16" viewBox="0 0 16 16" fill="none" xmlns="http://www.w3.org/2000/svg">
<path fill-rule="evenodd" clip-rule="evenodd" d="M4.23531 13.0682C3.29862 12.5267 2.97363 11.928 2.97363 11.476C2.97363 11.024 3.29862 10.4253 4.23531 9.88386C5.14585 9.35751 6.47002 9 7.98681 9C9.50361 9 10.8278 9.35751 11.7383 9.88386C12.675 10.4253 13 11.024 13 11.476C13 11.928 12.675 12.5267 11.7383 13.0682C10.8278 13.5945 9.50361 13.952 7.98681 13.952C6.47002 13.952 5.14585 13.5945 4.23531 13.0682ZM1.97363 11.476C1.97363 13.3958 4.66582 14.952 7.98681 14.952C11.3078 14.952 14 13.3958 14 11.476C14 9.55626 11.3078 8 7.98681 8C4.66582 8 1.97363 9.55626 1.97363 11.476Z" fill="#0C0C0C"/>
<path fill-rule="evenodd" clip-rule="evenodd" d="M8.18734 5.90157C8.76767 5.90157 9.37468 5.36016 9.37468 4.54094V3.36063C9.37468 2.54141 8.76767 2 8.18734 2C7.60701 2 7 2.54141 7 3.36063V4.54094C7 5.36016 7.60701 5.90157 8.18734 5.90157ZM10.3747 4.54094C10.3747 5.83929 9.39038 6.90157 8.18734 6.90157C6.9843 6.90157 6 5.83929 6 4.54094V3.36063C6 2.06228 6.9843 1 8.18734 1C9.39038 1 10.3747 2.06228 10.3747 3.36063V4.54094Z" fill="#0C0C0C"/>
</svg>
