<svg width="16" height="16" viewBox="0 0 16 16" fill="none" xmlns="http://www.w3.org/2000/svg">
<path fill-rule="evenodd" clip-rule="evenodd" d="M7.20043 6.4042C6.7468 6.88404 6.12243 7.16589 5.4625 7.18875C4.8018 7.1659 4.17653 6.88434 3.72151 6.40476C3.26648 5.92517 3.01813 5.28599 3.03 4.625C3.01595 4.29258 3.06786 3.96067 3.18274 3.64842C3.29763 3.33617 3.47321 3.04976 3.69936 2.80571C3.9255 2.56167 4.19774 2.36482 4.50035 2.22654C4.80297 2.08825 5.12997 2.01126 5.4625 2C5.79428 2.01238 6.12033 2.0902 6.42194 2.22899C6.72354 2.36778 6.99475 2.5648 7.21998 2.80872C7.44521 3.05265 7.62001 3.33868 7.73435 3.65038C7.84869 3.96207 7.90031 4.29329 7.88625 4.625C7.90045 5.28517 7.65406 5.92437 7.20043 6.4042ZM6.00308 3.24478C5.83411 3.16194 5.65035 3.11357 5.4625 3.1025C5.27465 3.11357 5.09089 3.16194 4.92192 3.24478C4.75296 3.32761 4.60218 3.44326 4.47838 3.58498C4.35458 3.7267 4.26024 3.89165 4.20086 4.07021C4.14147 4.24877 4.11823 4.43737 4.1325 4.625C4.12033 4.99465 4.25222 5.35458 4.50036 5.62884C4.7485 5.9031 5.09348 6.07024 5.4625 6.095C5.83152 6.07024 6.1765 5.9031 6.42464 5.62884C6.67278 5.35458 6.80467 4.99465 6.7925 4.625C6.80677 4.43737 6.78353 4.24877 6.72414 4.07021C6.66476 3.89165 6.57042 3.7267 6.44662 3.58498C6.32282 3.44326 6.17204 3.32761 6.00308 3.24478ZM13.2035 6.85967C12.8265 7.2629 12.3054 7.50071 11.7537 7.52125C11.2037 7.49846 10.6848 7.25967 10.3096 6.85669C9.93449 6.45371 9.7334 5.91906 9.75 5.36875C9.73105 4.81695 9.93108 4.28005 10.3065 3.87517C10.6818 3.47028 11.2021 3.23028 11.7537 3.2075C12.3069 3.22802 12.8294 3.46705 13.2067 3.87218C13.5839 4.27731 13.7852 4.8155 13.7663 5.36875C13.7828 5.92052 13.5805 6.45645 13.2035 6.85967ZM12.431 4.64747C12.2593 4.44789 12.0161 4.3236 11.7537 4.30125C11.4898 4.32143 11.2445 4.44479 11.0709 4.6446C10.8973 4.84442 10.8094 5.10459 10.8263 5.36875C10.8117 5.63145 10.9007 5.88938 11.0741 6.08728C11.2474 6.28518 11.4914 6.40731 11.7537 6.4275C12.0145 6.40515 12.2563 6.28209 12.4278 6.08443C12.5993 5.88676 12.6871 5.63005 12.6725 5.36875C12.6895 5.10599 12.6028 4.84704 12.431 4.64747ZM10.1945 8.96085C10.6605 8.73165 11.1732 8.61329 11.6925 8.615C12.5459 8.59381 13.373 8.91147 13.9929 9.49851C14.6127 10.0855 14.9748 10.8942 15 11.7475V12.5V13.5H1V12.5C1.04111 11.3519 1.53217 10.266 2.36712 9.47692C3.20207 8.68781 4.3139 8.25879 5.4625 8.2825C6.13887 8.27799 6.80778 8.42405 7.42071 8.71009C8.03364 8.99612 8.57524 9.41497 9.00625 9.93625C9.32187 9.52387 9.72856 9.19005 10.1945 8.96085ZM2.09375 12.5H8.8225C8.79059 11.6404 8.41881 10.8286 7.78882 10.2429C7.15883 9.65723 6.32214 9.34552 5.4625 9.37625C4.602 9.34548 3.76436 9.65692 3.13298 10.2424C2.5016 10.8278 2.12792 11.6396 2.09375 12.5ZM9.91625 12.5H13.9062V11.7475C13.8812 11.1842 13.6344 10.6537 13.2197 10.2717C12.8049 9.88979 12.2559 9.6874 11.6925 9.70875C11.2591 9.70319 10.8336 9.82447 10.4682 10.0577C10.1029 10.2909 9.81368 10.6258 9.63625 11.0213C9.82379 11.4916 9.91886 11.9937 9.91625 12.5Z" fill="#0C0C0C"/>
</svg>
