<svg width="16" height="16" viewBox="0 0 16 16" fill="none" xmlns="http://www.w3.org/2000/svg">
<path fill-rule="evenodd" clip-rule="evenodd" d="M8.44024 2.8722C8.25145 2.5216 7.74855 2.5216 7.55976 2.8722L2.23398 12.7629C2.05461 13.0961 2.29588 13.5 2.67422 13.5H13.3258C13.7041 13.5 13.9454 13.0961 13.766 12.7629L8.44024 2.8722ZM6.67929 2.3981C7.24565 1.3463 8.75435 1.3463 9.32071 2.3981L14.6465 12.2888C15.1846 13.2882 14.4608 14.5 13.3258 14.5H2.67422C1.5392 14.5 0.815401 13.2882 1.35351 12.2888L6.67929 2.3981ZM7.49999 8.5V6C7.49999 5.72386 7.72385 5.5 7.99999 5.5C8.27614 5.5 8.49999 5.72386 8.49999 6V8.5C8.49999 8.77614 8.27613 9 7.99999 9C7.72385 9 7.49999 8.77614 7.49999 8.5ZM7.99999 12.25C8.55228 12.25 8.99999 11.8023 8.99999 11.25C8.99999 10.6977 8.55228 10.25 7.99999 10.25C7.44771 10.25 6.99999 10.6977 6.99999 11.25C6.99999 11.8023 7.44771 12.25 7.99999 12.25Z" fill="#0C0C0C"/>
</svg>
