<svg width="16" height="16" viewBox="0 0 16 16" fill="none" xmlns="http://www.w3.org/2000/svg">
<path fill-rule="evenodd" clip-rule="evenodd" d="M8.44023 2.87221C8.25144 2.52161 7.74854 2.52161 7.55976 2.87221L2.23398 12.763C2.05461 13.0961 2.29587 13.5 2.67421 13.5H13.3258C13.7041 13.5 13.9454 13.0961 13.766 12.763L8.44023 2.87221ZM6.67929 2.39811C7.24564 1.34631 8.75435 1.34631 9.3207 2.39811L14.6465 12.2889C15.1846 13.2882 14.4608 14.5 13.3258 14.5H2.67421C1.5392 14.5 0.815395 13.2882 1.3535 12.2888L6.67929 2.39811ZM7.49999 8.50001V6.00001C7.49999 5.72386 7.72384 5.50001 7.99999 5.50001C8.27613 5.50001 8.49999 5.72386 8.49999 6.00001V8.50001C8.49999 8.77615 8.27613 9.00001 7.99999 9.00001C7.72384 9.00001 7.49999 8.77615 7.49999 8.50001ZM7.99999 12.25C8.55227 12.25 8.99999 11.8023 8.99999 11.25C8.99999 10.6977 8.55227 10.25 7.99999 10.25C7.4477 10.25 6.99999 10.6977 6.99999 11.25C6.99999 11.8023 7.4477 12.25 7.99999 12.25Z" fill="#0C0C0C"/>
</svg>
