<svg width="16" height="16" viewBox="0 0 16 16" fill="none" xmlns="http://www.w3.org/2000/svg">
<path fill-rule="evenodd" clip-rule="evenodd" d="M4 1C2.34315 1 1 2.34315 1 4V12C1 13.6569 2.34315 15 4 15H12C13.6569 15 15 13.6569 15 12V4C15 2.34315 13.6569 1 12 1H4ZM7.42888 7.78867C7.10485 8.13141 6.65888 8.33274 6.1875 8.34906C5.71557 8.33274 5.26895 8.13163 4.94393 7.78907C4.61891 7.44651 4.44152 6.98995 4.45 6.51782C4.43996 6.28038 4.47704 6.0433 4.5591 5.82026C4.64116 5.59722 4.76658 5.39265 4.92811 5.21833C5.08965 5.04401 5.2841 4.90341 5.50025 4.80463C5.71641 4.70586 5.94998 4.65086 6.1875 4.64282C6.42448 4.65167 6.65738 4.70725 6.87281 4.80639C7.08825 4.90552 7.28197 5.04625 7.44284 5.22048C7.60372 5.39472 7.72858 5.59902 7.81025 5.82166C7.89192 6.0443 7.9288 6.28088 7.91875 6.51782C7.92889 6.98937 7.7529 7.44593 7.42888 7.78867ZM11.7168 8.11401C11.4475 8.40203 11.0753 8.57189 10.6812 8.58656C10.2883 8.57029 9.91768 8.39972 9.64973 8.11188C9.38178 7.82404 9.23814 7.44214 9.25 7.04907C9.23646 6.65493 9.37934 6.27143 9.64747 5.98222C9.9156 5.69302 10.2872 5.52159 10.6812 5.50532C11.0764 5.51998 11.4496 5.69071 11.7191 5.98009C11.9885 6.26947 12.1323 6.65388 12.1188 7.04907C12.1306 7.44318 11.9861 7.82599 11.7168 8.11401ZM10.6375 9.36781C10.2666 9.36658 9.90038 9.45113 9.56754 9.61484C9.23469 9.77856 8.9442 10.017 8.71875 10.3116C8.41089 9.93921 8.02403 9.64004 7.58622 9.43573C7.14841 9.23142 6.67062 9.12709 6.1875 9.13031C5.36707 9.11337 4.57291 9.41982 3.97652 9.98347C3.38012 10.5471 3.02937 11.3227 3 12.1428H13V11.6053C12.982 10.9958 12.7234 10.4182 12.2806 9.99889C11.8379 9.57958 11.2471 9.35267 10.6375 9.36781Z" fill="#0C0C0C"/>
</svg>
